<?xml version="1.0" standalone="no"?>
<!DOCTYPE svg PUBLIC "-//W3C//DTD SVG 20010904//EN"
 "http://www.w3.org/TR/2001/REC-SVG-20010904/DTD/svg10.dtd">
<svg version="1.0" xmlns="http://www.w3.org/2000/svg"
 width="1280.000000pt" height="846.000000pt" viewBox="0 0 1280.000000 846.000000"
 preserveAspectRatio="xMidYMid meet">
<g transform="translate(0.000000,846.000000) scale(0.100000,-0.100000)"
fill="#000000" stroke="none">
<path d="M8412 8132 c-79 -81 -391 -403 -695 -717 -808 -835 -1310 -1345
-1325 -1345 -7 0 -198 180 -425 400 -227 220 -738 716 -1136 1101 l-724 701
-161 -164 c-89 -90 -469 -481 -846 -871 -624 -645 -1225 -1265 -2397 -2472
-233 -239 -423 -440 -423 -445 0 -6 130 -10 364 -10 l364 0 275 283 c292 300
769 792 1661 1714 729 753 1135 1165 1146 1161 11 -4 694 -662 1020 -982 135
-133 385 -376 555 -540 171 -165 311 -305 313 -310 3 -13 -259 -286 -274 -286
-11 0 -812 770 -1292 1242 -167 164 -309 298 -315 298 -14 0 -148 -136 -1048
-1065 -379 -390 -862 -888 -1073 -1105 -212 -217 -385 -398 -385 -402 -1 -5
141 -8 315 -8 l316 0 58 58 c32 31 307 315 611 630 1000 1033 1179 1217 1193
1220 15 3 167 -141 606 -574 135 -132 338 -331 452 -440 115 -109 208 -205
208 -213 0 -8 -65 -80 -145 -160 l-144 -146 -53 51 c-29 28 -241 232 -471 453
-259 251 -422 401 -431 398 -16 -6 -1219 -1252 -1224 -1267 -3 -7 123 -10 360
-10 l364 0 263 270 c145 149 269 270 277 268 7 -2 137 -123 288 -270 l276
-268 354 0 c302 0 355 2 366 15 7 8 17 15 22 15 5 0 68 61 140 135 78 81 138
135 149 135 12 0 83 -62 173 -150 l154 -150 341 0 c189 0 341 4 341 9 0 5 -7
14 -15 21 -8 7 -15 20 -15 29 0 22 247 281 268 281 8 0 79 -62 156 -138 78
-76 158 -153 179 -170 l38 -32 409 0 c226 0 410 3 410 7 0 4 -14 22 -32 40
l-31 33 59 62 c220 235 413 428 425 428 8 -1 140 -122 294 -270 l279 -270 355
0 356 0 -90 89 c-50 48 -345 334 -656 634 l-566 545 -116 -111 c-63 -62 -247
-249 -408 -417 -161 -168 -299 -309 -307 -313 -10 -7 -58 35 -173 149 -88 87
-158 164 -157 171 5 18 1101 1152 1120 1159 10 3 28 -2 40 -11 13 -8 194 -183
403 -388 209 -205 644 -628 968 -940 l587 -567 336 0 c185 0 334 4 332 8 -1 4
-324 318 -716 697 -392 380 -923 894 -1180 1143 -257 249 -531 514 -609 588
l-142 136 -304 -309 c-166 -169 -494 -506 -727 -748 -234 -242 -430 -441 -438
-443 -13 -4 -302 263 -302 278 0 5 197 211 438 459 240 248 632 653 870 899
239 246 441 448 450 450 11 1 256 -230 649 -610 348 -337 1012 -979 1475
-1427 464 -448 913 -884 998 -968 l155 -153 410 0 409 0 -64 66 c-69 70 -1165
1133 -2609 2529 -478 462 -984 954 -1125 1093 -141 138 -262 252 -269 251 -7
0 -76 -67 -155 -147z m-1898 -3005 c80 -75 136 -136 136 -147 0 -10 -60 -80
-134 -157 l-133 -138 -144 139 c-79 77 -146 146 -147 154 -5 18 257 284 275
280 6 -2 73 -61 147 -131z"/>
<path d="M270 4015 c137 -136 401 -392 2462 -2384 464 -448 979 -949 1146
-1114 167 -164 309 -297 315 -295 7 2 147 142 312 313 164 171 347 357 405
415 58 58 410 421 783 808 373 386 679 702 681 702 7 0 607 -611 1079 -1100
776 -802 1100 -1134 1110 -1139 5 -2 84 71 176 161 91 91 423 412 736 713 314
302 743 718 955 925 212 207 646 628 965 935 319 308 728 705 909 882 l329
323 -412 0 -412 0 -292 -288 c-161 -159 -671 -655 -1135 -1103 -463 -448
-1064 -1029 -1335 -1292 -304 -295 -498 -476 -509 -475 -9 2 -227 222 -485
489 -257 267 -633 654 -834 860 -202 206 -390 400 -418 432 l-52 58 137 145
c88 92 144 144 154 142 10 -2 219 -211 466 -466 914 -942 1036 -1067 1042
-1070 4 -1 220 204 479 455 260 252 854 827 1320 1278 467 450 850 823 851
827 2 4 -147 8 -332 8 l-336 0 -712 -687 c-392 -377 -835 -807 -984 -955 -149
-147 -278 -268 -286 -268 -8 0 -108 96 -224 213 -334 338 -959 988 -962 1001
-4 16 296 326 315 326 9 0 95 -82 191 -182 260 -271 695 -708 705 -708 10 0
1297 1241 1297 1252 0 4 -158 8 -351 8 l-351 0 -274 -267 c-151 -148 -282
-269 -292 -271 -11 -1 -105 89 -276 268 l-259 270 -384 0 -384 0 -141 -146
c-78 -80 -150 -150 -162 -156 -18 -10 -35 5 -158 133 -76 79 -138 149 -138
156 0 10 -68 13 -319 13 -296 0 -320 -1 -325 -18 -3 -9 -69 -80 -146 -157
l-141 -140 -154 158 -155 157 -383 0 -384 0 -259 -270 c-142 -148 -266 -270
-274 -269 -8 0 -141 121 -295 269 l-279 270 -353 0 c-194 0 -353 -2 -353 -3 0
-8 1294 -1252 1304 -1255 7 -1 207 197 445 440 238 244 439 444 445 446 14 3
329 -313 325 -326 -5 -12 -398 -420 -852 -881 -326 -332 -328 -335 -353 -320
-13 8 -199 186 -412 395 -213 209 -649 633 -970 942 l-582 562 -336 0 c-185 0
-334 -4 -332 -8 2 -4 321 -316 711 -692 389 -377 983 -952 1320 -1278 336
-325 615 -591 619 -590 3 2 207 210 452 463 919 948 1039 1070 1055 1073 21 3
281 -267 281 -292 0 -8 -132 -150 -293 -313 -161 -164 -556 -570 -876 -903
-321 -333 -592 -609 -602 -614 -21 -10 -28 -3 -836 780 -249 242 -832 805
-1295 1253 -464 448 -913 883 -998 968 l-155 153 -410 0 -410 0 145 -145z
m6254 -344 c80 -80 137 -145 134 -153 -1 -8 -65 -80 -141 -158 l-137 -144
-140 145 c-76 79 -139 151 -139 160 -1 17 258 290 274 289 6 0 73 -62 149
-139z"/>
</g>
</svg>
