<?xml version="1.0" standalone="no"?>
<!DOCTYPE svg PUBLIC "-//W3C//DTD SVG 20010904//EN"
 "http://www.w3.org/TR/2001/REC-SVG-20010904/DTD/svg10.dtd">
<svg version="1.0" xmlns="http://www.w3.org/2000/svg"
 width="1167.000000pt" height="1280.000000pt" viewBox="0 0 1167.000000 1280.000000"
 preserveAspectRatio="xMidYMid meet">
<g transform="translate(0.000000,1280.000000) scale(0.100000,-0.100000)"
fill="#000000" stroke="none">
<path d="M5615 12779 c-353 -48 -672 -165 -941 -345 -240 -160 -490 -418 -622
-640 l-36 -61 -126 -6 c-674 -33 -1293 -388 -1664 -954 l-67 -103 -79 0 c-172
0 -425 -47 -630 -116 -423 -144 -817 -446 -1057 -812 -76 -115 -82 -125 -157
-277 -232 -466 -275 -1020 -121 -1529 41 -135 113 -310 161 -391 28 -47 34
-63 25 -75 -34 -45 -138 -278 -176 -393 -74 -227 -105 -421 -105 -662 0 -329
71 -637 214 -932 l64 -131 -58 -113 c-145 -286 -235 -652 -235 -959 0 -213 56
-516 135 -730 155 -422 446 -789 825 -1042 119 -79 342 -188 486 -237 191 -65
438 -110 600 -111 l76 0 38 -65 c65 -110 195 -275 305 -385 374 -376 854 -590
1400 -626 l105 -6 38 -65 c102 -171 304 -400 472 -533 311 -246 676 -401 1075
-455 246 -34 317 -32 610 16 447 74 856 290 1176 621 96 99 226 267 276 355
l30 53 53 0 c285 0 656 95 937 239 328 169 646 461 823 758 l36 60 124 7
c1130 60 2013 989 2015 2119 0 340 -99 737 -252 1005 l-30 52 60 118 c304 597
308 1297 12 1897 l-59 119 58 116 c183 360 269 807 223 1165 -34 265 -100 499
-201 711 -46 95 -63 122 -82 127 -29 8 -220 -8 -344 -29 -541 -89 -1021 -386
-1362 -842 -47 -63 -87 -111 -90 -108 -3 2 13 44 35 93 193 420 251 839 176
1283 -24 139 -77 315 -145 479 -33 79 -58 145 -56 147 2 3 48 -55 102 -128
363 -489 903 -797 1504 -858 130 -13 171 -13 171 1 0 16 -102 166 -173 254
-83 103 -259 273 -365 354 -183 139 -400 252 -622 325 -196 64 -457 110 -600
105 l-64 -2 -26 49 c-57 110 -162 247 -294 383 -378 390 -880 616 -1429 645
-49 2 -90 6 -91 8 -2 2 -29 44 -61 93 -294 457 -739 776 -1270 910 -271 69
-516 86 -750 54z m362 -148 c372 -506 897 -814 1503 -881 174 -20 173 -26 -6
-46 -595 -66 -1119 -362 -1479 -838 -49 -65 -91 -114 -93 -108 -1 5 16 52 39
103 138 313 197 614 186 953 -8 261 -56 489 -147 711 -22 55 -50 122 -60 148
-26 63 -11 52 57 -42z m-183 32 c-54 -122 -106 -261 -129 -338 -140 -486 -108
-980 97 -1458 27 -65 48 -121 45 -124 -3 -3 -27 25 -54 63 -130 182 -310 371
-468 490 -310 235 -681 382 -1070 424 -55 6 -104 15 -108 19 -5 5 20 12 59 15
638 58 1183 356 1553 849 77 102 102 122 75 60z m-1883 -1134 c-137 -321 -188
-588 -178 -929 9 -302 64 -541 192 -828 20 -46 34 -86 32 -89 -3 -2 -45 49
-93 114 -100 135 -271 315 -387 406 -325 257 -707 414 -1112 458 -55 6 -104
14 -109 19 -4 4 18 11 50 15 342 37 557 97 816 226 299 150 564 375 767 653
36 49 66 85 68 79 2 -5 -19 -61 -46 -124z m239 14 c344 -472 886 -786 1470
-853 160 -19 159 -25 -6 -45 -300 -37 -561 -120 -807 -256 -245 -137 -490
-350 -660 -576 -71 -95 -97 -123 -97 -108 0 3 22 57 49 118 115 267 167 496
178 782 12 328 -44 621 -178 933 -27 63 -49 116 -49 118 0 17 27 -14 100 -113z
m3690 -10 c328 -436 773 -721 1293 -827 65 -14 296 -44 347 -47 39 -1 -33 -17
-110 -24 -612 -52 -1168 -359 -1534 -847 -80 -108 -106 -138 -106 -124 0 3 20
50 44 103 142 321 196 566 196 903 0 309 -50 554 -171 840 -71 167 -69 169 41
23z m-190 92 c0 -3 -25 -62 -55 -132 -66 -155 -115 -324 -146 -498 -30 -172
-33 -482 -5 -650 33 -203 85 -381 165 -565 23 -52 40 -99 38 -104 -2 -6 -26
20 -53 58 -354 500 -872 821 -1454 901 -179 24 -186 26 -170 35 8 4 65 13 125
19 371 40 738 187 1048 418 130 98 320 290 417 421 66 89 90 115 90 97z
m-5350 -1143 c345 -474 887 -785 1488 -853 56 -7 102 -16 102 -20 0 -5 -1 -9
-3 -9 -1 0 -59 -7 -129 -15 -414 -48 -788 -204 -1109 -463 -105 -85 -271 -259
-363 -380 -43 -57 -80 -101 -82 -99 -3 3 17 58 45 123 131 314 175 528 175
859 0 174 -4 232 -23 340 -31 174 -80 343 -146 498 -30 70 -55 129 -55 132 0
18 26 -10 100 -113z m3692 -12 c213 -286 464 -495 783 -651 220 -107 478 -182
700 -205 79 -8 119 -19 95 -27 -8 -3 -74 -12 -147 -21 -388 -47 -771 -209
-1073 -453 -108 -87 -285 -272 -368 -385 -69 -92 -92 -118 -92 -102 0 4 25 66
56 138 110 256 163 495 171 772 11 336 -43 618 -178 932 -73 171 -73 171 53 2z
m3519 108 c-5 -13 -25 -57 -44 -98 -134 -291 -197 -581 -197 -903 0 -315 52
-565 181 -866 27 -63 47 -116 45 -118 -2 -3 -44 49 -92 114 -299 404 -714 686
-1191 809 -73 18 -190 41 -260 50 -197 25 -199 28 -22 49 417 52 783 203 1099
455 110 88 288 271 368 380 113 154 131 174 113 128z m-7464 -140 c-124 -297
-167 -517 -167 -838 1 -310 53 -563 177 -848 24 -57 43 -108 41 -114 -2 -6
-41 40 -87 101 -210 284 -477 507 -786 656 -246 120 -476 183 -767 210 -37 4
-70 10 -73 15 -3 5 30 11 72 15 509 42 959 241 1327 586 67 62 165 175 259
298 27 35 51 61 54 58 3 -3 -20 -66 -50 -139z m3714 34 c-120 -273 -177 -518
-188 -807 -11 -323 47 -624 181 -939 26 -59 45 -110 42 -113 -2 -3 -43 47 -89
110 -96 129 -244 288 -358 383 -309 257 -705 428 -1114 478 -172 21 -169 26
30 50 569 68 1089 368 1440 830 49 65 91 114 93 108 1 -5 -15 -50 -37 -100z
m-5308 -1055 c109 -144 215 -257 336 -358 318 -267 702 -434 1111 -484 137
-16 166 -22 159 -30 -3 -2 -65 -11 -138 -20 -604 -70 -1124 -365 -1479 -838
-70 -92 -92 -117 -92 -101 0 4 24 64 54 133 239 558 234 1158 -15 1722 -21 50
-39 92 -39 95 0 14 26 -16 103 -119z m3689 -7 c354 -480 898 -793 1488 -856
36 -4 74 -10 85 -14 19 -7 18 -8 -5 -13 -14 -3 -68 -11 -120 -17 -385 -45
-751 -194 -1062 -432 -127 -98 -298 -272 -399 -408 -46 -62 -85 -108 -87 -102
-2 6 19 61 46 124 241 555 242 1167 2 1708 -43 97 -61 154 -43 135 5 -5 48
-62 95 -125z m3475 13 c-260 -574 -271 -1181 -30 -1743 25 -58 52 -120 60
-138 21 -51 0 -30 -68 66 -359 507 -903 833 -1504 902 -171 20 -168 25 31 50
597 78 1097 371 1458 854 48 64 90 115 93 112 3 -2 -15 -49 -40 -103z m219
-31 c355 -479 897 -788 1494 -852 152 -17 152 -25 -1 -40 -603 -61 -1143 -364
-1504 -844 -49 -66 -90 -115 -92 -109 -2 5 16 54 40 109 129 290 177 506 184
824 9 371 -33 569 -207 993 -11 27 -16 46 -10 42 5 -3 49 -59 96 -123z m-3944
-19 c-233 -548 -231 -1139 4 -1691 25 -57 43 -107 40 -110 -4 -3 -8 -3 -9 -1
-2 2 -39 51 -82 109 -306 408 -747 695 -1237 804 -84 19 -327 56 -366 56 -2 0
-1 4 2 9 3 4 43 12 88 15 422 36 833 202 1163 469 111 89 287 273 370 386 38
51 71 88 73 82 2 -6 -19 -64 -46 -128z m7413 26 c-61 -132 -129 -337 -154
-464 -32 -159 -41 -257 -41 -440 0 -325 55 -570 204 -917 9 -21 12 -38 7 -38
-4 0 -44 48 -88 108 -187 250 -414 449 -683 597 -262 144 -525 223 -864 260
-32 4 -54 11 -50 15 5 5 59 14 119 20 600 60 1132 364 1502 858 47 63 87 111
90 108 3 -2 -16 -51 -42 -107z m-9009 -1059 c199 -266 448 -474 743 -624 231
-117 438 -180 705 -216 82 -11 151 -22 154 -25 6 -6 -24 -11 -174 -29 -589
-71 -1106 -377 -1468 -869 -32 -43 -60 -76 -62 -74 -3 3 17 58 45 123 242 575
242 1154 2 1716 -40 94 -51 133 -32 113 5 -6 44 -57 87 -115z m-241 8 c-77
-175 -125 -331 -162 -528 -25 -136 -25 -554 0 -690 36 -195 94 -381 171 -553
45 -101 31 -92 -70 43 -151 203 -404 433 -613 556 -263 156 -550 252 -866 289
-72 8 -134 15 -138 15 -5 0 -5 5 -2 10 3 6 21 10 40 10 68 0 273 31 390 59
480 116 898 392 1202 794 42 55 78 96 80 90 3 -7 -12 -49 -32 -95z m3731 70
c-141 -325 -189 -494 -216 -767 -34 -343 24 -698 172 -1044 27 -65 48 -121 45
-123 -3 -3 -44 47 -92 111 -357 478 -867 777 -1447 850 -202 25 -204 29 -32
50 162 20 171 22 321 61 282 72 552 207 787 391 110 86 283 266 376 391 85
114 112 138 86 80z m195 -80 c352 -475 868 -777 1456 -853 175 -23 179 -29 27
-45 -394 -43 -757 -185 -1071 -418 -117 -88 -320 -292 -418 -422 -43 -58 -80
-107 -82 -109 -2 -2 -6 -2 -9 2 -3 3 12 46 35 95 128 286 191 575 191 885 0
303 -55 571 -176 853 -41 96 -50 124 -40 124 2 0 41 -51 87 -112z m3469 -9
c-95 -212 -156 -432 -181 -648 -15 -137 -7 -476 16 -596 33 -184 110 -428 170
-545 9 -17 15 -39 13 -47 -2 -10 -36 29 -87 98 -307 413 -778 714 -1276 814
-66 13 -141 26 -167 29 -125 15 -140 18 -132 26 5 5 51 14 102 20 437 49 825
214 1153 488 123 103 223 210 338 362 51 67 95 119 97 117 2 -2 -19 -55 -46
-118z m226 -6 c208 -277 454 -485 753 -637 261 -132 440 -182 829 -232 24 -3
41 -8 38 -11 -3 -3 -63 -12 -133 -20 -413 -45 -772 -187 -1095 -435 -127 -98
-296 -270 -402 -411 -49 -65 -91 -116 -93 -113 -3 2 20 62 50 133 101 236 154
444 178 693 31 333 -39 733 -186 1055 -60 131 -50 128 61 -22z m-1885 -1013
c353 -497 871 -815 1460 -895 68 -9 131 -19 139 -22 24 -8 -15 -19 -95 -27
-584 -58 -1125 -368 -1487 -853 -108 -145 -111 -140 -29 47 60 139 114 312
142 463 27 141 37 467 20 613 -26 218 -90 452 -180 650 -39 87 -52 130 -32
109 4 -6 32 -44 62 -85z m-3906 -61 c-116 -274 -164 -499 -172 -794 -9 -331
47 -617 179 -918 16 -38 28 -73 25 -80 -2 -6 -37 34 -78 88 -344 461 -856 763
-1427 840 -168 23 -185 26 -179 31 3 3 60 12 126 20 171 20 305 49 460 100
426 142 780 402 1054 775 32 44 61 79 63 76 3 -3 -20 -65 -51 -138z m-3397
-24 c337 -424 841 -709 1377 -780 171 -23 188 -26 182 -31 -3 -3 -60 -12 -127
-20 -454 -53 -843 -221 -1176 -508 -121 -104 -205 -194 -313 -336 -40 -52 -77
-97 -82 -99 -6 -1 -3 14 6 35 69 160 119 296 145 398 56 220 64 289 64 551 -1
218 -3 253 -28 378 -29 152 -76 306 -137 452 -44 108 -49 133 -14 90 13 -16
60 -75 103 -130z m3642 52 c91 -124 264 -305 380 -397 336 -267 714 -418 1168
-466 35 -3 60 -10 55 -14 -4 -5 -55 -14 -113 -20 -398 -42 -761 -183 -1077
-418 -118 -88 -321 -293 -418 -421 -43 -58 -80 -100 -82 -94 -2 6 8 37 23 69
88 197 153 422 179 619 17 134 20 402 5 525 -26 204 -79 401 -166 608 -24 58
-44 107 -44 108 0 17 26 -12 90 -99z m3470 1 c-137 -303 -193 -559 -193 -888
0 -320 50 -563 179 -867 24 -57 44 -105 44 -108 0 -15 -25 13 -88 98 -194 262
-410 453 -690 611 -235 133 -526 224 -816 256 -149 16 -147 24 9 40 601 63
1145 369 1493 840 67 90 94 121 100 116 2 -3 -15 -46 -38 -98z m3692 -25 c-78
-174 -134 -357 -169 -558 -24 -140 -24 -510 0 -650 35 -199 88 -376 168 -557
22 -50 38 -95 37 -99 -2 -5 -43 46 -93 113 -98 133 -279 323 -391 411 -300
235 -657 389 -1020 441 -153 22 -177 27 -171 32 2 3 66 14 141 24 172 24 291
52 436 102 400 138 747 390 1005 731 49 66 91 114 93 108 2 -5 -14 -50 -36
-98z m-5325 -1040 c367 -491 887 -792 1491 -864 56 -7 102 -16 102 -20 0 -4
-21 -10 -47 -14 -348 -43 -551 -99 -798 -222 -323 -162 -606 -410 -817 -717
-4 -6 -10 -8 -13 -4 -4 3 10 44 30 90 110 248 165 470 185 740 23 303 -34 655
-150 933 -64 152 -80 195 -75 195 2 0 44 -53 92 -117z m-3877 103 c0 -2 -22
-55 -49 -117 -241 -562 -243 -1140 -5 -1706 24 -59 42 -108 40 -111 -3 -2 -26
24 -53 59 -160 208 -298 351 -448 466 -236 178 -497 304 -774 373 -116 29
-302 60 -359 60 -17 0 -33 4 -37 9 -6 11 1 12 180 36 233 31 429 91 650 199
318 156 583 381 794 674 38 52 61 75 61 58z m3691 -18 c-5 -13 -27 -63 -48
-113 -146 -330 -208 -711 -172 -1056 22 -222 79 -445 164 -644 25 -59 44 -112
43 -117 -2 -5 -42 41 -90 104 -218 287 -458 485 -773 640 -246 120 -483 186
-777 213 -38 4 -68 10 -68 15 0 5 30 11 68 14 531 48 971 244 1336 596 101 98
151 155 268 308 51 66 63 76 49 40z m-3499 -85 c91 -123 315 -349 431 -435
244 -181 540 -316 822 -377 77 -17 317 -51 359 -51 6 0 6 -3 0 -9 -5 -6 -58
-15 -119 -21 -597 -60 -1130 -357 -1495 -834 -46 -60 -85 -105 -87 -99 -2 5
20 63 48 129 59 138 110 308 141 473 20 100 22 150 22 366 0 197 -3 270 -17
345 -36 190 -77 328 -148 497 -62 146 -55 148 43 16z m7150 -35 c-129 -298
-182 -548 -182 -865 0 -313 53 -570 176 -859 25 -58 43 -108 41 -111 -3 -2
-42 44 -86 103 -213 283 -463 495 -760 643 -254 127 -427 176 -800 227 -66 9
-38 20 84 33 414 46 799 206 1121 467 121 98 271 255 369 387 44 59 81 103 83
98 2 -5 -19 -60 -46 -123z m245 -5 c347 -463 852 -759 1432 -838 160 -22 163
-28 21 -44 -595 -70 -1121 -372 -1474 -844 -48 -65 -90 -116 -93 -114 -2 3 18
56 45 119 251 576 251 1180 2 1749 -28 63 -36 89 -26 89 3 0 44 -53 93 -117z
m-5687 -833 c0 -5 -2 -10 -4 -10 -3 0 -8 5 -11 10 -3 6 -1 10 4 10 6 0 11 -4
11 -10z m-3555 -189 c141 -190 342 -380 535 -507 308 -201 611 -306 1014 -349
32 -4 54 -11 50 -15 -5 -5 -58 -14 -118 -20 -595 -60 -1128 -360 -1489 -837
-112 -148 -113 -148 -41 23 118 280 174 550 174 842 0 306 -55 574 -176 857
-43 100 -54 140 -35 120 5 -6 44 -57 86 -114z m3446 -27 c-240 -573 -242
-1143 -4 -1703 24 -56 42 -108 41 -113 -2 -6 -40 39 -85 98 -242 326 -560 570
-934 718 -181 72 -372 116 -611 141 -32 4 -58 11 -58 16 0 5 2 9 4 9 2 0 50 5
107 10 396 40 765 184 1079 421 136 102 326 295 429 432 40 54 75 96 77 94 3
-3 -17 -58 -45 -123z m3709 20 c-129 -279 -193 -576 -193 -889 0 -307 55 -570
182 -869 23 -54 40 -100 38 -103 -3 -2 -45 49 -94 114 -345 461 -850 760
-1413 838 -63 8 -134 18 -158 21 -64 8 -42 21 50 28 624 54 1167 360 1551 875
39 52 72 90 74 84 2 -5 -15 -50 -37 -99z m207 8 c217 -296 479 -517 798 -672
217 -107 475 -183 695 -206 72 -7 106 -19 80 -27 -8 -3 -72 -12 -142 -21 -552
-70 -1076 -376 -1416 -829 -108 -143 -114 -142 -48 8 243 554 243 1155 0 1723
-24 57 -44 106 -44 109 0 13 26 -16 77 -85z m-3658 -33 c346 -457 871 -758
1441 -826 74 -9 139 -20 144 -24 4 -4 -11 -10 -35 -13 -187 -23 -298 -40 -380
-61 -492 -125 -891 -392 -1206 -808 -41 -54 -77 -96 -80 -94 -3 3 11 41 30 84
140 309 200 579 200 903 0 308 -50 553 -169 837 -24 58 -44 108 -44 109 0 17
27 -12 99 -107z m7140 0 c-130 -293 -189 -572 -189 -887 1 -294 50 -542 166
-825 24 -59 44 -110 44 -113 0 -14 -27 16 -96 107 -341 451 -842 745 -1404
823 -133 19 -164 25 -158 32 3 2 58 11 124 20 434 56 808 219 1136 493 118 99
213 201 326 349 48 63 88 110 90 104 1 -5 -16 -52 -39 -103z m-9199 -943 c0
-2 -20 -48 -44 -102 -244 -553 -246 -1160 -5 -1723 27 -63 47 -116 45 -119 -3
-2 -24 22 -48 53 -259 343 -479 535 -798 695 -254 127 -493 194 -802 225 -38
4 -68 10 -68 15 0 5 35 11 78 15 452 39 832 188 1179 462 107 84 294 277 378
391 58 78 85 106 85 88z m238 -152 c201 -255 434 -442 737 -589 226 -110 420
-169 665 -200 193 -25 195 -29 24 -50 -605 -71 -1109 -357 -1475 -837 -50 -65
-93 -117 -96 -114 -3 2 13 45 36 94 251 558 260 1179 25 1728 -24 57 -44 109
-43 116 0 14 2 11 127 -148z m3409 35 c-129 -304 -181 -551 -181 -864 1 -308
55 -571 179 -860 20 -47 35 -90 33 -96 -2 -5 -40 38 -85 98 -205 274 -454 483
-753 633 -252 126 -426 175 -799 226 -66 9 -38 20 84 33 572 61 1122 369 1456
814 71 94 101 129 106 123 2 -2 -16 -50 -40 -107z m247 -3 c95 -127 243 -281
357 -374 321 -258 727 -427 1124 -467 39 -4 77 -11 85 -15 18 -10 7 -13 -162
-35 -557 -72 -1075 -376 -1418 -832 -47 -62 -87 -108 -88 -103 -2 6 15 54 38
106 129 294 184 558 184 874 -1 317 -56 579 -184 871 -28 63 -36 89 -26 89 3
0 43 -51 90 -114z m3447 -13 c-81 -189 -118 -314 -158 -523 -25 -135 -25 -544
0 -680 31 -164 76 -320 133 -463 31 -76 54 -141 51 -143 -3 -3 -18 11 -34 32
-221 289 -392 451 -626 596 -124 77 -328 173 -463 217 -124 41 -326 84 -449
96 -38 4 -77 11 -85 15 -16 9 -2 12 145 30 581 73 1085 368 1452 853 41 54 77
96 80 93 3 -2 -18 -58 -46 -123z m228 25 c285 -381 623 -628 1053 -772 131
-44 331 -87 470 -101 37 -4 70 -10 73 -15 3 -5 -21 -11 -52 -15 -469 -49 -844
-199 -1184 -473 -106 -86 -272 -260 -364 -382 -43 -58 -80 -107 -82 -109 -1
-2 -5 -2 -8 1 -3 3 17 55 44 116 210 472 247 977 106 1468 -14 49 -50 150 -80
225 -75 186 -75 188 24 57z m-5728 -970 c-5 -13 -27 -63 -49 -113 -238 -539
-236 -1150 5 -1714 24 -57 42 -105 40 -108 -3 -2 -46 49 -95 114 -118 154
-212 255 -330 354 -139 116 -286 211 -447 290 -230 112 -441 173 -700 203
-185 22 -182 26 34 51 582 67 1093 361 1454 837 81 106 105 130 88 86z m187
-82 c249 -331 552 -567 918 -716 172 -71 398 -127 579 -145 82 -9 113 -21 75
-29 -14 -3 -81 -12 -149 -21 -563 -72 -1079 -376 -1425 -839 -48 -64 -90 -115
-93 -112 -3 3 17 56 45 118 247 557 251 1162 12 1724 -37 86 -46 114 -36 114
2 0 35 -42 74 -94z m3454 -53 c-120 -280 -171 -534 -172 -840 0 -308 57 -582
181 -866 17 -38 29 -73 27 -79 -2 -6 -42 38 -88 98 -351 459 -860 758 -1412
829 -68 9 -132 20 -143 24 -23 10 -18 11 165 36 564 78 1058 373 1413 844 39
51 73 88 75 82 2 -6 -19 -64 -46 -128z m237 45 c256 -343 565 -581 949 -732
170 -67 383 -116 606 -141 32 -4 54 -11 50 -15 -5 -5 -56 -14 -114 -20 -261
-28 -489 -94 -725 -209 -302 -149 -560 -363 -769 -639 -43 -57 -80 -101 -82
-99 -3 3 18 59 45 124 94 224 146 420 170 645 38 343 -21 719 -165 1056 -66
155 -62 158 35 30z m-2064 -1050 c-133 -299 -195 -586 -195 -898 0 -306 59
-586 186 -873 19 -44 32 -82 29 -85 -7 -7 -7 -7 -95 112 -346 466 -879 769
-1470 837 -117 13 -144 25 -79 33 188 24 287 41 370 61 497 126 897 394 1211
813 38 52 72 91 75 89 2 -3 -12 -43 -32 -89z m201 5 c368 -501 880 -802 1494
-878 69 -8 126 -15 128 -15 2 0 1 -4 -2 -9 -3 -5 -39 -12 -78 -16 -515 -47
-968 -258 -1327 -616 -73 -72 -184 -205 -257 -305 -38 -52 -34 -21 13 86 242
564 243 1168 2 1724 -58 134 -54 139 27 29z"/>
</g>
</svg>
