<svg xmlns="http://www.w3.org/2000/svg" viewBox="0 0 3641.34 3053.18"><defs><style>.cls-1{fill:#021814;}.cls-2{fill:#007f3e;}</style></defs><g id="Layer_2" data-name="Layer 2"><g id="Layer_1-2" data-name="Layer 1"><polygon class="cls-1" points="105.49 3050.18 129.68 2975.18 3.81 2584.93 19.94 2580.43 33.05 2576.75 46.15 2573.04 59.24 2569.26 72.3 2565.41 85.33 2561.47 97.32 2557.72 109.25 2553.84 121.1 2549.76 132.84 2545.45 144.46 2540.85 155.87 2535.95 168.4 2530.07 180.67 2523.79 192.77 2517.14 204.7 2510.16 216.51 2502.89 228.17 2495.38 239.71 2487.68 251.15 2479.81 261.33 2472.66 271.47 2465.43 281.57 2458.13 291.63 2450.79 301.68 2443.41 310.96 2436.56 329.55 2422.84 338.86 2416 348.19 2409.18 358.45 2401.74 368.75 2394.34 379.07 2386.97 389.42 2379.64 399.78 2372.33 410.15 2365.04 420.54 2357.77 441.33 2343.25 451.92 2335.87 462.55 2328.54 473.25 2321.3 484.07 2314.21 495.02 2307.31 506.15 2300.66 517.48 2294.3 529.8 2287.92 542.29 2282.06 554.96 2276.76 567.93 2272.05 581.12 2268.05 593.23 2265.07 605.45 2262.66 617.83 2260.76 630.11 2259.32 642.52 2258.25 654.94 2257.5 666.92 2257.02 678.87 2256.71 690.8 2256.52 702.71 2256.39 714.68 2256.52 726.59 2256.71 738.52 2257.01 750.48 2257.5 762.88 2258.25 775.29 2259.32 787.77 2260.78 800.03 2262.66 812.33 2265.09 824.37 2268.05 837.56 2272.05 850.52 2276.76 863.31 2282.11 875.79 2287.97 887.92 2294.26 899.27 2300.62 910.4 2307.27 921.37 2314.18 932.2 2321.28 942.92 2328.53 953.56 2335.86 964.15 2343.24 984.94 2357.77 995.33 2365.04 1005.7 2372.32 1016.06 2379.63 1026.4 2386.97 1036.72 2394.33 1047.02 2401.73 1057.29 2409.17 1066.62 2415.99 1075.93 2422.84 1085.23 2429.7 1094.52 2436.56 1103.82 2443.41 1113.86 2450.79 1123.93 2458.14 1134.03 2465.44 1144.17 2472.67 1154.37 2479.83 1165.82 2487.7 1177.37 2495.41 1189.04 2502.92 1200.85 2510.2 1212.79 2517.18 1224.9 2523.83 1237.19 2530.11 1249.62 2535.95 1261.11 2540.88 1272.72 2545.47 1284.45 2549.78 1296.28 2553.85 1308.2 2557.73 1320.18 2561.47 1333.21 2565.42 1346.27 2569.27 1359.35 2573.04 1372.44 2576.76 1385.56 2580.43 1401.68 2584.93 1275.81 2975.18 1300 3050.18 105.49 3050.18"/><path class="cls-2" d="M702.75,2259.39l11.89.13,11.9.19,11.91.3,11.91.49,12.34.74L775,2262.3l12.28,1.44,12.2,1.88,12.1,2.38,12,2.94,13,4,12.82,4.65,12.6,5.27,12.38,5.82,12.13,6.28,11.26,6.31,11.07,6.62,10.9,6.87,10.78,7.07,10.69,7.22,10.61,7.32,10.59,7.38,10.39,7.25,10.4,7.26,10.38,7.28,10.37,7.28,10.35,7.3,10.34,7.33,10.31,7.36,10.29,7.4,10.26,7.43,9.32,6.82,9.31,6.83,9.29,6.86,9.29,6.86,9.29,6.86,10.06,7.38,10.08,7.36,10.11,7.3,10.15,7.25,10.21,7.16,11.48,7.89,11.58,7.74,11.71,7.54,11.87,7.3,12,7,12.18,6.69,12.37,6.32,12.57,5.91,11.54,4.95,11.68,4.62,11.8,4.34,11.9,4.09,12,3.9,12,3.75,13,3.95,13.08,3.86,13.1,3.77,13.11,3.72,13.11,3.68,13.13,3.66-125.21,388.2,23.22,72H109.61l23.22-72L7.63,2587l13.12-3.66,13.11-3.68L47,2575.92l13.1-3.77,13.07-3.86,13.06-3.95,12-3.75,12-3.9,11.9-4.09,11.8-4.34,11.68-4.62,11.54-4.95,12.57-5.91,12.37-6.32,12.18-6.69,12-7,11.86-7.3,11.71-7.54,11.58-7.74,11.48-7.89,10.21-7.16,10.15-7.25,10.11-7.3,10.08-7.36,10.05-7.38,9.3-6.86,9.29-6.86,9.29-6.86,9.3-6.84,9.33-6.81,10.26-7.43,10.28-7.4,10.32-7.36,10.33-7.33,10.36-7.3,10.37-7.28,10.38-7.27,10.39-7.27,10.4-7.25,10.58-7.38,10.62-7.32,10.68-7.22,10.78-7.07,10.91-6.87,11.07-6.62,11.26-6.31,12.13-6.28,12.37-5.82,12.6-5.27,12.83-4.65,13-4,12-2.94,12.1-2.38,12.21-1.88,12.28-1.44,12.32-1.06,12.34-.74L667,2260l11.91-.3,11.9-.19,11.9-.13m0-6h-.07l-11.9.13-11.93.19h-.06l-11.9.31h-.09l-11.92.48h-.12l-12.34.74h-.15l-12.33,1.06h-.18l-12.28,1.44-.11,0h-.11l-12.2,1.88-.12,0-.13,0-12.09,2.38-.14,0-.14,0-12,2.95-.16,0-.15,0-13,4-.15.05-.15.05L554,2273.91l-.14.05-.13.06-12.6,5.27-.12.05-.12,0-12.37,5.82-.11.05-.1,0-12.13,6.28-.09,0-.09.05L504.75,2298l-.07,0-.07,0-11.07,6.62-.06,0-.06,0-10.91,6.87,0,0-.05,0-10.78,7.07,0,0,0,0L460.89,2326l0,0h0l-10.61,7.33-10.61,7.38-10.4,7.26-10.4,7.27-10.38,7.27-10.38,7.29-10.37,7.31-10.34,7.34L367,2391.89l-10.31,7.41-10.27,7.44-9.35,6.83-9.32,6.85-9.3,6.86-9.29,6.86-9.29,6.86-10,7.38-10.06,7.34L269.7,2463l-10.13,7.22-10.13,7.12L238,2485.21l-11.5,7.68-11.62,7.48-11.75,7.24-11.87,6.94-12,6.61-12.2,6.23-12.39,5.82-11.36,4.88-11.54,4.57-11.67,4.28L108.28,2551l-11.89,3.87-12,3.74-13,3.94-13,3.84-13.06,3.77-13.08,3.71-13.1,3.68L6,2581.2l-6,1.68,1.92,5.95,124.6,386.35-22.62,70.16-2.53,7.84H1304.12l-2.53-7.84L1279,2975.18l124.62-386.35,1.91-5.95-6-1.68-13.12-3.66-13.11-3.67-13.1-3.72-13.07-3.77-13-3.84-13-3.94-12-3.73-11.89-3.87-11.78-4.06-11.68-4.29-11.53-4.55-11.37-4.89-12.38-5.82-12.21-6.24-12-6.6-11.87-6.94-11.75-7.24-11.62-7.48-11.5-7.68-11.43-7.86-10.18-7.15-10.12-7.21-10.08-7.29-10.06-7.33-10-7.38-9.29-6.85-9.28-6.86-9.3-6.85-9.31-6.85-9.34-6.82-10.28-7.45-10.31-7.41-10.33-7.37-10.35-7.34-10.36-7.31-10.38-7.29-10.39-7.28-10.4-7.26-10.4-7.26-10.59-7.38-10.64-7.34h0l0,0-10.69-7.22,0,0,0,0-10.78-7.07,0,0,0,0-10.91-6.87-.06,0,0,0-11.07-6.62-.07,0-.08,0-11.25-6.31-.09-.05-.09,0-12.13-6.28-.11,0-.1-.05-12.37-5.82-.12,0-.12-.05-12.6-5.27-.14-.06-.13-.05-12.82-4.65-.15-.05-.16-.05-13-4-.15,0-.16,0-12-2.95-.14,0-.14,0-12.1-2.38-.12,0-.12,0-12.21-1.88h-.11l-.1,0-12.28-1.44h-.19l-12.32-1.06h-.15l-12.35-.74h-.12l-11.91-.48h-.09l-11.9-.31h-.06l-11.9-.19-11.93-.13Z"/><polygon class="cls-1" points="2341.34 3050.18 2365.52 2975.18 2239.66 2584.93 2255.79 2580.43 2268.9 2576.75 2282 2573.04 2295.08 2569.26 2308.14 2565.41 2321.18 2561.47 2333.16 2557.72 2345.1 2553.84 2356.95 2549.76 2368.69 2545.45 2380.31 2540.85 2391.72 2535.95 2404.24 2530.07 2416.52 2523.79 2428.62 2517.14 2440.55 2510.16 2452.35 2502.89 2464.01 2495.38 2475.55 2487.68 2487 2479.81 2497.18 2472.66 2507.32 2465.43 2517.41 2458.13 2527.48 2450.79 2537.52 2443.41 2546.81 2436.56 2556.1 2429.7 2565.39 2422.84 2574.7 2416 2584.03 2409.18 2594.3 2401.74 2604.6 2394.34 2614.92 2386.97 2625.26 2379.64 2635.62 2372.33 2646 2365.04 2656.39 2357.77 2677.18 2343.25 2687.76 2335.87 2698.39 2328.54 2709.1 2321.3 2719.91 2314.21 2730.87 2307.31 2741.99 2300.66 2753.32 2294.3 2765.65 2287.92 2778.14 2282.06 2790.81 2276.76 2803.77 2272.05 2816.96 2268.05 2829.07 2265.07 2841.3 2262.66 2853.67 2260.76 2865.95 2259.32 2878.37 2258.25 2890.79 2257.5 2902.77 2257.02 2914.72 2256.71 2926.65 2256.52 2938.56 2256.39 2950.52 2256.52 2962.44 2256.71 2974.37 2257.01 2986.33 2257.5 2998.73 2258.25 3011.13 2259.32 3023.61 2260.78 3035.88 2262.66 3048.18 2265.09 3060.22 2268.05 3073.4 2272.05 3086.37 2276.76 3099.16 2282.11 3111.63 2287.97 3123.77 2294.26 3135.11 2300.62 3146.25 2307.27 3157.22 2314.18 3168.05 2321.28 3178.76 2328.53 3189.4 2335.86 3200 2343.24 3220.79 2357.77 3231.18 2365.04 3241.55 2372.32 3251.91 2379.63 3262.25 2386.97 3272.57 2394.33 3282.87 2401.73 3293.14 2409.17 3302.47 2415.99 3311.78 2422.84 3321.08 2429.7 3330.37 2436.56 3339.66 2443.41 3349.71 2450.79 3359.78 2458.14 3369.88 2465.44 3380.02 2472.67 3390.21 2479.83 3401.67 2487.7 3413.22 2495.41 3424.88 2502.92 3436.69 2510.2 3448.63 2517.18 3460.74 2523.83 3473.03 2530.11 3485.46 2535.95 3496.96 2540.88 3508.56 2545.47 3520.29 2549.78 3532.13 2553.85 3544.05 2557.73 3556.03 2561.47 3569.06 2565.42 3582.11 2569.27 3595.19 2573.04 3608.29 2576.76 3621.4 2580.43 3637.53 2584.93 3511.66 2975.18 3535.85 3050.18 2341.34 3050.18"/><path class="cls-2" d="M2938.59,2259.39l11.9.13,11.9.19,11.9.3,11.92.49,12.34.74,12.33,1.06,12.28,1.44,12.2,1.88,12.1,2.38,12,2.94,13,4,12.82,4.65,12.6,5.27,12.37,5.82,12.14,6.28,11.26,6.31,11.06,6.62,10.91,6.87,10.78,7.07,10.68,7.22,10.62,7.32,10.58,7.38,10.4,7.25,10.39,7.26,10.38,7.28,10.37,7.28,10.36,7.3,10.34,7.33,10.31,7.36,10.29,7.4,10.26,7.43,9.32,6.82,9.3,6.83,9.3,6.86,9.29,6.86,9.29,6.86,10,7.38,10.08,7.36,10.11,7.3,10.16,7.25,10.21,7.16,11.48,7.89,11.58,7.74,11.71,7.54,11.86,7.3,12,7,12.18,6.69,12.37,6.32,12.56,5.91,11.55,4.95,11.68,4.62,11.8,4.34,11.9,4.09,12,3.9,12,3.75,13.06,3.95,13.08,3.86,13.09,3.77,13.11,3.72,13.12,3.68,13.12,3.66-125.21,388.2,23.23,72H2345.46l23.21-72L2243.47,2587l13.12-3.66,13.12-3.68,13.11-3.72,13.09-3.77,13.08-3.86,13.06-3.95,12-3.75,12-3.9,11.89-4.09,11.8-4.34,11.69-4.62,11.54-4.95,12.57-5.91,12.36-6.32,12.19-6.69,12-7,11.87-7.3,11.71-7.54,11.58-7.74,11.48-7.89,10.21-7.16,10.15-7.25,10.11-7.3,10.08-7.36,10.05-7.38,9.29-6.86,9.29-6.86,9.29-6.86,9.31-6.84,9.32-6.81,10.26-7.43,10.29-7.4,10.31-7.36,10.34-7.33,10.35-7.3,10.37-7.28,10.39-7.27,10.39-7.27,10.4-7.25,10.58-7.38,10.62-7.32,10.68-7.22,10.78-7.07,10.91-6.87,11.06-6.62,11.26-6.31,12.13-6.28,12.38-5.82,12.6-5.27,12.82-4.65,13-4,12-2.94,12.1-2.38,12.2-1.88,12.28-1.44,12.33-1.06,12.34-.74,11.92-.49,11.9-.3,11.91-.19,11.89-.13m0-6h-.06l-11.9.13-11.93.19h-.06l-11.91.31h-.08l-11.92.48h-.12l-12.34.74h-.16l-12.32,1.06h-.19l-12.28,1.44-.1,0h-.11l-12.2,1.88-.13,0-.12,0-12.1,2.38-.14,0-.13,0-12,2.95-.15,0-.16,0-13,4-.15.05-.15.05-12.83,4.65-.13.05-.13.06-12.61,5.27-.12.05-.11,0-12.38,5.82-.1.05-.1,0-12.14,6.28-.09,0-.08.05L2740.6,2298l-.07,0-.08,0-11.06,6.62-.06,0-.06,0-10.91,6.87-.05,0,0,0-10.78,7.07,0,0,0,0-10.68,7.22,0,0h0l-10.62,7.33-10.6,7.38-10.41,7.26-10.39,7.27-10.39,7.27-10.38,7.29-10.36,7.31-10.35,7.34-10.33,7.37-10.3,7.41-10.28,7.44-9.34,6.83-9.32,6.85-9.3,6.86-9.29,6.86-9.29,6.86-10,7.38-10.06,7.34-10.08,7.29-10.13,7.22-10.15,7.13-11.42,7.85-11.5,7.68-11.62,7.48-11.75,7.24-11.87,6.94-12,6.6-12.21,6.25-12.38,5.81-11.37,4.89-11.53,4.55-11.67,4.29-11.81,4.06-11.86,3.87-12,3.74-13,3.94-13,3.84-13.06,3.77-13.09,3.71-13.1,3.68-13.11,3.65-6,1.68,1.91,5.95,124.61,386.35-22.62,70.16-2.53,7.84H3540l-2.53-7.84-22.63-70.16,124.61-386.35,1.92-5.95-6-1.68-13.12-3.66-13.11-3.67-13.09-3.72-13.07-3.77-13-3.84-13-3.94-11.94-3.73-11.89-3.87-11.79-4.06-11.68-4.29-11.52-4.55-11.38-4.89-12.38-5.82-12.2-6.24-12-6.6-11.87-6.94-11.75-7.24-11.62-7.48-11.51-7.69-11.42-7.85-10.18-7.15-10.12-7.21-10.09-7.29-10.05-7.33-10-7.38-9.28-6.85-9.29-6.86-9.29-6.85-9.32-6.85-9.33-6.82-10.28-7.45-10.31-7.41-10.33-7.37-10.35-7.34-10.37-7.31-10.38-7.29-10.39-7.28-10.39-7.26-10.4-7.26-10.59-7.38-10.64-7.34h0l0,0-10.68-7.22,0,0,0,0-10.78-7.07,0,0,0,0-10.91-6.87-.06,0-.06,0-11.07-6.62-.07,0-.07,0-11.26-6.31-.09-.05-.08,0-12.14-6.28-.1,0-.1-.05-12.38-5.82-.11,0-.12-.05-12.61-5.27-.13-.06-.14-.05-12.82-4.65-.15-.05-.15-.05-13-4-.16,0-.15,0-12-2.95-.13,0-.14,0-12.1-2.38-.12,0-.13,0-12.2-1.88H3024l-.11,0-12.28-1.44h-.18l-12.33-1.06h-.15l-12.34-.74h-.12l-11.91-.48h-.09l-11.91-.31h-.06l-11.9-.19-11.92-.13Z"/><polygon class="cls-1" points="21.8 2212.94 22.82 2137.9 4.6 794.08 18.13 789.66 29.52 785.85 40.84 781.9 50.38 778.35 59.69 774.53 69.51 769.95 79.09 764.86 88.38 759.28 97.28 753.25 105.74 746.71 113.66 739.6 122.95 729.57 131.27 718.68 138.71 707.08 143.9 697.72 148.53 688.09 152.59 678.22 156.81 665.67 160.27 652.84 163.12 639.81 165.55 626.31 167.52 612.71 169.05 599.1 170.18 585.44 170.93 571.78 171.38 558.09 171.61 544.38 171.67 530.64 171.65 517.39 171.54 504.13 171.34 490.88 171.06 477.63 170.69 464.99 170.24 452.35 169.69 439.72 169.03 427.09 168.27 414.47 167.47 402.87 166.58 391.27 165.62 379.67 164.61 368.07 163.56 356.47 162.33 343.2 161.06 329.95 159.74 316.7 158.35 303.46 156.88 290.24 155.29 276.69 153.63 263.16 151.89 249.63 150.1 236.11 148.28 222.59 146.42 209.06 144.65 196.3 142.88 183.54 139.3 158.01 133.53 117.16 524.5 3.72 528.91 19.08 532.53 31.54 536.22 43.97 540 56.36 543.92 68.69 548 80.97 552.34 93.31 556.92 105.55 561.8 117.66 567.02 129.62 572.51 141.18 578.36 152.51 584.61 163.68 591.23 174.62 598.25 185.32 604.44 194.09 610.91 202.62 617.72 210.9 624.73 218.73 632.07 226.24 639.75 233.36 650.32 242.09 661.42 250.18 672.97 257.68 684.87 264.67 695.24 270.22 705.79 275.31 716.55 279.86 727.52 283.76 739.1 287.04 750.88 289.53 762.8 291.25 774.81 292.18 782.07 292.39 800.66 292.59 811.75 292.59 830.37 292.39 837.57 292.18 849.59 291.25 861.5 289.53 873.29 287.04 884.85 283.77 895.84 279.86 906.59 275.32 917.15 270.22 927.51 264.67 939.42 257.68 950.96 250.18 962.06 242.09 972.63 233.36 980.31 226.24 987.65 218.73 994.67 210.9 1001.47 202.62 1007.94 194.09 1014.14 185.32 1021.15 174.62 1027.78 163.68 1034.02 152.51 1039.91 141.09 1045.4 129.53 1050.62 117.58 1055.49 105.48 1060.07 93.25 1064.4 80.92 1068.47 68.66 1072.39 56.33 1076.17 43.95 1079.85 31.53 1083.47 19.08 1087.89 3.72 1478.85 117.16 1473.08 158.02 1471.29 170.78 1469.5 183.54 1467.73 196.3 1465.96 209.07 1464.11 222.59 1462.28 236.12 1460.49 249.64 1458.76 263.18 1457.09 276.71 1455.51 290.25 1454.04 303.48 1452.65 316.72 1451.32 329.96 1450.05 343.21 1448.82 356.48 1447.77 368.08 1446.76 379.68 1445.8 391.29 1444.91 402.89 1444.11 414.5 1443.35 427.12 1442.69 439.74 1442.14 452.38 1441.69 465.01 1441.33 477.65 1441.04 490.9 1440.84 504.15 1440.73 517.41 1440.71 530.67 1440.78 544.41 1441 558.14 1441.45 571.85 1442.21 585.52 1443.34 599.19 1444.88 612.81 1446.83 626.31 1449.26 639.81 1452.11 652.84 1455.57 665.67 1459.8 678.22 1463.85 688.09 1468.49 697.72 1473.67 707.08 1481.11 718.67 1489.44 729.57 1498.72 739.6 1506.64 746.71 1515.1 753.25 1524 759.28 1533.29 764.86 1542.87 769.95 1552.7 774.53 1562.1 778.39 1571.6 781.92 1582.9 785.87 1594.27 789.67 1607.79 794.08 1589.56 2137.99 1590.58 2212.94 21.8 2212.94"/><path class="cls-2" d="M1089.94,7.44l385.58,111.87-1.81,12.76-1.8,12.77-1.8,12.76-1.79,12.76-1.79,12.76-1.78,12.77L1463,208.66l-1.86,13.52-1.82,13.53-1.79,13.54-1.74,13.54-1.66,13.55-1.59,13.57-1.47,13.24-1.39,13.25-1.33,13.26-1.28,13.27-1.23,13.27-1,11.61-1,11.61-1,11.62-.89,11.62-.8,11.63-.77,12.65-.66,12.65-.55,12.65-.45,12.67-.36,12.66-.29,13.27-.2,13.27-.11,13.27,0,13.28.07,13.77.22,13.76.46,13.76.76,13.74,1.13,13.74,1.55,13.71,2,13.66,2.45,13.6,2.87,13.15,3.51,13,4.28,12.73,4.13,10,4.72,9.79,5.27,9.52,7.55,11.78,8.49,11.11,9.47,10.23,8.11,7.27,8.62,6.67,9,6.13,9.44,5.67,9.71,5.16,10,4.64,9.47,3.88,9.59,3.57,11.36,4,11.41,3.81,11.43,3.74-18.19,1341.69,1,72H24.84l1-72L7.63,796.25l11.43-3.74,11.41-3.81,11.36-4,9.59-3.57,9.47-3.88,10-4.64,9.71-5.16L90,761.81l9-6.13,8.62-6.67,8.11-7.27,9.47-10.23,8.49-11.11,7.56-11.78,5.27-9.52,4.71-9.79,4.13-10,4.28-12.73,3.51-13,2.87-13.15,2.45-13.6,2-13.66L172,599.43l1.13-13.74.77-13.74.45-13.76.23-13.76.06-13.77,0-13.28-.11-13.27-.2-13.27-.28-13.27-.37-12.66-.45-12.67-.55-12.65L172,426.94l-.77-12.65-.8-11.63L169.57,391l-1-11.62-1-11.61-1-11.61-1.23-13.27-1.27-13.27-1.33-13.26-1.39-13.25-1.47-13.24-1.59-13.57-1.67-13.55-1.73-13.54-1.79-13.54-1.83-13.53-1.86-13.52-1.76-12.77-1.78-12.77-1.79-12.76-1.79-12.76-1.8-12.76-1.8-12.77-1.81-12.76L522.44,7.44,526,19.91l3.62,12.47,3.69,12.44,3.79,12.41,3.93,12.37,4.09,12.32,4.36,12.39,4.6,12.29L559,118.78l5.25,12,5.53,11.65,5.91,11.46,6.3,11.26,6.69,11L595.77,187l6.24,8.85,6.55,8.62,6.88,8.37,7.09,7.93,7.45,7.61,7.8,7.23,10.71,8.84,11.23,8.19,11.67,7.59,12,7.05,10.46,5.6,10.68,5.16,10.91,4.61,11.16,4L738.38,290l12,2.54,12.12,1.74,12.19.94,7.33.22,7.33.08,11.31.12h11.12l11.32-.12,7.33-.08,7.33-.21,12.19-.95L862,292.49,874,290l11.77-3.32,11.15-4,10.91-4.61,10.68-5.16,10.47-5.6,12-7.05,11.67-7.59,11.23-8.19,10.7-8.84,7.8-7.23,7.45-7.61,7.1-7.93,6.87-8.37,6.55-8.62,6.24-8.85,7.08-10.79,6.68-11,6.3-11.26,5.91-11.46,5.53-11.65,5.26-12,4.9-12.18,4.61-12.29,4.35-12.39,4.09-12.32,3.93-12.37L1079,44.82l3.69-12.44,3.62-12.47,3.59-12.47M1085.83,0l-1.66,5.78-3.59,12.48L1077,30.7l-3.68,12.42-3.77,12.32-3.9,12.31L1061.55,80l-4.31,12.28-4.56,12.17-4.85,12-5.18,11.87-5.45,11.48-5.82,11.28-6.2,11.08L1018.61,173l-7,10.61-6.12,8.68-6.42,8.46-6.72,8.17-6.92,7.74-7.25,7.41-7.57,7-10.43,8.62-11,8-11.41,7.42-11.8,6.92-10.26,5.49-10.43,5-10.61,4.49-10.81,3.84-11.37,3.21L861,286.58l-11.72,1.68-11.84.92-7.14.21-7.28.08-11.28.12H800.67l-11.29-.12-7.27-.08-7.14-.21-11.84-.92-11.72-1.68-11.59-2.46-11.38-3.21-10.81-3.85L707,272.58l-10.43-5-10.26-5.5-11.8-6.92-11.42-7.43-11-8-10.43-8.62-7.56-7-7.26-7.41L620,208.94l-6.72-8.17-6.42-8.46-6.12-8.68-7-10.61-6.57-10.85L581,151.09l-5.82-11.28-5.45-11.48-5.18-11.87-4.85-12-4.56-12.17L550.83,80l-4.06-12.23-3.91-12.31-3.78-12.37-3.67-12.4-3.62-12.43L528.21,5.78,526.55,0l-5.78,1.68L135.19,113.55l-5,1.45.73,5.15,1.81,12.76,1.8,12.77,1.8,12.75,1.79,12.76L139.91,184l1.77,12.77,1.77,12.76L145.3,223l1.83,13.52L148.92,250l1.73,13.52,1.67,13.52,1.58,13.52,1.47,13.21L156.75,317l1.33,13.23,1.27,13.24,1.23,13.25,1,11.6,1,11.59,1,11.59.89,11.59.8,11.54.76,12.61.66,12.63.55,12.61.45,12.61.36,12.62.28,13.23.2,13.23.11,13.23,0,13.24-.06,13.71L168.38,558l-.45,13.64-.75,13.6-1.12,13.57-1.53,13.53-1.95,13.46-2.4,13.38-2.82,12.91-3.42,12.67-4.17,12.37-4,9.69-4.56,9.48-5.09,9.21L128.82,717l-8.17,10.69-9.1,9.82-7.73,6.94-8.3,6.42-8.75,5.92-9.16,5.51-9.44,5-9.69,4.52-9.24,3.78-9.45,3.52L28.53,783l-11.37,3.8-11.4,3.72-4.19,1.38.06,4.41L19.82,2137.94l-1,71.92-.08,6.08H1593.62l-.08-6.08-1-71.92,18.19-1341.61.06-4.41-4.19-1.38-11.44-3.73L1583.85,783l-11.26-3.93-9.45-3.52-9.24-3.78-9.69-4.52-9.44-5-9.16-5.5-8.75-5.93-8.3-6.42-7.73-6.94-9.09-9.82L1483.57,717l-7.32-11.41-5.09-9.2-4.57-9.48-4-9.69-4.17-12.37L1455,652.12l-2.82-12.89-2.4-13.39-2-13.46-1.52-13.53-1.13-13.57-.75-13.6L1444,558l-.23-13.66-.06-13.75,0-13.23.11-13.24.2-13.23.28-13.23.37-12.62.45-12.62.55-12.61.65-12.58.77-12.61.8-11.58.88-11.58,1-11.59,1-11.58,1-11.59,1.23-13.26,1.27-13.24,1.33-13.24,1.38-13.22,1.47-13.21,1.58-13.53,1.67-13.51,1.73-13.52,1.78-13.51,1.83-13.51,1.85-13.52,1.77-12.76,1.77-12.76,1.79-12.76,1.79-12.76,1.8-12.76,1.8-12.76,1.81-12.76.73-5.15-5-1.45L1091.61,1.68,1085.83,0Z"/><polygon class="cls-1" points="2050.77 2212.94 2051.78 2137.9 2033.57 794.43 2046.51 790.22 2057.29 786.61 2067.97 782.83 2078.47 778.81 2088.83 774.43 2098.59 769.83 2108.11 764.79 2117.36 759.27 2126.25 753.26 2134.71 746.72 2142.62 739.6 2151.91 729.57 2160.24 718.67 2167.68 707.08 2172.86 697.72 2177.5 688.09 2181.55 678.22 2185.78 665.67 2189.24 652.84 2192.09 639.81 2194.51 626.31 2196.48 612.71 2198.01 599.1 2199.14 585.44 2199.89 571.78 2200.35 558.09 2200.57 544.38 2200.64 530.64 2200.61 517.39 2200.5 504.13 2200.31 490.88 2200.02 477.63 2199.66 464.99 2199.21 452.35 2198.66 439.72 2198 427.09 2197.23 414.47 2196.43 402.87 2195.54 391.27 2194.59 379.67 2193.58 368.07 2192.53 356.47 2191.3 343.2 2190.03 329.95 2188.7 316.7 2187.31 303.46 2185.85 290.24 2184.26 276.69 2182.59 263.16 2180.86 249.63 2179.07 236.11 2177.24 222.59 2175.39 209.06 2173.62 196.3 2171.84 183.54 2170.06 170.78 2166.46 145.25 2162.49 117.16 2544.54 6.31 2551.94 13.75 2558.22 19.59 2566.89 26.4 2576.2 32.27 2586.04 37.14 2598.35 41.59 2611.11 44.81 2620.32 46.52 2629.68 47.86 2639.05 48.91 2651.15 49.97 2663.27 50.76 2675.43 51.34 2687.61 51.76 2699.81 52.07 2723.98 52.6 2735.93 52.87 2747.89 53.16 2759.85 53.48 2771.8 53.84 2782.22 54.17 2792.62 54.48 2803.01 54.69 2816.24 54.77 2829.48 54.72 2840.82 54.72 2854.1 54.77 2867.34 54.69 2877.72 54.48 2888.1 54.17 2898.5 53.84 2910.46 53.48 2922.41 53.16 2934.37 52.87 2946.33 52.6 2970.51 52.07 2982.73 51.76 2994.92 51.34 3007.09 50.76 3019.23 49.97 3031.34 48.91 3040.72 47.85 3049.99 46.52 3059.21 44.81 3071.96 41.59 3084.27 37.14 3094.11 32.27 3103.42 26.39 3112.09 19.59 3118.37 13.75 3125.77 6.31 3507.82 117.16 3502.05 158.01 3500.25 170.78 3498.47 183.54 3496.69 196.3 3494.93 209.07 3493.07 222.59 3491.24 236.12 3489.46 249.65 3487.72 263.18 3486.06 276.71 3484.47 290.25 3483 303.48 3481.61 316.71 3480.29 329.96 3479.01 343.21 3477.78 356.47 3476.73 368.08 3475.72 379.68 3474.77 391.29 3473.88 402.89 3473.07 414.5 3472.31 427.12 3471.65 439.74 3471.1 452.38 3470.65 465.01 3470.29 477.65 3470 490.9 3469.81 504.15 3469.7 517.41 3469.67 530.67 3469.74 544.41 3469.97 558.14 3470.42 571.85 3471.18 585.52 3472.31 599.19 3473.84 612.81 3475.8 626.31 3478.23 639.81 3481.07 652.84 3484.53 665.67 3488.76 678.22 3492.81 688.09 3497.45 697.72 3502.63 707.08 3510.07 718.67 3518.4 729.56 3527.69 739.59 3535.6 746.72 3544.06 753.26 3552.95 759.27 3562.2 764.79 3571.72 769.83 3581.48 774.43 3591.84 778.81 3602.41 782.86 3613.07 786.63 3623.82 790.23 3636.74 794.43 3618.53 2137.98 3619.55 2212.94 2050.77 2212.94"/><path class="cls-2" d="M3126.64,9.68l377.84,109.63-1.8,12.76-1.8,12.76-1.8,12.77-1.8,12.76-1.78,12.76-1.78,12.77L3492,208.66l-1.85,13.52-1.83,13.53-1.79,13.54-1.73,13.54-1.67,13.56-1.59,13.56L3480,303.15l-1.39,13.25-1.33,13.26L3476,342.93l-1.24,13.27-1,11.61-1,11.61-.95,11.62-.89,11.62-.81,11.63-.77,12.65-.65,12.65-.55,12.65-.46,12.66-.36,12.67-.29,13.27-.19,13.27-.11,13.27,0,13.28.07,13.77.23,13.76.45,13.76.76,13.74,1.14,13.74,1.54,13.71,2,13.66,2.44,13.59,2.88,13.16,3.5,13,4.29,12.73,4.12,10,4.71,9.79,5.28,9.52,7.56,11.78,8.49,11.1,9.47,10.23,8.1,7.29,8.62,6.68,9,6.11,9.39,5.59,9.65,5.11,9.87,4.66,10.47,4.43,10.62,4.06,10.73,3.8,10.8,3.62,10.84,3.52-18.18,1341.34,1,72H2053.81l1-72L2036.6,796.6l10.84-3.52,10.8-3.62,10.73-3.8,10.62-4.06,10.47-4.43,9.87-4.66,9.65-5.11,9.39-5.59,9-6.11,8.62-6.68,8.1-7.29,9.48-10.23,8.49-11.1,7.56-11.78,5.27-9.52,4.71-9.79,4.12-10,4.29-12.73,3.5-13,2.88-13.16,2.44-13.59,2-13.66,1.54-13.71,1.14-13.74.76-13.74.46-13.76.22-13.76.07-13.77,0-13.28-.11-13.27-.19-13.27-.29-13.27-.36-12.67-.45-12.66-.56-12.65-.65-12.65-.77-12.65-.81-11.63-.89-11.62-1-11.62-1-11.61-1-11.61-1.24-13.27L2193,329.66l-1.32-13.26-1.39-13.25-1.47-13.24-1.59-13.56-1.67-13.56-1.74-13.54L2182,235.71l-1.83-13.53-1.85-13.52-1.77-12.77-1.78-12.77L2173,170.36l-1.8-12.76-1.8-12.77-1.8-12.76-1.8-12.76L2543.67,9.68l6.18,6.22,6.42,6,8.89,7,9.57,6,10.14,5,12.6,4.55,13,3.28,9.36,1.74,9.42,1.35,9.46,1.06L2650.89,53l12.19.8,12.21.58,12.22.42,12.22.31,12.23.27,11.95.26,12,.27,12,.29,11.95.32,11.95.36,10.4.33,10.42.3,10.41.22,13.27.08,13.27-.05h11.33l13.27.05,13.27-.08,10.41-.22,10.42-.3,10.41-.33,11.94-.36,11.95-.32,12-.29,12-.27,11.95-.26,12.23-.27,12.22-.31,12.22-.42,12.21-.58,12.2-.8,12.17-1.07,9.46-1.06,9.42-1.35,9.36-1.74,13-3.28,12.6-4.55,10.14-5,9.57-6,8.89-7,6.42-6,6.18-6.22M2545.42,2.93l-3.42,1L2164.16,113.55l-5,1.45.73,5.15,1.8,12.76,1.8,12.76,1.8,12.76,1.79,12.76,1.79,12.76,1.78,12.77,1.76,12.76,1.86,13.52,1.83,13.52,1.78,13.52,1.74,13.52,1.66,13.52,1.59,13.52,1.46,13.21,1.39,13.22,1.32,13.23,1.27,13.24,1.23,13.25,1.05,11.6,1,11.59,1,11.59.89,11.59.8,11.54.77,12.61.65,12.63.55,12.61.45,12.61.36,12.62.29,13.23.19,13.23.11,13.23,0,13.24-.07,13.71-.22,13.65-.45,13.65-.76,13.6L2195,598.85l-1.52,13.53-1.95,13.46-2.41,13.38-2.82,12.91-3.42,12.67-4.16,12.37-4,9.7-4.57,9.47-5.09,9.2L2157.78,717l-8.17,10.68-9.1,9.83-7.72,6.95-8.3,6.42-8.74,5.91-9.11,5.43-9.4,5-9.63,4.54L2077.35,776l-10.46,4-10.61,3.76-10.7,3.58h0l-10.84,3.53-4.2,1.36.06,4.42,18.18,1341.26-1,71.92-.08,6.08H3622.59l-.09-6.08-1-71.92,18.18-1341.26.06-4.42-4.2-1.36-10.84-3.53L3614,783.78l-10.6-3.75L3593,776l-10.27-4.34-9.63-4.54-9.4-5-9.11-5.43-8.74-5.91-8.29-6.42-7.73-6.95-9.1-9.83L3512.53,717l-7.32-11.41-5.09-9.2-4.56-9.47-4-9.7-4.16-12.37L3484,652.12l-2.82-12.9-2.41-13.38-2-13.46-1.52-13.53-1.12-13.58-.75-13.59L3473,558l-.22-13.65-.07-13.75,0-13.23.11-13.24.19-13.23.29-13.23.36-12.62.45-12.62.55-12.61.66-12.58.76-12.61.8-11.58.89-11.58.95-11.59,1-11.58,1.05-11.59,1.23-13.26,1.27-13.25L3484.6,317l1.39-13.22,1.46-13.21L3489,277l1.66-13.51,1.74-13.52,1.78-13.51L3496,223l1.86-13.52,1.76-12.76,1.78-12.76,1.78-12.76,1.8-12.76,1.8-12.76,1.8-12.76,1.8-12.76.73-5.15-5-1.45L3128.31,3.92l-3.42-1-2.51,2.52-6.09,6.14-6.15,5.72-8.45,6.63-9.05,5.71-9.55,4.73-12,4.33-12.52,3.16-9.06,1.68-9.2,1.33-9.3,1L3019,47l-12.09.79-12.11.57-12.16.42-12.2.31-12.2.27-11.95.26-12,.27-12,.29-12,.33-12,.35-10.43.34-10.34.3-10.36.21-13.22.08-13.23-.05h-11.35l-13.25.05L2803,51.69l-10.36-.21-10.36-.31-10.39-.33-12-.35-12-.32-12-.3-12-.27-12-.26-12.23-.27-12.16-.31-12.17-.42-12.11-.57L2651.34,47l-12-1.06-9.3-1-9.2-1.33-9.06-1.68-12.52-3.16-12-4.33-9.55-4.73-9.05-5.71-8.45-6.63L2554,11.59l-6.09-6.14-2.51-2.52Z"/><polygon class="cls-1" points="1143.79 2409.06 1156.11 2332.18 1143.79 2255.31 2511.67 2255.31 2499.35 2332.18 2511.67 2409.06 1143.79 2409.06"/><path class="cls-2" d="M2508.15,2258.31l-11.84,73.88,11.84,73.87H1147.31l11.84-73.87-11.84-73.88H2508.15m7-6H1140.27l1.12,7,11.68,72.93-11.68,72.92-1.12,6.95H2515.19l-1.11-6.95-11.69-72.92,11.69-72.93,1.11-7Z"/></g></g></svg>