<svg xmlns="http://www.w3.org/2000/svg" viewBox="0 0 1609.23 2213.02"><defs><style>.cls-1{fill:#021814;}.cls-2{fill:#007f3e;}</style></defs><g id="Layer_2" data-name="Layer 2"><g id="Layer_1-2" data-name="Layer 1"><polygon class="cls-1" points="20.23 2210.02 21.24 2134.97 3.03 791.51 15.97 787.29 26.75 783.69 37.43 779.91 47.93 775.88 58.29 771.5 68.05 766.9 77.57 761.86 86.82 756.35 95.71 750.34 104.17 743.79 112.08 736.67 121.37 726.64 129.7 715.74 137.14 704.15 142.32 694.79 146.96 685.16 151.01 675.29 155.24 662.75 158.7 649.91 161.55 636.88 163.97 623.39 165.94 609.78 167.47 596.17 168.6 582.51 169.35 568.85 169.81 555.16 170.03 541.45 170.1 527.72 170.07 514.46 169.96 501.2 169.77 487.95 169.48 474.7 169.12 462.06 168.67 449.42 168.12 436.79 167.46 424.16 166.69 411.55 165.89 399.94 165 388.34 164.05 376.74 163.04 365.14 161.99 353.54 160.76 340.28 159.49 327.02 158.16 313.77 156.77 300.53 155.31 287.31 153.72 273.77 152.05 260.23 150.32 246.71 148.53 233.18 146.7 219.66 144.85 206.13 143.08 193.37 141.3 180.61 139.52 167.85 135.93 142.32 131.95 114.23 514 3.38 521.4 10.82 527.68 16.66 536.35 23.47 545.66 29.35 555.5 34.21 567.81 38.66 580.57 41.88 589.78 43.59 599.14 44.93 608.51 45.99 620.61 47.04 632.74 47.83 644.89 48.41 657.07 48.83 669.27 49.15 693.44 49.67 705.4 49.94 717.35 50.24 729.31 50.56 741.27 50.91 751.68 51.25 762.08 51.55 772.47 51.76 785.7 51.84 798.95 51.8 810.28 51.8 823.56 51.84 836.81 51.76 847.18 51.55 857.56 51.25 867.96 50.91 879.92 50.56 891.88 50.24 903.83 49.94 915.79 49.67 939.98 49.15 952.19 48.83 964.38 48.41 976.55 47.83 988.69 47.04 1000.8 45.98 1010.18 44.92 1019.45 43.59 1028.67 41.88 1041.42 38.66 1053.73 34.21 1063.57 29.35 1072.88 23.47 1081.55 16.67 1087.83 10.82 1095.23 3.38 1477.28 114.23 1471.51 155.09 1469.71 167.85 1467.93 180.61 1466.15 193.37 1464.39 206.14 1462.53 219.66 1460.7 233.19 1458.92 246.72 1457.19 260.25 1455.52 273.78 1453.93 287.33 1452.46 300.55 1451.07 313.79 1449.75 327.03 1448.47 340.29 1447.24 353.55 1446.19 365.15 1445.18 376.75 1444.23 388.36 1443.34 399.96 1442.54 411.57 1441.77 424.19 1441.12 436.81 1440.56 449.45 1440.11 462.08 1439.75 474.72 1439.46 487.97 1439.27 501.23 1439.16 514.48 1439.13 527.74 1439.2 541.49 1439.43 555.22 1439.88 568.92 1440.64 582.59 1441.77 596.26 1443.3 609.88 1445.26 623.38 1447.69 636.88 1450.54 649.91 1453.99 662.74 1458.22 675.29 1462.28 685.16 1466.91 694.79 1472.09 704.15 1479.53 715.74 1487.86 726.64 1497.15 736.67 1505.06 743.79 1513.52 750.34 1522.41 756.35 1531.66 761.86 1541.18 766.9 1550.94 771.5 1561.3 775.88 1571.88 779.93 1582.53 783.7 1593.29 787.3 1606.2 791.51 1587.99 2135.06 1589.01 2210.02 20.23 2210.02"/><path class="cls-2" d="M1096.1,6.75l377.84,109.63-1.8,12.77-1.8,12.76-1.8,12.76-1.8,12.76L1465,180.19,1463.18,193l-1.77,12.77-1.85,13.53-1.83,13.53-1.79,13.53-1.73,13.55-1.67,13.55L1451,287l-1.47,13.24-1.39,13.25-1.33,13.26L1445.49,340l-1.23,13.27-1,11.61-1,11.61-1,11.62-.89,11.62-.81,11.63-.76,12.65-.66,12.65-.55,12.66-.46,12.66-.36,12.66-.28,13.27-.2,13.27-.11,13.27,0,13.28.07,13.77.23,13.76.45,13.76.76,13.74,1.14,13.74,1.54,13.71,2,13.66,2.44,13.6,2.88,13.15,3.5,13,4.29,12.73,4.12,10,4.72,9.79,5.27,9.52,7.56,11.78,8.49,11.1,9.47,10.24,8.1,7.28,8.62,6.68,9,6.11,9.38,5.6,9.65,5.1,9.87,4.66,10.47,4.43,10.62,4.06,10.73,3.8,10.8,3.62,10.84,3.52L1585,2135l1,72H23.27l1-72L6.06,793.67l10.84-3.52,10.8-3.62,10.73-3.8,10.62-4.06,10.47-4.43,9.87-4.66,9.65-5.1,9.39-5.6,9-6.11,8.62-6.68,8.1-7.28,9.48-10.24,8.49-11.1,7.56-11.78,5.27-9.52,4.71-9.79,4.12-10,4.29-12.73,3.5-13,2.88-13.15,2.44-13.6,2-13.66,1.55-13.71,1.13-13.74.76-13.74.46-13.76L173,541.5l.07-13.77,0-13.28L173,501.18l-.19-13.27-.29-13.27L172.12,462l-.45-12.66-.56-12.66L170.46,424l-.77-12.65-.81-11.63L168,388.11l-1-11.62-1-11.61L165,353.27,163.75,340l-1.28-13.27-1.32-13.26-1.39-13.25L158.29,287l-1.59-13.56L155,259.87l-1.74-13.55-1.79-13.53-1.83-13.53-1.85-13.53L146.05,193l-1.78-12.76-1.78-12.77-1.8-12.76-1.79-12.76-1.81-12.76-1.8-12.77L513.13,6.75,519.31,13l6.42,6,8.89,7,9.57,6,10.14,5,12.6,4.55,13,3.28,9.36,1.74,9.42,1.35L608.17,49,620.35,50l12.19.8,12.21.58,12.22.42,12.22.31,12.23.27,12,.26,12,.27,11.95.3,12,.32,11.95.35,10.41.33,10.41.31,10.41.21,13.27.08L799,54.79h11.32l13.27.05,13.27-.08,10.42-.21,10.41-.31,10.41-.33,12-.35,12-.32,11.95-.3,12-.27,11.95-.26L940,52.14l12.22-.31,12.22-.42,12.21-.58,12.2-.8L1001.06,49l9.46-1.07,9.42-1.35,9.37-1.74,13-3.28L1054.91,37,1065,32l9.57-6,8.89-7,6.42-6,6.18-6.23M514.88,0l-3.42,1L133.62,110.62l-5,1.45.73,5.15,1.8,12.77,1.8,12.76,1.8,12.76,1.8,12.76L138.33,181l1.78,12.76,1.77,12.76,1.85,13.52,1.83,13.52,1.78,13.52,1.74,13.52,1.66,13.52,1.59,13.53,1.46,13.2,1.39,13.22,1.32,13.23,1.27,13.24L159,353.82l1.05,11.6,1,11.59,1,11.59.88,11.59.8,11.54.77,12.61.65,12.63.55,12.61.45,12.61.36,12.62.29,13.23.19,13.23.11,13.23,0,13.24L167,541.45l-.22,13.66-.45,13.64-.76,13.6-1.12,13.57L163,609.45l-2,13.46-2.41,13.38-2.82,12.91-3.42,12.68-4.16,12.36-4,9.7-4.57,9.47-5.09,9.21L127.24,714l-8.17,10.68L110,734.53l-7.73,7L94,747.9l-8.74,5.91-9.11,5.43-9.4,5-9.63,4.54L46.81,773.1l-10.46,4-10.61,3.76L15,784.44h0L4.2,788,0,789.34l.06,4.42L18.24,2135l-1,71.92-.08,6.09H1592.05l-.09-6.09-1-71.92,18.18-1341.25.06-4.42L1605,788l-10.84-3.53-10.71-3.58-10.6-3.76-10.45-4-10.27-4.34-9.63-4.54-9.4-5-9.1-5.43-8.75-5.91-8.29-6.42-7.73-7-9.1-9.83L1482,714l-7.32-11.4-5.09-9.21-4.56-9.47-4-9.7-4.16-12.36-3.42-12.68-2.82-12.91-2.41-13.38-2-13.46-1.52-13.53-1.12-13.57-.75-13.6-.46-13.64-.22-13.66-.07-13.75,0-13.23.11-13.24.19-13.23.29-13.23.36-12.62.45-12.62.55-12.61.66-12.58.76-12.61.8-11.58.89-11.58,1-11.58,1-11.59,1-11.59,1.23-13.26,1.28-13.24,1.32-13.24,1.39-13.22,1.46-13.21,1.59-13.52,1.67-13.52,1.73-13.51,1.78-13.52,1.83-13.51,1.85-13.52,1.76-12.76L1470.9,181l1.79-12.76,1.79-12.76,1.8-12.76,1.8-12.76,1.81-12.76.72-5.15-5-1.45L1097.77,1l-3.42-1-2.5,2.53-6.1,6.13-6.15,5.72L1071.15,21l-9.05,5.72-9.55,4.72-12,4.34L1028,39,1019,40.63l-9.2,1.32-9.3,1-12,1-12.09.79-12.11.57-12.16.42-12.19.32-12.21.26-11.95.26-12,.27-12,.3-12,.32-12,.35-10.42.34-10.35.3-10.36.21-13.22.08-13.23-.05H799l-13.26.05-13.22-.08-10.35-.21-10.37-.3-10.39-.34-12-.35-12-.32-12-.3-12-.27-12-.26-12.23-.26-12.16-.32L645,45.41l-12.11-.57-12.08-.79-12-1-9.3-1-9.2-1.32L581.21,39l-12.52-3.16-12-4.34-9.55-4.72-9-5.72-8.46-6.63-6.15-5.72-6.09-6.13L514.88,0Z"/></g></g></svg>