<svg xmlns="http://www.w3.org/2000/svg" viewBox="0 0 1609.25 2215.94"><defs><style>.cls-1{fill:#021814;}.cls-2{fill:#007f3e;}</style></defs><g id="Layer_2" data-name="Layer 2"><g id="Layer_1-2" data-name="Layer 1"><polygon class="cls-1" points="20.23 2212.94 21.25 2137.9 3.03 794.08 16.56 789.66 27.95 785.85 39.27 781.9 48.81 778.35 58.12 774.53 67.95 769.95 77.52 764.86 86.82 759.28 95.71 753.25 104.17 746.71 112.09 739.6 121.38 729.57 129.71 718.68 137.15 707.08 142.33 697.72 146.96 688.09 151.02 678.22 155.25 665.67 158.7 652.84 161.55 639.81 163.98 626.31 165.95 612.71 167.48 599.1 168.61 585.44 169.36 571.78 169.81 558.09 170.04 544.38 170.11 530.64 170.08 517.39 169.97 504.13 169.77 490.88 169.49 477.63 169.13 464.99 168.68 452.35 168.12 439.72 167.47 427.09 166.7 414.47 165.9 402.87 165.01 391.27 164.05 379.67 163.04 368.07 162 356.47 160.76 343.2 159.49 329.95 158.17 316.7 156.78 303.46 155.31 290.24 153.73 276.69 152.06 263.16 150.32 249.63 148.54 236.11 146.71 222.59 144.85 209.06 143.09 196.3 141.31 183.54 137.73 158.01 131.96 117.16 522.93 3.72 527.35 19.08 530.97 31.54 534.65 43.97 538.43 56.36 542.35 68.69 546.43 80.97 550.77 93.31 555.35 105.55 560.23 117.66 565.45 129.62 570.94 141.18 576.79 152.51 583.04 163.68 589.66 174.62 596.68 185.32 602.87 194.09 609.35 202.62 616.15 210.9 623.16 218.73 630.5 226.24 638.19 233.36 648.76 242.09 659.85 250.18 671.4 257.68 683.3 264.67 693.67 270.22 704.22 275.31 714.98 279.86 725.96 283.76 737.53 287.04 749.31 289.53 761.23 291.25 773.25 292.18 780.5 292.39 799.09 292.59 810.19 292.59 828.8 292.39 836.01 292.18 848.02 291.25 859.94 289.53 871.72 287.04 883.29 283.77 894.27 279.86 905.02 275.32 915.59 270.22 925.95 264.67 937.86 257.68 949.39 250.18 960.49 242.09 971.06 233.36 978.74 226.24 986.09 218.73 993.1 210.9 999.9 202.62 1006.38 194.09 1012.57 185.32 1019.58 174.62 1026.21 163.68 1032.46 152.51 1038.35 141.09 1043.84 129.53 1049.05 117.58 1053.92 105.48 1058.5 93.25 1062.83 80.92 1066.91 68.66 1070.82 56.33 1074.6 43.95 1078.28 31.53 1081.9 19.08 1086.32 3.72 1477.29 117.16 1471.51 158.02 1469.72 170.78 1467.93 183.54 1466.16 196.3 1464.39 209.07 1462.54 222.59 1460.71 236.12 1458.93 249.64 1457.19 263.18 1455.53 276.71 1453.94 290.25 1452.47 303.48 1451.08 316.72 1449.76 329.96 1448.48 343.21 1447.25 356.48 1446.2 368.08 1445.19 379.68 1444.23 391.29 1443.35 402.89 1442.54 414.5 1441.78 427.12 1441.12 439.74 1440.57 452.38 1440.12 465.01 1439.76 477.65 1439.47 490.9 1439.28 504.15 1439.17 517.41 1439.14 530.67 1439.21 544.41 1439.43 558.14 1439.89 571.85 1440.64 585.52 1441.77 599.19 1443.31 612.81 1445.27 626.31 1447.69 639.81 1450.54 652.84 1454 665.67 1458.23 678.22 1462.29 688.09 1466.92 697.72 1472.11 707.08 1479.55 718.67 1487.87 729.57 1497.15 739.6 1505.07 746.71 1513.54 753.25 1522.43 759.28 1531.72 764.86 1541.3 769.95 1551.13 774.53 1560.53 778.39 1570.03 781.92 1581.33 785.87 1592.7 789.67 1606.22 794.08 1588 2137.99 1589.01 2212.94 20.23 2212.94"/><path class="cls-2" d="M1088.37,7.44,1474,119.31l-1.8,12.76-1.81,12.77-1.8,12.76-1.79,12.76L1465,183.12l-1.77,12.77-1.77,12.77-1.85,13.52-1.83,13.53L1456,249.25l-1.73,13.54-1.67,13.55L1451,289.91l-1.47,13.24-1.39,13.25-1.33,13.26-1.27,13.27-1.24,13.27-1,11.61-1,11.61-1,11.62-.88,11.62-.81,11.63-.77,12.65-.65,12.65-.56,12.65-.45,12.67-.36,12.66-.29,13.27-.19,13.27-.11,13.27,0,13.28.07,13.77.22,13.76.46,13.76.76,13.74,1.14,13.74,1.54,13.71,2,13.66,2.44,13.6,2.88,13.15,3.5,13,4.29,12.73,4.12,10,4.72,9.79,5.27,9.52,7.56,11.78,8.48,11.11,9.48,10.23,8.1,7.27,8.63,6.67,9,6.13,9.44,5.67,9.71,5.16,10,4.64,9.46,3.88,9.59,3.57,11.36,4,11.41,3.81,11.44,3.74L1585,2137.94l1,72H23.27l1-72L6.06,796.25l11.44-3.74,11.41-3.81,11.35-4,9.59-3.57,9.47-3.88,10-4.64L79,767.48l9.43-5.67,9-6.13L106.1,749l8.1-7.27,9.48-10.23,8.49-11.11,7.55-11.78L145,699.1l4.72-9.79,4.12-10,4.29-12.73,3.5-13,2.88-13.15,2.44-13.6,2-13.66,1.54-13.71,1.14-13.74.76-13.74.45-13.76.23-13.76.07-13.77,0-13.28L173,504.11l-.2-13.27-.28-13.27-.36-12.66-.46-12.67-.55-12.65-.66-12.65-.76-12.65-.81-11.63L168,391l-1-11.62-1-11.61L165,356.2l-1.23-13.27-1.27-13.27-1.33-13.26-1.39-13.25-1.46-13.24-1.59-13.57L155,262.79l-1.74-13.54-1.79-13.54-1.83-13.53-1.86-13.52-1.76-12.77-1.78-12.77-1.79-12.76L140.7,157.6l-1.8-12.76-1.8-12.77-1.8-12.76L520.88,7.44l3.58,12.47,3.63,12.47,3.69,12.44,3.79,12.41,3.92,12.37,4.1,12.32,4.35,12.39,4.6,12.29,4.91,12.18,5.25,12,5.53,11.65,5.92,11.46,6.3,11.26,6.68,11L594.2,187l6.25,8.85,6.54,8.62,6.88,8.37,7.1,7.93,7.44,7.61,7.8,7.23,10.71,8.84,11.23,8.19,11.67,7.59,12,7.05,10.47,5.6L703,278.05l10.9,4.61,11.16,4L736.81,290l12,2.54,12.11,1.74,12.19.94,7.33.22,7.33.08,11.31.12h11.13l11.31-.12,7.33-.08,7.34-.21,12.18-.95,12.11-1.74,12-2.54,11.76-3.32,11.16-4,10.9-4.61,10.68-5.16,10.47-5.6,12-7.05,11.67-7.59,11.23-8.19L973,235.62l7.79-7.23,7.45-7.61,7.1-7.93,6.87-8.37,6.55-8.62,6.25-8.85,7.07-10.79,6.68-11,6.3-11.26,5.91-11.46,5.54-11.65,5.25-12,4.9-12.18,4.61-12.29,4.35-12.39,4.09-12.32,3.93-12.37,3.79-12.41,3.69-12.44,3.62-12.47,3.59-12.47M1084.27,0l-1.67,5.78L1079,18.26,1075.4,30.7l-3.68,12.42L1068,55.44l-3.9,12.31L1060,80l-4.31,12.28-4.56,12.17-4.84,12-5.18,11.87-5.46,11.48-5.82,11.28-6.2,11.08L1017,173l-7,10.61-6.12,8.68-6.42,8.46-6.72,8.17-6.92,7.74-7.25,7.41-7.57,7-10.43,8.62-11,8-11.41,7.42-11.8,6.92-10.26,5.49-10.43,5-10.61,4.49-10.8,3.84L871,284.12l-11.59,2.46-11.72,1.68-11.84.92-7.14.21-7.28.08-11.28.12h-11l-11.29-.12-7.27-.08-7.13-.21-11.85-.92-11.72-1.68-11.59-2.46-11.38-3.21-10.81-3.85-10.6-4.48-10.43-5-10.26-5.5L673,255.13l-11.42-7.43-11-8-10.43-8.62-7.57-7-7.25-7.41-6.93-7.74-6.72-8.17-6.42-8.46-6.12-8.68-7-10.61-6.57-10.85-6.2-11.08-5.82-11.28-5.45-11.48L563,116.46l-4.84-12-4.56-12.17L549.26,80,545.2,67.75l-3.91-12.31-3.78-12.37-3.67-12.4-3.61-12.43L526.64,5.78,525,0,519.2,1.68,133.62,113.55l-5,1.45.72,5.15,1.81,12.76,1.8,12.77,1.8,12.75,1.79,12.76L138.34,184l1.78,12.77,1.76,12.76L143.74,223l1.82,13.52L147.35,250l1.73,13.52,1.67,13.52,1.59,13.52,1.46,13.21L155.19,317l1.32,13.23,1.27,13.24L159,356.75l1.05,11.6,1,11.59,1,11.59.89,11.59.8,11.54.76,12.61.66,12.63.55,12.61.45,12.61.36,12.62.29,13.23L167,504.2l.11,13.23,0,13.24L167,544.38,166.82,558l-.46,13.64-.75,13.6-1.12,13.57L163,612.38,161,625.84l-2.41,13.38-2.82,12.91-3.42,12.67-4.16,12.37-4,9.69-4.56,9.48-5.09,9.21L127.25,717l-8.17,10.69L110,737.46l-7.74,6.94L94,750.82l-8.74,5.92L76,762.25l-9.43,5-9.7,4.52-9.23,3.78-9.46,3.52L27,783l-11.37,3.8L4.2,790.54,0,791.92l.06,4.41L18.25,2137.94l-1,71.92-.09,6.08H1592.05l-.08-6.08-1-71.92,18.19-1341.61.06-4.41-4.2-1.38-11.44-3.73L1582.28,783,1571,779.09l-9.45-3.52-9.24-3.78-9.69-4.52-9.43-5-9.17-5.5-8.75-5.93L1507,744.4l-7.74-6.94-9.09-9.82L1482,717l-7.32-11.41-5.09-9.2-4.57-9.48-4-9.69-4.17-12.37-3.41-12.68-2.82-12.89-2.41-13.39-2-13.46-1.52-13.53-1.12-13.57-.76-13.6-.45-13.64-.22-13.66-.07-13.75,0-13.23.11-13.24.19-13.23.29-13.23.36-12.62.45-12.62.55-12.61.65-12.58.77-12.61.8-11.58.89-11.58,1-11.59,1-11.58,1-11.59,1.23-13.26,1.27-13.24,1.33-13.24,1.39-13.22,1.46-13.21,1.59-13.53,1.66-13.51L1461.9,250l1.79-13.51,1.82-13.51,1.86-13.52,1.76-12.76,1.78-12.76,1.78-12.76,1.8-12.76,1.79-12.76,1.81-12.76,1.8-12.76.73-5.15-5-1.45L1090,1.68,1084.27,0Z"/></g></g></svg>