<svg xmlns="http://www.w3.org/2000/svg" viewBox="0 0 1405.49 799.79"><defs><style>.cls-1{fill:#021814;}.cls-2{fill:#007f3e;}</style></defs><g id="Layer_2" data-name="Layer 2"><g id="Layer_1-2" data-name="Layer 1"><polygon class="cls-1" points="105.49 796.79 129.68 721.79 3.81 331.55 19.94 327.05 33.05 323.37 46.15 319.65 59.24 315.88 72.3 312.03 85.33 308.08 97.32 304.34 109.25 300.45 121.1 296.37 132.84 292.06 144.46 287.46 155.87 282.56 168.4 276.68 180.67 270.4 192.77 263.75 204.7 256.78 216.51 249.5 228.17 242 239.71 234.29 251.15 226.42 261.33 219.27 271.47 212.04 281.57 204.75 291.63 197.4 301.68 190.02 310.96 183.17 329.55 169.45 338.86 162.61 348.19 155.79 358.45 148.35 368.75 140.95 379.07 133.59 389.42 126.25 399.78 118.94 410.15 111.65 420.54 104.38 441.33 89.86 451.92 82.49 462.55 75.16 473.25 67.92 484.07 60.82 495.02 53.92 506.15 47.27 517.48 40.92 529.8 34.54 542.29 28.67 554.96 23.37 567.93 18.67 581.12 14.66 593.23 11.68 605.45 9.28 617.83 7.38 630.11 5.94 642.52 4.87 654.94 4.12 666.92 3.63 678.87 3.32 690.8 3.13 702.71 3 714.68 3.13 726.59 3.32 738.52 3.63 750.48 4.11 762.88 4.86 775.29 5.93 787.77 7.39 800.03 9.28 812.33 11.7 824.37 14.66 837.56 18.67 850.52 23.37 863.31 28.72 875.79 34.59 887.92 40.87 899.27 47.23 910.4 53.89 921.37 60.79 932.2 67.89 942.92 75.14 953.56 82.48 964.15 89.86 984.94 104.38 995.33 111.65 1005.7 118.94 1016.06 126.25 1026.4 133.58 1036.72 140.94 1047.02 148.35 1057.29 155.79 1066.62 162.61 1075.93 169.45 1085.23 176.31 1094.52 183.17 1103.82 190.03 1113.86 197.41 1123.93 204.76 1134.03 212.05 1144.17 219.29 1154.37 226.44 1165.82 234.31 1177.37 242.02 1189.04 249.54 1200.85 256.81 1212.79 263.79 1224.9 270.44 1237.19 276.72 1249.62 282.56 1261.11 287.5 1272.72 292.08 1284.45 296.39 1296.28 300.46 1308.2 304.35 1320.18 308.09 1333.21 312.03 1346.27 315.88 1359.35 319.65 1372.44 323.37 1385.56 327.05 1401.68 331.55 1275.81 721.79 1300 796.79 105.49 796.79"/><path class="cls-2" d="M702.75,6l11.89.13,11.9.19,11.91.31,11.91.48,12.34.75L775,8.92l12.28,1.44,12.2,1.87,12.1,2.38,12,2.95,13,4,12.82,4.65L862,31.44l12.38,5.81,12.13,6.28,11.26,6.32,11.07,6.61,10.9,6.87,10.78,7.07,10.69,7.22L951.85,85l10.59,7.37,10.39,7.26,10.4,7.26,10.38,7.27,10.37,7.28,10.35,7.31,10.34,7.33,10.31,7.36,10.29,7.39,10.26,7.44,9.32,6.81,9.31,6.84,9.29,6.85,9.29,6.86,9.29,6.86,10.06,7.39,10.08,7.35,10.11,7.31,10.15,7.24,10.21,7.17,11.48,7.88,11.58,7.74,11.71,7.54,11.87,7.31,12,7,12.18,6.69,12.37,6.32,12.57,5.91,11.54,4.95,11.68,4.63,11.8,4.33,11.9,4.09,12,3.9,12,3.75,13,3.95,13.08,3.86,13.1,3.78,13.11,3.72,13.11,3.68,13.13,3.66L1272.66,721.79l23.22,72H109.61l23.22-72L7.63,333.6l13.12-3.66,13.11-3.68L47,322.54l13.1-3.78,13.07-3.86L86.2,311l12-3.75,12-3.9,11.9-4.09,11.8-4.33,11.68-4.62,11.54-5,12.57-5.91L182,273.07l12.18-6.69,12-7,11.86-7.31,11.71-7.54,11.58-7.74,11.48-7.88,10.21-7.17,10.15-7.24,10.11-7.31,10.08-7.35,10.05-7.39,9.3-6.86,9.29-6.86,9.29-6.85,9.3-6.84,9.33-6.81,10.26-7.44,10.28-7.39L380.82,136l10.33-7.33,10.36-7.31,10.37-7.28,10.38-7.27,10.39-7.26,10.4-7.26L453.63,85l10.62-7.33,10.68-7.22,10.78-7.07,10.91-6.87,11.07-6.61L519,43.53l12.13-6.28,12.37-5.81,12.6-5.27,12.83-4.65,13-4,12-2.95L606,12.23l12.21-1.87,12.28-1.44,12.32-1.06,12.34-.75L667,6.63,679,6.32l11.9-.19L702.75,6m0-6h-.07l-11.9.13L678.85.32h-.06l-11.9.31h-.09l-11.92.48h-.12l-12.34.75h-.15L629.94,2.94h-.18L617.48,4.4h-.11l-.11,0L605.06,6.3l-.12,0-.13,0L592.72,8.72l-.14,0-.14,0-12,2.94-.16,0-.15.05-13,3.95-.15.05-.15.06L554,20.53l-.14,0-.13.05-12.6,5.27L541,26l-.12.06-12.37,5.81-.11.05-.1.05-12.13,6.29-.09,0-.09,0-11.26,6.31-.07,0-.07.05-11.07,6.61-.06,0-.06,0-10.91,6.86,0,0-.05,0-10.78,7.08,0,0,0,0-10.68,7.22,0,0,0,0L450.23,80,439.62,87.4l-10.4,7.26-10.4,7.26-10.38,7.27-10.38,7.29-10.37,7.32-10.34,7.33L367,138.5l-10.31,7.41-10.27,7.45-9.35,6.82L327.77,167l-9.3,6.86-9.29,6.87-9.29,6.85-10,7.38-10.06,7.34-10.09,7.29-10.13,7.22L249.44,224,238,231.82l-11.5,7.68L214.88,247l-11.75,7.24-11.87,6.94-12,6.61L167,274l-12.39,5.82-11.36,4.88-11.54,4.56-11.67,4.28-11.79,4.06-11.89,3.87-12,3.74-13,3.94-13,3.84-13.06,3.77-13.08,3.71-13.1,3.68L6,327.82,0,329.5l1.92,5.94,124.6,386.35L103.9,792l-2.53,7.84H1304.12l-2.53-7.84L1279,721.79l124.62-386.35,1.91-5.94-6-1.68-13.12-3.66-13.11-3.68-13.1-3.72L1347.08,313l-13-3.84-13-3.93-12-3.74-11.89-3.87-11.78-4.05-11.68-4.29-11.53-4.56-11.37-4.88L1238.47,274l-12.21-6.24-12-6.61-11.87-6.94L1190.61,247,1179,239.5l-11.5-7.68L1156.06,224l-10.18-7.15-10.12-7.22-10.08-7.28L1115.62,195l-10-7.38-9.29-6.85L1087,173.9l-9.3-6.86-9.31-6.85-9.34-6.82-10.28-7.45-10.31-7.41-10.33-7.37-10.35-7.34-10.36-7.31-10.38-7.29-10.39-7.28-10.4-7.26-10.4-7.26L955.28,80l-10.64-7.33,0,0,0,0-10.69-7.22,0,0,0,0-10.78-7.08,0,0,0,0-10.91-6.86-.06,0,0,0L900.88,44.7l-.07-.05-.08,0L889.48,38.3l-.09,0-.09,0-12.13-6.29-.11-.05-.1-.05L864.59,26l-.12-.06-.12-.05-12.6-5.27-.14-.05-.13,0-12.82-4.65-.15-.06-.16-.05-13-3.95-.15-.05-.16,0-12-2.94-.14,0-.14,0-12.1-2.37-.12,0-.12,0L788.22,4.43l-.11,0H788L775.73,3h-.19L763.22,1.88h-.15l-12.35-.75h-.12L738.69.63h-.09L726.7.32h-.06L714.74.13,702.81,0Z"/></g></g></svg>