<svg xmlns="http://www.w3.org/2000/svg" xmlns:xlink="http://www.w3.org/1999/xlink" viewBox="0 0 2476.02 2879.16"><defs><style>.cls-1{fill:#fdb515;}.cls-2{fill:none;}.cls-3{fill:#fcda0f;}.cls-4{fill:#ec008c;}.cls-5{clip-path:url(#clip-path);}.cls-6{clip-path:url(#clip-path-2);}.cls-7{fill:url(#New_Pattern_Swatch_2);}.cls-8{fill:#fff;}.cls-9{fill:#00003b;}.cls-10{fill:#00a651;}</style><clipPath id="clip-path" transform="translate(176.6 331.74)"><polygon class="cls-1" points="1908.02 6.03 1908.26 19.76 1908.5 33.5 1908.76 47.23 1909.04 60.97 1909.35 74.7 1909.7 88.43 1910.08 102.16 1910.52 115.89 1910.99 129.13 1911.51 142.38 1912.07 155.62 1912.67 168.87 1913.31 182.11 1913.98 195.35 1914.68 208.59 1915.4 221.83 1916.14 235.1 1916.91 248.38 1917.72 261.65 1918.57 274.92 1919.48 288.19 1920.44 301.45 1921.47 314.7 1922.57 327.95 1923.76 341.19 1925.03 354.43 1926.31 366.72 1927.67 379.01 1929.11 391.29 1930.64 403.56 1932.25 415.81 1933.94 428.06 1935.62 439.69 1937.36 451.31 1939.13 462.92 1940.92 474.53 1929.74 476.94 1918.61 479.5 1907.55 482.37 1896.26 485.8 1885.18 489.83 1874.38 494.58 1862.44 501.03 1851.14 508.55 1840.6 517.13 1832.38 525.2 1824.93 533.98 1818.39 543.41 1812.35 554.43 1807.39 565.99 1803.18 578.48 1799.82 591.23 1796.98 605.06 1794.87 619.02 1793.43 633.07 1792.72 644.76 1792.39 656.48 1792.4 668.19 1792.69 679.91 1793.22 691.7 1793.99 703.46 1795 715.21 1796.25 726.94 1797.74 738.63 1799.47 750.22 1801.44 761.76 1803.66 773.25 1806.12 784.7 1808.84 796.08 1812.34 809.38 1816.16 822.58 1820.28 835.7 1824.67 848.73 1829.31 861.69 1834.18 874.57 1839.25 887.38 1844.5 900.12 1849.95 912.88 1855.58 925.57 1861.39 938.17 1867.42 950.65 1873.67 963.02 1880.16 975.26 1886.91 987.35 1893.93 999.28 1901.11 1010.84 1908.55 1022.25 1916.24 1033.5 1924.14 1044.6 1932.24 1055.57 1940.52 1066.4 1948.95 1077.11 1957.33 1087.47 1965.82 1097.73 1974.41 1107.91 1983.09 1118.02 1991.83 1128.06 2000.62 1138.07 2008.69 1147.19 2016.79 1156.3 2024.89 1165.4 2033.01 1174.49 2032.99 1527.85 2032.99 1581.85 2032.99 1617.84 2032.98 1869.86 2032.98 1905.85 2032.98 1959.85 2032.98 2020.28 2048.94 2081.68 2036.3 2083.08 2023.67 2084.57 2011.08 2086.22 1998.52 2088.13 1985.11 2090.52 1971.75 2093.22 1958.43 2096.16 1945.15 2099.26 1931.87 2102.44 1918.6 2105.64 1905.46 2108.74 1892.32 2111.78 1879.16 2114.77 1865.99 2117.69 1852.81 2120.56 1839.62 2123.37 1826.42 2126.14 1813.21 2128.85 1799.36 2131.64 1785.5 2134.37 1771.62 2137.04 1757.73 2139.64 1743.83 2142.17 1729.91 2144.61 1715.98 2146.97 1702.03 2149.23 1689.22 2151.22 1676.39 2153.13 1663.55 2154.96 1650.7 2156.72 1637.84 2158.4 1624.97 2160.01 1612.09 2161.56 1599.52 2163.01 1586.93 2164.39 1574.35 2165.71 1561.76 2166.98 1549.15 2168.18 1536.55 2169.32 1523.94 2170.4 1511.33 2171.42 1497.39 2172.49 1483.44 2173.49 1469.49 2174.44 1455.54 2175.35 1441.58 2176.25 1427.63 2177.13 1413.67 2178.01 1400.11 2178.88 1386.54 2179.74 1372.98 2180.6 1359.41 2181.43 1345.84 2182.23 1332.27 2182.99 1320.48 2183.6 1308.69 2184.16 1296.89 2184.68 1285.1 2185.15 1273.3 2185.58 1260.13 2186 1246.96 2186.36 1233.78 2186.68 1220.61 2186.96 1207.43 2187.2 1194.25 2187.41 1181.08 2187.59 1167.9 2187.76 1154.79 2187.91 1141.68 2188.05 1128.57 2188.18 1115.46 2188.3 1102.35 2188.42 1089.24 2188.53 1076.14 2188.64 1027.47 2188.64 978.8 2188.64 965.69 2188.53 952.58 2188.42 939.47 2188.3 926.36 2188.18 913.25 2188.05 900.14 2187.91 887.03 2187.76 873.85 2187.59 860.67 2187.41 847.5 2187.2 834.32 2186.96 821.14 2186.68 807.97 2186.36 794.8 2186 781.63 2185.58 769.83 2185.15 758.04 2184.68 746.25 2184.16 734.46 2183.59 722.67 2182.99 709.1 2182.23 695.53 2181.43 681.96 2180.6 668.39 2179.74 654.82 2178.88 641.25 2178.01 627.3 2177.13 613.34 2176.25 599.39 2175.36 585.44 2174.44 571.49 2173.49 557.54 2172.49 543.6 2171.42 530.99 2170.4 518.37 2169.31 505.77 2168.17 493.17 2166.96 480.58 2165.69 467.99 2164.37 455.41 2162.98 442.84 2161.53 429.96 2159.98 417.09 2158.37 404.23 2156.69 391.38 2154.93 378.54 2153.1 365.71 2151.19 352.89 2149.2 338.95 2146.94 325.02 2144.58 311.1 2142.14 297.2 2139.62 283.31 2137.02 269.44 2134.35 255.58 2131.61 241.73 2128.82 228.52 2126.11 215.32 2123.34 202.13 2120.53 188.95 2117.66 175.78 2114.74 162.62 2111.75 149.48 2108.71 136.34 2105.61 123.07 2102.41 109.79 2099.23 96.5 2096.13 83.19 2093.19 69.83 2090.49 56.42 2088.1 43.86 2086.19 31.27 2084.54 18.64 2083.05 6 2081.65 21.96 2020.25 21.96 1959.82 21.96 1905.82 21.96 1869.83 21.96 1617.81 21.96 1581.82 21.96 1527.82 21.96 1174.46 30.07 1165.37 38.18 1156.27 46.28 1147.16 54.35 1138.04 63.14 1128.03 71.88 1117.98 80.55 1107.88 89.14 1097.7 97.64 1087.44 106.02 1077.08 114.45 1066.37 122.73 1055.54 130.84 1044.57 138.74 1033.47 146.43 1022.22 153.87 1010.81 161.05 999.25 168.07 987.32 174.82 975.23 181.31 963 187.56 950.63 193.58 938.14 199.39 925.54 205.02 912.86 210.47 900.09 215.72 887.35 220.79 874.54 225.66 861.66 230.31 848.7 234.7 835.67 238.82 822.55 242.64 809.35 246.15 796.06 248.86 784.67 251.32 773.23 253.54 761.73 255.51 750.19 257.24 738.61 258.73 726.91 259.98 715.18 260.99 703.43 261.76 691.67 262.3 679.88 262.59 668.16 262.6 656.45 262.27 644.73 261.55 633.04 260.11 619 258 605.03 255.16 591.2 251.81 578.45 247.61 565.96 242.64 554.42 236.59 543.41 230.04 533.97 222.6 525.18 214.38 517.1 203.85 508.52 192.55 501 180.61 494.55 169.82 489.8 158.74 485.77 147.45 482.34 136.39 479.47 125.25 476.91 114.08 474.5 115.86 462.89 117.63 451.27 119.36 439.65 121.04 428.03 122.73 415.78 124.34 403.52 125.87 391.26 127.32 378.98 128.69 366.69 129.96 354.4 131.24 341.17 132.43 327.93 133.54 314.68 134.57 301.42 135.53 288.16 136.43 274.89 137.28 261.62 138.08 248.35 138.85 235.07 139.6 221.8 140.32 208.56 141.01 195.32 141.69 182.08 142.32 168.84 142.93 155.59 143.49 142.35 144.01 129.1 144.48 115.86 144.92 102.13 145.3 88.4 145.65 74.67 145.96 60.94 146.24 47.2 146.5 33.47 146.75 19.73 147 6 159.1 9.75 171.23 13.43 183.39 17 195.59 20.39 207.02 23.35 218.48 26.17 232.26 29.44 246.07 32.6 259.91 35.63 273.77 38.52 287.67 41.25 301.6 43.81 315.2 46.12 328.82 48.26 342.47 50.22 356.14 52.01 367.44 53.36 378.75 54.61 390.08 55.76 401.41 56.84 413.39 57.91 425.37 58.92 437.36 59.86 449.35 60.75 461.35 61.59 474.82 62.46 488.3 63.28 501.77 64.05 515.25 64.76 528.74 65.43 542.23 66.04 555.35 66.6 568.48 67.12 581.61 67.59 594.74 68.03 607.87 68.43 621 68.79 634.13 69.11 647.27 69.4 660.4 69.65 673.54 69.87 686.88 70.05 700.21 70.2 713.55 70.33 726.89 70.42 740.23 70.5 753.57 70.56 766.91 70.61 780.25 70.64 793.59 70.67 806.92 70.69 852.41 70.69 859.99 78.34 867.67 85.87 874.28 92.06 880.97 98.16 888.53 105 896.11 111.83 903.41 118.42 910.72 125.01 918.02 131.6 936.32 147.82 944.36 155.22 952.41 162.61 960.48 169.99 968.57 177.35 978.21 186.24 987.26 195.74 993.82 204.78 999.09 217.64 1002.33 231.47 1002.33 279.56 1027.5 279.56 1052.66 279.56 1052.66 231.47 1055.9 217.64 1061.17 204.78 1067.73 195.74 1076.79 186.24 1086.43 177.35 1094.52 169.99 1102.59 162.61 1110.64 155.22 1118.68 147.82 1136.98 131.6 1144.28 125 1151.58 118.41 1158.89 111.83 1166.48 105.02 1174.05 98.19 1180.73 92.08 1187.34 85.87 1195.02 78.33 1202.59 70.69 1248.07 70.69 1261.41 70.67 1274.75 70.65 1288.09 70.62 1301.43 70.58 1314.77 70.52 1328.11 70.45 1341.44 70.35 1354.78 70.23 1368.12 70.08 1381.46 69.9 1394.6 69.68 1407.73 69.42 1420.86 69.13 1434 68.81 1447.13 68.44 1460.26 68.04 1473.39 67.6 1486.52 67.12 1499.65 66.6 1512.77 66.04 1526.26 65.43 1539.74 64.77 1553.22 64.06 1566.7 63.3 1580.18 62.49 1593.65 61.61 1605.64 60.78 1617.64 59.89 1629.63 58.95 1641.61 57.94 1653.59 56.87 1664.92 55.79 1676.24 54.64 1687.56 53.39 1698.86 52.04 1712.53 50.25 1726.18 48.29 1739.8 46.15 1753.39 43.84 1767.33 41.28 1781.22 38.55 1795.09 35.66 1808.93 32.63 1822.74 29.47 1836.52 26.19 1847.98 23.38 1859.4 20.42 1871.61 17.03 1883.78 13.46 1895.9 9.78 1908.02 6.03"/></clipPath><clipPath id="clip-path-2" transform="translate(176.6 331.74)"><rect class="cls-2" x="21.96" y="1563.81" width="2011.03" height="252"/></clipPath><pattern id="New_Pattern_Swatch_2" data-name="New Pattern Swatch 2" width="7.88" height="4.55" patternTransform="matrix(-12.6, 0, 0, 12.6, 41404.21, -205410.29)" patternUnits="userSpaceOnUse" viewBox="0 0 7.88 4.55"><rect class="cls-2" width="7.88" height="4.55"/><rect class="cls-1" width="7.88" height="4.55"/><polygon class="cls-3" points="5.38 2.48 4.19 4.55 4.18 4.55 3.94 4.55 3.94 4.55 5.19 2.38 3.94 0.21 1.44 0.21 0.19 2.38 1.44 4.55 1.2 4.55 0 2.48 0 2.48 0 2.48 0 2.29 0 2.27 0.01 2.27 1.26 0.1 1.23 0.05 1.2 0 1.32 0 1.44 0 3.94 0 4.07 0 4.18 0 4.15 0.06 4.13 0.1 5.38 2.27 7.88 2.27 7.88 2.27 7.88 2.48 7.88 2.48 5.38 2.48"/></pattern></defs><g id="Layer_2" data-name="Layer 2"><g id="Layer_1-2" data-name="Layer 1"><g id="LWPOLYLINE"><path class="cls-4" d="M147,6l12.1,3.75,12.13,3.68L183.39,17l12.2,3.39,11.43,3,11.46,2.82,13.78,3.27,13.81,3.16,13.84,3,13.86,2.89,13.9,2.73,13.93,2.56,13.6,2.31,13.62,2.14,13.65,2L356.14,52l11.3,1.35,11.31,1.25,11.33,1.15,11.33,1.08,12,1.07,12,1,12,.94,12,.89,12,.83,13.47.88,13.48.83,13.47.76,13.48.71,13.49.67,13.49.61,13.12.56,13.13.52,13.13.47,13.13.44,13.13.4,13.13.36,13.13.33,13.14.28,13.13.25,13.14.22,13.34.18,13.33.15,13.34.13,13.34.09,13.34.08,13.34.06,13.34,0,13.34,0,13.34,0,13.33,0h45.49L860,78.34l7.68,7.53,6.61,6.19,6.68,6.1,7.57,6.84,7.57,6.83,7.31,6.59,7.31,6.59,7.3,6.59,18.3,16.22,8,7.4,8,7.39,8.07,7.38,8.09,7.36,9.64,8.89,9,9.5,6.56,9,5.27,12.86,3.24,13.83v48.09h50.33V231.47l3.24-13.83,5.27-12.86,6.56-9,9.06-9.5,9.64-8.89,8.09-7.36,8.07-7.38,8.05-7.39,8-7.4L1137,131.6l7.3-6.6,7.3-6.59,7.31-6.58,7.59-6.81,7.57-6.83,6.69-6.11,6.6-6.21,7.67-7.54,7.58-7.64h45.48l13.34,0,13.34,0,13.34,0,13.34,0,13.34-.06,13.34-.07,13.34-.1,13.33-.12,13.34-.15,13.34-.18,13.13-.22,13.14-.26,13.13-.29,13.14-.32,13.13-.37,13.13-.4,13.13-.44,13.13-.48,13.13-.52,13.12-.56,13.49-.61,13.48-.66,13.48-.71,13.48-.76,13.48-.81,13.47-.88,12-.83,12-.89,12-.94,12-1,12-1.07,11.33-1.08,11.32-1.15,11.32-1.25,11.3-1.35,13.67-1.79,13.65-2,13.62-2.14,13.59-2.32,13.94-2.55,13.89-2.73,13.87-2.89,13.84-3,13.81-3.16,13.78-3.28L1848,23.38l11.42-3L1871.61,17l12.17-3.57,12.13-3.68L1908,6l.24,13.73.24,13.74.26,13.73L1909,61l.31,13.73.35,13.73.38,13.73.44,13.73.47,13.24.52,13.25.56,13.24.6,13.25.64,13.24.67,13.24.7,13.24.72,13.24.74,13.27.78,13.28.8,13.27.85,13.27.91,13.27,1,13.26,1,13.26,1.1,13.24,1.19,13.25,1.27,13.23,1.28,12.29,1.36,12.29,1.44,12.28,1.53,12.26,1.61,12.26,1.69,12.25,1.68,11.62,1.74,11.62,1.77,11.62,1.79,11.61-11.17,2.41-11.14,2.56-11.06,2.87-11.29,3.43-11.08,4-10.8,4.75L1862.44,501l-11.3,7.52-10.54,8.58-8.22,8.07-7.45,8.77-6.54,9.44-6,11-5,11.56-4.21,12.49-3.36,12.75L1797,605.06l-2.11,14-1.44,14.05-.71,11.69-.33,11.71v11.72l.29,11.72.53,11.79.77,11.76,1,11.75,1.25,11.73,1.49,11.69,1.73,11.58,2,11.55,2.22,11.49,2.46,11.45,2.72,11.38,3.5,13.3,3.82,13.2,4.12,13.12,4.39,13,4.64,13,4.87,12.88,5.07,12.81,5.25,12.74,5.45,12.76,5.63,12.69,5.81,12.6,6,12.48,6.25,12.37,6.49,12.24,6.75,12.09,7,11.93,7.18,11.56,7.44,11.41,7.69,11.25,7.9,11.1,8.1,11,8.27,10.83,8.44,10.71,8.38,10.36,8.49,10.26,8.6,10.18,8.67,10.1,8.74,10,8.79,10,8.07,9.12,8.1,9.11,8.1,9.1,8.12,9.09v443.35l0,252v150.42l16,61.4-12.64,1.4-12.63,1.49-12.59,1.65-12.56,1.91-13.41,2.39-13.36,2.7-13.32,2.94-13.28,3.1-13.28,3.18-13.27,3.19-13.14,3.11-13.14,3-13.16,3-13.17,2.92-13.18,2.87-13.19,2.81-13.2,2.77-13.21,2.71-13.85,2.79-13.86,2.73-13.88,2.67-13.89,2.6-13.9,2.53-13.92,2.44L1716,2147l-14,2.26-12.81,2-12.83,1.91-12.84,1.83-12.85,1.76-12.86,1.68L1625,2160l-12.88,1.55-12.57,1.44-12.59,1.39-12.58,1.32-12.6,1.27-12.59,1.2-12.61,1.14-12.61,1.08-12.61,1-13.94,1.07-14,1-14,1-14,.91-14,.9-13.95.88-14,.88-13.56.87-13.57.87-13.56.85-13.57.83-13.57.8-13.57.76-11.79.61-11.79.56-11.8.52-11.79.47-11.8.43-13.17.42-13.17.36-13.18.32-13.17.28-13.18.24-13.18.21-13.17.18-13.18.17-13.11.15-13.11.14-13.11.13-13.11.12-13.11.12-13.11.11-13.1.11H978.8l-13.11-.11-13.11-.11-13.11-.12-13.11-.12-13.11-.13-13.11-.14-13.11-.15-13.18-.17-13.18-.18-13.17-.21-13.18-.24-13.18-.28-13.17-.32L794.8,2186l-13.17-.42-11.8-.43-11.79-.47-11.79-.52-11.79-.57-11.79-.6-13.57-.76-13.57-.8L682,2180.6l-13.57-.86-13.57-.86-13.57-.87-14-.88-14-.88-14-.89-13.95-.92-14-1-14-1-13.94-1.07-12.62-1-12.61-1.09-12.6-1.14-12.6-1.21-12.59-1.27L468,2164.37,455.41,2163l-12.57-1.45L430,2160l-12.87-1.61-12.86-1.68-12.85-1.76-12.84-1.83-12.83-1.91-12.82-2L339,2146.94,325,2144.58l-13.92-2.44-13.9-2.52-13.89-2.6-13.87-2.67-13.86-2.74-13.85-2.79-13.21-2.71-13.2-2.77-13.19-2.81L189,2117.66l-13.17-2.92-13.16-3-13.14-3-13.14-3.1-13.27-3.2-13.28-3.18-13.29-3.1-13.31-2.94-13.36-2.7-13.41-2.39-12.56-1.91-12.59-1.65-12.63-1.49L6,2081.65l16-61.4V1174.46l8.11-9.09,8.11-9.1,8.1-9.1,8.07-9.13,8.79-10,8.74-10,8.67-10.11,8.59-10.18,8.5-10.26,8.38-10.36,8.44-10.71,8.27-10.83,8.11-11,7.9-11.1,7.69-11.25,7.44-11.41,7.18-11.56,7-11.93,6.74-12.09L181.31,963l6.25-12.37,6-12.49,5.81-12.6L205,912.86l5.45-12.77,5.25-12.74,5.07-12.81,4.87-12.88,4.64-13,4.4-13,4.12-13.12,3.82-13.2,3.51-13.29,2.71-11.39,2.46-11.44,2.22-11.5,2-11.54,1.73-11.58,1.49-11.7L260,715.18l1-11.75.77-11.76.54-11.79.29-11.71V656.45l-.32-11.72L261.55,633l-1.44-14L258,605l-2.84-13.84-3.35-12.75L247.61,566l-5-11.54-6-11L230,534l-7.44-8.79-8.22-8.08-10.53-8.58L192.55,501l-11.94-6.45-10.79-4.75-11.08-4-11.29-3.43-11.06-2.87-11.14-2.56-11.17-2.41,1.78-11.61,1.77-11.61,1.73-11.62L121,428l1.69-12.25,1.61-12.25,1.53-12.27L127.32,379l1.36-12.28L130,354.4l1.28-13.23,1.19-13.24,1.11-13.25,1-13.26,1-13.26.9-13.27.85-13.27.8-13.27.77-13.28.75-13.27.72-13.24.69-13.24.67-13.24.64-13.24.61-13.25.56-13.24.52-13.24.47-13.25.44-13.73.38-13.73.35-13.73L146,60.94l.28-13.74.26-13.73.25-13.74L147,6m0-6a6,6,0,0,0-6,5.89l-.25,13.74-.24,13.73-.27,13.73L140,60.81l-.31,13.72-.34,13.72L138.92,102l-.44,13.71L138,128.89l-.52,13.22-.56,13.23-.6,13.22-.64,13.23L135,195l-.69,13.22-.72,13.23-.75,13.27L132.09,248l-.8,13.26-.85,13.25-.9,13.24-1,13.24-1,13.22-1.1,13.22-1.18,13.2L124,353.82l-1.27,12.25-1.36,12.25-1.45,12.23-1.52,12.23L116.78,415l-1.69,12.21-1.67,11.59-1.72,11.59L109.93,462l-1.78,11.6a6,6,0,0,0,4.67,6.78l11.12,2.39,11,2.54,10.87,2.82,11,3.34,10.75,3.91,10.4,4.57,11.47,6.21,10.84,7.21,10.09,8.21,7.82,7.7,7.08,8.35,6.21,9,5.76,10.47L242,568.1l4.06,12.07,3.26,12.4,2.77,13.51,2.07,13.67,1.41,13.78.7,11.47.32,11.53v11.56l-.29,11.57-.53,11.68L255,703l-1,11.63-1.24,11.6-1.47,11.57-1.71,11.46-2,11.42L245.45,772,243,783.34l-2.68,11.26-3.47,13.15-3.79,13.07-4.08,13-4.35,12.92L220,859.58l-4.84,12.8-5,12.71-5.22,12.68-5.42,12.69-5.59,12.61-5.78,12.51-6,12.39L176,960.23l-6.43,12.13-6.68,12-7,11.8-7.11,11.45-7.37,11.3-7.63,11.16-7.83,11-8,10.88-8.23,10.77-8.37,10.63L93,1083.64l-8.47,10.24L76,1104l-8.64,10.07-8.72,10-8.77,10-8.06,9.11-8.08,9.1-8.1,9.09-8.12,9.08a6,6,0,0,0-1.52,4v845L.19,2080.14a6,6,0,0,0,5.15,7.48L18,2089l12.54,1.47,12.5,1.64L55.43,2094l13.28,2.36L82,2099.06,95.18,2102l13.25,3.09,13.24,3.18,13.27,3.19,13.16,3.11,13.17,3,13.19,3,13.19,2.93,13.2,2.87,13.22,2.82,13.22,2.77,13.23,2.72,13.87,2.79,13.89,2.74,13.9,2.68,13.92,2.6L310,2148l14,2.45,14,2.37,14,2.26,12.86,2,12.86,1.92,12.88,1.83,12.89,1.76,12.89,1.69,12.9,1.62,12.91,1.55,12.6,1.45,12.61,1.39,12.62,1.33,12.62,1.27,12.63,1.21,12.63,1.15,12.64,1.09,12.64,1,14,1.07,14,1,14,1,14,.91,14,.9,14,.88,14,.88,13.57.87,13.56.86,13.58.86,13.58.83,13.58.8,13.6.76,11.81.61,11.81.56,11.81.52,11.82.48,11.82.42,13.19.42,13.2.37,13.2.32,13.19.28,13.2.24,13.19.21,13.19.18,13.18.17,13.12.15,13.12.14,13.11.13,13.12.12,13.11.12,13.11.11,13.11.11h97.44l13.11-.11,13.1-.11,13.12-.12,13.11-.12,13.11-.13,13.11-.14,13.12-.15,13.18-.17,13.19-.18,13.19-.21,13.19-.24,13.19-.28,13.19-.32,13.2-.37,13.19-.42,11.82-.42,11.82-.48,11.82-.52,11.82-.56,11.81-.61,13.59-.75,13.59-.81,13.58-.83,13.58-.86,13.57-.86,13.57-.87,14-.88,14-.88,14-.9,14-.91,14-1,14-1,14-1.06,12.65-1,12.63-1.08,12.64-1.15,12.62-1.2,12.63-1.27,12.61-1.32,12.61-1.39,12.6-1.45,12.91-1.55,12.9-1.62,12.9-1.68,12.88-1.76,12.88-1.84,12.86-1.91,12.85-2,14-2.27,14-2.36,14-2.45,13.93-2.53,13.93-2.61,13.9-2.67,13.89-2.74,13.87-2.8,13.24-2.72,13.22-2.76,13.21-2.82,13.21-2.88,13.19-2.93,13.18-3,13.17-3,13.17-3.12,13.29-3.19,13.27-3.19,13.23-3.08,13.23-2.92,13.23-2.67,13.28-2.37,12.4-1.89,12.51-1.64L2037,2089l12.6-1.39a6,6,0,0,0,5.15-7.48L2039,2019.52V1869.86l0-252V1174.49a6,6,0,0,0-1.53-4l-8.11-9.09-8.11-9.09-8.08-9.1-8.07-9.12-8.77-10-8.72-10L1979,1104l-8.55-10.12-8.45-10.21-8.33-10.29-8.38-10.65L1937,1052l-8-10.88-7.84-11-7.6-11.14-7.38-11.3-7.11-11.45-7-11.81-6.68-12L1879,960.27,1872.8,948l-6-12.38L1861,923.09l-5.59-12.59L1850,897.8l-5.22-12.67-5-12.73-4.83-12.79-4.6-12.84L1826,833.83l-4.08-13-3.78-13.08-3.46-13.14L1812,783.37l-2.43-11.31-2.19-11.37-2-11.42-1.7-11.47-1.48-11.56-1.24-11.6L1800,703l-.76-11.65-.53-11.66-.28-11.58V656.56l.32-11.53.7-11.47,1.41-13.78,2.07-13.67,2.77-13.51,3.27-12.39,4.07-12.08,4.75-11.07,5.75-10.49,6.2-8.94,7.08-8.34,7.82-7.68,10.1-8.22,10.84-7.21L1877,500l10.39-4.57,10.75-3.91,11-3.35,10.86-2.81,11-2.54,11.13-2.39a6,6,0,0,0,4.67-6.78L1945.06,462l-1.77-11.6-1.73-11.6-1.68-11.6L1938.19,415l-1.6-12.22-1.52-12.22-1.44-12.24-1.36-12.25L1931,353.81l-1.27-13.19-1.18-13.2-1.1-13.21-1-13.23-1-13.23-.9-13.24-.85-13.24L1922.9,248l-.77-13.26-.74-13.26-.72-13.23L1920,195l-.67-13.23-.63-13.22-.61-13.23-.56-13.23L1917,128.9l-.47-13.23-.43-13.7-.39-13.71-.34-13.71L1915,60.83l-.28-13.72-.26-13.73-.24-13.72L1914,5.92A6,6,0,0,0,1906.24.3L1894.13,4l-12.06,3.67L1870,11.26l-12.11,3.36-11.32,2.93-11.44,2.82-13.72,3.26-13.76,3.15-13.78,3L1780,32.67l-13.82,2.71-13.85,2.54-13.53,2.31-13.55,2.13-13.57,2-13.59,1.78-11.25,1.34-11.28,1.24-11.28,1.15L1653,50.9,1641.08,52l-12,1-11.95.94-12,.89-12,.83-13.44.87-13.45.82-13.45.75-13.46.71-13.47.66-13.46.61-13.11.56-13.11.51-13.11.48-13.11.44-13.12.4-13.11.37-13.12.32-13.11.3-13.12.25-13.12.22-13.32.18-13.32.15-13.33.12-13.33.1-13.32.07-13.34.06-13.33,0-13.33,0-13.34,0-13.34,0h-45.47a6,6,0,0,0-4.26,1.78l-7.55,7.61-7.6,7.47-6.53,6.13L1170,93.76l-7.54,6.8-7.58,6.81-7.31,6.58-7.31,6.6-7.28,6.58-18.28,16.2-.08.07-8,7.4-8,7.39-8.06,7.38-8.08,7.34-9.67,8.92-.28.27-9,9.5a5.89,5.89,0,0,0-.51.61l-6.56,9a6.15,6.15,0,0,0-.7,1.25l-5.27,12.86a5.67,5.67,0,0,0-.29.91l-3.24,13.83a6.33,6.33,0,0,0-.16,1.37v42.09h-38.33V231.47a5.76,5.76,0,0,0-.16-1.37l-3.24-13.83a4.82,4.82,0,0,0-.29-.91l-5.26-12.86a6.66,6.66,0,0,0-.7-1.25l-6.56-9a7.49,7.49,0,0,0-.51-.61l-9.06-9.5-.27-.27-9.64-8.89-8.12-7.39-8.06-7.36-8-7.39-8-7.4-.08-.07L922,127.12l-7.28-6.57L907.43,114l-7.31-6.59-7.57-6.83L885,93.71l-6.64-6.06-6.52-6.11-7.61-7.46-7.55-7.61a6,6,0,0,0-4.26-1.78H806.92l-13.32,0-13.34,0-13.34,0-13.33,0-13.33-.06-13.34-.08-13.32-.09-13.33-.13-13.33-.15-13.32-.18-13.12-.22-13.12-.25-13.12-.28-13.11-.33L608,62.43,594.92,62l-13.11-.44-13.11-.48-13.11-.51-13.11-.56L529,59.43l-13.46-.66-13.46-.71-13.45-.77-13.45-.82-13.45-.87-12-.83-12-.89-12-.94-11.95-1-11.95-1.06-11.29-1.08-11.29-1.15L368.14,47.4l-11.27-1.34-13.58-1.78-13.58-2L316.17,40.2l-13.52-2.3-13.86-2.55L275,32.64l-13.8-2.88-13.8-3L233.6,23.59l-13.74-3.26-11.36-2.8-11.35-2.94L185,11.23l-12.1-3.55L160.85,4,148.77.27A6,6,0,0,0,147,0Z" transform="translate(176.6 331.74)"/></g><polygon class="cls-1" points="2084.62 337.76 2084.86 351.5 2085.11 365.23 2085.37 378.97 2085.65 392.7 2085.96 406.43 2086.3 420.17 2086.69 433.89 2087.12 447.62 2087.59 460.87 2088.11 474.12 2088.67 487.36 2089.28 500.6 2089.91 513.84 2090.58 527.08 2091.28 540.32 2092 553.56 2092.75 566.84 2093.52 580.12 2094.33 593.39 2095.18 606.66 2096.08 619.92 2097.04 633.18 2098.07 646.44 2099.17 659.69 2100.36 672.93 2101.64 686.16 2102.91 698.46 2104.27 710.75 2105.72 723.02 2107.25 735.29 2108.86 747.55 2110.55 759.79 2112.23 771.42 2113.96 783.04 2115.73 794.65 2117.52 806.27 2106.35 808.67 2095.21 811.24 2084.15 814.1 2072.87 817.53 2061.78 821.57 2050.99 826.31 2039.05 832.76 2027.74 840.29 2017.2 848.87 2008.98 856.94 2001.54 865.71 1994.99 875.15 1988.95 886.17 1983.99 897.72 1979.78 910.22 1976.42 922.97 1973.59 936.8 1971.47 950.76 1970.03 964.8 1969.32 976.5 1968.99 988.21 1969 999.93 1969.29 1011.65 1969.83 1023.43 1970.6 1035.2 1971.6 1046.95 1972.85 1058.67 1974.35 1070.37 1976.08 1081.95 1978.05 1093.49 1980.26 1104.99 1982.73 1116.43 1985.44 1127.82 1988.94 1141.11 1992.76 1154.31 1996.88 1167.43 2001.27 1180.47 2005.92 1193.42 2010.78 1206.3 2015.85 1219.11 2021.1 1231.85 2026.56 1244.62 2032.18 1257.31 2038 1269.9 2044.02 1282.39 2050.27 1294.76 2056.76 1306.99 2063.51 1319.09 2070.53 1331.01 2077.72 1342.58 2085.16 1353.98 2092.84 1365.23 2100.74 1376.34 2108.84 1387.3 2117.12 1398.14 2125.55 1408.85 2133.93 1419.21 2142.43 1429.47 2151.02 1439.64 2159.69 1449.75 2168.43 1459.8 2177.22 1469.8 2185.3 1478.93 2193.39 1488.04 2201.5 1497.13 2209.61 1506.22 2209.6 1859.58 2209.6 1913.59 2209.6 1949.58 2209.59 2201.59 2209.59 2237.58 2209.59 2291.59 2209.59 2352.02 2225.54 2413.42 2212.91 2414.82 2200.28 2416.3 2187.68 2417.96 2175.13 2419.86 2161.72 2422.26 2148.36 2424.96 2135.04 2427.9 2121.75 2430.99 2108.48 2434.18 2095.2 2437.37 2082.07 2440.48 2068.92 2443.52 2055.76 2446.5 2042.59 2449.43 2029.42 2452.3 2016.23 2455.11 2003.03 2457.87 1989.81 2460.59 1975.96 2463.38 1962.1 2466.11 1948.23 2468.78 1934.34 2471.38 1920.43 2473.91 1906.52 2476.35 1892.59 2478.7 1878.64 2480.97 1865.82 2482.96 1852.99 2484.87 1840.15 2486.7 1827.3 2488.45 1814.44 2490.14 1801.57 2491.75 1788.69 2493.3 1776.12 2494.74 1763.54 2496.13 1750.95 2497.45 1738.36 2498.71 1725.76 2499.91 1713.16 2501.06 1700.55 2502.14 1687.93 2503.16 1673.99 2504.22 1660.04 2505.22 1646.09 2506.18 1632.14 2507.09 1618.19 2507.98 1604.23 2508.86 1590.28 2509.75 1576.71 2510.61 1563.15 2511.48 1549.58 2512.34 1536.01 2513.17 1522.45 2513.97 1508.87 2514.72 1497.08 2515.33 1485.29 2515.89 1473.5 2516.41 1461.7 2516.89 1449.91 2517.31 1436.73 2517.73 1423.56 2518.1 1410.39 2518.42 1397.21 2518.69 1384.04 2518.93 1370.86 2519.14 1357.68 2519.33 1344.5 2519.49 1331.39 2519.65 1318.29 2519.79 1305.18 2519.92 1292.07 2520.04 1278.96 2520.16 1265.85 2520.27 1252.74 2520.38 1204.08 2520.38 1155.41 2520.38 1142.3 2520.27 1129.19 2520.16 1116.08 2520.04 1102.96 2519.92 1089.85 2519.78 1076.74 2519.65 1063.63 2519.49 1050.46 2519.33 1037.28 2519.14 1024.1 2518.93 1010.92 2518.69 997.75 2518.42 984.58 2518.1 971.4 2517.73 958.23 2517.31 946.44 2516.89 934.64 2516.41 922.85 2515.89 911.06 2515.33 899.28 2514.72 885.7 2513.97 872.13 2513.17 858.56 2512.34 844.99 2511.48 831.42 2510.61 817.86 2509.75 803.9 2508.86 789.95 2507.98 775.99 2507.09 762.04 2506.18 748.09 2505.22 734.14 2504.22 720.2 2503.16 707.59 2502.14 694.98 2501.05 682.38 2499.9 669.78 2498.7 657.18 2497.43 644.6 2496.1 632.01 2494.72 619.44 2493.26 606.56 2491.72 593.69 2490.11 580.83 2488.42 567.98 2486.67 555.14 2484.84 542.31 2482.93 529.5 2480.94 515.55 2478.68 501.62 2476.32 487.71 2473.88 473.81 2471.35 459.92 2468.75 446.04 2466.08 432.18 2463.35 418.34 2460.56 405.12 2457.84 391.92 2455.08 378.73 2452.26 365.56 2449.4 352.39 2446.47 339.23 2443.49 326.08 2440.45 312.95 2437.34 299.67 2434.15 286.4 2430.97 273.11 2427.87 259.79 2424.93 246.43 2422.23 233.02 2419.84 220.47 2417.93 207.87 2416.28 195.25 2414.79 182.6 2413.39 198.56 2351.99 198.56 2291.56 198.56 2237.55 198.56 2201.57 198.56 1949.55 198.56 1913.56 198.56 1859.55 198.56 1506.19 206.68 1497.11 214.79 1488.01 222.88 1478.9 230.96 1469.77 239.75 1459.77 248.48 1449.72 257.16 1439.62 265.75 1429.44 274.24 1419.18 282.62 1408.82 291.06 1398.11 299.34 1387.28 307.44 1376.31 315.35 1365.21 323.03 1353.95 330.48 1342.55 337.66 1330.99 344.68 1319.06 351.43 1306.97 357.92 1294.73 364.16 1282.36 370.18 1269.87 376 1257.28 381.62 1244.59 387.07 1231.83 392.32 1219.08 397.4 1206.27 402.27 1193.39 406.91 1180.44 411.3 1167.4 415.42 1154.29 419.25 1141.08 422.75 1127.79 425.46 1116.41 427.93 1104.96 430.15 1093.46 432.12 1081.92 433.84 1070.34 435.34 1058.64 436.59 1046.92 437.6 1035.17 438.37 1023.4 438.9 1011.62 439.19 999.9 439.2 988.18 438.87 976.47 438.16 964.78 436.72 950.73 434.6 936.77 431.77 922.94 428.42 910.19 424.21 897.69 419.25 886.15 413.2 875.15 406.65 865.7 399.21 856.92 390.99 848.84 380.46 840.26 369.15 832.74 357.22 826.29 346.42 821.54 335.34 817.51 324.06 814.08 312.99 811.21 301.86 808.65 290.68 806.24 292.47 794.63 294.24 783.01 295.96 771.39 297.64 759.76 299.34 747.52 300.95 735.26 302.48 722.99 303.93 710.72 305.29 698.43 306.57 686.14 307.85 672.9 309.04 659.66 310.14 646.41 311.17 633.16 312.13 619.9 313.03 606.63 313.88 593.36 314.69 580.09 315.46 566.81 316.2 553.53 316.92 540.29 317.62 527.05 318.29 513.81 318.93 500.57 319.53 487.33 320.09 474.09 320.61 460.84 321.08 447.59 321.52 433.87 321.91 420.14 322.25 406.4 322.56 392.67 322.85 378.94 323.11 365.2 323.36 351.47 323.6 337.74 335.71 341.48 347.83 345.17 359.99 348.74 372.2 352.12 383.62 355.08 395.08 357.9 408.86 361.18 422.67 364.34 436.51 367.37 450.38 370.25 464.28 372.98 478.21 375.54 491.8 377.86 505.42 380 519.07 381.96 532.74 383.75 544.04 385.1 555.36 386.34 566.68 387.5 578.01 388.58 589.99 389.65 601.98 390.65 613.97 391.6 625.96 392.49 637.96 393.32 651.43 394.2 664.9 395.02 678.38 395.79 691.86 396.5 705.34 397.16 718.83 397.78 731.96 398.34 745.08 398.85 758.21 399.33 771.34 399.77 784.47 400.17 797.61 400.53 810.74 400.85 823.87 401.14 837.01 401.39 850.14 401.6 863.48 401.79 876.82 401.94 890.16 402.06 903.5 402.16 916.83 402.24 930.17 402.3 943.51 402.34 956.85 402.38 970.19 402.4 983.53 402.43 1029.01 402.43 1036.59 410.07 1044.28 417.61 1050.88 423.8 1057.57 429.89 1065.13 436.74 1072.71 443.56 1080.02 450.15 1087.32 456.74 1094.62 463.33 1112.92 479.55 1120.97 486.95 1129.02 494.35 1137.08 501.73 1145.17 509.08 1154.81 517.98 1163.87 527.48 1170.43 536.51 1175.7 549.37 1178.94 563.2 1178.94 611.29 1204.1 611.29 1229.27 611.29 1229.27 563.2 1232.51 549.37 1237.78 536.51 1244.34 527.48 1253.39 517.98 1263.03 509.08 1271.12 501.73 1279.19 494.35 1287.24 486.95 1295.28 479.55 1313.58 463.33 1320.88 456.74 1328.19 450.15 1335.5 443.56 1343.08 436.75 1350.65 429.92 1357.34 423.81 1363.94 417.61 1371.62 410.07 1379.19 402.43 1424.68 402.43 1438.02 402.41 1451.36 402.39 1464.7 402.36 1478.04 402.31 1491.37 402.26 1504.71 402.19 1518.05 402.09 1531.39 401.97 1544.73 401.82 1558.06 401.63 1571.2 401.42 1584.33 401.16 1597.47 400.87 1610.6 400.54 1623.73 400.18 1636.87 399.77 1649.99 399.33 1663.12 398.85 1676.25 398.34 1689.38 397.78 1702.86 397.17 1716.35 396.51 1729.83 395.8 1743.31 395.04 1756.78 394.23 1770.25 393.35 1782.25 392.52 1794.24 391.63 1806.23 390.69 1818.21 389.68 1830.19 388.61 1841.53 387.53 1852.85 386.37 1864.16 385.13 1875.46 383.78 1889.13 381.99 1902.78 380.02 1916.41 377.89 1930 375.57 1943.93 373.01 1957.83 370.28 1971.7 367.4 1985.53 364.37 1999.34 361.21 2013.13 357.93 2024.59 355.11 2036.01 352.15 2048.22 348.77 2060.38 345.2 2072.51 341.51 2084.62 337.76"/><g class="cls-5"><path class="cls-1" d="M-176.6-331.57H1195.91c19.92,0,21.86-.3,43.62-.1,10.25.1,8.9,1.18,15.35.1H2299.41V2547.1s-363.29.62-422,0c-45.81-.48-306.72.27-526,.27h-700c-219.29,0-442.56-.14-498,0-45.78.12-330,0-330,0V-331.57Z" transform="translate(176.6 331.74)"/></g><g class="cls-6"><path class="cls-7" d="M-176.6-331.57H1195.91c19.92,0,21.86-.3,43.62-.1,10.25.1,8.9,1.18,15.35.1H2299.41V2547.1s-363.29.62-422,0c-45.81-.48-306.72.27-526,.27h-700c-219.29,0-442.56-.14-498,0-45.78.12-330,0-330,0V-331.57Z" transform="translate(176.6 331.74)"/></g><rect class="cls-8" x="198.56" y="1805.54" width="2011.03" height="54.01"/><rect class="cls-8" x="198.56" y="2183.54" width="2011.03" height="54.01"/><rect class="cls-9" x="198.56" y="1895.54" width="2011.03" height="252"/><path class="cls-10" d="M12.07,2082.41l-.91-1.83c-.37-.71-.61-1.23-.9-1.82h0c-.21.59-.46,1.11-.78,1.82l-.84,1.83H6l2.92-5.12-2.81-5H8.73l.88,1.84c.3.62.53,1.11.77,1.68h0c.24-.64.43-1.09.69-1.68l.85-1.84h2.61l-2.85,4.93,3,5.18Z" transform="translate(176.6 331.74)"/><path class="cls-10" d="M15.94,2072.3h2.3v8.19h4v1.92H15.94Z" transform="translate(176.6 331.74)"/></g></g></svg>