<svg width="1890" height="1890" viewBox="0 0 1890 1890" fill="none" xmlns="http://www.w3.org/2000/svg">
<rect width="1890" height="1890" fill="#C9CACC"/>
<g clip-path="url(#clip0_1304_3066)">
<rect x="771.875" y="895.773" width="361.412" height="10.5882" fill="#0A0907"/>
<path d="M785.753 898.649H789.711C789.711 898.649 790.327 898.072 789.452 897.23C789.046 896.839 788.435 896.887 788.435 896.887H783.922L785.753 898.649Z" fill="white"/>
<path d="M801.508 898.649H790.273C790.273 898.649 790.909 896.885 792.893 896.885H799.558C799.558 896.885 801.444 896.837 801.558 898.031C801.581 898.24 801.563 898.453 801.503 898.649" fill="white"/>
<path d="M801.914 898.649C801.914 898.621 802.912 896.885 804.335 896.885H813.561L810.732 898.635L801.914 898.649Z" fill="white"/>
<path d="M789.561 899.73L788.681 903.101C788.681 903.101 788.168 905.031 786.27 905.003C784.673 904.98 777.914 905.003 777.914 905.003L780.768 903.072H784.79C786.165 903.072 786.193 902.49 786.193 902.49L786.881 899.709L789.561 899.73Z" fill="white"/>
<path d="M790.14 899.709H792.898L792.215 902.191C792.215 902.191 791.942 903.135 792.719 903.135H797.039C797.039 903.135 797.604 903.204 797.868 902.247C798.131 901.289 798.512 899.832 798.512 899.832H801.203L800.238 903.314C800.238 903.314 799.643 905.003 797.917 905.003H790.622C790.622 905.003 788.73 905.057 789.316 903.001C789.63 901.925 789.903 900.826 790.135 899.709" fill="white"/>
<path d="M801.832 899.709H804.469L803.84 902.095C803.84 902.095 803.56 903.076 804.392 903.076H808.534C808.534 903.076 809.133 903.092 809.336 902.46L809.616 901.663H807.529L805.704 899.711H811.874C811.874 899.711 812.716 899.656 812.469 900.692L811.808 903.265C811.808 903.265 811.412 905.003 809.133 905.003H802.44C802.44 905.003 800.518 904.878 800.923 903.164" fill="white"/>
<path d="M841.783 904.498C840.728 902.584 839.676 900.677 838.628 898.779C838.602 898.786 838.597 898.811 838.586 898.828C838.433 899.068 838.281 899.309 838.131 899.551C838.107 899.588 838.097 899.596 838.07 899.551C837.867 899.23 837.662 898.909 837.456 898.589C837.445 898.576 837.439 898.56 837.439 898.543C837.439 898.526 837.445 898.51 837.456 898.497C837.927 897.722 838.397 896.947 838.867 896.172C838.904 896.111 838.904 896.111 838.939 896.172L843.718 904.72L844.264 905.701C844.274 905.718 844.283 905.735 844.29 905.753C844.269 905.762 844.246 905.764 844.224 905.76H833.368C833.322 905.765 833.32 905.748 833.342 905.711C833.443 905.538 833.544 905.363 833.643 905.188L836.304 900.568L837.013 899.335L837.046 899.283L839.532 903.742H836.701C836.792 903.61 836.866 903.491 836.945 903.371L837.513 902.515C837.525 902.496 837.537 902.481 837.524 902.455C837.37 902.166 837.224 901.87 837.074 901.576C837.074 901.576 837.069 901.57 837.06 901.562L835.337 904.516L841.783 904.498Z" fill="white"/>
<path d="M871.886 898.649H875.844C875.844 898.649 876.46 898.072 875.585 897.23C875.179 896.839 874.568 896.887 874.568 896.887H870.055L871.886 898.649Z" fill="white"/>
<path d="M887.633 898.649H876.398C876.398 898.649 877.034 896.885 879.018 896.885H885.683C885.683 896.885 887.569 896.837 887.683 898.031C887.706 898.24 887.688 898.453 887.628 898.649" fill="white"/>
<path d="M888.062 898.649C888.062 898.621 889.061 896.885 890.484 896.885H899.71L896.88 898.635L888.062 898.649Z" fill="white"/>
<path d="M875.702 899.73L874.821 903.101C874.821 903.101 874.308 905.031 872.411 905.003C870.814 904.98 864.055 905.003 864.055 905.003L866.908 903.072H870.931C872.305 903.072 872.334 902.49 872.334 902.49L873.022 899.709L875.702 899.73Z" fill="white"/>
<path d="M876.281 899.709H879.039L878.356 902.191C878.356 902.191 878.083 903.135 878.86 903.135H883.18C883.18 903.135 883.745 903.204 884.008 902.247C884.272 901.289 884.653 899.832 884.653 899.832H887.344L886.379 903.314C886.379 903.314 885.783 905.003 884.058 905.003H876.763C876.763 905.003 874.871 905.057 875.456 903.001C875.77 901.925 876.044 900.826 876.275 899.709" fill="white"/>
<path d="M887.949 899.709H890.586L889.957 902.095C889.957 902.095 889.678 903.076 890.509 903.076H894.651C894.651 903.076 895.25 903.092 895.453 902.46L895.733 901.663H893.646L891.821 899.711H897.991C897.991 899.711 898.833 899.656 898.586 900.692L897.925 903.265C897.925 903.265 897.529 905.003 895.25 905.003H888.557C888.557 905.003 886.635 904.878 887.041 903.164" fill="white"/>
<path d="M927.932 904.498C926.877 902.584 925.825 900.677 924.776 898.779C924.75 898.786 924.745 898.811 924.735 898.828C924.582 899.068 924.43 899.309 924.279 899.551C924.256 899.588 924.246 899.596 924.218 899.551C924.015 899.23 923.811 898.909 923.604 898.589C923.594 898.576 923.588 898.56 923.588 898.543C923.588 898.526 923.594 898.51 923.604 898.497C924.075 897.722 924.545 896.947 925.015 896.172C925.052 896.111 925.052 896.111 925.087 896.172L929.866 904.72L930.413 905.701C930.422 905.718 930.431 905.735 930.439 905.753C930.418 905.762 930.395 905.764 930.372 905.76H919.516C919.47 905.765 919.468 905.748 919.49 905.711C919.591 905.538 919.692 905.363 919.792 905.188L922.452 900.568L923.162 899.335L923.195 899.283L925.681 903.742H922.85C922.941 903.61 923.014 903.491 923.094 903.371L923.662 902.515C923.674 902.496 923.685 902.481 923.673 902.455C923.519 902.166 923.372 901.87 923.223 901.576C923.223 901.576 923.217 901.57 923.208 901.562L921.485 904.516L927.932 904.498Z" fill="white"/>
<path d="M958.035 898.649H961.992C961.992 898.649 962.609 898.072 961.734 897.23C961.327 896.839 960.716 896.887 960.716 896.887H956.203L958.035 898.649Z" fill="white"/>
<path d="M973.781 898.649H962.547C962.547 898.649 963.183 896.885 965.167 896.885H971.832C971.832 896.885 973.717 896.837 973.831 898.031C973.855 898.24 973.836 898.453 973.777 898.649" fill="white"/>
<path d="M974.18 898.649C974.18 898.621 975.178 896.885 976.601 896.885H985.827L982.998 898.635L974.18 898.649Z" fill="white"/>
<path d="M961.85 899.73L960.97 903.101C960.97 903.101 960.457 905.031 958.559 905.003C956.962 904.98 950.203 905.003 950.203 905.003L953.057 903.072H957.079C958.454 903.072 958.482 902.49 958.482 902.49L959.17 899.709L961.85 899.73Z" fill="white"/>
<path d="M962.421 899.709H965.179L964.497 902.191C964.497 902.191 964.224 903.135 965.001 903.135H969.32C969.32 903.135 969.885 903.204 970.149 902.247C970.412 901.289 970.793 899.832 970.793 899.832H973.484L972.519 903.314C972.519 903.314 971.924 905.003 970.198 905.003H962.903C962.903 905.003 961.011 905.057 961.597 903.001C961.911 901.925 962.184 900.826 962.416 899.709" fill="white"/>
<path d="M974.097 899.709H976.734L976.106 902.095C976.106 902.095 975.826 903.076 976.657 903.076H980.8C980.8 903.076 981.399 903.092 981.601 902.46L981.881 901.663H979.794L977.97 899.711H984.14C984.14 899.711 984.982 899.656 984.734 900.692L984.073 903.265C984.073 903.265 983.677 905.003 981.399 905.003H974.705C974.705 905.003 972.784 904.878 973.189 903.164" fill="white"/>
<path d="M1014.04 904.498C1012.99 902.584 1011.93 900.677 1010.89 898.779C1010.86 898.786 1010.85 898.811 1010.84 898.828C1010.69 899.068 1010.54 899.309 1010.39 899.551C1010.36 899.588 1010.35 899.596 1010.33 899.551C1010.12 899.23 1009.92 898.909 1009.71 898.589C1009.7 898.576 1009.7 898.56 1009.7 898.543C1009.7 898.526 1009.7 898.51 1009.71 898.497C1010.18 897.722 1010.65 896.947 1011.12 896.172C1011.16 896.111 1011.16 896.111 1011.2 896.172L1015.98 904.72L1016.52 905.701C1016.53 905.718 1016.54 905.735 1016.55 905.753C1016.53 905.762 1016.5 905.764 1016.48 905.76H1005.63C1005.58 905.765 1005.58 905.748 1005.6 905.711C1005.7 905.538 1005.8 905.363 1005.9 905.188L1008.56 900.568L1009.27 899.335L1009.3 899.283L1011.79 903.742H1008.96C1009.05 903.61 1009.12 903.491 1009.2 903.371L1009.77 902.515C1009.78 902.496 1009.79 902.481 1009.78 902.455C1009.63 902.166 1009.48 901.87 1009.33 901.576C1009.33 901.576 1009.33 901.57 1009.32 901.562L1007.59 904.516L1014.04 904.498Z" fill="white"/>
<path d="M1044.14 898.649H1048.1C1048.1 898.649 1048.72 898.072 1047.84 897.23C1047.44 896.839 1046.83 896.887 1046.83 896.887H1042.31L1044.14 898.649Z" fill="white"/>
<path d="M1059.9 898.649H1048.66C1048.66 898.649 1049.3 896.885 1051.28 896.885H1057.95C1057.95 896.885 1059.83 896.837 1059.95 898.031C1059.97 898.24 1059.95 898.453 1059.89 898.649" fill="white"/>
<path d="M1060.3 898.649C1060.3 898.621 1061.3 896.885 1062.73 896.885H1071.95L1069.12 898.635L1060.3 898.649Z" fill="white"/>
<path d="M1047.96 899.73L1047.08 903.101C1047.08 903.101 1046.57 905.031 1044.67 905.003C1043.07 904.98 1036.31 905.003 1036.31 905.003L1039.17 903.072H1043.19C1044.56 903.072 1044.59 902.49 1044.59 902.49L1045.28 899.709L1047.96 899.73Z" fill="white"/>
<path d="M1048.55 899.709H1051.3L1050.62 902.191C1050.62 902.191 1050.35 903.135 1051.13 903.135H1055.45C1055.45 903.135 1056.01 903.204 1056.27 902.247C1056.54 901.289 1056.92 899.832 1056.92 899.832H1059.61L1058.64 903.314C1058.64 903.314 1058.05 905.003 1056.32 905.003H1049.03C1049.03 905.003 1047.14 905.057 1047.72 903.001C1048.04 901.925 1048.31 900.826 1048.54 899.709" fill="white"/>
<path d="M1060.21 899.709H1062.85L1062.22 902.095C1062.22 902.095 1061.94 903.076 1062.77 903.076H1066.92C1066.92 903.076 1067.52 903.092 1067.72 902.46L1068 901.663H1065.91L1064.09 899.711H1070.26C1070.26 899.711 1071.1 899.656 1070.85 900.692L1070.19 903.265C1070.19 903.265 1069.79 905.003 1067.52 905.003H1060.82C1060.82 905.003 1058.9 904.878 1059.31 903.164" fill="white"/>
<path d="M1100.17 904.498C1099.12 902.584 1098.07 900.677 1097.02 898.779C1096.99 898.786 1096.99 898.811 1096.98 898.828C1096.82 899.068 1096.67 899.309 1096.52 899.551C1096.5 899.588 1096.49 899.596 1096.46 899.551C1096.26 899.23 1096.05 898.909 1095.85 898.589C1095.84 898.576 1095.83 898.56 1095.83 898.543C1095.83 898.526 1095.84 898.51 1095.85 898.497C1096.32 897.722 1096.79 896.947 1097.26 896.172C1097.29 896.111 1097.29 896.111 1097.33 896.172L1102.11 904.72L1102.65 905.701C1102.66 905.718 1102.67 905.735 1102.68 905.753C1102.66 905.762 1102.64 905.764 1102.61 905.76H1091.76C1091.71 905.765 1091.71 905.748 1091.73 905.711C1091.83 905.538 1091.93 905.363 1092.03 905.188L1094.69 900.568L1095.4 899.335L1095.44 899.283L1097.92 903.742H1095.09C1095.18 903.61 1095.26 903.491 1095.34 903.371L1095.9 902.515C1095.92 902.496 1095.93 902.481 1095.91 902.455C1095.76 902.166 1095.61 901.87 1095.47 901.576C1095.47 901.576 1095.46 901.57 1095.45 901.562L1093.73 904.516L1100.17 904.498Z" fill="white"/>
<path d="M1130.28 898.649H1134.24C1134.24 898.649 1134.86 898.072 1133.98 897.23C1133.58 896.839 1132.97 896.887 1132.97 896.887H1128.45L1130.28 898.649Z" fill="white"/>
<path d="M1134.09 899.73L1133.21 903.101C1133.21 903.101 1132.7 905.031 1130.8 905.003C1129.2 904.98 1122.45 905.003 1122.45 905.003L1125.3 903.072H1129.32C1130.7 903.072 1130.72 902.49 1130.72 902.49L1131.41 899.709L1134.09 899.73Z" fill="white"/>
<path d="M1134.68 899.709H1137.44L1136.75 902.191C1136.75 902.191 1136.48 903.135 1137.26 903.135H1141.58C1141.58 903.135 1142.14 903.204 1142.41 902.247C1142.67 901.289 1143.05 899.832 1143.05 899.832H1145.74L1144.78 903.314C1144.78 903.314 1144.18 905.003 1142.46 905.003H1135.16C1135.16 905.003 1133.27 905.057 1133.85 903.001C1134.17 901.925 1134.44 900.826 1134.67 899.709" fill="white"/>
<line x1="771.875" y1="896.658" x2="1133.29" y2="896.658" stroke="white" stroke-width="0.352941" stroke-dasharray="1.76 1.76"/>
<line x1="771.875" y1="905.834" x2="1133.29" y2="905.834" stroke="white" stroke-width="0.352941" stroke-dasharray="1.76 1.76"/>
</g>
<defs>
<clipPath id="clip0_1304_3066">
<rect width="361.412" height="12" fill="white" transform="translate(771.875 895.068)"/>
</clipPath>
</defs>
</svg>
