<svg width="1890" height="1890" viewBox="0 0 1890 1890" fill="none" xmlns="http://www.w3.org/2000/svg">
<rect width="1890" height="1890" fill="#C9CACC"/>
<g clip-path="url(#clip0_1560_2928)">
<mask id="mask0_1560_2928" style="mask-type:luminance" maskUnits="userSpaceOnUse" x="911" y="967" width="23" height="15">
<path d="M933.893 967.466H911.07V981.962H933.893V967.466Z" fill="white"/>
</mask>
<g mask="url(#mask0_1560_2928)">
<path d="M935.815 967.466H909.086V981.962H935.815V967.466Z" fill="#13110C"/>
<path d="M914.161 979.667C914.113 979.838 914.075 979.977 914.046 980.084C914.043 980.1 914.035 980.115 914.025 980.128C914.015 980.141 914.002 980.151 913.987 980.159C913.965 980.169 913.94 980.175 913.915 980.175H913.84L913.781 980.381H914.034C914.111 980.38 914.187 980.356 914.251 980.312C914.31 980.275 914.353 980.219 914.372 980.152L914.497 979.707C914.556 979.496 914.597 979.346 914.621 979.258H914.272L914.161 979.667Z" fill="#CFCBCA"/>
<path d="M915.78 979.263C915.694 979.237 915.604 979.229 915.515 979.24C915.421 979.248 915.331 979.278 915.251 979.328C915.178 979.369 915.121 979.435 915.092 979.514L915.012 979.795C914.972 979.94 914.946 980.034 914.933 980.076C914.922 980.107 914.919 980.14 914.924 980.173C914.93 980.206 914.943 980.237 914.964 980.263C915.019 980.323 915.096 980.359 915.178 980.365C915.253 980.377 915.329 980.377 915.405 980.365C915.477 980.353 915.547 980.328 915.611 980.291C915.652 980.27 915.69 980.241 915.72 980.206C915.75 980.17 915.773 980.128 915.786 980.084C915.804 980.026 915.829 979.934 915.863 979.809C915.897 979.684 915.924 979.598 915.94 979.534C915.949 979.508 915.952 979.481 915.95 979.453C915.948 979.426 915.94 979.399 915.927 979.375C915.911 979.347 915.89 979.323 915.865 979.304C915.839 979.285 915.811 979.271 915.78 979.263ZM915.604 979.514C915.569 979.635 915.518 979.819 915.445 980.061C915.433 980.096 915.429 980.114 915.429 980.116C915.421 980.134 915.409 980.15 915.393 980.162C915.378 980.175 915.359 980.183 915.339 980.184C915.319 980.187 915.299 980.183 915.282 980.173C915.273 980.164 915.266 980.152 915.264 980.139C915.261 980.127 915.262 980.113 915.267 980.101C915.277 980.066 915.333 979.868 915.427 979.506C915.431 979.487 915.44 979.469 915.453 979.456C915.467 979.442 915.483 979.432 915.502 979.427C915.516 979.423 915.531 979.423 915.545 979.427C915.559 979.428 915.572 979.433 915.582 979.443C915.609 979.453 915.612 979.478 915.604 979.514Z" fill="#CFCBCA"/>
<path d="M916.658 979.235C916.58 979.511 916.494 979.821 916.399 980.165C916.399 980.171 916.399 980.178 916.399 980.184V980.205C916.395 980.218 916.387 980.23 916.375 980.238L916.297 980.305L916.219 980.371H916.698C916.731 980.25 916.837 979.871 917.017 979.235H916.658Z" fill="#CFCBCA"/>
<path d="M918.291 979.247C918.275 979.306 918.251 979.389 918.221 979.498L918.152 979.75L918.04 979.247H917.721C917.694 979.341 917.649 979.504 917.585 979.736C917.526 979.944 917.481 980.107 917.448 980.215C917.421 980.242 917.393 980.268 917.363 980.292L917.273 980.367H917.719C917.719 980.34 917.749 980.257 917.789 980.116C917.816 980.014 917.84 979.931 917.86 979.865C917.871 979.918 917.89 980.003 917.914 980.116C917.938 980.23 917.957 980.309 917.97 980.367H918.289C918.387 980.02 918.491 979.645 918.609 979.239H918.289L918.291 979.247Z" fill="#CFCBCA"/>
<path d="M920.826 979.263C920.74 979.237 920.649 979.229 920.56 979.24C920.466 979.248 920.376 979.279 920.296 979.328C920.222 979.368 920.165 979.434 920.136 979.514C920.116 979.585 920.088 979.673 920.056 979.795C920.015 979.94 919.989 980.034 919.977 980.076C919.967 980.108 919.966 980.142 919.974 980.174C919.981 980.207 919.996 980.237 920.018 980.263C920.074 980.323 920.15 980.359 920.232 980.365C920.307 980.377 920.384 980.377 920.459 980.365C920.532 980.353 920.602 980.328 920.667 980.291C920.747 980.246 920.806 980.172 920.833 980.084L920.909 979.809L920.986 979.534C920.995 979.508 920.998 979.48 920.995 979.453C920.993 979.425 920.985 979.399 920.972 979.375C920.94 979.32 920.888 979.279 920.826 979.263ZM920.657 979.514C920.622 979.635 920.571 979.819 920.497 980.061C920.486 980.096 920.481 980.114 920.481 980.116C920.474 980.134 920.462 980.15 920.446 980.162C920.431 980.175 920.412 980.183 920.392 980.184C920.373 980.188 920.353 980.184 920.336 980.173C920.326 980.164 920.319 980.153 920.317 980.14C920.314 980.127 920.315 980.113 920.32 980.101C920.33 980.066 920.385 979.868 920.48 979.506C920.484 979.487 920.493 979.469 920.506 979.456C920.519 979.442 920.536 979.432 920.555 979.427C920.569 979.423 920.584 979.423 920.598 979.427C920.612 979.428 920.626 979.434 920.636 979.443C920.645 979.452 920.652 979.464 920.655 979.476C920.659 979.488 920.659 979.501 920.657 979.514Z" fill="#CFCBCA"/>
<path d="M922.072 979.673L921.951 980.109C921.947 980.121 921.942 980.133 921.934 980.142C921.926 980.152 921.916 980.16 921.905 980.167C921.893 980.175 921.88 980.18 921.865 980.183C921.851 980.185 921.837 980.185 921.823 980.181C921.815 980.179 921.807 980.175 921.801 980.17C921.794 980.164 921.789 980.157 921.786 980.149C921.782 980.134 921.782 980.119 921.786 980.104C921.814 980.004 921.854 979.86 921.908 979.67C921.962 979.48 922.004 979.328 922.029 979.235H921.683C921.655 979.33 921.617 979.47 921.566 979.657C921.515 979.844 921.473 979.976 921.448 980.079C921.438 980.109 921.435 980.141 921.44 980.172C921.445 980.204 921.458 980.234 921.477 980.259C921.532 980.321 921.609 980.359 921.692 980.365C921.812 980.383 921.934 980.37 922.047 980.328C922.107 980.305 922.161 980.27 922.207 980.226C922.251 980.186 922.283 980.134 922.299 980.077C922.412 979.674 922.49 979.393 922.534 979.235H922.195C922.175 979.309 922.133 979.454 922.072 979.673Z" fill="#CFCBCA"/>
<path d="M924.035 979.285C923.98 979.249 923.916 979.233 923.851 979.238H923.303C923.217 979.547 923.13 979.86 923.041 980.176C923.041 980.176 923.041 980.185 923.041 980.193C923.042 980.199 923.042 980.205 923.041 980.211C923.037 980.224 923.029 980.235 923.019 980.243L922.859 980.375H923.339C923.385 980.206 923.43 980.056 923.47 979.907H923.532C923.553 979.907 923.574 979.913 923.591 979.925C923.602 979.932 923.61 979.943 923.613 979.956C923.617 979.968 923.616 979.982 923.61 979.994C923.585 980.083 923.549 980.211 923.503 980.375H923.835L923.898 980.152C923.925 980.059 923.945 979.984 923.96 979.93C923.964 979.913 923.963 979.896 923.958 979.88C923.953 979.864 923.943 979.85 923.93 979.839C923.901 979.812 923.865 979.794 923.827 979.784C923.876 979.771 923.922 979.75 923.965 979.722C924.003 979.698 924.032 979.661 924.048 979.618C924.048 979.609 924.059 979.577 924.073 979.523L924.1 979.427C924.107 979.399 924.104 979.37 924.092 979.344C924.08 979.319 924.06 979.298 924.035 979.285ZM923.747 979.495C923.747 979.526 923.73 979.562 923.717 979.606C923.71 979.625 923.697 979.642 923.68 979.654C923.662 979.666 923.641 979.676 923.62 979.681H923.532C923.532 979.652 923.564 979.567 923.602 979.427C923.634 979.424 923.666 979.424 923.698 979.427C923.715 979.43 923.73 979.439 923.741 979.452C923.746 979.459 923.749 979.467 923.75 979.475C923.751 979.483 923.75 979.491 923.747 979.499V979.495Z" fill="#CFCBCA"/>
<path d="M926.436 979.307C926.355 979.251 926.256 979.224 926.157 979.23C926.08 979.23 926.004 979.242 925.932 979.266C925.863 979.286 925.8 979.321 925.746 979.369C925.698 979.412 925.662 979.467 925.644 979.529C925.628 979.59 925.601 979.689 925.566 979.807L925.489 980.083C925.476 980.119 925.473 980.157 925.481 980.195C925.489 980.232 925.507 980.266 925.534 980.293C925.606 980.352 925.699 980.381 925.793 980.373C925.888 980.371 925.98 980.341 926.058 980.286V980.363H926.259C926.297 980.229 926.347 980.043 926.409 979.828H925.999L925.98 979.901C925.968 979.936 925.962 979.962 925.959 979.975H926.031C926.031 979.975 926.021 980.007 926.012 980.043C926.002 980.08 925.997 980.095 925.991 980.112C925.985 980.129 925.975 980.144 925.96 980.155C925.945 980.169 925.925 980.178 925.905 980.181C925.89 980.185 925.875 980.185 925.861 980.181C925.855 980.179 925.848 980.176 925.843 980.172C925.838 980.167 925.834 980.162 925.831 980.155C925.823 980.129 925.823 980.1 925.831 980.074L925.911 979.786C925.954 979.627 925.981 979.536 925.991 979.497C925.997 979.478 926.008 979.46 926.023 979.446C926.031 979.437 926.04 979.43 926.051 979.425C926.062 979.42 926.073 979.418 926.085 979.417C926.095 979.415 926.105 979.414 926.114 979.416C926.124 979.418 926.133 979.422 926.141 979.429C926.148 979.433 926.154 979.438 926.157 979.445C926.161 979.453 926.162 979.461 926.162 979.468C926.157 979.498 926.15 979.528 926.141 979.556C926.128 979.604 926.12 979.635 926.117 979.644H926.462C926.489 979.54 926.502 979.484 926.502 979.496C926.509 979.461 926.506 979.426 926.494 979.393C926.484 979.36 926.464 979.329 926.436 979.307Z" fill="#CFCBCA"/>
<path d="M927.472 979.237L927.255 979.705C927.168 979.894 927.095 980.05 927.039 980.173V980.191V980.21C927.033 980.223 927.023 980.234 927.012 980.242L926.828 980.376H927.267C927.29 980.331 927.318 980.272 927.352 980.197C927.386 980.122 927.424 980.038 927.438 980.015H927.624C927.609 980.154 927.598 980.274 927.588 980.376H927.921L928.028 979.237H927.488H927.472ZM927.632 979.667C927.632 979.742 927.62 979.792 927.617 979.817H927.505L927.644 979.515C927.651 979.554 927.646 979.605 927.64 979.667H927.632Z" fill="#CFCBCA"/>
<path d="M929.493 979.235L929.229 979.729L929.242 979.235H928.763L928.493 980.208C928.482 980.229 928.466 980.247 928.447 980.261L928.312 980.374H928.761L928.87 979.988C928.913 979.828 928.95 979.7 928.979 979.601C928.979 979.699 928.979 979.828 928.967 979.988C928.959 980.189 928.955 980.318 928.953 980.374H929.138L929.341 979.986C929.427 979.821 929.496 979.692 929.547 979.598L929.443 979.986C929.387 980.184 929.351 980.305 929.335 980.374H929.654C929.8 979.857 929.905 979.478 929.974 979.235H929.494H929.493Z" fill="#CFCBCA"/>
<path d="M930.402 980.172C930.402 980.178 930.402 980.185 930.402 980.191C930.402 980.197 930.402 980.204 930.402 980.21C930.398 980.223 930.39 980.235 930.378 980.242L930.219 980.375H931.017C931.041 980.292 931.064 980.215 931.086 980.13H930.767C930.799 980.017 930.818 979.945 930.827 979.913H931.003C931.029 979.822 931.051 979.741 931.072 979.669H930.896C930.909 979.621 930.926 979.559 930.949 979.48H931.268C931.294 979.397 931.316 979.321 931.337 979.234H930.664C930.522 979.739 930.436 980.052 930.402 980.172Z" fill="#CFCBCA"/>
<path d="M931.841 968.438H913.174C912.63 968.438 912.195 968.967 912.195 969.619V979.723C912.195 980.375 912.638 980.906 913.182 980.906H931.841C932.386 980.906 932.827 980.375 932.827 979.723V969.619C932.827 968.967 932.386 968.438 931.841 968.438ZM913.174 968.614H931.841C932.303 968.614 932.676 969.065 932.676 969.619V970.508H912.337V969.619C912.337 969.061 912.711 968.614 913.174 968.614ZM931.841 980.731H913.174C912.711 980.731 912.337 980.28 912.337 979.723V978.788H932.676V979.723C932.676 980.28 932.303 980.731 931.841 980.731Z" fill="url(#paint0_linear_1560_2928)"/>
<path d="M913.557 969.771H914.011L914.088 969.931H914.211L913.855 969.254H913.714L913.359 969.931H913.481L913.557 969.771ZM913.779 969.342L913.952 969.671H913.61L913.779 969.342Z" fill="#CFCBCA"/>
<path d="M914.796 969.875C914.881 969.924 914.978 969.947 915.075 969.942C915.173 969.948 915.269 969.925 915.353 969.875C915.385 969.858 915.411 969.833 915.429 969.802C915.447 969.772 915.456 969.737 915.456 969.701V969.244H915.345V969.677C915.346 969.702 915.339 969.726 915.327 969.747C915.315 969.769 915.297 969.786 915.275 969.798C915.213 969.83 915.145 969.844 915.075 969.84C915.006 969.844 914.937 969.829 914.874 969.798C914.853 969.786 914.836 969.768 914.824 969.747C914.812 969.726 914.806 969.701 914.807 969.677V969.244H914.695V969.701C914.695 969.736 914.704 969.771 914.722 969.802C914.739 969.832 914.765 969.858 914.796 969.875Z" fill="#CFCBCA"/>
<path d="M916.259 969.923H916.372V969.347H916.693V969.246H915.938V969.347H916.259V969.923Z" fill="#CFCBCA"/>
<path d="M917.299 969.621H917.836V969.923H917.948V969.246H917.836V969.521H917.299V969.246H917.188V969.923H917.299V969.621Z" fill="#CFCBCA"/>
<path d="M919.226 969.823H918.634V969.621H919.028V969.521H918.634V969.347H919.202V969.246H918.523V969.923H919.226V969.823Z" fill="#CFCBCA"/>
<path d="M919.86 969.366L920.373 969.923H920.513V969.246H920.402V969.802L919.887 969.246H919.75V969.923H919.86V969.366Z" fill="#CFCBCA"/>
<path d="M921.323 969.923H921.434V969.347H921.754V969.246H921V969.347H921.323V969.923Z" fill="#CFCBCA"/>
<path d="M922.352 969.246H922.242V969.923H922.352V969.246Z" fill="#CFCBCA"/>
<path d="M923.033 969.862C923.12 969.923 923.225 969.954 923.332 969.95C923.405 969.951 923.479 969.939 923.549 969.914C923.61 969.885 923.665 969.843 923.708 969.79L923.613 969.736C923.544 969.799 923.456 969.838 923.363 969.846C923.269 969.853 923.176 969.829 923.098 969.777C923.071 969.755 923.049 969.726 923.034 969.694C923.019 969.662 923.011 969.627 923.011 969.592C923.011 969.556 923.019 969.521 923.034 969.489C923.049 969.457 923.071 969.429 923.098 969.407C923.164 969.357 923.245 969.333 923.327 969.336C923.379 969.333 923.432 969.341 923.481 969.36C923.53 969.378 923.574 969.407 923.611 969.445L923.713 969.408C923.669 969.349 923.611 969.301 923.545 969.269C923.479 969.237 923.405 969.221 923.332 969.223C923.226 969.22 923.123 969.252 923.038 969.314C922.994 969.344 922.959 969.384 922.934 969.431C922.91 969.477 922.898 969.529 922.899 969.582C922.897 969.636 922.908 969.69 922.931 969.739C922.955 969.787 922.989 969.83 923.033 969.862Z" fill="#CFCBCA"/>
<path d="M924.969 969.942C925.049 969.948 925.129 969.927 925.196 969.883C925.221 969.86 925.24 969.832 925.252 969.8C925.264 969.769 925.268 969.735 925.264 969.701V969.244H925.153V969.701C925.155 969.721 925.152 969.741 925.145 969.759C925.138 969.778 925.126 969.795 925.111 969.808C925.067 969.831 925.017 969.841 924.967 969.837C924.921 969.84 924.875 969.83 924.835 969.808C924.82 969.795 924.808 969.78 924.799 969.762C924.791 969.745 924.786 969.725 924.785 969.706H924.672C924.672 969.739 924.679 969.771 924.692 969.801C924.706 969.831 924.725 969.858 924.75 969.88C924.814 969.925 924.891 969.947 924.969 969.942Z" fill="#CFCBCA"/>
<path d="M926.531 969.823H925.938V969.621H926.331V969.521H925.938V969.347H926.505V969.246H925.828V969.923H926.531V969.823Z" fill="#CFCBCA"/>
<path d="M927.17 969.665H927.51L927.689 969.922H927.82L927.639 969.66C927.687 969.653 927.731 969.631 927.765 969.598C927.782 969.579 927.795 969.557 927.804 969.533C927.812 969.509 927.816 969.484 927.815 969.459C927.817 969.429 927.812 969.399 927.802 969.372C927.791 969.344 927.774 969.319 927.752 969.299C927.709 969.26 927.651 969.239 927.593 969.241H927.062V969.919H927.176L927.17 969.665ZM927.17 969.345H927.561C927.653 969.345 927.7 969.382 927.7 969.457C927.7 969.532 927.657 969.562 927.57 969.562H927.17V969.345Z" fill="#CFCBCA"/>
<path d="M928.866 969.809C928.808 969.833 928.745 969.844 928.682 969.841C928.563 969.841 928.445 969.808 928.344 969.745L928.281 969.825C928.398 969.908 928.539 969.949 928.682 969.94C928.776 969.945 928.87 969.925 928.954 969.881C928.982 969.865 929.006 969.842 929.023 969.814C929.04 969.786 929.049 969.754 929.05 969.721C929.05 969.696 929.045 969.671 929.035 969.648C929.024 969.625 929.009 969.605 928.989 969.59C928.932 969.553 928.867 969.532 928.8 969.526L928.618 969.512C928.572 969.512 928.526 969.505 928.481 969.492C928.443 969.478 928.422 969.456 928.422 969.427C928.423 969.412 928.429 969.397 928.438 969.385C928.448 969.373 928.461 969.364 928.476 969.36C928.527 969.34 928.581 969.33 928.636 969.333C928.742 969.335 928.847 969.362 928.941 969.411L929.006 969.334C928.899 969.259 928.77 969.22 928.639 969.222C928.552 969.217 928.465 969.236 928.388 969.277C928.361 969.291 928.339 969.313 928.323 969.34C928.307 969.366 928.299 969.396 928.299 969.427C928.297 969.455 928.304 969.482 928.318 969.506C928.332 969.53 928.352 969.549 928.377 969.561C928.452 969.59 928.532 969.605 928.612 969.606C928.688 969.608 928.765 969.615 928.84 969.628C928.896 969.643 928.923 969.673 928.923 969.714C928.924 969.734 928.919 969.754 928.909 969.77C928.899 969.787 928.884 969.801 928.866 969.809Z" fill="#CFCBCA"/>
<path d="M930.283 969.823H929.69V969.621H930.083V969.521H929.69V969.347H930.257V969.246H929.578V969.923H930.283V969.823Z" fill="#CFCBCA"/>
<path d="M931.066 969.921H931.176V969.655L931.543 969.244H931.403L931.12 969.562L930.836 969.244H930.695L931.066 969.655V969.921Z" fill="#CFCBCA"/>
<path d="M923.255 976.207H922.789V975.763H923.238V975.828H922.866V975.942H923.124V976.009H922.866V976.141H923.255V976.207Z" fill="#13110C"/>
<path d="M923.272 976.215H922.781V975.749H923.26V975.838H922.882V975.93H923.141V976.021H922.882V976.129H923.272V976.215ZM922.807 976.191H923.248V976.15H922.858V975.99H923.117V975.949H922.858V975.81H923.232V975.77H922.807V976.191Z" fill="#13110C"/>
<path d="M923.936 976.207H923.843L923.505 975.843V976.207H923.43V975.763H923.522L923.863 976.127V975.763H923.936V976.207Z" fill="#13110C"/>
<path d="M923.943 976.215H923.833L923.513 975.875V976.219H923.414V975.749H923.527L923.847 976.089V975.749H923.946L923.943 976.215ZM923.847 976.191H923.922V975.77H923.872V976.152L923.847 976.132L923.511 975.77H923.436V976.188H923.488V975.805L923.847 976.191Z" fill="#13110C"/>
<path d="M924.679 975.975C924.68 976.009 924.673 976.042 924.659 976.072C924.645 976.103 924.625 976.13 924.599 976.151C924.541 976.198 924.468 976.222 924.394 976.218C924.324 976.22 924.255 976.199 924.198 976.157C924.17 976.137 924.148 976.111 924.133 976.08C924.117 976.05 924.109 976.017 924.109 975.983C924.109 975.948 924.117 975.915 924.133 975.885C924.148 975.854 924.17 975.828 924.198 975.808C924.256 975.765 924.327 975.743 924.399 975.745C924.445 975.744 924.49 975.753 924.532 975.772C924.574 975.791 924.611 975.819 924.64 975.854L924.57 975.889C924.548 975.864 924.52 975.845 924.49 975.832C924.459 975.819 924.426 975.813 924.393 975.814C924.342 975.812 924.292 975.828 924.25 975.857C924.23 975.871 924.213 975.889 924.202 975.911C924.191 975.933 924.185 975.957 924.185 975.982C924.184 976.005 924.188 976.028 924.198 976.049C924.208 976.07 924.222 976.089 924.241 976.103C924.286 976.138 924.343 976.155 924.401 976.151C924.441 976.156 924.482 976.147 924.516 976.126C924.551 976.105 924.577 976.073 924.591 976.034H924.378V975.971H924.679V975.975Z" fill="#13110C"/>
<path d="M924.407 976.231C924.334 976.234 924.263 976.211 924.204 976.167C924.175 976.146 924.151 976.118 924.134 976.086C924.118 976.054 924.109 976.019 924.109 975.983C924.109 975.947 924.118 975.911 924.134 975.879C924.151 975.847 924.175 975.819 924.204 975.798C924.264 975.753 924.337 975.73 924.412 975.733C924.459 975.732 924.507 975.741 924.55 975.761C924.593 975.781 924.632 975.81 924.663 975.846L924.672 975.857L924.58 975.904C924.541 975.864 924.489 975.84 924.434 975.835C924.379 975.829 924.324 975.843 924.278 975.873C924.259 975.886 924.243 975.903 924.232 975.923C924.222 975.943 924.216 975.965 924.217 975.988C924.216 976.01 924.22 976.031 924.228 976.051C924.237 976.07 924.251 976.087 924.268 976.1C924.309 976.132 924.36 976.148 924.412 976.146C924.447 976.15 924.482 976.144 924.513 976.127C924.544 976.111 924.569 976.085 924.584 976.054H924.38V975.964H924.699V975.982C924.7 976.017 924.694 976.052 924.68 976.084C924.666 976.116 924.644 976.144 924.618 976.167C924.557 976.213 924.483 976.235 924.407 976.231ZM924.407 975.752C924.338 975.75 924.27 975.771 924.214 975.813C924.187 975.831 924.166 975.856 924.151 975.885C924.136 975.914 924.129 975.946 924.129 975.978C924.129 976.01 924.136 976.042 924.151 976.071C924.166 976.1 924.187 976.124 924.214 976.143C924.268 976.183 924.335 976.203 924.402 976.201C924.473 976.205 924.543 976.183 924.599 976.138C924.622 976.119 924.64 976.094 924.653 976.067C924.666 976.039 924.673 976.009 924.674 975.979H924.404V976.02H924.615V976.036C924.599 976.076 924.571 976.111 924.535 976.133C924.498 976.156 924.455 976.165 924.412 976.161C924.354 976.163 924.298 976.145 924.252 976.11C924.233 976.094 924.217 976.074 924.207 976.051C924.197 976.028 924.192 976.004 924.193 975.979C924.192 975.952 924.199 975.926 924.211 975.902C924.223 975.878 924.241 975.858 924.263 975.843C924.314 975.811 924.373 975.796 924.432 975.801C924.492 975.806 924.548 975.83 924.592 975.87L924.639 975.846C924.609 975.816 924.574 975.793 924.536 975.778C924.497 975.762 924.455 975.755 924.413 975.757L924.407 975.752Z" fill="#13110C"/>
<path d="M924.941 975.759H924.867V976.201H924.941V975.759Z" fill="#13110C"/>
<path d="M924.966 976.215H924.867V975.749H924.966V976.215ZM924.891 976.191H924.942V975.77H924.891V976.191Z" fill="#13110C"/>
<path d="M925.667 976.207H925.576L925.236 975.843V976.207H925.164V975.763H925.255L925.595 976.127V975.763H925.667V976.207Z" fill="#13110C"/>
<path d="M925.682 976.215H925.573L925.254 975.875V976.219H925.156V975.749H925.265L925.584 976.089V975.749H925.68L925.682 976.215ZM925.584 976.191H925.658V975.77H925.615V976.152L925.594 976.129L925.252 975.77H925.179V976.188H925.227V975.805L925.584 976.191Z" fill="#13110C"/>
<path d="M926.341 976.207H925.875V975.763H926.324V975.828H925.95V975.942H926.209V976.009H925.95V976.141H926.341V976.207Z" fill="#13110C"/>
<path d="M926.342 976.215H925.852V975.749H926.331V975.838H925.951V975.93H926.209V976.021H925.951V976.129H926.342V976.215ZM925.877 976.191H926.316V976.15H925.927V975.99H926.185V975.949H925.927V975.81H926.3V975.77H925.877V976.191Z" fill="#13110C"/>
<path d="M926.974 976.207H926.508V975.763H926.955V975.828H926.581V975.942H926.842V976.009H926.581V976.141H926.974V976.207Z" fill="#13110C"/>
<path d="M926.998 976.215H926.508V975.749H926.987V975.838H926.605V975.93H926.867V976.021H926.605V976.129H926.998V976.215ZM926.532 976.191H926.974V976.15H926.576V975.99H926.837V975.949H926.576V975.81H926.95V975.77H926.532V976.191Z" fill="#13110C"/>
<path d="M927.653 976.203H927.567L927.447 976.034H927.224V976.203H927.148V975.761H927.5C927.54 975.759 927.579 975.772 927.61 975.798C927.623 975.811 927.633 975.828 927.64 975.846C927.646 975.864 927.649 975.883 927.648 975.902C927.65 975.935 927.639 975.968 927.616 975.993C927.594 976.014 927.565 976.028 927.533 976.032L927.653 976.203ZM927.493 975.97C927.553 975.97 927.58 975.945 927.58 975.902C927.58 975.858 927.549 975.825 927.487 975.825H927.228V975.97H927.493Z" fill="#13110C"/>
<path d="M927.685 976.216H927.569L927.452 976.057H927.246V976.226H927.148V975.748H927.511C927.532 975.747 927.554 975.75 927.574 975.757C927.595 975.764 927.613 975.775 927.629 975.79C927.644 975.805 927.655 975.822 927.662 975.841C927.67 975.861 927.673 975.881 927.672 975.902C927.674 975.938 927.661 975.973 927.637 976.001C927.617 976.02 927.592 976.034 927.565 976.041L927.685 976.216ZM927.581 976.191H927.637L927.521 976.023H927.54C927.568 976.019 927.595 976.007 927.616 975.988C927.635 975.965 927.645 975.935 927.644 975.905C927.645 975.888 927.642 975.87 927.636 975.854C927.63 975.838 927.621 975.823 927.608 975.811C927.595 975.798 927.579 975.789 927.562 975.783C927.544 975.777 927.526 975.774 927.508 975.776H927.169V976.194H927.206V976.023H927.449L927.581 976.191ZM927.497 975.982H927.206V975.822H927.477C927.569 975.822 927.583 975.876 927.583 975.91C927.583 975.943 927.573 975.982 927.489 975.982H927.497ZM927.243 975.958H927.497C927.57 975.958 927.57 975.914 927.57 975.902C927.57 975.889 927.57 975.838 927.49 975.838H927.243V975.958Z" fill="#13110C"/>
<path d="M928.287 976.207H927.82V975.763H928.269V975.828H927.895V975.942H928.154V976.009H927.895V976.141H928.287V976.207Z" fill="#13110C"/>
<path d="M928.303 976.215H927.812V975.749H928.292V975.838H927.92V975.93H928.178V976.021H927.92V976.129H928.309L928.303 976.215ZM927.841 976.191H928.282V976.15H927.891V975.99H928.15V975.949H927.891V975.81H928.265V975.77H927.841V976.191Z" fill="#13110C"/>
<path d="M928.748 975.759C928.816 975.756 928.882 975.779 928.934 975.823C928.955 975.843 928.973 975.868 928.984 975.896C928.996 975.923 929.001 975.953 929.001 975.983C929.001 976.013 928.995 976.043 928.983 976.071C928.97 976.098 928.952 976.123 928.929 976.142C928.884 976.18 928.827 976.2 928.769 976.2H928.469V975.759H928.748ZM928.769 976.138C928.789 976.139 928.809 976.136 928.828 976.128C928.846 976.121 928.863 976.11 928.878 976.096C928.906 976.066 928.921 976.027 928.921 975.986C928.921 975.965 928.918 975.944 928.91 975.924C928.902 975.904 928.891 975.886 928.876 975.871C928.86 975.856 928.841 975.844 928.82 975.836C928.799 975.829 928.777 975.825 928.755 975.826H928.541V976.138H928.769Z" fill="#13110C"/>
<path d="M928.761 976.217H928.453V975.747H928.745C928.816 975.744 928.885 975.768 928.939 975.814C928.963 975.837 928.981 975.864 928.993 975.894C929.006 975.925 929.011 975.958 929.009 975.99C929.008 976.021 929.001 976.051 928.988 976.078C928.975 976.106 928.957 976.13 928.934 976.15C928.887 976.193 928.825 976.217 928.761 976.217ZM928.482 976.191H928.766C928.824 976.194 928.882 976.175 928.926 976.137C928.947 976.119 928.964 976.097 928.976 976.071C928.988 976.046 928.993 976.018 928.993 975.99C928.996 975.96 928.991 975.93 928.98 975.903C928.969 975.875 928.951 975.85 928.929 975.83C928.881 975.788 928.818 975.766 928.753 975.77H928.482V976.191ZM928.771 976.152H928.531V975.814H928.757C928.78 975.813 928.804 975.817 928.826 975.825C928.848 975.834 928.869 975.846 928.886 975.862C928.902 975.879 928.914 975.898 928.923 975.92C928.931 975.941 928.935 975.964 928.934 975.987C928.935 976.009 928.931 976.031 928.923 976.051C928.915 976.071 928.903 976.09 928.888 976.105C928.872 976.122 928.853 976.134 928.832 976.142C928.811 976.151 928.789 976.154 928.766 976.152H928.771ZM928.555 976.128H928.771C928.789 976.129 928.808 976.126 928.825 976.119C928.842 976.113 928.857 976.102 928.87 976.089C928.883 976.076 928.894 976.06 928.901 976.042C928.908 976.025 928.911 976.006 928.91 975.987C928.911 975.967 928.908 975.948 928.901 975.929C928.894 975.911 928.884 975.894 928.87 975.88C928.839 975.852 928.798 975.837 928.757 975.838H928.555V976.128Z" fill="#13110C"/>
<path d="M930.127 975.828H929.755V975.942H930.014V976.009H929.755V976.207H929.68V975.763H930.127V975.828Z" fill="#13110C"/>
<path d="M929.763 976.215H929.664V975.749H930.135V975.838H929.763V975.93H930.023V976.021H929.763V976.215ZM929.69 976.191H929.738V975.993H929.998V975.952H929.738V975.815H930.111V975.77H929.69V976.191Z" fill="#13110C"/>
<path d="M930.812 975.982C930.813 976.016 930.805 976.05 930.79 976.081C930.775 976.112 930.752 976.139 930.725 976.159C930.666 976.197 930.598 976.217 930.528 976.217C930.459 976.217 930.39 976.197 930.332 976.159C930.303 976.139 930.28 976.113 930.264 976.082C930.249 976.051 930.241 976.017 930.242 975.982C930.242 975.948 930.25 975.914 930.266 975.883C930.281 975.853 930.304 975.826 930.332 975.806C930.39 975.768 930.458 975.747 930.528 975.747C930.598 975.747 930.666 975.768 930.725 975.806C930.752 975.827 930.774 975.853 930.789 975.884C930.805 975.914 930.813 975.948 930.812 975.982ZM930.736 975.982C930.735 975.957 930.729 975.933 930.718 975.911C930.707 975.889 930.69 975.87 930.67 975.856C930.628 975.828 930.579 975.813 930.528 975.814C930.474 975.812 930.42 975.829 930.376 975.862C930.358 975.876 930.343 975.894 930.333 975.915C930.323 975.936 930.318 975.959 930.319 975.982C930.318 976.005 930.322 976.029 930.332 976.05C930.342 976.071 930.358 976.089 930.376 976.103C930.421 976.135 930.474 976.151 930.528 976.151C930.583 976.151 930.636 976.135 930.68 976.103C930.698 976.089 930.712 976.07 930.722 976.049C930.732 976.028 930.737 976.005 930.736 975.982Z" fill="#13110C"/>
<path d="M930.525 976.229C930.452 976.232 930.38 976.21 930.321 976.168C930.291 976.147 930.267 976.119 930.251 976.086C930.234 976.054 930.226 976.018 930.227 975.981C930.227 975.945 930.235 975.909 930.252 975.877C930.268 975.845 930.292 975.817 930.321 975.796C930.381 975.754 930.452 975.732 930.525 975.734C930.598 975.732 930.669 975.753 930.728 975.796C930.757 975.817 930.781 975.845 930.797 975.878C930.813 975.91 930.822 975.946 930.822 975.982C930.822 976.018 930.813 976.054 930.797 976.086C930.781 976.118 930.757 976.146 930.728 976.168C930.669 976.209 930.598 976.231 930.525 976.229ZM930.525 975.759C930.458 975.757 930.391 975.777 930.335 975.815C930.31 975.833 930.289 975.857 930.275 975.885C930.261 975.913 930.253 975.943 930.252 975.975C930.252 976.006 930.26 976.037 930.275 976.065C930.29 976.093 930.311 976.117 930.337 976.134C930.393 976.171 930.458 976.19 930.525 976.19C930.592 976.19 930.658 976.171 930.714 976.134C930.74 976.115 930.761 976.09 930.776 976.061C930.79 976.032 930.798 976 930.798 975.968C930.798 975.935 930.79 975.903 930.776 975.874C930.761 975.845 930.74 975.82 930.714 975.801C930.657 975.768 930.591 975.753 930.525 975.759ZM930.525 976.162C930.468 976.164 930.412 976.147 930.366 976.114C930.345 976.098 930.329 976.078 930.318 976.055C930.307 976.032 930.302 976.007 930.303 975.981C930.303 975.956 930.309 975.931 930.32 975.909C930.331 975.886 930.347 975.867 930.367 975.852C930.413 975.817 930.469 975.799 930.527 975.801C930.58 975.8 930.633 975.815 930.677 975.845C930.699 975.861 930.716 975.881 930.728 975.905C930.741 975.928 930.747 975.955 930.747 975.981C930.748 976.007 930.743 976.032 930.732 976.055C930.721 976.078 930.705 976.098 930.685 976.114C930.639 976.148 930.582 976.165 930.525 976.162ZM930.525 975.825C930.474 975.823 930.423 975.84 930.382 975.871C930.365 975.885 930.352 975.902 930.343 975.921C930.335 975.94 930.33 975.961 930.33 975.983C930.33 976.004 930.335 976.025 930.343 976.044C930.352 976.064 930.365 976.081 930.382 976.094C930.424 976.125 930.475 976.14 930.527 976.138C930.578 976.14 930.629 976.125 930.671 976.094C930.687 976.081 930.701 976.064 930.71 976.044C930.719 976.024 930.723 976.003 930.722 975.981C930.722 975.958 930.716 975.936 930.705 975.916C930.695 975.895 930.68 975.878 930.661 975.864C930.621 975.838 930.574 975.824 930.525 975.825Z" fill="#13110C"/>
<path d="M931.503 976.203H931.418L931.299 976.034H931.073V976.203H931V975.761H931.356C931.396 975.759 931.434 975.772 931.465 975.798C931.478 975.811 931.488 975.828 931.495 975.845C931.502 975.863 931.505 975.882 931.505 975.901C931.506 975.935 931.494 975.967 931.473 975.992C931.45 976.014 931.421 976.028 931.39 976.032L931.503 976.203ZM931.343 975.97C931.401 975.97 931.428 975.945 931.428 975.901C931.428 975.858 931.398 975.825 931.335 975.825H931.077V975.97H931.343Z" fill="#13110C"/>
<path d="M931.537 976.216H931.422L931.305 976.057H931.099V976.226H931V975.748H931.366C931.387 975.747 931.409 975.75 931.429 975.757C931.449 975.764 931.468 975.775 931.484 975.79C931.498 975.805 931.509 975.822 931.516 975.842C931.523 975.861 931.527 975.881 931.525 975.902C931.527 975.938 931.514 975.973 931.49 976.001C931.471 976.02 931.447 976.034 931.42 976.041L931.537 976.216ZM931.434 976.191H931.489L931.366 976.023H931.387C931.415 976.02 931.441 976.008 931.462 975.988C931.481 975.965 931.492 975.935 931.49 975.905C931.491 975.888 931.489 975.87 931.483 975.854C931.477 975.838 931.467 975.823 931.455 975.811C931.431 975.787 931.4 975.772 931.366 975.771H931.026V976.189H931.077V976.023H931.319L931.434 976.191ZM931.348 975.982H931.072V975.822H931.342C931.433 975.822 931.447 975.876 931.447 975.91C931.447 975.943 931.434 975.982 931.348 975.982ZM931.096 975.958H931.348C931.422 975.958 931.422 975.914 931.422 975.902C931.422 975.889 931.422 975.838 931.342 975.838H931.096V975.958Z" fill="#13110C"/>
<path d="M922.834 976.73C922.772 976.697 922.702 976.68 922.632 976.681C922.597 976.679 922.562 976.684 922.529 976.697C922.504 976.706 922.491 976.72 922.491 976.741C922.491 976.762 922.505 976.773 922.533 976.784C922.562 976.791 922.591 976.795 922.62 976.797H922.742C922.786 976.801 922.828 976.815 922.865 976.839C922.878 976.849 922.889 976.862 922.896 976.877C922.903 976.892 922.906 976.908 922.905 976.925C922.906 976.947 922.9 976.969 922.889 976.989C922.878 977.008 922.862 977.024 922.842 977.035C922.786 977.063 922.724 977.075 922.662 977.072C922.568 977.077 922.476 977.051 922.398 976.998L922.44 976.944C922.507 976.986 922.584 977.008 922.664 977.008C922.705 977.01 922.747 977.003 922.785 976.987C922.797 976.982 922.806 976.974 922.813 976.963C922.82 976.953 922.824 976.941 922.825 976.928C922.825 976.901 922.807 976.882 922.772 976.872C922.719 976.864 922.666 976.859 922.612 976.858C922.558 976.858 922.504 976.848 922.453 976.829C922.441 976.819 922.431 976.806 922.425 976.792C922.419 976.777 922.417 976.762 922.419 976.746C922.419 976.726 922.424 976.706 922.435 976.688C922.445 976.67 922.459 976.656 922.477 976.645C922.526 976.62 922.581 976.608 922.636 976.609C922.722 976.606 922.806 976.629 922.878 976.676L922.834 976.73Z" fill="#13110C"/>
<path d="M922.656 977.087C922.56 977.092 922.464 977.065 922.385 977.01H922.375L922.431 976.938H922.44C922.506 976.979 922.581 977.001 922.658 977.001C922.697 977.002 922.736 976.995 922.773 976.98C922.782 976.976 922.791 976.97 922.797 976.961C922.803 976.953 922.806 976.942 922.806 976.932C922.806 976.919 922.806 976.899 922.763 976.887L922.613 976.873C922.558 976.873 922.504 976.863 922.453 976.844C922.436 976.835 922.421 976.821 922.411 976.804C922.4 976.787 922.395 976.767 922.396 976.747C922.396 976.724 922.402 976.702 922.413 976.683C922.424 976.664 922.44 976.648 922.46 976.637C922.512 976.608 922.572 976.595 922.632 976.598C922.72 976.595 922.806 976.619 922.88 976.667H922.891L922.832 976.734H922.824C922.762 976.703 922.695 976.686 922.626 976.686C922.593 976.684 922.559 976.689 922.528 976.7C922.501 976.71 922.498 976.723 922.498 976.734C922.498 976.745 922.508 976.756 922.53 976.766C922.558 976.772 922.587 976.776 922.616 976.777H922.68H922.738C922.783 976.78 922.827 976.795 922.865 976.82C922.881 976.831 922.893 976.845 922.901 976.862C922.909 976.879 922.913 976.897 922.912 976.916C922.912 976.94 922.906 976.965 922.894 976.986C922.882 977.007 922.864 977.024 922.843 977.036C922.787 977.07 922.722 977.088 922.656 977.087ZM922.413 976.998C922.487 977.044 922.573 977.067 922.659 977.063C922.72 977.066 922.78 977.054 922.833 977.026C922.851 977.017 922.866 977.002 922.876 976.985C922.885 976.967 922.89 976.947 922.889 976.927C922.891 976.913 922.888 976.898 922.882 976.884C922.876 976.871 922.866 976.859 922.854 976.851C922.819 976.829 922.779 976.815 922.738 976.812H922.682H922.616C922.585 976.811 922.555 976.806 922.525 976.798C922.484 976.782 922.476 976.76 922.476 976.744C922.476 976.728 922.492 976.699 922.522 976.688C922.556 976.674 922.592 976.668 922.629 976.67C922.698 976.67 922.767 976.687 922.829 976.718L922.857 976.686C922.79 976.646 922.713 976.626 922.635 976.629C922.58 976.626 922.525 976.638 922.476 976.664C922.46 976.673 922.447 976.686 922.438 976.701C922.429 976.717 922.424 976.735 922.425 976.753C922.424 976.769 922.427 976.784 922.435 976.797C922.443 976.81 922.454 976.821 922.468 976.828C922.515 976.847 922.565 976.856 922.616 976.855C922.67 976.857 922.723 976.862 922.776 976.87C922.819 976.883 922.84 976.905 922.84 976.938C922.839 976.953 922.835 976.967 922.827 976.98C922.818 976.992 922.807 977.001 922.793 977.007C922.753 977.025 922.71 977.033 922.666 977.031C922.588 977.031 922.512 977.01 922.445 976.97L922.413 976.998Z" fill="#13110C"/>
<path d="M923.423 976.62C923.462 976.618 923.501 976.631 923.53 976.657C923.543 976.671 923.553 976.687 923.56 976.704C923.567 976.722 923.57 976.741 923.569 976.759C923.57 976.778 923.567 976.796 923.56 976.813C923.553 976.83 923.542 976.846 923.529 976.858C923.495 976.885 923.452 976.898 923.409 976.893H923.145V977.063H923.07V976.62H923.423ZM923.409 976.828C923.468 976.828 923.495 976.804 923.495 976.759C923.495 976.715 923.465 976.686 923.406 976.686H923.145V976.828H923.409Z" fill="#13110C"/>
<path d="M923.155 977.077H923.055V976.609H923.42C923.463 976.606 923.504 976.621 923.535 976.649C923.55 976.663 923.561 976.681 923.569 976.7C923.576 976.719 923.579 976.74 923.579 976.76C923.58 976.781 923.577 976.801 923.569 976.82C923.561 976.839 923.549 976.856 923.534 976.869C923.498 976.898 923.452 976.912 923.406 976.907H923.155V977.077ZM923.079 977.049H923.13V976.89H923.406C923.446 976.894 923.486 976.883 923.518 976.859C923.53 976.848 923.54 976.834 923.546 976.818C923.553 976.802 923.556 976.785 923.555 976.768C923.557 976.75 923.556 976.731 923.55 976.714C923.545 976.696 923.535 976.68 923.523 976.666C923.495 976.643 923.46 976.632 923.424 976.634H923.079V977.049ZM923.408 976.839H923.13V976.674H923.403C923.491 976.674 923.505 976.728 923.505 976.76C923.505 976.792 923.488 976.842 923.408 976.842V976.839ZM923.155 976.813H923.408C923.472 976.813 923.48 976.784 923.48 976.757C923.48 976.73 923.454 976.697 923.403 976.697H923.155V976.813Z" fill="#13110C"/>
<path d="M924.185 977.065H923.719V976.619H924.168V976.686H923.794V976.8H924.054V976.867H923.794V976.999H924.185V977.065Z" fill="#13110C"/>
<path d="M924.193 977.076H923.703V976.608H924.182V976.698H923.802V976.789H924.064V976.88H923.802V976.987H924.193V977.076ZM923.727 977.049H924.165V977.009H923.778V976.85H924.039V976.806H923.778V976.667H924.152V976.626H923.727V977.049Z" fill="#13110C"/>
<path d="M924.826 977.065H924.359V976.619H924.808V976.686H924.434V976.8H924.693V976.867H924.434V976.999H924.826V977.065Z" fill="#13110C"/>
<path d="M924.828 977.076H924.336V976.608H924.815V976.698H924.435V976.789H924.695V976.88H924.435V976.987H924.828V977.076ZM924.361 977.049H924.799V977.009H924.409V976.85H924.67V976.806H924.409V976.667H924.785V976.626H924.361V977.049Z" fill="#13110C"/>
<path d="M925.28 976.619C925.347 976.617 925.413 976.639 925.465 976.682C925.486 976.702 925.503 976.727 925.515 976.755C925.526 976.782 925.532 976.812 925.532 976.841C925.533 976.872 925.527 976.902 925.514 976.929C925.502 976.957 925.483 976.982 925.46 977.001C925.416 977.04 925.359 977.061 925.3 977.06H925V976.619H925.28ZM925.3 976.999C925.331 976.998 925.36 976.988 925.385 976.97C925.41 976.952 925.429 976.927 925.44 976.899C925.452 976.87 925.455 976.839 925.449 976.809C925.443 976.779 925.428 976.752 925.407 976.73C925.391 976.714 925.372 976.703 925.351 976.695C925.33 976.688 925.308 976.685 925.286 976.686H925.072V976.998L925.3 976.999Z" fill="#13110C"/>
<path d="M925.296 977.078H924.992V976.599H925.286C925.356 976.597 925.424 976.62 925.478 976.664C925.502 976.687 925.52 976.715 925.532 976.745C925.544 976.776 925.55 976.809 925.548 976.842C925.548 976.872 925.541 976.902 925.528 976.93C925.515 976.957 925.496 976.982 925.473 977.001C925.426 977.049 925.363 977.077 925.296 977.078ZM925.018 977.049H925.296C925.354 977.051 925.412 977.031 925.455 976.992C925.477 976.974 925.494 976.951 925.506 976.926C925.518 976.901 925.523 976.873 925.522 976.845C925.524 976.815 925.52 976.786 925.509 976.758C925.498 976.73 925.482 976.706 925.46 976.685C925.411 976.645 925.348 976.624 925.284 976.626H925.018V977.049ZM925.305 977.006H925.066V976.671H925.296C925.32 976.669 925.344 976.673 925.366 976.681C925.389 976.69 925.409 976.702 925.427 976.719C925.455 976.752 925.471 976.795 925.471 976.839C925.471 976.883 925.455 976.926 925.427 976.96C925.411 976.976 925.392 976.99 925.371 976.998C925.351 977.007 925.328 977.011 925.305 977.011V977.006ZM925.09 976.982H925.305C925.324 976.983 925.343 976.98 925.36 976.973C925.378 976.967 925.394 976.957 925.407 976.944C925.433 976.916 925.446 976.879 925.444 976.842C925.445 976.822 925.442 976.803 925.435 976.785C925.429 976.766 925.418 976.75 925.404 976.736C925.373 976.709 925.332 976.694 925.291 976.696H925.09V976.982Z" fill="#13110C"/>
<path d="M925.797 977.081C925.797 977.125 925.773 977.148 925.722 977.148H925.706V977.111C925.738 977.111 925.753 977.102 925.753 977.084V977.065H925.703V976.996H925.797V977.081Z" fill="#13110C"/>
<path d="M925.712 977.162H925.683V977.099H925.694C925.729 977.099 925.729 977.09 925.729 977.085H925.68V976.984H925.799V977.082C925.799 977.133 925.768 977.162 925.712 977.162ZM925.712 977.138C925.755 977.138 925.776 977.119 925.776 977.082V977.008H925.705V977.048H925.76V977.08C925.76 977.109 925.731 977.117 925.712 977.119V977.138Z" fill="#13110C"/>
<path d="M926.52 976.619C926.587 976.617 926.653 976.639 926.705 976.682C926.727 976.702 926.745 976.727 926.756 976.754C926.768 976.782 926.774 976.811 926.774 976.841C926.774 976.872 926.768 976.902 926.756 976.929C926.743 976.957 926.725 976.981 926.702 977.001C926.658 977.04 926.601 977.061 926.542 977.06H926.25V976.619H926.52ZM926.542 976.999C926.573 976.997 926.602 976.987 926.626 976.969C926.65 976.95 926.669 976.926 926.68 976.898C926.691 976.869 926.693 976.838 926.687 976.809C926.681 976.779 926.667 976.751 926.646 976.73C926.63 976.715 926.612 976.703 926.591 976.696C926.571 976.688 926.55 976.685 926.528 976.686H926.314V976.998L926.542 976.999Z" fill="#13110C"/>
<path d="M926.525 977.078H926.219V976.599H926.509C926.58 976.596 926.649 976.619 926.703 976.664C926.727 976.687 926.746 976.714 926.758 976.745C926.771 976.776 926.776 976.809 926.775 976.842C926.774 976.872 926.767 976.902 926.754 976.929C926.741 976.957 926.722 976.981 926.7 977.001C926.654 977.048 926.591 977.076 926.525 977.078ZM926.24 977.049H926.522C926.581 977.051 926.638 977.031 926.682 976.992C926.703 976.974 926.72 976.951 926.732 976.926C926.743 976.9 926.749 976.873 926.749 976.845C926.751 976.815 926.746 976.785 926.735 976.757C926.723 976.73 926.706 976.705 926.684 976.685C926.635 976.644 926.572 976.622 926.508 976.626H926.24V977.049ZM926.529 977.006H926.289V976.671H926.514C926.538 976.669 926.561 976.673 926.583 976.681C926.605 976.689 926.625 976.702 926.642 976.719C926.671 976.739 926.691 976.769 926.701 976.803C926.711 976.837 926.709 976.873 926.696 976.906C926.683 976.939 926.66 976.967 926.63 976.985C926.599 977.003 926.564 977.01 926.529 977.006ZM926.313 976.982H926.529C926.547 976.983 926.566 976.981 926.584 976.974C926.601 976.967 926.617 976.957 926.63 976.944C926.643 976.93 926.653 976.914 926.66 976.897C926.666 976.879 926.669 976.86 926.668 976.842C926.668 976.822 926.665 976.802 926.658 976.784C926.65 976.766 926.639 976.75 926.624 976.736C926.61 976.722 926.593 976.711 926.574 976.704C926.555 976.698 926.534 976.695 926.514 976.696H926.316L926.313 976.982Z" fill="#13110C"/>
<path d="M927.456 976.921C927.456 976.944 927.449 976.966 927.438 976.986C927.426 977.005 927.409 977.022 927.389 977.033C927.332 977.062 927.269 977.078 927.205 977.078C927.141 977.078 927.077 977.062 927.02 977.033C927 977.022 926.983 977.006 926.971 976.986C926.96 976.966 926.953 976.944 926.953 976.921V976.619H927.025V976.902C927.024 976.918 927.028 976.934 927.037 976.948C927.045 976.963 927.057 976.974 927.071 976.982C927.113 977.001 927.159 977.011 927.205 977.011C927.251 977.011 927.296 977.001 927.338 976.982C927.352 976.974 927.364 976.962 927.372 976.948C927.38 976.934 927.383 976.918 927.383 976.902V976.619H927.456V976.921Z" fill="#13110C"/>
<path d="M927.201 977.09C927.134 977.094 927.067 977.077 927.009 977.042C926.988 977.03 926.97 977.013 926.957 976.991C926.945 976.97 926.938 976.946 926.938 976.921V976.602H927.035V976.895C927.034 976.909 927.038 976.923 927.045 976.936C927.052 976.948 927.062 976.958 927.075 976.964C927.114 976.985 927.157 976.994 927.201 976.991C927.245 976.995 927.289 976.985 927.327 976.964C927.34 976.958 927.35 976.948 927.357 976.936C927.364 976.923 927.368 976.909 927.367 976.895V976.608H927.465V976.927C927.464 976.952 927.457 976.976 927.445 976.998C927.432 977.019 927.414 977.037 927.393 977.049C927.334 977.082 927.268 977.096 927.201 977.09ZM926.961 976.632V976.921C926.962 976.942 926.968 976.962 926.979 976.98C926.99 976.998 927.005 977.012 927.024 977.022C927.077 977.054 927.139 977.069 927.201 977.065C927.264 977.07 927.326 977.054 927.38 977.022C927.398 977.012 927.413 976.997 927.424 976.979C927.434 976.962 927.44 976.942 927.441 976.921V976.632H927.393V976.902C927.393 976.92 927.389 976.938 927.38 976.955C927.371 976.971 927.358 976.984 927.342 976.993C927.298 977.015 927.25 977.025 927.201 977.023C927.153 977.025 927.106 977.015 927.064 976.993C927.047 976.984 927.034 976.971 927.024 976.955C927.015 976.939 927.01 976.92 927.011 976.902V976.632H926.961Z" fill="#13110C"/>
<path d="M928.161 977.063H928.076L927.955 976.889H927.73V977.058H927.656V976.62H928.001C928.041 976.619 928.079 976.632 928.11 976.657C928.123 976.67 928.133 976.686 928.14 976.704C928.147 976.722 928.15 976.74 928.15 976.759C928.151 976.793 928.14 976.826 928.118 976.852C928.095 976.873 928.067 976.886 928.036 976.89L928.161 977.063ZM928.001 976.828C928.059 976.828 928.086 976.804 928.086 976.759C928.086 976.714 928.056 976.686 927.993 976.686H927.73V976.828H928.001Z" fill="#13110C"/>
<path d="M928.185 977.076H928.07L927.954 976.917H927.747V977.086H927.648V976.609H928.003C928.045 976.607 928.087 976.621 928.12 976.648C928.134 976.663 928.146 976.68 928.154 976.7C928.162 976.719 928.165 976.74 928.164 976.76C928.166 976.797 928.153 976.833 928.128 976.861C928.108 976.88 928.085 976.893 928.059 976.901L928.185 977.076ZM928.083 977.049H928.139L928.022 976.89H928.043C928.071 976.887 928.097 976.875 928.116 976.854C928.127 976.843 928.135 976.83 928.14 976.816C928.145 976.802 928.148 976.787 928.147 976.771C928.147 976.754 928.144 976.736 928.138 976.72C928.131 976.704 928.121 976.689 928.108 976.677C928.081 976.654 928.045 976.643 928.009 976.645H927.669V977.049H927.72V976.89H927.963L928.083 977.049ZM928.003 976.842H927.727V976.674H927.997C928.088 976.674 928.102 976.728 928.102 976.76C928.102 976.792 928.078 976.842 928.003 976.842ZM927.751 976.816H928.003C928.069 976.816 928.076 976.787 928.076 976.76C928.076 976.733 928.051 976.7 927.997 976.7H927.751V976.816Z" fill="#13110C"/>
<path d="M928.836 977.065H928.756L928.703 976.966H928.404L928.355 977.065H928.273L928.508 976.619H928.601L928.836 977.065ZM928.676 976.905L928.563 976.689L928.446 976.905H928.676Z" fill="#13110C"/>
<path d="M928.858 977.075H928.75L928.7 976.984H928.418L928.366 977.081H928.258L928.267 977.064L928.505 976.613H928.614L928.858 977.075ZM928.764 977.051H928.817L928.595 976.631H928.518L928.296 977.048H928.349L928.398 976.949H928.718L928.764 977.051ZM928.691 976.91H928.419L928.43 976.891L928.556 976.656L928.691 976.91ZM928.461 976.888H928.643L928.55 976.712L928.461 976.888Z" fill="#13110C"/>
<path d="M929.424 976.837C929.447 976.844 929.468 976.859 929.482 976.88C929.496 976.9 929.502 976.925 929.499 976.95C929.499 977.027 929.444 977.065 929.339 977.065H928.984V976.619H929.342C929.381 976.617 929.419 976.629 929.449 976.653C929.462 976.665 929.471 976.679 929.478 976.694C929.484 976.71 929.487 976.727 929.486 976.744C929.486 976.763 929.481 976.782 929.471 976.798C929.461 976.815 929.447 976.828 929.43 976.837M929.344 976.808C929.363 976.808 929.381 976.802 929.396 976.79C929.408 976.778 929.415 976.762 929.416 976.746C929.416 976.738 929.414 976.73 929.411 976.722C929.408 976.715 929.404 976.708 929.398 976.702C929.383 976.693 929.365 976.688 929.347 976.688H929.058V976.808H929.344ZM929.344 977C929.403 977 929.435 976.98 929.435 976.937C929.435 976.894 929.409 976.872 929.355 976.872H929.063V977H929.344Z" fill="#13110C"/>
<path d="M929.328 977.078H928.961V976.599H929.331C929.373 976.597 929.414 976.61 929.446 976.636C929.46 976.648 929.471 976.664 929.478 976.681C929.485 976.698 929.489 976.716 929.488 976.735C929.489 976.752 929.485 976.77 929.478 976.785C929.47 976.801 929.459 976.815 929.445 976.826C929.466 976.837 929.483 976.854 929.494 976.875C929.505 976.895 929.509 976.919 929.507 976.942C929.507 977.008 929.475 977.078 929.328 977.078ZM928.985 977.049H929.328C929.432 977.049 929.488 977.014 929.488 976.945C929.49 976.923 929.485 976.901 929.472 976.882C929.46 976.863 929.441 976.849 929.419 976.843L929.392 976.835L929.418 976.821C929.433 976.813 929.446 976.801 929.455 976.787C929.464 976.772 929.469 976.755 929.469 976.738C929.469 976.723 929.467 976.708 929.461 976.694C929.454 976.68 929.445 976.668 929.434 976.658C929.406 976.637 929.371 976.626 929.336 976.628H928.985V977.049ZM929.328 977.006H929.034V976.856H929.339C929.419 976.856 929.431 976.904 929.431 976.933C929.431 976.961 929.397 977.011 929.328 977.011V977.006ZM929.06 976.982H929.328C929.397 976.982 929.407 976.957 929.407 976.933C929.407 976.909 929.407 976.88 929.339 976.88H929.06V976.982ZM929.333 976.822H929.034V976.679H929.336C929.357 976.679 929.376 976.684 929.394 976.695C929.401 976.702 929.407 976.71 929.411 976.719C929.415 976.729 929.416 976.739 929.416 976.749C929.416 976.769 929.409 976.787 929.395 976.802C929.377 976.814 929.355 976.821 929.333 976.819V976.822ZM929.06 976.799H929.333C929.349 976.799 929.365 976.794 929.378 976.784C929.382 976.78 929.386 976.774 929.389 976.768C929.391 976.762 929.392 976.756 929.392 976.749C929.392 976.742 929.391 976.736 929.389 976.73C929.386 976.724 929.383 976.718 929.378 976.714C929.365 976.707 929.351 976.704 929.336 976.704H929.06V976.799Z" fill="#13110C"/>
<path d="M929.761 976.619H929.688V977.063H929.761V976.619Z" fill="#13110C"/>
<path d="M929.779 977.078H929.68V976.608H929.779V977.078ZM929.705 977.052H929.761V976.634H929.712L929.705 977.052Z" fill="#13110C"/>
<path d="M930.393 977.065H929.977V976.619H930.052V976.999H930.393V977.065Z" fill="#13110C"/>
<path d="M930.396 977.076H929.953V976.608H930.052V976.987H930.396V977.076ZM929.983 977.049H930.375V977.009H930.031V976.632H929.983V977.049Z" fill="#13110C"/>
<path d="M930.619 976.619H930.547V977.063H930.619V976.619Z" fill="#13110C"/>
<path d="M930.629 977.078H930.531V976.608H930.629V977.078ZM930.562 977.049H930.611V976.634H930.562V977.049Z" fill="#13110C"/>
<path d="M931.256 976.686H931.044V977.064H930.97V976.686H930.758V976.62H931.256V976.686Z" fill="#13110C"/>
<path d="M931.052 977.078H930.955V976.699H930.742V976.608H931.264V976.699H931.052V977.078ZM930.979 977.054H931.031V976.674H931.244V976.634H930.765V976.674H930.977L930.979 977.054Z" fill="#13110C"/>
<path d="M931.893 976.619L931.652 976.889V977.065H931.579V976.889L931.336 976.619H931.427L931.615 976.827L931.802 976.619H931.893Z" fill="#13110C"/>
<path d="M931.659 977.076H931.562V976.889L931.305 976.603H931.428L931.607 976.801L931.789 976.6H931.913L931.896 976.62L931.659 976.889V977.076ZM931.586 977.052H931.635V976.889L931.859 976.641H931.8L931.607 976.855L931.597 976.846L931.413 976.641H931.356L931.586 976.889V977.052Z" fill="#13110C"/>
<path d="M923.092 977.925C923.037 977.921 922.983 977.906 922.933 977.882C922.881 977.916 922.82 977.934 922.759 977.932C922.713 977.933 922.667 977.921 922.629 977.895C922.614 977.884 922.601 977.869 922.592 977.852C922.583 977.835 922.578 977.816 922.578 977.797C922.578 977.733 922.631 977.689 922.738 977.665C922.723 977.643 922.716 977.617 922.715 977.591C922.715 977.568 922.723 977.546 922.736 977.527C922.749 977.51 922.765 977.497 922.784 977.488C922.803 977.478 922.824 977.474 922.845 977.475C922.861 977.474 922.876 977.477 922.891 977.482C922.906 977.488 922.92 977.496 922.931 977.507C922.942 977.517 922.951 977.529 922.956 977.543C922.962 977.557 922.965 977.572 922.965 977.587C922.965 977.646 922.926 977.684 922.85 977.709C922.876 977.743 922.906 977.773 922.939 977.801C922.969 977.772 922.991 977.736 923.003 977.697H923.076C923.061 977.751 923.032 977.8 922.992 977.84C923.025 977.855 923.061 977.862 923.097 977.861L923.092 977.925ZM922.877 977.847C922.84 977.81 922.805 977.771 922.773 977.73C922.692 977.741 922.65 977.767 922.65 977.807C922.65 977.817 922.652 977.828 922.658 977.837C922.664 977.846 922.672 977.852 922.682 977.856C922.706 977.87 922.734 977.876 922.762 977.876C922.802 977.873 922.841 977.864 922.877 977.847ZM922.803 977.658C922.861 977.658 922.89 977.63 922.89 977.59C922.89 977.583 922.889 977.577 922.886 977.571C922.883 977.565 922.879 977.56 922.874 977.556C922.869 977.551 922.863 977.547 922.857 977.545C922.851 977.542 922.844 977.541 922.837 977.542C922.829 977.541 922.822 977.543 922.814 977.545C922.807 977.548 922.801 977.552 922.795 977.558C922.79 977.563 922.786 977.57 922.783 977.577C922.78 977.584 922.779 977.592 922.779 977.599C922.782 977.621 922.791 977.641 922.803 977.658Z" fill="#13110C"/>
<path d="M922.756 977.943C922.707 977.945 922.659 977.932 922.618 977.905C922.601 977.893 922.587 977.877 922.578 977.858C922.568 977.839 922.563 977.819 922.562 977.798C922.562 977.751 922.59 977.689 922.713 977.657C922.702 977.637 922.696 977.615 922.695 977.592C922.695 977.564 922.705 977.537 922.722 977.515C922.736 977.497 922.754 977.482 922.774 977.473C922.795 977.463 922.818 977.458 922.84 977.459C922.858 977.458 922.875 977.461 922.892 977.467C922.908 977.473 922.923 977.482 922.936 977.494C922.948 977.506 922.958 977.519 922.964 977.534C922.97 977.549 922.973 977.566 922.973 977.582C922.973 977.641 922.938 977.683 922.866 977.71C922.887 977.735 922.91 977.759 922.935 977.78C922.959 977.754 922.977 977.722 922.987 977.688H923.085V977.704C923.07 977.754 923.044 977.8 923.008 977.839C923.035 977.849 923.064 977.854 923.093 977.854H923.106V977.948H923.093C923.038 977.943 922.983 977.929 922.933 977.906C922.879 977.935 922.817 977.948 922.756 977.943ZM922.84 977.483C922.821 977.481 922.801 977.484 922.783 977.492C922.764 977.499 922.748 977.512 922.737 977.528C922.722 977.545 922.714 977.566 922.714 977.589C922.715 977.612 922.722 977.636 922.735 977.656L922.745 977.67H922.727C922.63 977.691 922.582 977.732 922.582 977.79C922.582 977.807 922.586 977.824 922.594 977.839C922.602 977.854 922.614 977.868 922.628 977.878C922.664 977.901 922.706 977.912 922.749 977.911C922.806 977.911 922.861 977.895 922.909 977.865C922.955 977.887 923.004 977.901 923.054 977.906V977.863C923.02 977.861 922.987 977.854 922.955 977.841H922.939L922.952 977.828C922.997 977.796 923.032 977.753 923.056 977.704H923.007C922.995 977.743 922.973 977.778 922.943 977.806H922.935C922.901 977.778 922.871 977.747 922.844 977.713L922.834 977.699H922.85C922.922 977.676 922.955 977.64 922.955 977.589C922.956 977.575 922.953 977.562 922.948 977.55C922.943 977.538 922.936 977.527 922.927 977.518C922.916 977.506 922.903 977.497 922.888 977.491C922.873 977.485 922.857 977.482 922.84 977.483ZM922.764 977.879C922.733 977.88 922.702 977.874 922.674 977.86C922.663 977.854 922.654 977.846 922.648 977.835C922.642 977.824 922.639 977.812 922.639 977.799C922.639 977.753 922.684 977.723 922.772 977.71C922.803 977.751 922.837 977.789 922.874 977.825L922.896 977.847H922.879C922.843 977.866 922.804 977.877 922.764 977.879ZM922.764 977.735C922.714 977.735 922.658 977.761 922.658 977.799C922.658 977.807 922.66 977.815 922.665 977.822C922.669 977.829 922.675 977.834 922.682 977.838C922.706 977.85 922.732 977.856 922.759 977.855C922.79 977.854 922.821 977.847 922.85 977.835C922.821 977.803 922.794 977.77 922.769 977.735H922.764ZM922.792 977.665C922.779 977.646 922.771 977.623 922.769 977.6C922.768 977.59 922.769 977.581 922.773 977.572C922.776 977.563 922.782 977.555 922.789 977.549C922.796 977.542 922.803 977.538 922.811 977.535C922.82 977.532 922.828 977.53 922.837 977.531C922.845 977.53 922.854 977.531 922.861 977.534C922.869 977.537 922.876 977.541 922.882 977.547C922.889 977.552 922.894 977.559 922.897 977.566C922.901 977.574 922.902 977.582 922.901 977.59C922.901 977.637 922.869 977.664 922.805 977.672L922.792 977.665ZM922.832 977.547C922.821 977.546 922.809 977.55 922.8 977.558C922.796 977.562 922.792 977.568 922.79 977.573C922.788 977.579 922.787 977.586 922.788 977.592C922.79 977.608 922.796 977.624 922.805 977.638C922.864 977.628 922.872 977.603 922.872 977.582C922.873 977.578 922.872 977.573 922.87 977.568C922.868 977.564 922.865 977.561 922.861 977.558C922.858 977.555 922.855 977.552 922.85 977.55C922.846 977.548 922.842 977.547 922.837 977.547H922.832Z" fill="#13110C"/>
<path d="M924 977.48C924.039 977.478 924.078 977.491 924.108 977.516C924.122 977.529 924.133 977.545 924.14 977.562C924.147 977.58 924.151 977.598 924.15 977.617C924.151 977.636 924.148 977.655 924.14 977.672C924.133 977.69 924.121 977.705 924.107 977.718C924.073 977.744 924.03 977.756 923.987 977.753H923.722V977.922H923.648V977.48H924ZM923.989 977.687C924.046 977.687 924.073 977.663 924.073 977.619C924.073 977.574 924.043 977.544 923.984 977.544H923.722V977.687H923.989Z" fill="#13110C"/>
<path d="M923.74 977.934H923.641V977.466H924.005C924.026 977.465 924.047 977.468 924.067 977.474C924.087 977.481 924.106 977.492 924.121 977.506C924.136 977.52 924.147 977.538 924.155 977.557C924.163 977.576 924.167 977.596 924.166 977.616C924.167 977.637 924.164 977.658 924.156 977.677C924.148 977.696 924.135 977.713 924.12 977.727C924.083 977.755 924.038 977.768 923.992 977.763H923.74V977.934ZM923.666 977.91H923.714V977.739H923.992C924.032 977.743 924.072 977.732 924.104 977.707C924.117 977.696 924.127 977.682 924.134 977.666C924.14 977.651 924.143 977.633 924.142 977.616C924.143 977.582 924.129 977.549 924.105 977.524C924.077 977.5 924.041 977.488 924.005 977.49H923.666V977.91ZM923.986 977.699H923.714V977.527H923.989C924.054 977.527 924.091 977.559 924.091 977.615C924.091 977.671 924.075 977.699 923.994 977.699H923.986ZM923.732 977.674H923.986C924.051 977.674 924.059 977.643 924.059 977.618C924.059 977.592 924.034 977.556 923.981 977.556H923.74L923.732 977.674Z" fill="#13110C"/>
<path d="M924.834 977.924H924.367V977.479H924.816V977.544H924.441V977.659H924.703V977.726H924.441V977.859H924.834V977.924Z" fill="#13110C"/>
<path d="M924.842 977.935H924.352V977.467H924.831V977.556H924.451V977.646H924.711V977.738H924.451V977.847H924.842V977.935ZM924.376 977.911H924.818V977.871H924.425V977.711H924.687V977.671H924.425V977.527H924.808V977.486H924.376V977.911Z" fill="#13110C"/>
<path d="M925.581 977.922H925.497L925.377 977.753H925.152V977.922H925.078V977.48H925.43C925.469 977.478 925.508 977.491 925.538 977.516C925.552 977.53 925.562 977.546 925.569 977.563C925.577 977.581 925.58 977.6 925.58 977.619C925.581 977.652 925.569 977.685 925.546 977.71C925.524 977.732 925.495 977.746 925.465 977.75L925.581 977.922ZM925.422 977.687C925.479 977.687 925.506 977.663 925.506 977.619C925.506 977.574 925.476 977.544 925.414 977.544H925.152V977.687H925.422Z" fill="#13110C"/>
<path d="M925.617 977.934H925.502L925.387 977.774H925.169V977.945H925.07V977.466H925.434C925.456 977.465 925.477 977.468 925.497 977.474C925.517 977.481 925.535 977.492 925.551 977.506C925.566 977.521 925.577 977.538 925.585 977.557C925.593 977.577 925.596 977.597 925.596 977.618C925.596 977.654 925.584 977.69 925.561 977.719C925.54 977.737 925.516 977.751 925.489 977.757L925.617 977.934ZM925.513 977.91H925.57L925.454 977.739H925.473C925.502 977.737 925.529 977.725 925.549 977.704C925.569 977.681 925.58 977.651 925.578 977.621C925.579 977.604 925.576 977.586 925.569 977.57C925.563 977.554 925.554 977.539 925.541 977.527C925.513 977.503 925.477 977.491 925.441 977.493H925.094V977.91H925.137V977.739H925.382L925.513 977.91ZM925.43 977.699H925.137V977.527H925.409C925.497 977.527 925.514 977.575 925.514 977.615C925.514 977.655 925.505 977.699 925.423 977.699H925.43ZM925.176 977.674H925.43C925.494 977.674 925.503 977.643 925.503 977.618C925.503 977.592 925.494 977.556 925.422 977.556H925.169L925.176 977.674Z" fill="#13110C"/>
<path d="M926.268 977.543H925.894V977.658H926.154V977.725H925.894V977.924H925.82V977.479H926.268V977.543Z" fill="#13110C"/>
<path d="M925.91 977.936H925.812V977.467H926.284V977.556H925.91V977.647H926.17V977.738H925.91V977.936ZM925.838 977.911H925.884V977.713H926.146V977.671H925.884V977.527H926.26V977.486H925.838V977.911Z" fill="#13110C"/>
<path d="M927.034 977.702C927.035 977.736 927.027 977.77 927.011 977.801C926.996 977.831 926.973 977.858 926.945 977.877C926.889 977.919 926.82 977.94 926.75 977.936C926.68 977.938 926.612 977.918 926.555 977.877C926.528 977.857 926.506 977.83 926.491 977.8C926.477 977.77 926.469 977.737 926.469 977.703C926.469 977.669 926.477 977.636 926.491 977.606C926.506 977.576 926.528 977.549 926.555 977.529C926.612 977.488 926.681 977.467 926.751 977.47C926.821 977.468 926.89 977.489 926.946 977.529C926.974 977.549 926.997 977.575 927.012 977.606C927.028 977.637 927.036 977.67 927.036 977.705M926.959 977.705C926.959 977.68 926.953 977.655 926.942 977.633C926.93 977.611 926.914 977.592 926.894 977.577C926.851 977.55 926.802 977.536 926.751 977.537C926.694 977.534 926.638 977.551 926.592 977.585C926.573 977.599 926.558 977.617 926.548 977.638C926.538 977.659 926.533 977.682 926.534 977.705C926.533 977.728 926.538 977.751 926.547 977.772C926.557 977.793 926.572 977.812 926.59 977.826C926.636 977.86 926.693 977.876 926.75 977.872C926.804 977.875 926.857 977.859 926.9 977.826C926.918 977.812 926.933 977.793 926.943 977.772C926.953 977.751 926.958 977.728 926.958 977.705" fill="#13110C"/>
<path d="M926.76 977.946C926.687 977.95 926.615 977.929 926.555 977.887C926.526 977.866 926.501 977.838 926.485 977.805C926.469 977.772 926.46 977.736 926.461 977.7C926.46 977.664 926.469 977.628 926.485 977.595C926.502 977.563 926.527 977.535 926.557 977.515C926.615 977.471 926.687 977.449 926.76 977.452C926.832 977.45 926.903 977.472 926.961 977.515C926.991 977.536 927.015 977.563 927.031 977.596C927.048 977.628 927.057 977.664 927.057 977.7C927.057 977.737 927.049 977.773 927.032 977.805C927.015 977.838 926.991 977.866 926.961 977.887C926.902 977.929 926.831 977.949 926.76 977.946ZM926.76 977.478C926.692 977.475 926.625 977.495 926.571 977.535C926.545 977.553 926.523 977.577 926.508 977.605C926.493 977.632 926.485 977.664 926.485 977.695C926.485 977.727 926.493 977.757 926.508 977.785C926.523 977.813 926.544 977.837 926.57 977.855C926.625 977.895 926.692 977.914 926.76 977.911C926.827 977.914 926.892 977.894 926.947 977.855C926.973 977.836 926.995 977.812 927.01 977.783C927.025 977.754 927.033 977.722 927.033 977.69C927.033 977.657 927.025 977.625 927.01 977.596C926.995 977.568 926.973 977.543 926.947 977.524C926.892 977.488 926.825 977.471 926.76 977.478ZM926.76 977.88C926.702 977.882 926.646 977.864 926.6 977.831C926.58 977.815 926.564 977.795 926.554 977.773C926.543 977.75 926.538 977.725 926.539 977.7C926.539 977.675 926.544 977.65 926.555 977.628C926.566 977.605 926.582 977.586 926.602 977.571C926.647 977.536 926.704 977.518 926.761 977.519C926.814 977.519 926.866 977.534 926.91 977.563C926.932 977.578 926.95 977.598 926.963 977.622C926.975 977.646 926.981 977.673 926.98 977.7C926.981 977.725 926.976 977.75 926.965 977.773C926.955 977.795 926.939 977.815 926.919 977.831C926.874 977.866 926.817 977.883 926.76 977.88ZM926.76 977.545C926.708 977.543 926.657 977.558 926.616 977.59C926.599 977.602 926.585 977.619 926.576 977.638C926.567 977.657 926.562 977.679 926.563 977.7C926.562 977.721 926.566 977.743 926.575 977.762C926.584 977.782 926.597 977.799 926.614 977.812C926.657 977.842 926.708 977.857 926.76 977.855C926.811 977.858 926.861 977.842 926.902 977.812C926.919 977.799 926.932 977.782 926.941 977.762C926.951 977.743 926.955 977.721 926.955 977.7C926.955 977.677 926.949 977.654 926.939 977.633C926.928 977.613 926.913 977.595 926.894 977.582C926.854 977.556 926.807 977.544 926.76 977.545Z" fill="#13110C"/>
<path d="M927.794 977.921H927.708L927.586 977.752H927.364V977.921H927.289V977.479H927.639C927.679 977.477 927.718 977.49 927.749 977.515C927.762 977.529 927.773 977.545 927.78 977.562C927.786 977.58 927.79 977.599 927.789 977.618C927.79 977.651 927.779 977.684 927.757 977.709C927.735 977.731 927.705 977.745 927.674 977.749L927.794 977.921ZM927.634 977.686C927.69 977.686 927.72 977.662 927.72 977.618C927.72 977.573 927.688 977.543 927.626 977.543H927.369V977.686H927.634Z" fill="#13110C"/>
<path d="M927.824 977.934H927.709L927.594 977.775H927.39V977.945H927.289V977.466H927.652C927.673 977.465 927.694 977.467 927.715 977.474C927.735 977.481 927.754 977.492 927.77 977.506C927.785 977.521 927.796 977.538 927.804 977.557C927.812 977.577 927.815 977.597 927.815 977.618C927.815 977.655 927.802 977.69 927.779 977.719C927.76 977.738 927.735 977.751 927.708 977.757L927.824 977.934ZM927.722 977.91H927.778L927.661 977.739H927.68C927.709 977.737 927.735 977.725 927.755 977.704C927.775 977.681 927.785 977.651 927.784 977.621C927.785 977.604 927.782 977.586 927.776 977.57C927.769 977.554 927.76 977.539 927.747 977.527C927.72 977.503 927.683 977.491 927.647 977.493H927.31V977.91H927.364V977.739H927.605L927.722 977.91ZM927.637 977.699H927.364V977.527H927.634C927.727 977.527 927.739 977.581 927.739 977.615C927.739 977.648 927.722 977.699 927.637 977.699ZM927.385 977.674H927.637C927.711 977.674 927.711 977.632 927.711 977.618C927.711 977.604 927.711 977.556 927.629 977.556H927.385V977.674Z" fill="#13110C"/>
<path d="M928.657 977.924H928.585V977.56H928.584L928.352 977.849L928.124 977.56H928.122V977.924H928.047V977.479H928.138L928.354 977.748L928.566 977.479H928.657V977.924Z" fill="#13110C"/>
<path d="M928.673 977.936H928.577V977.594L928.357 977.871L928.346 977.858L928.138 977.594V977.936H928.039V977.468H928.148L928.355 977.725L928.561 977.465H928.67L928.673 977.936ZM928.601 977.912H928.649V977.492H928.576L928.359 977.768L928.347 977.757L928.135 977.492H928.065V977.912H928.113V977.549H928.132L928.352 977.826L928.577 977.545H928.595V977.912H928.601Z" fill="#13110C"/>
<path d="M929.447 977.924H929.367L929.314 977.824H929.015L928.964 977.924H928.883L929.121 977.479H929.213L929.447 977.924ZM929.287 977.764L929.174 977.55L929.057 977.764H929.287Z" fill="#13110C"/>
<path d="M929.452 977.937H929.345L929.296 977.844H929.011L928.96 977.943H928.852L928.861 977.924L929.101 977.474H929.209L929.452 977.937ZM929.359 977.911H929.411L929.19 977.491H929.115L928.893 977.911H928.946L928.995 977.812H929.315L929.359 977.911ZM929.286 977.771H929.014L929.024 977.753L929.152 977.517L929.286 977.771ZM929.056 977.747H929.244L929.152 977.569L929.056 977.747Z" fill="#13110C"/>
<path d="M930.161 977.924H930.07L929.73 977.558V977.924H929.656V977.479H929.749L930.088 977.844V977.479H930.161V977.924Z" fill="#13110C"/>
<path d="M930.158 977.935H930.05L929.73 977.593V977.938H929.633V977.467H929.748L930.067 977.809V977.467H930.165L930.158 977.935ZM930.067 977.911H930.141V977.491H930.091V977.874L929.735 977.491H929.66V977.911H929.709V977.527L930.067 977.911Z" fill="#13110C"/>
<path d="M930.951 977.58L930.885 977.604C930.861 977.579 930.831 977.559 930.799 977.546C930.766 977.532 930.731 977.526 930.695 977.528C930.641 977.526 930.588 977.543 930.545 977.576C930.527 977.589 930.511 977.607 930.501 977.628C930.491 977.649 930.486 977.672 930.486 977.695C930.486 977.719 930.49 977.742 930.5 977.763C930.51 977.784 930.525 977.802 930.544 977.817C930.59 977.85 930.646 977.866 930.703 977.863C930.738 977.865 930.772 977.859 930.804 977.846C930.836 977.834 930.865 977.814 930.889 977.79L930.951 977.826C930.922 977.861 930.885 977.888 930.844 977.906C930.797 977.924 930.748 977.932 930.698 977.93C930.628 977.934 930.559 977.913 930.502 977.871C930.474 977.851 930.451 977.825 930.436 977.794C930.42 977.764 930.413 977.73 930.414 977.695C930.414 977.661 930.422 977.627 930.437 977.596C930.453 977.565 930.475 977.538 930.504 977.518C930.561 977.479 930.629 977.459 930.698 977.461C930.747 977.458 930.796 977.467 930.84 977.487C930.885 977.507 930.924 977.537 930.954 977.576" fill="#13110C"/>
<path d="M930.703 977.946C930.63 977.95 930.558 977.928 930.499 977.885C930.469 977.865 930.445 977.837 930.429 977.804C930.413 977.772 930.405 977.736 930.406 977.7C930.406 977.664 930.414 977.628 930.43 977.595C930.447 977.562 930.471 977.534 930.501 977.513C930.56 977.472 930.631 977.451 930.703 977.453C930.754 977.45 930.804 977.46 930.85 977.48C930.897 977.501 930.937 977.533 930.969 977.572L930.978 977.585L930.89 977.619C930.867 977.595 930.839 977.576 930.808 977.564C930.777 977.552 930.743 977.546 930.71 977.548C930.659 977.547 930.608 977.563 930.568 977.595C930.55 977.607 930.536 977.624 930.527 977.643C930.517 977.662 930.513 977.683 930.513 977.705C930.513 977.726 930.517 977.748 930.526 977.767C930.536 977.786 930.549 977.803 930.566 977.817C930.609 977.847 930.661 977.862 930.713 977.86C930.746 977.862 930.779 977.857 930.809 977.845C930.84 977.833 930.868 977.815 930.89 977.791V977.783L930.973 977.833L930.964 977.844C930.934 977.88 930.895 977.908 930.852 977.927C930.804 977.944 930.754 977.95 930.703 977.946ZM930.703 977.478C930.636 977.476 930.57 977.495 930.515 977.534C930.489 977.552 930.468 977.576 930.454 977.604C930.439 977.631 930.431 977.662 930.43 977.694C930.43 977.725 930.438 977.756 930.453 977.784C930.468 977.812 930.489 977.836 930.515 977.853C930.57 977.893 930.636 977.913 930.703 977.909C930.751 977.912 930.799 977.904 930.844 977.887C930.879 977.872 930.911 977.85 930.937 977.821L930.897 977.798C930.871 977.821 930.842 977.84 930.809 977.852C930.776 977.864 930.741 977.869 930.707 977.868C930.649 977.869 930.593 977.851 930.547 977.818C930.527 977.803 930.511 977.783 930.5 977.76C930.489 977.738 930.484 977.713 930.485 977.687C930.484 977.662 930.49 977.637 930.501 977.615C930.512 977.593 930.528 977.573 930.549 977.558C930.595 977.524 930.651 977.506 930.708 977.507C930.744 977.505 930.779 977.51 930.812 977.522C930.845 977.535 930.876 977.553 930.902 977.577L930.943 977.561C930.912 977.53 930.874 977.507 930.833 977.492C930.791 977.478 930.747 977.473 930.703 977.478Z" fill="#13110C"/>
<path d="M931.677 977.924H931.211V977.479H931.66V977.544H931.286V977.659H931.545V977.726H931.286V977.859H931.677V977.924Z" fill="#13110C"/>
<path d="M931.689 977.935H931.195V977.467H931.674V977.556H931.301V977.646H931.559V977.738H931.301V977.847H931.692L931.689 977.935ZM931.222 977.911H931.665V977.871H931.274V977.711H931.532V977.671H931.274V977.527H931.647V977.486H931.222V977.911Z" fill="#13110C"/>
<path d="M921.69 970.487H921.508V979.235H921.69V970.487Z" fill="#13110C"/>
<path d="M933.046 974.696H921.672V974.909H933.046V974.696Z" fill="#13110C"/>
</g>
<path d="M915.103 975.693V974.416H915.373V975.471H915.921V975.693H915.103ZM916.528 975.712C916.431 975.712 916.347 975.691 916.277 975.65C916.206 975.609 916.152 975.551 916.114 975.477C916.076 975.402 916.056 975.316 916.056 975.218C916.056 975.119 916.076 975.032 916.114 974.958C916.152 974.884 916.206 974.826 916.277 974.785C916.347 974.743 916.431 974.723 916.528 974.723C916.625 974.723 916.709 974.743 916.779 974.785C916.85 974.826 916.904 974.884 916.942 974.958C916.981 975.032 917 975.119 917 975.218C917 975.316 916.981 975.402 916.942 975.477C916.904 975.551 916.85 975.609 916.779 975.65C916.709 975.691 916.625 975.712 916.528 975.712ZM916.529 975.506C916.573 975.506 916.61 975.494 916.64 975.469C916.669 975.443 916.692 975.409 916.707 975.365C916.722 975.322 916.73 975.272 916.73 975.216C916.73 975.16 916.722 975.111 916.707 975.067C916.692 975.023 916.669 974.989 916.64 974.963C916.61 974.938 916.573 974.925 916.529 974.925C916.485 974.925 916.447 974.938 916.417 974.963C916.387 974.989 916.364 975.023 916.349 975.067C916.334 975.111 916.327 975.16 916.327 975.216C916.327 975.272 916.334 975.322 916.349 975.365C916.364 975.409 916.387 975.443 916.417 975.469C916.447 975.494 916.485 975.506 916.529 975.506ZM917.604 976.073C917.518 976.073 917.444 976.061 917.383 976.037C917.322 976.014 917.273 975.982 917.237 975.942C917.201 975.901 917.177 975.856 917.166 975.806L917.412 975.773C917.42 975.792 917.432 975.81 917.448 975.826C917.464 975.843 917.485 975.856 917.512 975.866C917.539 975.877 917.572 975.882 917.611 975.882C917.668 975.882 917.716 975.868 917.753 975.839C917.791 975.811 917.81 975.765 917.81 975.699V975.524H917.799C917.787 975.55 917.77 975.575 917.747 975.599C917.723 975.623 917.693 975.642 917.657 975.657C917.62 975.672 917.576 975.68 917.526 975.68C917.454 975.68 917.388 975.663 917.329 975.63C917.271 975.596 917.224 975.545 917.189 975.476C917.154 975.406 917.137 975.318 917.137 975.212C917.137 975.104 917.155 975.013 917.19 974.94C917.225 974.868 917.272 974.813 917.331 974.777C917.39 974.741 917.455 974.723 917.525 974.723C917.579 974.723 917.624 974.732 917.66 974.75C917.696 974.768 917.725 974.79 917.747 974.817C917.77 974.844 917.787 974.87 917.799 974.896H917.809V974.735H918.073V975.703C918.073 975.784 918.053 975.852 918.013 975.907C917.973 975.962 917.918 976.003 917.847 976.031C917.777 976.059 917.696 976.073 917.604 976.073ZM917.61 975.48C917.653 975.48 917.689 975.469 917.719 975.448C917.748 975.427 917.771 975.396 917.787 975.356C917.803 975.315 917.812 975.267 917.812 975.211C917.812 975.155 917.804 975.106 917.788 975.065C917.772 975.023 917.749 974.991 917.719 974.968C917.689 974.945 917.653 974.934 917.61 974.934C917.566 974.934 917.529 974.946 917.5 974.97C917.47 974.993 917.447 975.025 917.432 975.067C917.416 975.109 917.408 975.157 917.408 975.211C917.408 975.266 917.416 975.314 917.432 975.355C917.447 975.395 917.47 975.425 917.5 975.448C917.529 975.469 917.566 975.48 917.61 975.48ZM918.717 975.712C918.621 975.712 918.537 975.691 918.466 975.65C918.396 975.609 918.341 975.551 918.303 975.477C918.265 975.402 918.246 975.316 918.246 975.218C918.246 975.119 918.265 975.032 918.303 974.958C918.341 974.884 918.396 974.826 918.466 974.785C918.537 974.743 918.621 974.723 918.717 974.723C918.814 974.723 918.898 974.743 918.968 974.785C919.039 974.826 919.093 974.884 919.132 974.958C919.17 975.032 919.189 975.119 919.189 975.218C919.189 975.316 919.17 975.402 919.132 975.477C919.093 975.551 919.039 975.609 918.968 975.65C918.898 975.691 918.814 975.712 918.717 975.712ZM918.719 975.506C918.763 975.506 918.8 975.494 918.829 975.469C918.859 975.443 918.881 975.409 918.896 975.365C918.911 975.322 918.919 975.272 918.919 975.216C918.919 975.16 918.911 975.111 918.896 975.067C918.881 975.023 918.859 974.989 918.829 974.963C918.8 974.938 918.763 974.925 918.719 974.925C918.674 974.925 918.637 974.938 918.606 974.963C918.576 974.989 918.554 975.023 918.538 975.067C918.523 975.111 918.516 975.16 918.516 975.216C918.516 975.272 918.523 975.322 918.538 975.365C918.554 975.409 918.576 975.443 918.606 975.469C918.637 975.494 918.674 975.506 918.719 975.506Z" fill="#13110C"/>
<path d="M925.584 971.815C925.577 971.741 925.545 971.685 925.49 971.644C925.435 971.603 925.361 971.583 925.266 971.583C925.202 971.583 925.148 971.592 925.104 971.61C925.06 971.628 925.026 971.652 925.002 971.684C924.979 971.715 924.968 971.751 924.968 971.791C924.966 971.824 924.973 971.853 924.989 971.878C925.004 971.903 925.026 971.924 925.053 971.943C925.08 971.96 925.112 971.976 925.147 971.989C925.183 972.002 925.221 972.012 925.262 972.022L925.429 972.061C925.51 972.08 925.584 972.104 925.652 972.134C925.72 972.164 925.778 972.202 925.828 972.246C925.878 972.29 925.916 972.342 925.943 972.402C925.971 972.462 925.985 972.53 925.986 972.608C925.985 972.722 925.956 972.82 925.899 972.904C925.842 972.987 925.76 973.051 925.652 973.097C925.545 973.142 925.416 973.165 925.264 973.165C925.114 973.165 924.984 973.142 924.872 973.096C924.762 973.05 924.675 972.982 924.613 972.892C924.551 972.801 924.519 972.689 924.516 972.555H924.896C924.9 972.617 924.918 972.669 924.949 972.711C924.982 972.752 925.024 972.784 925.077 972.805C925.131 972.825 925.192 972.836 925.26 972.836C925.326 972.836 925.384 972.826 925.433 972.807C925.483 972.787 925.521 972.76 925.548 972.726C925.576 972.691 925.589 972.652 925.589 972.607C925.589 972.565 925.577 972.53 925.552 972.502C925.528 972.473 925.492 972.449 925.445 972.429C925.398 972.409 925.341 972.391 925.273 972.375L925.071 972.324C924.914 972.286 924.791 972.226 924.7 972.145C924.609 972.064 924.564 971.955 924.565 971.817C924.564 971.705 924.594 971.606 924.655 971.522C924.716 971.438 924.799 971.373 924.906 971.325C925.012 971.278 925.133 971.255 925.269 971.255C925.407 971.255 925.527 971.278 925.63 971.325C925.734 971.373 925.814 971.438 925.872 971.522C925.929 971.606 925.959 971.704 925.96 971.815H925.584ZM926.243 973.139V971.745H926.63V973.139H926.243ZM926.437 971.565C926.38 971.565 926.33 971.546 926.289 971.508C926.249 971.469 926.228 971.423 926.228 971.369C926.228 971.316 926.249 971.27 926.289 971.232C926.33 971.193 926.38 971.174 926.437 971.174C926.495 971.174 926.544 971.193 926.584 971.232C926.625 971.27 926.646 971.316 926.646 971.369C926.646 971.423 926.625 971.469 926.584 971.508C926.544 971.546 926.495 971.565 926.437 971.565ZM926.932 973.139V972.908L927.614 972.063V972.053H926.956V971.745H928.08V971.996L927.439 972.82V972.83H928.104V973.139H926.932ZM928.995 973.166C928.851 973.166 928.728 973.137 928.624 973.079C928.521 973.02 928.442 972.937 928.386 972.83C928.331 972.722 928.303 972.595 928.303 972.448C928.303 972.305 928.331 972.179 928.386 972.071C928.442 971.962 928.52 971.878 928.622 971.817C928.723 971.757 928.842 971.727 928.979 971.727C929.071 971.727 929.157 971.741 929.236 971.771C929.316 971.8 929.385 971.844 929.445 971.903C929.505 971.961 929.551 972.035 929.584 972.124C929.618 972.212 929.634 972.316 929.634 972.434V972.541H928.457V972.301H929.27C929.27 972.245 929.258 972.196 929.234 972.153C929.21 972.11 929.176 972.077 929.133 972.052C929.091 972.028 929.042 972.015 928.985 972.015C928.927 972.015 928.875 972.029 928.829 972.056C928.785 972.083 928.749 972.119 928.724 972.164C928.699 972.209 928.686 972.259 928.685 972.314V972.542C928.685 972.61 928.698 972.67 928.723 972.72C928.749 972.771 928.786 972.809 928.833 972.836C928.88 972.864 928.936 972.877 929.001 972.877C929.044 972.877 929.083 972.871 929.119 972.859C929.155 972.847 929.185 972.829 929.21 972.805C929.236 972.781 929.255 972.751 929.269 972.716L929.626 972.739C929.608 972.825 929.571 972.9 929.515 972.964C929.459 973.028 929.387 973.078 929.299 973.113C929.211 973.148 929.109 973.166 928.995 973.166Z" fill="#13110C"/>
</g>
<defs>
<linearGradient id="paint0_linear_1560_2928" x1="914.545" y1="982.633" x2="930.469" y2="966.709" gradientUnits="userSpaceOnUse">
<stop stop-color="white"/>
<stop offset="0.51" stop-color="#888584"/>
<stop offset="0.59" stop-color="#8C8988"/>
<stop offset="0.67" stop-color="#979494"/>
<stop offset="0.75" stop-color="#AAA7A7"/>
<stop offset="0.82" stop-color="#C4C2C3"/>
<stop offset="0.9" stop-color="#E5E5E6"/>
<stop offset="0.92" stop-color="#F1F1F3"/>
</linearGradient>
<clipPath id="clip0_1560_2928">
<rect width="26.7295" height="14.4964" fill="white" transform="translate(909.086 967.466)"/>
</clipPath>
</defs>
</svg>
