<svg width="630" height="630" viewBox="0 0 630 630" fill="none" xmlns="http://www.w3.org/2000/svg">
<rect width="630" height="630" fill="#C9CACC"/>
<g clip-path="url(#clip0_1304_3066)">
<mask id="mask0_1304_3066" style="mask-type:luminance" maskUnits="userSpaceOnUse" x="243" y="270" width="144" height="91">
<path d="M386.343 270H243.453V360.76H386.343V270Z" fill="white"/>
</mask>
<g mask="url(#mask0_1304_3066)">
<path d="M398.35 270H231V360.76H398.35V270Z" fill="#13110C"/>
<path d="M262.763 346.39C262.463 347.463 262.223 348.333 262.043 349C262.02 349.101 261.975 349.195 261.911 349.277C261.847 349.358 261.765 349.424 261.673 349.47C261.533 349.538 261.379 349.572 261.223 349.57H260.753L260.383 350.86H261.963C262.449 350.855 262.922 350.706 263.323 350.43C263.691 350.202 263.961 349.846 264.083 349.43L264.863 346.64C265.233 345.32 265.493 344.38 265.643 343.83H263.453L262.763 346.39Z" fill="#CFCBCA"/>
<path d="M272.943 343.86C272.405 343.697 271.84 343.65 271.283 343.72C270.696 343.767 270.13 343.956 269.633 344.27C269.172 344.526 268.818 344.937 268.633 345.43L268.133 347.19C267.883 348.1 267.723 348.69 267.643 348.95C267.572 349.145 267.553 349.355 267.586 349.56C267.619 349.764 267.704 349.957 267.833 350.12C268.181 350.497 268.66 350.727 269.173 350.76C269.643 350.835 270.122 350.835 270.593 350.76C271.047 350.685 271.483 350.529 271.883 350.3C272.145 350.169 272.377 349.986 272.566 349.763C272.755 349.54 272.897 349.28 272.983 349C273.093 348.64 273.253 348.06 273.463 347.28C273.673 346.5 273.843 345.96 273.943 345.56C273.999 345.397 274.02 345.224 274.007 345.052C273.993 344.88 273.944 344.712 273.863 344.56C273.763 344.388 273.631 344.238 273.473 344.118C273.315 343.998 273.135 343.91 272.943 343.86ZM271.843 345.43C271.623 346.19 271.303 347.34 270.843 348.86C270.773 349.08 270.743 349.19 270.743 349.2C270.698 349.315 270.622 349.416 270.523 349.49C270.429 349.574 270.309 349.624 270.183 349.63C270.058 349.649 269.931 349.625 269.823 349.56C269.766 349.502 269.727 349.428 269.711 349.348C269.695 349.268 269.702 349.186 269.733 349.11C269.793 348.89 270.143 347.65 270.733 345.38C270.757 345.262 270.814 345.154 270.897 345.068C270.981 344.981 271.086 344.919 271.203 344.89C271.291 344.865 271.384 344.865 271.473 344.89C271.56 344.892 271.642 344.928 271.703 344.99C271.873 345.05 271.893 345.21 271.843 345.43Z" fill="#CFCBCA"/>
<path d="M278.453 343.69C277.966 345.417 277.426 347.357 276.833 349.51C276.831 349.55 276.831 349.59 276.833 349.63V349.76C276.807 349.845 276.754 349.918 276.683 349.97L276.193 350.39L275.703 350.8H278.703C278.91 350.04 279.576 347.67 280.703 343.69H278.453Z" fill="#CFCBCA"/>
<path d="M288.682 343.77C288.582 344.14 288.433 344.66 288.243 345.34L287.812 346.92L287.112 343.77H285.112C284.942 344.36 284.663 345.38 284.263 346.83C283.893 348.13 283.613 349.15 283.403 349.83C283.236 350.001 283.059 350.161 282.872 350.31L282.312 350.78H285.103C285.103 350.61 285.292 350.09 285.542 349.21C285.712 348.57 285.862 348.05 285.982 347.64C286.052 347.97 286.172 348.5 286.322 349.21C286.472 349.92 286.593 350.42 286.673 350.78H288.673C289.283 348.61 289.933 346.26 290.673 343.72H288.673L288.682 343.77Z" fill="#CFCBCA"/>
<path d="M304.51 343.86C303.969 343.697 303.4 343.65 302.84 343.72C302.254 343.77 301.689 343.959 301.19 344.27C300.726 344.522 300.37 344.934 300.19 345.43C300.06 345.88 299.89 346.43 299.69 347.19C299.43 348.1 299.27 348.69 299.19 348.95C299.132 349.151 299.125 349.364 299.17 349.568C299.216 349.773 299.312 349.962 299.45 350.12C299.798 350.497 300.278 350.727 300.79 350.76C301.26 350.835 301.739 350.835 302.21 350.76C302.666 350.683 303.106 350.527 303.51 350.3C304.011 350.017 304.384 349.551 304.55 349L305.03 347.28L305.51 345.56C305.564 345.396 305.584 345.223 305.569 345.051C305.553 344.879 305.503 344.712 305.42 344.56C305.22 344.216 304.893 343.964 304.51 343.86ZM303.45 345.43C303.23 346.19 302.91 347.34 302.45 348.86C302.38 349.08 302.35 349.19 302.35 349.2C302.305 349.315 302.229 349.416 302.13 349.49C302.036 349.574 301.916 349.624 301.79 349.63C301.668 349.65 301.544 349.626 301.44 349.56C301.379 349.504 301.336 349.431 301.318 349.351C301.301 349.27 301.308 349.186 301.34 349.11C301.4 348.89 301.75 347.65 302.34 345.38C302.364 345.262 302.421 345.154 302.504 345.067C302.588 344.981 302.693 344.919 302.81 344.89C302.898 344.865 302.991 344.865 303.08 344.89C303.169 344.894 303.254 344.929 303.32 344.99C303.375 345.048 303.416 345.118 303.438 345.194C303.461 345.271 303.465 345.352 303.45 345.43Z" fill="#CFCBCA"/>
<path d="M312.326 346.43L311.566 349.16C311.544 349.237 311.507 349.308 311.457 349.369C311.408 349.431 311.346 349.483 311.276 349.52C311.203 349.571 311.119 349.606 311.031 349.621C310.943 349.637 310.853 349.633 310.766 349.61C310.714 349.6 310.665 349.576 310.625 349.541C310.585 349.506 310.554 349.461 310.536 349.41C310.506 349.319 310.506 349.221 310.536 349.13C310.706 348.5 310.956 347.6 311.296 346.41C311.636 345.22 311.896 344.27 312.056 343.69H309.886C309.716 344.28 309.476 345.16 309.156 346.33C308.836 347.5 308.576 348.33 308.416 348.97C308.352 349.159 308.336 349.361 308.367 349.558C308.398 349.754 308.477 349.941 308.596 350.1C308.943 350.488 309.428 350.724 309.946 350.76C310.694 350.874 311.458 350.794 312.166 350.53C312.54 350.389 312.881 350.171 313.166 349.89C313.442 349.64 313.643 349.318 313.746 348.96C314.453 346.434 314.943 344.677 315.216 343.69H313.096C312.966 344.15 312.706 345.06 312.326 346.43Z" fill="#CFCBCA"/>
<path d="M324.602 344C324.261 343.78 323.857 343.678 323.452 343.71H320.022C319.482 345.643 318.936 347.6 318.382 349.58C318.382 349.58 318.382 349.64 318.382 349.69C318.385 349.727 318.385 349.763 318.382 349.8C318.356 349.879 318.307 349.948 318.242 350L317.242 350.83H320.242C320.532 349.77 320.812 348.83 321.062 347.9H321.452C321.584 347.897 321.713 347.935 321.822 348.01C321.891 348.055 321.941 348.123 321.963 348.202C321.985 348.281 321.977 348.366 321.942 348.44C321.782 349 321.562 349.8 321.272 350.83H323.352L323.742 349.43C323.912 348.85 324.042 348.38 324.132 348.04C324.158 347.937 324.154 347.828 324.12 347.727C324.086 347.626 324.025 347.537 323.942 347.47C323.761 347.304 323.541 347.187 323.302 347.13C323.608 347.046 323.898 346.914 324.162 346.74C324.402 346.586 324.584 346.357 324.682 346.09C324.682 346.03 324.752 345.83 324.842 345.49L325.012 344.89C325.052 344.717 325.034 344.536 324.959 344.375C324.885 344.214 324.76 344.082 324.602 344ZM322.802 345.32C322.802 345.51 322.692 345.74 322.612 346.01C322.569 346.132 322.489 346.237 322.382 346.31C322.268 346.391 322.139 346.448 322.002 346.48H321.452C321.452 346.3 321.652 345.77 321.892 344.89C322.092 344.876 322.292 344.876 322.492 344.89C322.598 344.911 322.693 344.967 322.762 345.05C322.791 345.092 322.81 345.14 322.817 345.19C322.824 345.241 322.819 345.292 322.802 345.34V345.32Z" fill="#CFCBCA"/>
<path d="M339.681 344.14C339.169 343.787 338.552 343.618 337.931 343.66C337.453 343.656 336.976 343.731 336.521 343.88C336.091 344.007 335.695 344.229 335.361 344.53C335.055 344.794 334.833 345.141 334.721 345.53C334.621 345.91 334.451 346.53 334.231 347.27L333.751 349C333.668 349.222 333.65 349.463 333.699 349.696C333.749 349.928 333.864 350.141 334.031 350.31C334.485 350.683 335.067 350.863 335.651 350.81C336.246 350.798 336.824 350.61 337.311 350.27V350.75H338.571C338.811 349.91 339.121 348.75 339.511 347.4H336.941L336.821 347.86C336.751 348.08 336.711 348.24 336.691 348.32H337.141C337.141 348.32 337.081 348.52 337.021 348.75C336.961 348.98 336.931 349.07 336.891 349.18C336.856 349.286 336.79 349.38 336.701 349.45C336.603 349.536 336.481 349.592 336.351 349.61C336.263 349.635 336.17 349.635 336.081 349.61C336.039 349.601 335.999 349.582 335.966 349.554C335.933 349.526 335.907 349.49 335.891 349.45C335.84 349.283 335.84 349.106 335.891 348.94L336.391 347.14C336.661 346.14 336.831 345.57 336.891 345.33C336.928 345.207 336.997 345.097 337.091 345.01C337.141 344.955 337.201 344.911 337.268 344.88C337.335 344.849 337.408 344.832 337.481 344.83C337.541 344.813 337.604 344.811 337.665 344.823C337.725 344.836 337.782 344.862 337.831 344.9C337.875 344.924 337.91 344.961 337.933 345.005C337.956 345.05 337.966 345.1 337.961 345.15C337.934 345.336 337.891 345.52 337.831 345.7C337.751 346 337.701 346.19 337.681 346.25H339.841C340.011 345.6 340.091 345.25 340.091 345.32C340.135 345.106 340.118 344.884 340.041 344.68C339.978 344.467 339.853 344.279 339.681 344.14Z" fill="#CFCBCA"/>
<path d="M346.132 343.7L344.772 346.63C344.232 347.81 343.772 348.79 343.422 349.56V349.67V349.79C343.382 349.869 343.323 349.938 343.252 349.99L342.102 350.83H344.852C344.992 350.55 345.172 350.18 345.382 349.71C345.592 349.24 345.832 348.71 345.922 348.57H347.082C346.992 349.44 346.922 350.19 346.862 350.83H348.942L349.612 343.7H346.232H346.132ZM347.132 346.39C347.132 346.86 347.062 347.17 347.042 347.33H346.342L347.212 345.44C347.252 345.68 347.222 346 347.182 346.39H347.132Z" fill="#CFCBCA"/>
<path d="M358.757 343.69L357.107 346.78L357.187 343.69H354.187L352.497 349.78C352.43 349.913 352.33 350.026 352.207 350.11L351.367 350.82H354.177L354.857 348.4C355.127 347.4 355.357 346.6 355.537 345.98C355.537 346.59 355.537 347.4 355.467 348.4C355.417 349.66 355.387 350.47 355.377 350.82H356.537L357.807 348.39C358.347 347.357 358.777 346.547 359.097 345.96L358.447 348.39C358.097 349.63 357.867 350.39 357.767 350.82H359.767C360.677 347.58 361.337 345.21 361.767 343.69H358.767H358.757Z" fill="#CFCBCA"/>
<path d="M364.502 349.55C364.497 349.59 364.497 349.63 364.502 349.67C364.499 349.71 364.499 349.75 364.502 349.79C364.476 349.871 364.423 349.942 364.352 349.99L363.352 350.82H368.352C368.502 350.3 368.642 349.82 368.782 349.29H366.782C366.982 348.58 367.102 348.13 367.162 347.93H368.262C368.422 347.36 368.562 346.85 368.692 346.4H367.592C367.672 346.1 367.782 345.71 367.922 345.22H369.922C370.082 344.7 370.222 344.22 370.352 343.68H366.142C365.252 346.84 364.712 348.8 364.502 349.55Z" fill="#CFCBCA"/>
<path d="M373.453 276.1H256.583C253.173 276.1 250.453 279.41 250.453 283.49V346.75C250.453 350.83 253.223 354.16 256.633 354.16H373.453C376.863 354.16 379.623 350.83 379.623 346.75V283.49C379.623 279.41 376.863 276.1 373.453 276.1ZM256.583 277.2H373.453C376.343 277.2 378.683 280.02 378.683 283.49V289.06H251.343V283.49C251.343 280 253.683 277.2 256.583 277.2ZM373.453 353.06H256.583C253.683 353.06 251.343 350.24 251.343 346.75V340.9H378.683V346.75C378.683 350.24 376.343 353.06 373.453 353.06Z" fill="url(#paint0_linear_1304_3066)"/>
<path d="M259.06 284.44H261.9L262.38 285.44H263.15L260.92 281.2H260.04L257.82 285.44H258.58L259.06 284.44ZM260.45 281.75L261.53 283.81H259.39L260.45 281.75Z" fill="#CFCBCA"/>
<path d="M266.771 285.09C267.301 285.396 267.909 285.542 268.521 285.51C269.13 285.546 269.735 285.399 270.261 285.09C270.458 284.985 270.621 284.827 270.734 284.635C270.847 284.443 270.905 284.223 270.901 284V281.14H270.211V283.85C270.212 284.004 270.172 284.156 270.095 284.29C270.018 284.424 269.906 284.534 269.771 284.61C269.384 284.805 268.953 284.895 268.521 284.87C268.085 284.893 267.651 284.804 267.261 284.61C267.128 284.533 267.019 284.422 266.945 284.288C266.871 284.154 266.835 284.003 266.841 283.85V281.14H266.141V284C266.138 284.221 266.195 284.439 266.306 284.631C266.417 284.823 266.577 284.982 266.771 285.09Z" fill="#CFCBCA"/>
<path d="M275.932 285.39H276.642V281.78H278.652V281.15H273.922V281.78H275.932V285.39Z" fill="#CFCBCA"/>
<path d="M282.403 283.5H285.763V285.39H286.463V281.15H285.763V282.87H282.403V281.15H281.703V285.39H282.403V283.5Z" fill="#CFCBCA"/>
<path d="M294.502 284.76H290.792V283.5H293.262V282.87H290.792V281.78H294.352V281.15H290.102V285.39H294.502V284.76Z" fill="#CFCBCA"/>
<path d="M298.479 281.9L301.689 285.39H302.569V281.15H301.869V284.63L298.649 281.15H297.789V285.39H298.479V281.9Z" fill="#CFCBCA"/>
<path d="M307.629 285.39H308.329V281.78H310.329V281.15H305.609V281.78H307.629V285.39Z" fill="#CFCBCA"/>
<path d="M314.081 281.15H313.391V285.39H314.081V281.15Z" fill="#CFCBCA"/>
<path d="M318.341 285C318.886 285.386 319.544 285.58 320.211 285.55C320.674 285.559 321.135 285.484 321.571 285.33C321.958 285.147 322.3 284.88 322.571 284.55L321.971 284.21C321.543 284.61 320.991 284.854 320.407 284.901C319.822 284.948 319.239 284.796 318.751 284.47C318.58 284.329 318.442 284.152 318.347 283.952C318.252 283.751 318.202 283.532 318.202 283.31C318.202 283.088 318.252 282.869 318.347 282.668C318.442 282.468 318.58 282.291 318.751 282.15C319.163 281.842 319.668 281.687 320.181 281.71C320.51 281.689 320.838 281.739 321.146 281.856C321.453 281.974 321.731 282.156 321.961 282.39L322.601 282.16C322.326 281.789 321.964 281.49 321.548 281.288C321.132 281.086 320.674 280.987 320.211 281C319.552 280.983 318.905 281.183 318.371 281.57C318.099 281.757 317.877 282.008 317.725 282.301C317.573 282.594 317.497 282.92 317.501 283.25C317.489 283.588 317.558 283.924 317.705 284.229C317.851 284.534 318.07 284.799 318.341 285Z" fill="#CFCBCA"/>
<path d="M330.454 285.51C330.955 285.544 331.453 285.414 331.874 285.14C332.03 284.997 332.15 284.819 332.225 284.621C332.299 284.423 332.326 284.21 332.304 284V281.14H331.604V284C331.616 284.124 331.6 284.249 331.554 284.366C331.509 284.482 331.437 284.586 331.344 284.67C331.066 284.812 330.755 284.874 330.444 284.85C330.156 284.869 329.868 284.807 329.614 284.67C329.52 284.591 329.444 284.493 329.39 284.383C329.337 284.272 329.307 284.152 329.304 284.03H328.594C328.593 284.236 328.636 284.44 328.72 284.628C328.805 284.816 328.929 284.984 329.084 285.12C329.482 285.404 329.966 285.542 330.454 285.51Z" fill="#CFCBCA"/>
<path d="M340.267 284.76H336.557V283.5H339.017V282.87H336.557V281.78H340.107V281.15H335.867V285.39H340.267V284.76Z" fill="#CFCBCA"/>
<path d="M344.248 283.77H346.378L347.498 285.38H348.318L347.188 283.74C347.486 283.698 347.763 283.561 347.978 283.35C348.085 283.233 348.167 283.096 348.22 282.946C348.273 282.797 348.296 282.639 348.288 282.48C348.301 282.295 348.272 282.11 348.205 281.937C348.138 281.764 348.033 281.608 347.898 281.48C347.625 281.234 347.266 281.105 346.898 281.12H343.578V285.36H344.288L344.248 283.77ZM344.248 281.77H346.698C347.278 281.77 347.568 282 347.568 282.47C347.568 282.94 347.298 283.13 346.758 283.13H344.248V281.77Z" fill="#CFCBCA"/>
<path d="M354.871 284.67C354.508 284.824 354.115 284.892 353.721 284.87C352.972 284.873 352.238 284.665 351.601 284.27L351.211 284.77C351.94 285.292 352.826 285.546 353.721 285.49C354.311 285.525 354.899 285.397 355.421 285.12C355.6 285.021 355.75 284.877 355.856 284.701C355.961 284.525 356.018 284.325 356.021 284.12C356.026 283.963 355.995 283.807 355.929 283.665C355.863 283.522 355.764 283.397 355.641 283.3C355.286 283.072 354.881 282.935 354.461 282.9L353.321 282.81C353.03 282.812 352.74 282.772 352.461 282.69C352.221 282.6 352.091 282.46 352.091 282.28C352.098 282.184 352.134 282.092 352.195 282.016C352.255 281.941 352.338 281.887 352.431 281.86C352.748 281.733 353.089 281.675 353.431 281.69C354.097 281.703 354.751 281.871 355.341 282.18L355.751 281.7C355.077 281.23 354.272 280.985 353.451 281C352.906 280.969 352.364 281.086 351.881 281.34C351.712 281.432 351.57 281.568 351.472 281.733C351.373 281.899 351.321 282.088 351.321 282.28C351.311 282.453 351.352 282.625 351.439 282.774C351.527 282.923 351.656 283.044 351.811 283.12C352.281 283.298 352.778 283.393 353.281 283.4C353.76 283.414 354.238 283.461 354.711 283.54C355.061 283.63 355.231 283.82 355.231 284.08C355.238 284.203 355.207 284.326 355.143 284.431C355.078 284.536 354.984 284.62 354.871 284.67Z" fill="#CFCBCA"/>
<path d="M363.738 284.76H360.028V283.5H362.488V282.87H360.028V281.78H363.578V281.15H359.328V285.39H363.738V284.76Z" fill="#CFCBCA"/>
<path d="M368.664 285.38H369.354V283.71L371.654 281.14H370.774L369.004 283.13L367.224 281.14H366.344L368.664 283.71V285.38Z" fill="#CFCBCA"/>
<path d="M319.733 324.72H316.812V321.94H319.623V322.35H317.293V323.06H318.913V323.48H317.293V324.31H319.733V324.72Z" fill="#13110C"/>
<path d="M319.797 324.79H316.727V321.87H319.727V322.43H317.357V323H318.977V323.57H317.357V324.25H319.797V324.79ZM316.887 324.64H319.647V324.38H317.207V323.38H318.827V323.12H317.207V322.25H319.547V322H316.887V324.64Z" fill="#13110C"/>
<path d="M323.983 324.72H323.403L321.283 322.44V324.72H320.812V321.94H321.393L323.522 324.22V321.94H323.983V324.72Z" fill="#13110C"/>
<path d="M324.052 324.79H323.362L321.362 322.66V324.81H320.742V321.87H321.452L323.452 324V321.87H324.072L324.052 324.79ZM323.452 324.64H323.922V322H323.612V324.39L323.452 324.27L321.352 322H320.882V324.62H321.202V322.22L323.452 324.64Z" fill="#13110C"/>
<path d="M328.696 323.28C328.703 323.49 328.661 323.698 328.574 323.888C328.487 324.079 328.358 324.247 328.196 324.38C327.838 324.676 327.381 324.826 326.916 324.8C326.476 324.813 326.043 324.679 325.686 324.42C325.515 324.294 325.375 324.129 325.279 323.939C325.183 323.748 325.133 323.538 325.133 323.325C325.133 323.112 325.183 322.902 325.279 322.712C325.375 322.521 325.515 322.357 325.686 322.23C326.05 321.961 326.494 321.824 326.946 321.84C327.233 321.834 327.517 321.891 327.778 322.009C328.04 322.127 328.271 322.301 328.456 322.52L328.016 322.74C327.877 322.586 327.705 322.464 327.513 322.382C327.321 322.301 327.114 322.263 326.906 322.27C326.588 322.26 326.275 322.355 326.016 322.54C325.889 322.626 325.785 322.742 325.713 322.879C325.641 323.015 325.605 323.166 325.606 323.32C325.599 323.466 325.627 323.611 325.688 323.743C325.749 323.876 325.841 323.991 325.956 324.08C326.241 324.3 326.597 324.407 326.956 324.38C327.208 324.411 327.463 324.356 327.679 324.223C327.895 324.091 328.06 323.889 328.146 323.65H326.816V323.25H328.696V323.28Z" fill="#13110C"/>
<path d="M326.919 324.88C326.462 324.895 326.014 324.754 325.649 324.48C325.465 324.348 325.315 324.175 325.212 323.974C325.109 323.773 325.055 323.55 325.055 323.325C325.055 323.099 325.109 322.876 325.212 322.675C325.315 322.474 325.465 322.301 325.649 322.17C326.021 321.885 326.481 321.74 326.949 321.76C327.247 321.753 327.542 321.814 327.814 321.937C328.086 322.06 328.326 322.242 328.519 322.47L328.579 322.54L327.999 322.83C327.754 322.585 327.432 322.432 327.088 322.397C326.743 322.363 326.397 322.448 326.109 322.64C325.989 322.717 325.891 322.824 325.824 322.95C325.758 323.076 325.725 323.217 325.729 323.36C325.72 323.494 325.744 323.628 325.8 323.75C325.856 323.872 325.941 323.979 326.049 324.06C326.305 324.26 326.624 324.363 326.949 324.35C327.166 324.375 327.387 324.333 327.58 324.23C327.773 324.126 327.93 323.965 328.029 323.77H326.749V323.21H328.749V323.32C328.756 323.539 328.713 323.757 328.625 323.957C328.537 324.158 328.405 324.337 328.239 324.48C327.86 324.765 327.392 324.907 326.919 324.88ZM326.919 321.88C326.484 321.866 326.057 322 325.709 322.26C325.544 322.377 325.409 322.532 325.316 322.712C325.223 322.892 325.175 323.092 325.175 323.295C325.175 323.497 325.223 323.697 325.316 323.877C325.409 324.057 325.544 324.212 325.709 324.33C326.05 324.579 326.466 324.706 326.889 324.69C327.333 324.716 327.771 324.577 328.119 324.3C328.263 324.175 328.38 324.022 328.461 323.85C328.542 323.678 328.585 323.49 328.589 323.3H326.899V323.56H328.219V323.66C328.123 323.912 327.946 324.125 327.717 324.266C327.487 324.407 327.217 324.468 326.949 324.44C326.588 324.452 326.235 324.339 325.949 324.12C325.827 324.021 325.73 323.896 325.666 323.754C325.602 323.611 325.572 323.456 325.579 323.3C325.575 323.132 325.613 322.967 325.69 322.819C325.767 322.67 325.88 322.543 326.019 322.45C326.333 322.248 326.705 322.155 327.077 322.186C327.45 322.216 327.802 322.369 328.079 322.62L328.369 322.47C328.186 322.283 327.966 322.137 327.723 322.04C327.48 321.944 327.22 321.899 326.959 321.91L326.919 321.88Z" fill="#13110C"/>
<path d="M330.319 321.93H329.859V324.7H330.319V321.93Z" fill="#13110C"/>
<path d="M330.448 324.79H329.828V321.87H330.448V324.79ZM329.978 324.64H330.298V322H329.978V324.64Z" fill="#13110C"/>
<path d="M334.798 324.72H334.228L332.098 322.44V324.72H331.648V321.94H332.218L334.348 324.22V321.94H334.798V324.72Z" fill="#13110C"/>
<path d="M334.868 324.79H334.188L332.188 322.66V324.81H331.578V321.87H332.258L334.258 324V321.87H334.858L334.868 324.79ZM334.258 324.64H334.718V322H334.448V324.39L334.318 324.25L332.178 322H331.718V324.62H332.018V322.22L334.258 324.64Z" fill="#13110C"/>
<path d="M339.029 324.72H336.109V321.94H338.919V322.35H336.579V323.06H338.199V323.48H336.579V324.31H339.029V324.72Z" fill="#13110C"/>
<path d="M339.101 324.79H336.031V321.87H339.031V322.43H336.651V323H338.271V323.57H336.651V324.25H339.101V324.79ZM336.191 324.64H338.941V324.38H336.501V323.38H338.121V323.12H336.501V322.25H338.841V322H336.191V324.64Z" fill="#13110C"/>
<path d="M343.022 324.72H340.102V321.94H342.902V322.35H340.562V323.06H342.192V323.48H340.562V324.31H343.022V324.72Z" fill="#13110C"/>
<path d="M343.093 324.79H340.023V321.87H343.023V322.43H340.633V323H342.273V323.57H340.633V324.25H343.093V324.79ZM340.173 324.64H342.943V324.38H340.453V323.38H342.083V323.12H340.453V322.25H342.793V322H340.173V324.64Z" fill="#13110C"/>
<path d="M347.254 324.71H346.714L345.964 323.65H344.564V324.71H344.094V321.94H346.294C346.544 321.927 346.791 322.009 346.984 322.17C347.066 322.256 347.129 322.358 347.17 322.47C347.212 322.582 347.23 322.701 347.224 322.82C347.234 323.029 347.162 323.233 347.024 323.39C346.881 323.526 346.699 323.613 346.504 323.64L347.254 324.71ZM346.254 323.25C346.624 323.25 346.794 323.09 346.794 322.82C346.794 322.55 346.604 322.34 346.214 322.34H344.594V323.25H346.254Z" fill="#13110C"/>
<path d="M347.454 324.79H346.724L345.994 323.79H344.704V324.85H344.094V321.86H346.364C346.498 321.851 346.633 321.869 346.76 321.914C346.887 321.959 347.004 322.029 347.104 322.12C347.194 322.211 347.265 322.321 347.312 322.441C347.358 322.562 347.379 322.691 347.374 322.82C347.382 323.047 347.304 323.269 347.154 323.44C347.028 323.561 346.873 323.647 346.704 323.69L347.454 324.79ZM346.804 324.63H347.154L346.424 323.58H346.544C346.722 323.556 346.89 323.48 347.024 323.36C347.143 323.213 347.204 323.028 347.194 322.84C347.2 322.731 347.184 322.623 347.146 322.521C347.108 322.42 347.049 322.327 346.974 322.25C346.889 322.172 346.79 322.113 346.681 322.075C346.573 322.037 346.458 322.022 346.344 322.03H344.224V324.65H344.454V323.58H345.974L346.804 324.63ZM346.274 323.32H344.454V322.32H346.154C346.724 322.32 346.814 322.66 346.814 322.87C346.814 323.08 346.754 323.32 346.224 323.32H346.274ZM344.684 323.17H346.274C346.734 323.17 346.734 322.9 346.734 322.82C346.734 322.74 346.734 322.42 346.234 322.42H344.684V323.17Z" fill="#13110C"/>
<path d="M351.272 324.72H348.352V321.94H351.162V322.35H348.822V323.06H350.442V323.48H348.822V324.31H351.272V324.72Z" fill="#13110C"/>
<path d="M351.343 324.79H348.273V321.87H351.273V322.43H348.943V323H350.563V323.57H348.943V324.25H351.383L351.343 324.79ZM348.453 324.64H351.213V324.38H348.763V323.38H350.383V323.12H348.763V322.25H351.103V322H348.453V324.64Z" fill="#13110C"/>
<path d="M354.102 321.93C354.525 321.912 354.94 322.055 355.262 322.33C355.399 322.457 355.507 322.612 355.58 322.785C355.652 322.957 355.687 323.143 355.682 323.33C355.685 323.52 355.647 323.708 355.569 323.881C355.491 324.054 355.376 324.207 355.232 324.33C354.952 324.566 354.597 324.694 354.232 324.69H352.352V321.93H354.102ZM354.232 324.3C354.357 324.307 354.482 324.288 354.599 324.243C354.717 324.198 354.823 324.129 354.912 324.04C355.087 323.853 355.183 323.606 355.182 323.35C355.185 323.218 355.162 323.086 355.114 322.962C355.066 322.839 354.994 322.726 354.902 322.63C354.8 322.536 354.68 322.462 354.55 322.414C354.419 322.366 354.28 322.344 354.142 322.35H352.802V324.3H354.232Z" fill="#13110C"/>
<path d="M354.203 324.79H352.273V321.85H354.103C354.546 321.828 354.98 321.978 355.313 322.27C355.463 322.409 355.58 322.58 355.657 322.771C355.733 322.961 355.766 323.165 355.753 323.37C355.749 323.56 355.706 323.747 355.625 323.92C355.544 324.092 355.427 324.245 355.283 324.37C354.989 324.64 354.603 324.79 354.203 324.79ZM352.453 324.63H354.233C354.598 324.648 354.956 324.527 355.233 324.29C355.367 324.177 355.474 324.036 355.547 323.877C355.62 323.718 355.656 323.545 355.653 323.37C355.669 323.183 355.641 322.996 355.572 322.822C355.502 322.649 355.393 322.494 355.253 322.37C354.951 322.104 354.556 321.968 354.153 321.99H352.453V324.63ZM354.263 324.38H352.763V322.27H354.173C354.322 322.263 354.47 322.286 354.609 322.338C354.748 322.389 354.875 322.468 354.983 322.57C355.084 322.673 355.162 322.795 355.214 322.929C355.265 323.063 355.289 323.206 355.283 323.35C355.288 323.486 355.265 323.623 355.215 323.75C355.165 323.877 355.09 323.993 354.993 324.09C354.897 324.193 354.779 324.273 354.647 324.323C354.515 324.374 354.374 324.393 354.233 324.38H354.263ZM352.913 324.23H354.263C354.378 324.237 354.493 324.219 354.6 324.177C354.707 324.136 354.803 324.072 354.883 323.99C354.968 323.907 355.034 323.807 355.077 323.697C355.12 323.586 355.139 323.468 355.133 323.35C355.14 323.227 355.121 323.104 355.078 322.989C355.035 322.874 354.969 322.768 354.883 322.68C354.69 322.504 354.435 322.41 354.173 322.42H352.913V324.23Z" fill="#13110C"/>
<path d="M362.698 322.35H360.368V323.06H361.988V323.48H360.368V324.72H359.898V321.94H362.698V322.35Z" fill="#13110C"/>
<path d="M360.448 324.79H359.828V321.87H362.778V322.43H360.448V323H362.078V323.57H360.448V324.79ZM359.988 324.64H360.288V323.4H361.918V323.14H360.288V322.28H362.628V322H359.988V324.64Z" fill="#13110C"/>
<path d="M367.047 323.32C367.051 323.536 367.003 323.749 366.907 323.942C366.811 324.135 366.671 324.303 366.497 324.43C366.13 324.666 365.703 324.791 365.267 324.791C364.831 324.791 364.404 324.666 364.037 324.43C363.859 324.307 363.714 324.141 363.616 323.947C363.518 323.753 363.47 323.538 363.477 323.32C363.476 323.106 363.527 322.894 363.624 322.703C363.722 322.511 363.863 322.346 364.037 322.22C364.402 321.979 364.83 321.851 365.267 321.851C365.705 321.851 366.132 321.979 366.497 322.22C366.668 322.348 366.807 322.514 366.903 322.705C366.998 322.896 367.048 323.107 367.047 323.32ZM366.567 323.32C366.564 323.166 366.526 323.014 366.455 322.877C366.384 322.74 366.282 322.622 366.157 322.53C365.894 322.356 365.583 322.265 365.267 322.27C364.925 322.258 364.59 322.364 364.317 322.57C364.203 322.658 364.11 322.772 364.048 322.902C363.985 323.033 363.954 323.176 363.957 323.32C363.95 323.467 363.979 323.613 364.042 323.746C364.105 323.878 364.199 323.993 364.317 324.08C364.595 324.276 364.927 324.381 365.267 324.381C365.607 324.381 365.939 324.276 366.217 324.08C366.33 323.989 366.421 323.873 366.481 323.742C366.542 323.61 366.572 323.466 366.567 323.32Z" fill="#13110C"/>
<path d="M365.269 324.87C364.812 324.888 364.362 324.755 363.989 324.49C363.802 324.358 363.651 324.183 363.548 323.979C363.446 323.775 363.394 323.549 363.399 323.32C363.399 323.094 363.453 322.871 363.555 322.67C363.658 322.468 363.806 322.294 363.989 322.16C364.362 321.896 364.811 321.759 365.269 321.77C365.723 321.758 366.169 321.895 366.539 322.16C366.721 322.295 366.869 322.471 366.97 322.673C367.072 322.875 367.125 323.099 367.125 323.325C367.125 323.552 367.072 323.775 366.97 323.977C366.869 324.18 366.721 324.355 366.539 324.49C366.167 324.75 365.722 324.883 365.269 324.87ZM365.269 321.93C364.845 321.918 364.428 322.04 364.079 322.28C363.921 322.396 363.792 322.546 363.702 322.719C363.612 322.893 363.563 323.085 363.559 323.28C363.561 323.477 363.61 323.671 363.702 323.845C363.794 324.019 363.927 324.168 364.089 324.28C364.44 324.509 364.85 324.631 365.269 324.631C365.688 324.631 366.098 324.509 366.449 324.28C366.612 324.159 366.745 324.002 366.836 323.82C366.928 323.639 366.975 323.439 366.975 323.235C366.975 323.032 366.928 322.832 366.836 322.65C366.745 322.469 366.612 322.311 366.449 322.19C366.092 321.984 365.679 321.893 365.269 321.93ZM365.269 324.45C364.911 324.464 364.559 324.359 364.269 324.15C364.142 324.053 364.041 323.927 363.973 323.783C363.905 323.638 363.873 323.48 363.879 323.32C363.877 323.163 363.913 323.008 363.982 322.868C364.052 322.727 364.153 322.604 364.279 322.51C364.565 322.292 364.919 322.179 365.279 322.19C365.613 322.184 365.942 322.282 366.219 322.47C366.354 322.568 366.464 322.695 366.54 322.843C366.617 322.99 366.657 323.154 366.659 323.32C366.665 323.48 366.632 323.638 366.564 323.783C366.497 323.927 366.395 324.053 366.269 324.15C365.98 324.364 365.627 324.47 365.269 324.45ZM365.269 322.34C364.945 322.332 364.627 322.434 364.369 322.63C364.267 322.717 364.186 322.824 364.13 322.945C364.075 323.066 364.046 323.197 364.046 323.33C364.046 323.463 364.075 323.595 364.13 323.716C364.186 323.837 364.267 323.944 364.369 324.03C364.634 324.218 364.954 324.313 365.279 324.3C365.601 324.315 365.918 324.22 366.179 324.03C366.284 323.945 366.368 323.837 366.424 323.714C366.479 323.59 366.505 323.455 366.499 323.32C366.497 323.177 366.462 323.037 366.396 322.91C366.33 322.783 366.235 322.674 366.119 322.59C365.867 322.424 365.571 322.337 365.269 322.34Z" fill="#13110C"/>
<path d="M371.369 324.71H370.839L370.089 323.65H368.679V324.71H368.219V321.94H370.449C370.696 321.93 370.938 322.012 371.129 322.17C371.212 322.256 371.277 322.358 371.32 322.47C371.363 322.582 371.383 322.701 371.379 322.82C371.385 323.029 371.314 323.232 371.179 323.39C371.037 323.528 370.855 323.616 370.659 323.64L371.369 324.71ZM370.369 323.25C370.729 323.25 370.899 323.09 370.899 322.82C370.899 322.55 370.709 322.34 370.319 322.34H368.699V323.25H370.369Z" fill="#13110C"/>
<path d="M371.516 324.79H370.796L370.066 323.79H368.776V324.85H368.156V321.86H370.446C370.581 321.851 370.716 321.869 370.843 321.914C370.97 321.959 371.087 322.029 371.186 322.12C371.275 322.212 371.344 322.322 371.389 322.443C371.433 322.563 371.453 322.691 371.446 322.82C371.455 323.047 371.376 323.269 371.226 323.44C371.103 323.559 370.952 323.645 370.786 323.69L371.516 324.79ZM370.876 324.63H371.216L370.446 323.58H370.576C370.753 323.56 370.918 323.483 371.046 323.36C371.17 323.215 371.234 323.029 371.226 322.84C371.233 322.731 371.216 322.623 371.178 322.521C371.141 322.42 371.082 322.327 371.006 322.25C370.857 322.099 370.658 322.01 370.446 322H368.316V324.62H368.636V323.58H370.156L370.876 324.63ZM370.336 323.32H368.606V322.32H370.296C370.866 322.32 370.956 322.66 370.956 322.87C370.956 323.08 370.876 323.32 370.336 323.32ZM368.756 323.17H370.336C370.796 323.17 370.796 322.9 370.796 322.82C370.796 322.74 370.796 322.42 370.296 322.42H368.756V323.17Z" fill="#13110C"/>
<path d="M317.05 328C316.658 327.796 316.222 327.689 315.78 327.69C315.562 327.677 315.344 327.711 315.14 327.79C314.98 327.85 314.9 327.94 314.9 328.07C314.9 328.2 314.99 328.27 315.16 328.34C315.342 328.379 315.525 328.405 315.71 328.42H316.47C316.744 328.444 317.008 328.533 317.24 328.68C317.324 328.742 317.391 328.824 317.434 328.918C317.478 329.012 317.497 329.116 317.49 329.22C317.495 329.36 317.461 329.498 317.392 329.62C317.324 329.742 317.223 329.842 317.1 329.91C316.75 330.083 316.36 330.162 315.97 330.14C315.385 330.172 314.805 330.01 314.32 329.68L314.58 329.34C314.999 329.604 315.485 329.743 315.98 329.74C316.24 329.754 316.5 329.71 316.74 329.61C316.813 329.578 316.874 329.526 316.919 329.461C316.963 329.395 316.988 329.319 316.99 329.24C316.99 329.07 316.88 328.95 316.66 328.89C316.329 328.838 315.995 328.808 315.66 328.8C315.319 328.801 314.98 328.74 314.66 328.62C314.584 328.558 314.525 328.478 314.488 328.387C314.452 328.296 314.438 328.197 314.45 328.1C314.45 327.973 314.483 327.848 314.546 327.737C314.61 327.627 314.701 327.534 314.81 327.47C315.12 327.313 315.463 327.234 315.81 327.24C316.345 327.221 316.872 327.367 317.32 327.66L317.05 328Z" fill="#13110C"/>
<path d="M315.971 330.24C315.367 330.268 314.771 330.099 314.271 329.76H314.211L314.561 329.31H314.621C315.028 329.565 315.5 329.7 315.981 329.7C316.228 329.71 316.473 329.665 316.701 329.57C316.762 329.546 316.814 329.505 316.851 329.451C316.889 329.398 316.909 329.335 316.911 329.27C316.911 329.19 316.911 329.06 316.641 328.99L315.701 328.9C315.36 328.9 315.021 328.839 314.701 328.72C314.59 328.662 314.497 328.574 314.434 328.466C314.37 328.358 314.338 328.235 314.341 328.11C314.34 327.969 314.377 327.832 314.447 327.71C314.518 327.589 314.619 327.489 314.741 327.42C315.071 327.24 315.446 327.156 315.821 327.18C316.37 327.159 316.911 327.309 317.371 327.61H317.441L317.071 328.03H317.021C316.637 327.834 316.212 327.731 315.781 327.73C315.574 327.718 315.366 327.748 315.171 327.82C315.001 327.88 314.981 327.96 314.981 328.03C314.981 328.1 315.041 328.17 315.181 328.23C315.359 328.267 315.539 328.291 315.721 328.3H316.121H316.481C316.767 328.316 317.043 328.41 317.281 328.57C317.377 328.636 317.455 328.726 317.506 328.831C317.557 328.936 317.579 329.053 317.571 329.17C317.575 329.322 317.537 329.473 317.461 329.605C317.385 329.737 317.275 329.846 317.141 329.92C316.788 330.133 316.383 330.244 315.971 330.24ZM314.451 329.68C314.911 329.97 315.448 330.113 315.991 330.09C316.368 330.111 316.744 330.032 317.081 329.86C317.192 329.8 317.283 329.71 317.345 329.6C317.407 329.49 317.437 329.365 317.431 329.24C317.439 329.147 317.424 329.054 317.385 328.97C317.346 328.886 317.286 328.813 317.211 328.76C316.991 328.621 316.74 328.539 316.481 328.52H316.131H315.721C315.528 328.508 315.337 328.478 315.151 328.43C314.891 328.33 314.841 328.19 314.841 328.09C314.841 327.99 314.941 327.81 315.131 327.74C315.343 327.654 315.572 327.617 315.801 327.63C316.235 327.63 316.664 327.733 317.051 327.93L317.231 327.73C316.812 327.478 316.329 327.353 315.841 327.37C315.494 327.355 315.15 327.431 314.841 327.59C314.742 327.645 314.66 327.727 314.604 327.826C314.548 327.924 314.519 328.036 314.521 328.15C314.516 328.246 314.539 328.341 314.587 328.424C314.635 328.508 314.706 328.575 314.791 328.62C315.087 328.735 315.403 328.792 315.721 328.79C316.056 328.802 316.389 328.832 316.721 328.88C316.991 328.96 317.121 329.1 317.121 329.31C317.119 329.401 317.09 329.491 317.039 329.567C316.988 329.643 316.915 329.703 316.831 329.74C316.579 329.851 316.306 329.902 316.031 329.89C315.545 329.889 315.069 329.758 314.651 329.51L314.451 329.68Z" fill="#13110C"/>
<path d="M320.812 327.32C321.056 327.306 321.297 327.389 321.482 327.55C321.563 327.634 321.627 327.735 321.668 327.845C321.709 327.955 321.727 328.072 321.722 328.19C321.728 328.305 321.71 328.421 321.666 328.528C321.623 328.635 321.557 328.731 321.472 328.81C321.259 328.977 320.991 329.056 320.722 329.03H319.072V330.09H318.602V327.32H320.812ZM320.722 328.62C321.092 328.62 321.262 328.47 321.262 328.19C321.262 327.91 321.072 327.73 320.702 327.73H319.072V328.62H320.722Z" fill="#13110C"/>
<path d="M319.153 330.17H318.523V327.24H320.813C321.077 327.225 321.336 327.315 321.533 327.49C321.624 327.582 321.695 327.691 321.741 327.812C321.788 327.932 321.809 328.061 321.803 328.19C321.812 328.317 321.791 328.445 321.743 328.563C321.694 328.681 321.619 328.786 321.523 328.87C321.298 329.051 321.011 329.137 320.723 329.11H319.153V330.17ZM318.673 330H318.993V329H320.723C320.972 329.026 321.222 328.959 321.423 328.81C321.501 328.738 321.563 328.649 321.602 328.551C321.642 328.452 321.66 328.346 321.653 328.24C321.67 328.125 321.66 328.008 321.626 327.897C321.591 327.787 321.532 327.685 321.453 327.6C321.279 327.457 321.058 327.386 320.833 327.4H318.673V330ZM320.733 328.68H318.993V327.65H320.703C321.253 327.65 321.343 327.99 321.343 328.19C321.343 328.39 321.233 328.7 320.733 328.7V328.68ZM319.153 328.52H320.733C321.133 328.52 321.183 328.34 321.183 328.17C321.183 328 321.023 327.79 320.703 327.79H319.153V328.52Z" fill="#13110C"/>
<path d="M325.561 330.1H322.641V327.31H325.451V327.73H323.111V328.44H324.741V328.86H323.111V329.69H325.561V330.1Z" fill="#13110C"/>
<path d="M325.632 330.17H322.562V327.24H325.562V327.8H323.183V328.37H324.823V328.94H323.183V329.61H325.632V330.17ZM322.713 330H325.452V329.75H323.033V328.75H324.662V328.48H323.033V327.61H325.372V327.35H322.713V330Z" fill="#13110C"/>
<path d="M329.553 330.1H326.633V327.31H329.443V327.73H327.103V328.44H328.723V328.86H327.103V329.69H329.553V330.1Z" fill="#13110C"/>
<path d="M329.627 330.17H326.547V327.24H329.547V327.8H327.167V328.37H328.797V328.94H327.167V329.61H329.627V330.17ZM326.707 330H329.447V329.75H327.007V328.75H328.637V328.48H327.007V327.61H329.357V327.35H326.707V330Z" fill="#13110C"/>
<path d="M332.383 327.31C332.804 327.295 333.216 327.433 333.543 327.7C333.677 327.829 333.783 327.985 333.855 328.157C333.927 328.329 333.964 328.513 333.963 328.7C333.969 328.89 333.931 329.078 333.853 329.252C333.775 329.425 333.659 329.578 333.513 329.7C333.237 329.942 332.88 330.074 332.513 330.07H330.633V327.31H332.383ZM332.513 329.69C332.704 329.68 332.888 329.615 333.044 329.503C333.199 329.392 333.319 329.238 333.39 329.06C333.46 328.882 333.478 328.687 333.442 328.499C333.405 328.311 333.315 328.138 333.183 328C333.082 327.904 332.962 327.831 332.831 327.785C332.7 327.738 332.561 327.719 332.423 327.73H331.083V329.68L332.513 329.69Z" fill="#13110C"/>
<path d="M332.447 330.18H330.547V327.18H332.387C332.823 327.166 333.25 327.312 333.587 327.59C333.736 327.732 333.852 327.905 333.928 328.096C334.004 328.288 334.038 328.494 334.027 328.7C334.026 328.89 333.984 329.079 333.902 329.252C333.821 329.424 333.703 329.577 333.557 329.7C333.264 329.999 332.865 330.171 332.447 330.18ZM330.707 330H332.447C332.814 330.014 333.173 329.884 333.447 329.64C333.582 329.528 333.691 329.388 333.763 329.228C333.836 329.069 333.872 328.895 333.867 328.72C333.878 328.535 333.849 328.349 333.782 328.177C333.714 328.004 333.61 327.848 333.477 327.72C333.167 327.467 332.776 327.336 332.377 327.35H330.707V330ZM332.507 329.73H331.007V327.63H332.447C332.597 327.622 332.746 327.645 332.887 327.696C333.028 327.748 333.157 327.827 333.267 327.93C333.447 328.14 333.546 328.408 333.546 328.685C333.546 328.962 333.447 329.229 333.267 329.44C333.17 329.544 333.052 329.626 332.921 329.682C332.79 329.737 332.649 329.763 332.507 329.76V329.73ZM331.157 329.58H332.507C332.624 329.584 332.741 329.565 332.851 329.524C332.961 329.483 333.062 329.42 333.147 329.34C333.304 329.165 333.387 328.935 333.377 328.7C333.384 328.578 333.365 328.457 333.322 328.343C333.279 328.229 333.212 328.126 333.127 328.04C332.932 327.867 332.677 327.777 332.417 327.79H331.157V329.58Z" fill="#13110C"/>
<path d="M335.621 330.21C335.621 330.49 335.471 330.63 335.151 330.63H335.051V330.4C335.251 330.4 335.341 330.34 335.341 330.23V330.11H335.031V329.68H335.621V330.21Z" fill="#13110C"/>
<path d="M335.153 330.71H334.973V330.32H335.043C335.263 330.32 335.263 330.26 335.263 330.23H334.953V329.6H335.703V330.21C335.703 330.53 335.503 330.71 335.153 330.71ZM335.153 330.56C335.423 330.56 335.553 330.44 335.553 330.21V329.75H335.113V330H335.453V330.2C335.453 330.38 335.273 330.43 335.153 330.44V330.56Z" fill="#13110C"/>
<path d="M340.143 327.31C340.565 327.293 340.977 327.432 341.303 327.7C341.44 327.828 341.549 327.983 341.623 328.155C341.697 328.327 341.735 328.513 341.733 328.7C341.737 328.89 341.698 329.078 341.621 329.251C341.543 329.424 341.428 329.577 341.283 329.7C341.006 329.941 340.65 330.072 340.283 330.07H338.453V327.31H340.143ZM340.283 329.69C340.473 329.676 340.654 329.609 340.807 329.496C340.96 329.383 341.077 329.229 341.145 329.051C341.213 328.874 341.23 328.681 341.192 328.495C341.154 328.309 341.065 328.137 340.933 328C340.834 327.907 340.718 327.835 340.591 327.789C340.464 327.743 340.328 327.722 340.193 327.73H338.853V329.68L340.283 329.69Z" fill="#13110C"/>
<path d="M340.24 330.18H338.32V327.18H340.14C340.58 327.163 341.011 327.309 341.35 327.59C341.501 327.731 341.619 327.904 341.697 328.096C341.775 328.287 341.81 328.493 341.8 328.7C341.794 328.89 341.75 329.077 341.669 329.249C341.588 329.421 341.473 329.574 341.33 329.7C341.042 329.994 340.652 330.166 340.24 330.18ZM338.45 330H340.22C340.587 330.012 340.945 329.883 341.22 329.64C341.354 329.527 341.46 329.386 341.533 329.227C341.605 329.068 341.642 328.895 341.64 328.72C341.653 328.533 341.622 328.346 341.551 328.173C341.48 327.999 341.37 327.844 341.23 327.72C340.925 327.46 340.531 327.327 340.13 327.35H338.45V330ZM340.26 329.73H338.76V327.63H340.17C340.317 327.622 340.464 327.644 340.602 327.696C340.74 327.747 340.865 327.827 340.97 327.93C341.149 328.061 341.279 328.247 341.341 328.459C341.402 328.672 341.391 328.898 341.31 329.104C341.229 329.31 341.082 329.483 340.892 329.596C340.702 329.709 340.48 329.756 340.26 329.73ZM338.91 329.58H340.26C340.377 329.588 340.495 329.57 340.604 329.528C340.714 329.486 340.813 329.422 340.896 329.338C340.978 329.255 341.042 329.155 341.082 329.045C341.123 328.934 341.139 328.817 341.13 328.7C341.136 328.577 341.114 328.454 341.068 328.34C341.021 328.226 340.95 328.124 340.86 328.04C340.769 327.952 340.661 327.885 340.542 327.841C340.423 327.798 340.296 327.781 340.17 327.79H338.93L338.91 329.58Z" fill="#13110C"/>
<path d="M346.002 329.2C345.999 329.343 345.959 329.483 345.885 329.606C345.811 329.728 345.707 329.83 345.582 329.9C345.224 330.084 344.828 330.18 344.427 330.18C344.025 330.18 343.629 330.084 343.272 329.9C343.145 329.831 343.039 329.73 342.966 329.607C342.892 329.484 342.852 329.343 342.852 329.2V327.31H343.302V329.08C343.298 329.182 343.323 329.283 343.374 329.372C343.425 329.46 343.501 329.532 343.592 329.58C343.853 329.7 344.138 329.762 344.427 329.762C344.715 329.762 345 329.7 345.262 329.58C345.35 329.53 345.422 329.457 345.472 329.369C345.521 329.281 345.545 329.181 345.542 329.08V327.31H346.002V329.2Z" fill="#13110C"/>
<path d="M344.447 330.26C344.026 330.282 343.608 330.178 343.247 329.96C343.112 329.884 343 329.773 342.921 329.64C342.842 329.507 342.799 329.355 342.797 329.2V327.2H343.407V329.04C343.404 329.128 343.426 329.215 343.47 329.291C343.515 329.367 343.579 329.429 343.657 329.47C343.9 329.598 344.173 329.657 344.447 329.64C344.721 329.662 344.996 329.603 345.237 329.47C345.315 329.429 345.379 329.367 345.423 329.291C345.468 329.215 345.49 329.128 345.487 329.04V327.24H346.097V329.24C346.094 329.395 346.052 329.547 345.973 329.68C345.894 329.813 345.782 329.924 345.647 330C345.282 330.206 344.864 330.297 344.447 330.26ZM342.947 327.39V329.2C342.95 329.33 342.987 329.458 343.056 329.568C343.125 329.679 343.222 329.77 343.337 329.83C343.67 330.032 344.058 330.126 344.447 330.1C344.839 330.13 345.231 330.036 345.567 329.83C345.68 329.767 345.774 329.676 345.841 329.566C345.907 329.455 345.944 329.329 345.947 329.2V327.39H345.647V329.08C345.651 329.195 345.623 329.309 345.567 329.41C345.51 329.51 345.427 329.594 345.327 329.65C345.055 329.788 344.752 329.854 344.447 329.84C344.149 329.853 343.852 329.788 343.587 329.65C343.484 329.596 343.398 329.513 343.34 329.413C343.282 329.312 343.253 329.197 343.257 329.08V327.39H342.947Z" fill="#13110C"/>
<path d="M350.449 330.09H349.919L349.159 329H347.749V330.06H347.289V327.32H349.449C349.696 327.31 349.939 327.392 350.129 327.55C350.212 327.635 350.276 327.735 350.319 327.845C350.362 327.955 350.382 328.072 350.379 328.19C350.389 328.402 350.317 328.609 350.179 328.77C350.038 328.9 349.86 328.984 349.669 329.01L350.449 330.09ZM349.449 328.62C349.809 328.62 349.979 328.47 349.979 328.19C349.979 327.91 349.789 327.73 349.399 327.73H347.749V328.62H349.449Z" fill="#13110C"/>
<path d="M350.587 330.17H349.867L349.137 329.17H347.847V330.23H347.227V327.24H349.447C349.712 327.231 349.972 327.32 350.177 327.49C350.27 327.581 350.342 327.69 350.391 327.81C350.439 327.931 350.461 328.06 350.457 328.19C350.466 328.422 350.383 328.649 350.227 328.82C350.107 328.938 349.959 329.024 349.797 329.07L350.587 330.17ZM349.947 330H350.297L349.567 329H349.697C349.871 328.983 350.034 328.905 350.157 328.78C350.221 328.71 350.272 328.629 350.304 328.539C350.337 328.45 350.351 328.355 350.347 328.26C350.35 328.15 350.331 328.041 350.29 327.939C350.248 327.838 350.186 327.746 350.107 327.67C349.934 327.525 349.711 327.454 349.487 327.47H347.357V330H347.677V329H349.197L349.947 330ZM349.447 328.7H347.717V327.65H349.407C349.977 327.65 350.067 327.99 350.067 328.19C350.067 328.39 349.917 328.7 349.447 328.7ZM347.867 328.54H349.447C349.857 328.54 349.907 328.36 349.907 328.19C349.907 328.02 349.747 327.81 349.407 327.81H347.867V328.54Z" fill="#13110C"/>
<path d="M354.668 330.1H354.168L353.838 329.48H351.968L351.658 330.1H351.148L352.618 327.31H353.198L354.668 330.1ZM353.668 329.1L352.958 327.75L352.228 329.1H353.668Z" fill="#13110C"/>
<path d="M354.799 330.17H354.119L353.809 329.6H352.039L351.719 330.21H351.039L351.099 330.1L352.589 327.28H353.269L354.799 330.17ZM354.209 330.02H354.539L353.149 327.39H352.669L351.279 330H351.609L351.919 329.38H353.919L354.209 330.02ZM353.749 329.14H352.049L352.119 329.02L352.909 327.55L353.749 329.14ZM352.309 329H353.449L352.869 327.9L352.309 329Z" fill="#13110C"/>
<path d="M358.367 328.67C358.517 328.714 358.646 328.809 358.732 328.939C358.818 329.069 358.855 329.225 358.837 329.38C358.837 329.86 358.497 330.1 357.837 330.1H355.617V327.31H357.857C358.099 327.297 358.337 327.371 358.527 327.52C358.605 327.593 358.665 327.681 358.705 327.78C358.745 327.878 358.763 327.984 358.757 328.09C358.759 328.21 358.727 328.328 358.665 328.43C358.603 328.533 358.514 328.616 358.407 328.67M357.867 328.49C357.987 328.492 358.103 328.454 358.197 328.38C358.271 328.305 358.314 328.205 358.317 328.1C358.318 328.05 358.309 328 358.29 327.954C358.271 327.907 358.243 327.865 358.207 327.83C358.111 327.771 358 327.74 357.887 327.74H356.077V328.49H357.867ZM357.867 329.69C358.237 329.69 358.437 329.57 358.437 329.3C358.437 329.03 358.277 328.89 357.937 328.89H356.107V329.69H357.867Z" fill="#13110C"/>
<path d="M357.8 330.18H355.5V327.18H357.82C358.08 327.167 358.336 327.248 358.54 327.41C358.625 327.489 358.693 327.585 358.737 327.692C358.782 327.799 358.804 327.914 358.8 328.03C358.804 328.14 358.782 328.249 358.735 328.348C358.688 328.448 358.618 328.534 358.53 328.6C358.659 328.67 358.765 328.777 358.835 328.906C358.904 329.036 358.934 329.184 358.92 329.33C358.92 329.74 358.72 330.18 357.8 330.18ZM355.65 330H357.8C358.45 330 358.8 329.78 358.8 329.35C358.815 329.21 358.78 329.069 358.701 328.952C358.623 328.835 358.505 328.749 358.37 328.71L358.2 328.66L358.36 328.57C358.457 328.523 358.539 328.449 358.595 328.357C358.652 328.265 358.681 328.158 358.68 328.05C358.684 327.956 358.666 327.861 358.628 327.775C358.59 327.688 358.532 327.611 358.46 327.55C358.285 327.417 358.069 327.349 357.85 327.36H355.65V330ZM357.8 329.73H355.96V328.79H357.87C358.37 328.79 358.44 329.09 358.44 329.27C358.44 329.45 358.23 329.76 357.8 329.76V329.73ZM356.12 329.58H357.8C358.23 329.58 358.29 329.42 358.29 329.27C358.29 329.12 358.29 328.94 357.87 328.94H356.12V329.58ZM357.83 328.58H355.96V327.68H357.85C357.977 327.68 358.101 327.715 358.21 327.78C358.256 327.824 358.292 327.877 358.316 327.935C358.34 327.994 358.352 328.057 358.35 328.12C358.349 328.243 358.303 328.36 358.22 328.45C358.106 328.53 357.969 328.569 357.83 328.56V328.58ZM356.12 328.43H357.83C357.931 328.434 358.03 328.402 358.11 328.34C358.139 328.311 358.161 328.277 358.177 328.239C358.192 328.201 358.2 328.161 358.2 328.12C358.201 328.079 358.194 328.038 358.179 328.001C358.163 327.963 358.14 327.928 358.11 327.9C358.03 327.857 357.941 327.836 357.85 327.84H356.12V328.43Z" fill="#13110C"/>
<path d="M360.483 327.31H360.023V330.09H360.483V327.31Z" fill="#13110C"/>
<path d="M360.558 330.18H359.938V327.24H360.558V330.18ZM360.098 330.02H360.448V327.4H360.138L360.098 330.02Z" fill="#13110C"/>
<path d="M364.399 330.1H361.789V327.31H362.259V329.69H364.399V330.1Z" fill="#13110C"/>
<path d="M364.45 330.17H361.68V327.24H362.3V329.61H364.45V330.17ZM361.87 330H364.32V329.75H362.17V327.39H361.87V330Z" fill="#13110C"/>
<path d="M365.794 327.31H365.344V330.09H365.794V327.31Z" fill="#13110C"/>
<path d="M365.868 330.18H365.258V327.24H365.868V330.18ZM365.448 330H365.758V327.4H365.448V330Z" fill="#13110C"/>
<path d="M369.839 327.73H368.509V330.1H368.049V327.73H366.719V327.32H369.839V327.73Z" fill="#13110C"/>
<path d="M368.581 330.18H367.971V327.81H366.641V327.24H369.911V327.81H368.581V330.18ZM368.121 330.03H368.451V327.65H369.781V327.4H366.781V327.65H368.111L368.121 330.03Z" fill="#13110C"/>
<path d="M373.818 327.31L372.308 329V330.1H371.848V329L370.328 327.31H370.898L372.078 328.61L373.248 327.31H373.818Z" fill="#13110C"/>
<path d="M372.376 330.17H371.766V329L370.156 327.21H370.926L372.046 328.45L373.186 327.19H373.966L373.856 327.32L372.376 329V330.17ZM371.916 330.02H372.226V329L373.626 327.45H373.256L372.046 328.79L371.986 328.73L370.836 327.45H370.476L371.916 329V330.02Z" fill="#13110C"/>
<path d="M318.681 335.49C318.334 335.463 317.994 335.372 317.681 335.22C317.359 335.435 316.978 335.543 316.591 335.53C316.303 335.542 316.019 335.461 315.781 335.3C315.683 335.231 315.602 335.14 315.547 335.033C315.491 334.927 315.462 334.809 315.461 334.69C315.461 334.29 315.791 334.01 316.461 333.86C316.371 333.723 316.322 333.563 316.321 333.4C316.321 333.256 316.366 333.116 316.451 333C316.529 332.893 316.632 332.808 316.75 332.75C316.869 332.693 316.999 332.665 317.131 332.67C317.23 332.666 317.328 332.681 317.421 332.716C317.514 332.75 317.599 332.802 317.671 332.87C317.739 332.933 317.793 333.011 317.83 333.097C317.866 333.183 317.883 333.276 317.881 333.37C317.881 333.74 317.641 333.98 317.161 334.14C317.327 334.349 317.515 334.54 317.721 334.71C317.91 334.532 318.048 334.308 318.121 334.06H318.581C318.483 334.4 318.301 334.709 318.051 334.96C318.26 335.048 318.484 335.092 318.711 335.09L318.681 335.49ZM317.331 335C317.099 334.771 316.882 334.527 316.681 334.27C316.171 334.34 315.911 334.5 315.911 334.75C315.908 334.816 315.926 334.881 315.962 334.936C315.998 334.992 316.05 335.035 316.111 335.06C316.264 335.142 316.437 335.184 316.611 335.18C316.86 335.165 317.104 335.104 317.331 335ZM316.871 333.82C317.231 333.82 317.411 333.64 317.411 333.39C317.414 333.349 317.407 333.308 317.389 333.271C317.372 333.234 317.345 333.202 317.311 333.18C317.282 333.148 317.246 333.123 317.206 333.108C317.167 333.092 317.124 333.086 317.081 333.09C317.033 333.088 316.985 333.095 316.941 333.113C316.896 333.13 316.855 333.156 316.821 333.19C316.786 333.223 316.759 333.264 316.742 333.308C316.725 333.353 316.718 333.402 316.721 333.45C316.74 333.583 316.791 333.71 316.871 333.82Z" fill="#13110C"/>
<path d="M316.569 335.6C316.265 335.611 315.964 335.527 315.709 335.36C315.602 335.284 315.515 335.183 315.454 335.067C315.393 334.95 315.361 334.821 315.359 334.69C315.359 334.4 315.529 334.01 316.299 333.81C316.231 333.684 316.193 333.543 316.189 333.4C316.191 333.225 316.251 333.056 316.359 332.92C316.445 332.806 316.557 332.714 316.686 332.653C316.815 332.592 316.957 332.564 317.099 332.57C317.209 332.564 317.319 332.58 317.422 332.618C317.525 332.656 317.62 332.714 317.699 332.79C317.774 332.86 317.833 332.945 317.873 333.04C317.913 333.135 317.932 333.237 317.929 333.34C317.929 333.71 317.709 333.97 317.259 334.14C317.39 334.298 317.534 334.445 317.689 334.58C317.84 334.412 317.953 334.215 318.019 334H318.629V334.1C318.535 334.415 318.371 334.706 318.149 334.95C318.32 335.008 318.499 335.039 318.679 335.04H318.759V335.63H318.679C318.334 335.601 317.995 335.513 317.679 335.37C317.339 335.552 316.954 335.632 316.569 335.6ZM317.099 332.72C316.976 332.705 316.851 332.724 316.737 332.773C316.623 332.822 316.524 332.9 316.449 333C316.357 333.104 316.307 333.24 316.309 333.38C316.312 333.529 316.357 333.675 316.439 333.8L316.499 333.89H316.389C315.779 334.02 315.479 334.28 315.479 334.64C315.481 334.748 315.509 334.854 315.559 334.949C315.609 335.045 315.681 335.127 315.769 335.19C315.996 335.334 316.261 335.407 316.529 335.4C316.884 335.401 317.231 335.3 317.529 335.11C317.815 335.25 318.123 335.338 318.439 335.37V335.1C318.227 335.086 318.017 335.039 317.819 334.96H317.719L317.799 334.88C318.078 334.678 318.301 334.41 318.449 334.1H318.139C318.068 334.346 317.93 334.568 317.739 334.74H317.689C317.48 334.566 317.289 334.372 317.119 334.16L317.059 334.07H317.159C317.609 333.93 317.819 333.7 317.819 333.38C317.822 333.298 317.807 333.216 317.776 333.141C317.745 333.065 317.698 332.996 317.639 332.94C317.572 332.864 317.489 332.805 317.395 332.767C317.301 332.729 317.2 332.712 317.099 332.72ZM316.619 335.2C316.426 335.207 316.233 335.166 316.059 335.08C315.99 335.044 315.933 334.989 315.894 334.921C315.855 334.854 315.836 334.777 315.839 334.7C315.839 334.41 316.119 334.22 316.669 334.14C316.863 334.396 317.077 334.637 317.309 334.86L317.449 335H317.339C317.117 335.118 316.871 335.186 316.619 335.2ZM316.619 334.3C316.309 334.3 315.959 334.46 315.959 334.7C315.959 334.75 315.972 334.799 315.999 334.842C316.025 334.884 316.064 334.918 316.109 334.94C316.258 335.016 316.423 335.053 316.589 335.05C316.786 335.043 316.979 334.999 317.159 334.92C316.976 334.724 316.806 334.517 316.649 334.3H316.619ZM316.799 333.86C316.714 333.739 316.662 333.597 316.649 333.45C316.644 333.39 316.653 333.33 316.676 333.274C316.699 333.218 316.734 333.169 316.779 333.13C316.818 333.091 316.865 333.06 316.917 333.041C316.969 333.022 317.024 333.015 317.079 333.02C317.131 333.015 317.182 333.021 317.231 333.038C317.279 333.056 317.323 333.083 317.359 333.12C317.401 333.15 317.434 333.191 317.455 333.239C317.476 333.286 317.484 333.338 317.479 333.39C317.479 333.683 317.279 333.853 316.879 333.9L316.799 333.86ZM317.049 333.12C316.976 333.116 316.904 333.141 316.849 333.19C316.821 333.216 316.798 333.249 316.784 333.285C316.771 333.322 316.765 333.361 316.769 333.4C316.782 333.504 316.82 333.603 316.879 333.69C317.249 333.63 317.299 333.47 317.299 333.34C317.304 333.31 317.299 333.281 317.287 333.254C317.274 333.227 317.254 333.205 317.229 333.19C317.211 333.168 317.188 333.15 317.162 333.138C317.136 333.126 317.108 333.12 317.079 333.12H317.049Z" fill="#13110C"/>
<path d="M324.38 332.7C324.627 332.69 324.869 332.772 325.06 332.93C325.145 333.011 325.213 333.109 325.257 333.217C325.302 333.326 325.323 333.443 325.32 333.56C325.326 333.679 325.304 333.797 325.258 333.906C325.211 334.015 325.14 334.113 325.05 334.19C324.836 334.354 324.568 334.433 324.3 334.41H322.64V335.47H322.18V332.7H324.38ZM324.31 334C324.67 334 324.84 333.85 324.84 333.57C324.84 333.29 324.65 333.1 324.28 333.1H322.64V334H324.31Z" fill="#13110C"/>
<path d="M322.722 335.55H322.102V332.62H324.382C324.514 332.612 324.646 332.629 324.772 332.672C324.897 332.715 325.013 332.782 325.112 332.87C325.203 332.96 325.275 333.068 325.323 333.186C325.371 333.305 325.394 333.432 325.392 333.56C325.399 333.69 325.377 333.819 325.327 333.939C325.276 334.059 325.199 334.165 325.102 334.25C324.874 334.426 324.588 334.508 324.302 334.48H322.722V335.55ZM322.262 335.4H322.562V334.33H324.302C324.552 334.354 324.802 334.283 325.002 334.13C325.083 334.061 325.147 333.973 325.189 333.874C325.231 333.775 325.249 333.667 325.242 333.56C325.244 333.344 325.162 333.136 325.012 332.98C324.835 332.834 324.61 332.759 324.382 332.77H322.262V335.4ZM324.262 334.08H322.562V333H324.282C324.692 333 324.922 333.2 324.922 333.55C324.922 333.9 324.822 334.08 324.312 334.08H324.262ZM322.672 333.92H324.262C324.672 333.92 324.722 333.73 324.722 333.57C324.722 333.41 324.562 333.18 324.232 333.18H322.722L322.672 333.92Z" fill="#13110C"/>
<path d="M329.592 335.48H326.672V332.69H329.482V333.1H327.132V333.82H328.772V334.24H327.132V335.07H329.592V335.48Z" fill="#13110C"/>
<path d="M329.664 335.55H326.594V332.62H329.594V333.18H327.214V333.74H328.844V334.32H327.214V335H329.664V335.55ZM326.744 335.4H329.514V335.15H327.054V334.15H328.694V333.9H327.054V333H329.454V332.74H326.744V335.4Z" fill="#13110C"/>
<path d="M334.259 335.47H333.729L332.979 334.41H331.569V335.47H331.109V332.7H333.309C333.557 332.69 333.799 332.772 333.989 332.93C334.074 333.013 334.141 333.113 334.186 333.223C334.23 333.333 334.252 333.451 334.249 333.57C334.256 333.78 334.181 333.984 334.039 334.14C333.902 334.277 333.722 334.365 333.529 334.39L334.259 335.47ZM333.259 334C333.619 334 333.789 333.85 333.789 333.57C333.789 333.29 333.599 333.1 333.209 333.1H331.569V334H333.259Z" fill="#13110C"/>
<path d="M334.451 335.55H333.731L333.011 334.55H331.651V335.62H331.031V332.62H333.311C333.443 332.612 333.576 332.629 333.701 332.672C333.827 332.715 333.942 332.782 334.041 332.87C334.134 332.961 334.206 333.071 334.255 333.191C334.303 333.312 334.325 333.441 334.321 333.57C334.322 333.799 334.245 334.022 334.101 334.2C333.975 334.318 333.819 334.401 333.651 334.44L334.451 335.55ZM333.801 335.4H334.161L333.431 334.33H333.551C333.732 334.316 333.902 334.238 334.031 334.11C334.155 333.966 334.219 333.78 334.211 333.59C334.214 333.482 334.195 333.374 334.156 333.272C334.116 333.171 334.057 333.079 333.981 333C333.806 332.853 333.58 332.777 333.351 332.79H331.181V335.4H331.451V334.33H332.981L333.801 335.4ZM333.281 334.08H331.451V333H333.151C333.701 333 333.811 333.3 333.811 333.55C333.811 333.8 333.751 334.08 333.241 334.08H333.281ZM331.691 333.92H333.281C333.681 333.92 333.741 333.73 333.741 333.57C333.741 333.41 333.681 333.18 333.231 333.18H331.651L331.691 333.92Z" fill="#13110C"/>
<path d="M338.62 333.1H336.28V333.82H337.91V334.24H336.28V335.48H335.82V332.7H338.62V333.1Z" fill="#13110C"/>
<path d="M336.352 335.56H335.742V332.62H338.692V333.18H336.352V333.75H337.982V334.32H336.352V335.56ZM335.902 335.4H336.192V334.16H337.832V333.9H336.192V333H338.542V332.74H335.902V335.4Z" fill="#13110C"/>
<path d="M343.446 334.08C343.451 334.295 343.402 334.508 343.304 334.7C343.206 334.892 343.063 335.057 342.886 335.18C342.535 335.441 342.104 335.572 341.666 335.55C341.23 335.563 340.802 335.433 340.446 335.18C340.278 335.052 340.142 334.887 340.049 334.698C339.955 334.509 339.906 334.301 339.906 334.09C339.906 333.879 339.955 333.671 340.049 333.482C340.142 333.293 340.278 333.128 340.446 333C340.804 332.745 341.237 332.615 341.676 332.63C342.112 332.617 342.541 332.747 342.896 333C343.071 333.125 343.213 333.29 343.311 333.482C343.408 333.673 343.458 333.885 343.456 334.1M342.976 334.1C342.975 333.944 342.937 333.79 342.866 333.651C342.795 333.513 342.692 333.392 342.566 333.3C342.301 333.131 341.991 333.044 341.676 333.05C341.318 333.029 340.964 333.135 340.676 333.35C340.56 333.437 340.467 333.55 340.404 333.681C340.342 333.812 340.312 333.955 340.316 334.1C340.31 334.246 340.338 334.39 340.399 334.523C340.46 334.655 340.551 334.771 340.666 334.86C340.956 335.07 341.309 335.172 341.666 335.15C342.004 335.166 342.336 335.063 342.606 334.86C342.721 334.77 342.814 334.655 342.876 334.523C342.939 334.391 342.969 334.246 342.966 334.1" fill="#13110C"/>
<path d="M341.644 335.62C341.187 335.647 340.736 335.516 340.364 335.25C340.178 335.117 340.027 334.941 339.925 334.738C339.822 334.534 339.77 334.308 339.774 334.08C339.769 333.852 339.822 333.626 339.927 333.424C340.031 333.221 340.185 333.048 340.374 332.92C340.74 332.649 341.188 332.511 341.644 332.53C342.096 332.514 342.54 332.651 342.904 332.92C343.089 333.051 343.241 333.225 343.345 333.427C343.449 333.629 343.504 333.853 343.504 334.08C343.507 334.309 343.454 334.536 343.35 334.74C343.245 334.944 343.092 335.119 342.904 335.25C342.537 335.512 342.093 335.642 341.644 335.62ZM341.644 332.69C341.22 332.669 340.803 332.796 340.464 333.05C340.299 333.16 340.164 333.309 340.07 333.483C339.976 333.657 339.926 333.852 339.924 334.05C339.926 334.247 339.976 334.44 340.068 334.614C340.16 334.788 340.292 334.937 340.454 335.05C340.799 335.299 341.219 335.422 341.644 335.4C342.062 335.421 342.475 335.297 342.814 335.05C342.981 334.934 343.117 334.779 343.212 334.599C343.306 334.419 343.355 334.218 343.355 334.015C343.355 333.812 343.306 333.611 343.212 333.431C343.117 333.251 342.981 333.096 342.814 332.98C342.469 332.75 342.056 332.648 341.644 332.69ZM341.644 335.21C341.286 335.217 340.935 335.108 340.644 334.9C340.52 334.803 340.422 334.678 340.356 334.535C340.29 334.393 340.258 334.237 340.264 334.08C340.261 333.924 340.295 333.769 340.363 333.629C340.43 333.488 340.53 333.365 340.654 333.27C340.941 333.052 341.294 332.94 341.654 332.95C341.984 332.946 342.307 333.04 342.584 333.22C342.724 333.314 342.837 333.443 342.914 333.593C342.991 333.744 343.029 333.911 343.024 334.08C343.029 334.237 342.998 334.393 342.932 334.535C342.866 334.678 342.767 334.803 342.644 334.9C342.357 335.117 342.003 335.227 341.644 335.21ZM341.644 333.11C341.32 333.095 341.002 333.194 340.744 333.39C340.636 333.469 340.55 333.573 340.492 333.694C340.435 333.814 340.408 333.947 340.414 334.08C340.406 334.214 340.431 334.348 340.486 334.47C340.542 334.592 340.627 334.698 340.734 334.78C340.999 334.968 341.319 335.063 341.644 335.05C341.963 335.067 342.278 334.971 342.534 334.78C342.64 334.697 342.725 334.591 342.782 334.469C342.839 334.348 342.867 334.214 342.864 334.08C342.865 333.935 342.83 333.792 342.764 333.663C342.698 333.535 342.602 333.424 342.484 333.34C342.233 333.181 341.94 333.101 341.644 333.11Z" fill="#13110C"/>
<path d="M348.191 335.47H347.651L346.891 334.41H345.501V335.47H345.031V332.7H347.221C347.472 332.687 347.718 332.769 347.911 332.93C347.994 333.014 348.059 333.114 348.102 333.224C348.145 333.334 348.165 333.451 348.161 333.57C348.171 333.778 348.099 333.982 347.961 334.14C347.822 334.281 347.638 334.369 347.441 334.39L348.191 335.47ZM347.191 334C347.541 334 347.731 333.85 347.731 333.57C347.731 333.29 347.531 333.1 347.141 333.1H345.531V334H347.191Z" fill="#13110C"/>
<path d="M348.327 335.55H347.607L346.887 334.55H345.607V335.62H344.977V332.62H347.247C347.38 332.61 347.515 332.627 347.642 332.67C347.769 332.713 347.886 332.781 347.987 332.87C348.079 332.961 348.152 333.07 348.2 333.191C348.248 333.311 348.271 333.44 348.267 333.57C348.268 333.799 348.19 334.021 348.047 334.2C347.923 334.322 347.767 334.405 347.597 334.44L348.327 335.55ZM347.687 335.4H348.037L347.307 334.33H347.427C347.605 334.316 347.772 334.238 347.897 334.11C348.019 333.965 348.083 333.78 348.077 333.59C348.082 333.481 348.064 333.372 348.024 333.271C347.985 333.169 347.924 333.077 347.847 333C347.672 332.851 347.446 332.776 347.217 332.79H345.107V335.4H345.447V334.33H346.957L347.687 335.4ZM347.157 334.08H345.447V333H347.137C347.717 333 347.797 333.34 347.797 333.55C347.797 333.76 347.687 334.08 347.157 334.08ZM345.577 333.92H347.157C347.617 333.92 347.617 333.66 347.617 333.57C347.617 333.48 347.617 333.18 347.107 333.18H345.577V333.92Z" fill="#13110C"/>
<path d="M353.562 335.48H353.112V333.2H353.102L351.652 335.01L350.222 333.2H350.212V335.48H349.742V332.69H350.312L351.662 334.38L352.992 332.69H353.562V335.48Z" fill="#13110C"/>
<path d="M353.626 335.55H353.026V333.41L351.646 335.14L351.576 335.06L350.276 333.41V335.55H349.656V332.62H350.336L351.636 334.23L352.926 332.6H353.606L353.626 335.55ZM353.176 335.4H353.476V332.77H353.016L351.656 334.5L351.586 334.43L350.256 332.77H349.816V335.4H350.116V333.13H350.236L351.616 334.86L353.026 333.1H353.136V335.4H353.176Z" fill="#13110C"/>
<path d="M358.452 335.48H357.952L357.622 334.86H355.752L355.432 335.48H354.922L356.412 332.7H356.992L358.452 335.48ZM357.452 334.48L356.742 333.14L356.012 334.48H357.452Z" fill="#13110C"/>
<path d="M358.557 335.56H357.887L357.577 334.98H355.797L355.477 335.6H354.797L354.857 335.48L356.357 332.66H357.037L358.557 335.56ZM357.977 335.4H358.297L356.917 332.77H356.447L355.057 335.4H355.387L355.697 334.78H357.697L357.977 335.4ZM357.517 334.52H355.817L355.877 334.41L356.677 332.93L357.517 334.52ZM356.077 334.37H357.257L356.677 333.26L356.077 334.37Z" fill="#13110C"/>
<path d="M362.949 335.48H362.379L360.249 333.19V335.48H359.789V332.69H360.369L362.489 334.98V332.69H362.949V335.48Z" fill="#13110C"/>
<path d="M363.017 335.55H362.337L360.337 333.41V335.57H359.727V332.62H360.447L362.447 334.76V332.62H363.057L363.017 335.55ZM362.447 335.4H362.907V332.77H362.597V335.17L360.367 332.77H359.897V335.4H360.207V333L362.447 335.4Z" fill="#13110C"/>
<path d="M367.947 333.33L367.537 333.48C367.383 333.32 367.198 333.195 366.993 333.112C366.788 333.03 366.568 332.991 366.347 333C366.009 332.991 365.678 333.097 365.407 333.3C365.29 333.386 365.196 333.5 365.132 333.63C365.067 333.76 365.035 333.904 365.037 334.05C365.034 334.195 365.064 334.34 365.127 334.472C365.189 334.604 365.282 334.72 365.397 334.81C365.687 335.018 366.04 335.12 366.397 335.1C366.612 335.111 366.827 335.075 367.027 334.996C367.227 334.917 367.408 334.795 367.557 334.64L367.947 334.87C367.765 335.085 367.535 335.257 367.277 335.37C366.986 335.48 366.677 335.531 366.367 335.52C365.926 335.541 365.492 335.41 365.137 335.15C364.961 335.026 364.818 334.861 364.722 334.669C364.626 334.477 364.58 334.264 364.587 334.05C364.583 333.833 364.633 333.619 364.73 333.426C364.828 333.232 364.971 333.066 365.147 332.94C365.506 332.696 365.933 332.571 366.367 332.58C366.672 332.561 366.977 332.617 367.255 332.743C367.534 332.868 367.778 333.059 367.967 333.3" fill="#13110C"/>
<path d="M366.353 335.62C365.895 335.643 365.443 335.509 365.073 335.24C364.887 335.11 364.737 334.936 364.636 334.733C364.534 334.531 364.485 334.306 364.493 334.08C364.489 333.851 364.541 333.626 364.644 333.422C364.747 333.218 364.897 333.042 365.083 332.91C365.455 332.652 365.9 332.519 366.353 332.53C366.669 332.514 366.985 332.574 367.273 332.705C367.562 332.835 367.815 333.032 368.013 333.28L368.073 333.36L367.523 333.57C367.377 333.42 367.201 333.303 367.006 333.227C366.811 333.151 366.602 333.118 366.393 333.13C366.072 333.121 365.758 333.224 365.503 333.42C365.394 333.498 365.306 333.602 365.247 333.722C365.188 333.843 365.159 333.976 365.163 334.11C365.159 334.244 365.187 334.377 365.245 334.499C365.302 334.62 365.387 334.727 365.493 334.81C365.761 334.999 366.085 335.094 366.413 335.08C366.618 335.093 366.824 335.062 367.016 334.988C367.207 334.913 367.38 334.798 367.523 334.65V334.6L368.043 334.91L367.983 334.98C367.794 335.205 367.554 335.384 367.283 335.5C366.985 335.605 366.668 335.645 366.353 335.62ZM366.353 332.69C365.932 332.675 365.518 332.798 365.173 333.04C365.012 333.153 364.88 333.303 364.788 333.476C364.696 333.65 364.646 333.843 364.643 334.04C364.644 334.237 364.693 334.431 364.785 334.605C364.877 334.779 365.01 334.928 365.173 335.04C365.515 335.287 365.931 335.41 366.353 335.39C366.653 335.405 366.953 335.357 367.233 335.25C367.453 335.155 367.65 335.015 367.813 334.84L367.563 334.69C367.404 334.839 367.217 334.955 367.013 335.031C366.808 335.107 366.591 335.14 366.373 335.13C366.015 335.136 365.664 335.028 365.373 334.82C365.248 334.723 365.147 334.599 365.08 334.457C365.012 334.314 364.979 334.157 364.983 334C364.981 333.843 365.017 333.688 365.086 333.547C365.156 333.406 365.257 333.284 365.383 333.19C365.671 332.974 366.023 332.862 366.383 332.87C366.604 332.859 366.825 332.892 367.032 332.968C367.24 333.043 367.431 333.159 367.593 333.31L367.853 333.21C367.658 333.016 367.422 332.869 367.162 332.779C366.903 332.689 366.626 332.658 366.353 332.69Z" fill="#13110C"/>
<path d="M372.467 335.48H369.547V332.69H372.357V333.1H370.017V333.82H371.637V334.24H370.017V335.07H372.467V335.48Z" fill="#13110C"/>
<path d="M372.543 335.55H369.453V332.62H372.453V333.18H370.113V333.74H371.733V334.32H370.113V335H372.563L372.543 335.55ZM369.623 335.4H372.393V335.15H369.943V334.15H371.563V333.9H369.943V333H372.283V332.74H369.623V335.4Z" fill="#13110C"/>
<path d="M309.89 288.92H308.75V343.69H309.89V288.92Z" fill="#13110C"/>
<path d="M380.999 315.27H309.789V316.6H380.999V315.27Z" fill="#13110C"/>
</g>
<path d="M268.695 320V312H270.387V318.605H273.816V320H268.695ZM277.616 320.117C277.009 320.117 276.485 319.988 276.042 319.73C275.602 319.47 275.262 319.108 275.022 318.645C274.783 318.178 274.663 317.638 274.663 317.023C274.663 316.404 274.783 315.862 275.022 315.398C275.262 314.932 275.602 314.57 276.042 314.312C276.485 314.052 277.009 313.922 277.616 313.922C278.223 313.922 278.746 314.052 279.187 314.312C279.629 314.57 279.97 314.932 280.21 315.398C280.45 315.862 280.569 316.404 280.569 317.023C280.569 317.638 280.45 318.178 280.21 318.645C279.97 319.108 279.629 319.47 279.187 319.73C278.746 319.988 278.223 320.117 277.616 320.117ZM277.624 318.828C277.9 318.828 278.131 318.75 278.315 318.594C278.5 318.435 278.64 318.219 278.733 317.945C278.83 317.672 278.878 317.361 278.878 317.012C278.878 316.663 278.83 316.352 278.733 316.078C278.64 315.805 278.5 315.589 278.315 315.43C278.131 315.271 277.9 315.191 277.624 315.191C277.345 315.191 277.111 315.271 276.921 315.43C276.733 315.589 276.591 315.805 276.495 316.078C276.401 316.352 276.354 316.663 276.354 317.012C276.354 317.361 276.401 317.672 276.495 317.945C276.591 318.219 276.733 318.435 276.921 318.594C277.111 318.75 277.345 318.828 277.624 318.828ZM284.354 322.375C283.815 322.375 283.353 322.301 282.968 322.152C282.585 322.007 282.28 321.807 282.054 321.555C281.827 321.302 281.68 321.018 281.612 320.703L283.151 320.496C283.198 320.616 283.272 320.728 283.374 320.832C283.476 320.936 283.61 321.02 283.776 321.082C283.946 321.147 284.151 321.18 284.394 321.18C284.756 321.18 285.054 321.091 285.288 320.914C285.525 320.74 285.644 320.447 285.644 320.035V318.937H285.573C285.5 319.104 285.391 319.262 285.245 319.41C285.099 319.559 284.912 319.68 284.683 319.773C284.453 319.867 284.18 319.914 283.862 319.914C283.412 319.914 283.002 319.81 282.632 319.602C282.265 319.391 281.972 319.069 281.753 318.637C281.537 318.202 281.429 317.652 281.429 316.988C281.429 316.309 281.539 315.741 281.761 315.285C281.982 314.829 282.276 314.488 282.644 314.262C283.013 314.035 283.418 313.922 283.858 313.922C284.194 313.922 284.476 313.979 284.702 314.094C284.929 314.206 285.111 314.346 285.249 314.516C285.39 314.682 285.498 314.846 285.573 315.008H285.636V314H287.288V320.059C287.288 320.569 287.163 320.996 286.913 321.34C286.663 321.684 286.317 321.941 285.874 322.113C285.434 322.288 284.927 322.375 284.354 322.375ZM284.39 318.664C284.658 318.664 284.884 318.598 285.069 318.465C285.257 318.329 285.4 318.137 285.499 317.887C285.601 317.634 285.651 317.332 285.651 316.98C285.651 316.629 285.602 316.324 285.503 316.066C285.404 315.806 285.261 315.604 285.073 315.461C284.886 315.318 284.658 315.246 284.39 315.246C284.116 315.246 283.886 315.32 283.698 315.469C283.511 315.615 283.369 315.818 283.272 316.078C283.176 316.339 283.128 316.639 283.128 316.98C283.128 317.327 283.176 317.626 283.272 317.879C283.371 318.129 283.513 318.323 283.698 318.461C283.886 318.596 284.116 318.664 284.39 318.664ZM291.323 320.117C290.716 320.117 290.192 319.988 289.749 319.73C289.309 319.47 288.969 319.108 288.729 318.645C288.49 318.178 288.37 317.638 288.37 317.023C288.37 316.404 288.49 315.862 288.729 315.398C288.969 314.932 289.309 314.57 289.749 314.312C290.192 314.052 290.716 313.922 291.323 313.922C291.93 313.922 292.453 314.052 292.894 314.312C293.336 314.57 293.677 314.932 293.917 315.398C294.157 315.862 294.276 316.404 294.276 317.023C294.276 317.638 294.157 318.178 293.917 318.645C293.677 319.108 293.336 319.47 292.894 319.73C292.453 319.988 291.93 320.117 291.323 320.117ZM291.331 318.828C291.607 318.828 291.838 318.75 292.022 318.594C292.207 318.435 292.347 318.219 292.44 317.945C292.537 317.672 292.585 317.361 292.585 317.012C292.585 316.663 292.537 316.352 292.44 316.078C292.347 315.805 292.207 315.589 292.022 315.43C291.838 315.271 291.607 315.191 291.331 315.191C291.052 315.191 290.818 315.271 290.628 315.43C290.44 315.589 290.299 315.805 290.202 316.078C290.108 316.352 290.062 316.663 290.062 317.012C290.062 317.361 290.108 317.672 290.202 317.945C290.299 318.219 290.44 318.435 290.628 318.594C290.818 318.75 291.052 318.828 291.331 318.828Z" fill="#13110C"/>
<path d="M334.324 299.71C334.278 299.252 334.083 298.896 333.739 298.642C333.394 298.388 332.926 298.261 332.335 298.261C331.934 298.261 331.595 298.318 331.318 298.432C331.042 298.542 330.83 298.695 330.682 298.892C330.538 299.089 330.466 299.312 330.466 299.562C330.458 299.771 330.502 299.953 330.597 300.108C330.695 300.263 330.83 300.398 331 300.511C331.17 300.621 331.367 300.718 331.591 300.801C331.814 300.881 332.053 300.949 332.307 301.006L333.352 301.256C333.86 301.369 334.326 301.521 334.75 301.71C335.174 301.9 335.542 302.133 335.852 302.409C336.163 302.686 336.403 303.011 336.574 303.386C336.748 303.761 336.837 304.191 336.841 304.676C336.837 305.388 336.655 306.006 336.295 306.528C335.939 307.047 335.424 307.451 334.75 307.739C334.08 308.023 333.271 308.165 332.324 308.165C331.384 308.165 330.566 308.021 329.869 307.733C329.176 307.445 328.634 307.019 328.244 306.455C327.858 305.886 327.655 305.184 327.636 304.347H330.017C330.044 304.737 330.155 305.062 330.352 305.324C330.553 305.581 330.82 305.777 331.153 305.909C331.491 306.038 331.871 306.102 332.295 306.102C332.712 306.102 333.074 306.042 333.381 305.92C333.691 305.799 333.932 305.631 334.102 305.415C334.273 305.199 334.358 304.951 334.358 304.67C334.358 304.409 334.28 304.189 334.125 304.011C333.973 303.833 333.75 303.682 333.455 303.557C333.163 303.432 332.805 303.318 332.381 303.216L331.114 302.898C330.133 302.659 329.358 302.286 328.79 301.778C328.222 301.271 327.939 300.587 327.943 299.727C327.939 299.023 328.127 298.407 328.506 297.881C328.888 297.354 329.413 296.943 330.08 296.648C330.746 296.352 331.504 296.205 332.352 296.205C333.216 296.205 333.97 296.352 334.614 296.648C335.261 296.943 335.765 297.354 336.125 297.881C336.485 298.407 336.67 299.017 336.682 299.71H334.324ZM338.45 308V299.273H340.871V308H338.45ZM339.666 298.148C339.306 298.148 338.998 298.028 338.74 297.79C338.486 297.547 338.359 297.258 338.359 296.92C338.359 296.587 338.486 296.301 338.74 296.062C338.998 295.82 339.306 295.699 339.666 295.699C340.026 295.699 340.333 295.82 340.587 296.062C340.844 296.301 340.973 296.587 340.973 296.92C340.973 297.258 340.844 297.547 340.587 297.79C340.333 298.028 340.026 298.148 339.666 298.148ZM342.764 308V306.557L347.037 301.267V301.205H342.912V299.273H349.952V300.847L345.94 306.006V306.068H350.099V308H342.764ZM355.678 308.17C354.78 308.17 354.007 307.989 353.359 307.625C352.715 307.258 352.219 306.739 351.871 306.068C351.522 305.394 351.348 304.597 351.348 303.676C351.348 302.778 351.522 301.991 351.871 301.312C352.219 300.634 352.71 300.106 353.342 299.727C353.979 299.348 354.725 299.159 355.581 299.159C356.157 299.159 356.693 299.252 357.189 299.438C357.689 299.619 358.125 299.894 358.496 300.261C358.871 300.629 359.162 301.091 359.371 301.648C359.579 302.201 359.683 302.848 359.683 303.591V304.256H352.314V302.756H357.405C357.405 302.407 357.329 302.098 357.178 301.83C357.026 301.561 356.816 301.35 356.547 301.199C356.282 301.044 355.973 300.966 355.621 300.966C355.253 300.966 354.928 301.051 354.643 301.222C354.363 301.388 354.143 301.614 353.984 301.898C353.825 302.178 353.744 302.491 353.74 302.835V304.261C353.74 304.693 353.82 305.066 353.979 305.381C354.142 305.695 354.371 305.938 354.666 306.108C354.962 306.278 355.312 306.364 355.717 306.364C355.986 306.364 356.232 306.326 356.456 306.25C356.679 306.174 356.871 306.061 357.03 305.909C357.189 305.758 357.31 305.572 357.393 305.352L359.632 305.5C359.518 306.038 359.286 306.508 358.933 306.909C358.585 307.307 358.134 307.617 357.581 307.841C357.032 308.061 356.397 308.17 355.678 308.17Z" fill="#13110C"/>
</g>
<defs>
<linearGradient id="paint0_linear_1304_3066" x1="265.163" y1="364.97" x2="364.863" y2="265.27" gradientUnits="userSpaceOnUse">
<stop stop-color="white"/>
<stop offset="0.51" stop-color="#888584"/>
<stop offset="0.59" stop-color="#8C8988"/>
<stop offset="0.67" stop-color="#979494"/>
<stop offset="0.75" stop-color="#AAA7A7"/>
<stop offset="0.82" stop-color="#C4C2C3"/>
<stop offset="0.9" stop-color="#E5E5E6"/>
<stop offset="0.92" stop-color="#F1F1F3"/>
</linearGradient>
<clipPath id="clip0_1304_3066">
<rect width="167.35" height="90.76" fill="white" transform="translate(231 270)"/>
</clipPath>
</defs>
</svg>
