<svg width="1024" height="34" viewBox="0 0 1024 34" fill="none" xmlns="http://www.w3.org/2000/svg">
<g clip-path="url(#clip0_973_1564)">
<rect y="2" width="1024" height="30" fill="#0A0907"/>
<path d="M39.2515 10.1514H50.4656C50.4656 10.1514 52.2112 8.51399 49.7322 6.12839C48.5807 5.02061 46.8498 5.15666 46.8498 5.15666H34.0625L39.2515 10.1514Z" fill="white"/>
<path d="M83.8925 10.1514H52.0625C52.0625 10.1514 53.8643 5.15214 59.4859 5.15214H78.3691C78.3691 5.15214 83.7115 5.01511 84.0341 8.40039C84.1014 8.99135 84.0486 9.59472 83.8807 10.1514" fill="white"/>
<path d="M85.0625 10.1514C85.0625 10.0714 87.891 5.15137 91.9224 5.15137H118.062L110.046 10.1113L85.0625 10.1514Z" fill="white"/>
<path d="M50.0625 13.2106L47.5683 22.7609C47.5683 22.7609 46.114 28.2313 40.7381 28.1505C36.214 28.0858 17.0625 28.1505 17.0625 28.1505L25.1475 22.6801H36.544C40.4388 22.6801 40.5194 21.0309 40.5194 21.0309L42.4686 13.1514L50.0625 13.2106Z" fill="white"/>
<path d="M51.7176 13.1514H59.5316L57.5975 20.1835C57.5975 20.1835 56.8238 22.8593 59.0249 22.8593H71.2642C71.2642 22.8593 72.8656 23.0551 73.6122 20.3412C74.3588 17.6274 75.4381 13.4994 75.4381 13.4994H83.0625L80.3276 23.365C80.3276 23.365 78.6411 28.151 73.7515 28.151H53.0832C53.0832 28.151 47.7217 28.3032 49.3812 22.4785C50.2709 19.429 51.0456 16.3156 51.7022 13.1514" fill="white"/>
<path d="M84.7951 13.1514H92.2666L90.4858 19.912C90.4858 19.912 89.6932 22.6918 92.0483 22.6918H103.786C103.786 22.6918 105.482 22.7363 106.057 20.946L106.849 18.6888H100.937L95.7668 13.1569H113.249C113.249 13.1569 115.634 13.0013 114.934 15.9368L113.061 23.2255C113.061 23.2255 111.939 28.1514 105.482 28.1514H86.5184C86.5184 28.1514 81.0728 27.7956 82.2217 22.942" fill="white"/>
<path d="M198.019 26.7197C195.03 21.2969 192.05 15.8959 189.079 10.517C189.004 10.538 188.991 10.6065 188.96 10.6565C188.527 11.3357 188.097 12.0183 187.67 12.7045C187.603 12.8098 187.575 12.8309 187.497 12.7045C186.923 11.7937 186.343 10.8855 185.758 9.97995C185.728 9.94302 185.711 9.89643 185.711 9.84832C185.711 9.80021 185.728 9.75363 185.758 9.7167C187.091 7.52124 188.424 5.32577 189.755 3.13031C189.861 2.95656 189.861 2.95656 189.959 3.13031L203.5 27.3489L205.048 30.1287C205.075 30.1765 205.1 30.2257 205.123 30.2761C205.063 30.3008 204.998 30.3081 204.934 30.2972H174.176C174.044 30.3104 174.039 30.263 174.101 30.1577C174.388 29.6663 174.673 29.1723 174.955 28.6756L182.494 15.5844L184.504 12.0912L184.597 11.9438L191.641 24.5795H183.619C183.877 24.2057 184.086 23.8688 184.311 23.5265L185.921 21.1021C185.954 21.0494 185.988 21.0073 185.952 20.9336C185.516 20.1123 185.1 19.2751 184.677 18.4406C184.677 18.4406 184.662 18.4249 184.636 18.4012L179.754 26.7724L198.019 26.7197Z" fill="white"/>
<path d="M283.314 10.1514H294.528C294.528 10.1514 296.274 8.51399 293.795 6.12839C292.643 5.02061 290.912 5.15666 290.912 5.15666H278.125L283.314 10.1514Z" fill="white"/>
<path d="M327.955 10.1514H296.125C296.125 10.1514 297.927 5.15214 303.548 5.15214H322.432C322.432 5.15214 327.774 5.01511 328.097 8.40039C328.164 8.99135 328.111 9.59472 327.943 10.1514" fill="white"/>
<path d="M329.125 10.1514C329.125 10.0714 331.954 5.15137 335.985 5.15137H362.125L354.109 10.1113L329.125 10.1514Z" fill="white"/>
<path d="M294.125 13.2106L291.631 22.7609C291.631 22.7609 290.176 28.2313 284.801 28.1505C280.276 28.0858 261.125 28.1505 261.125 28.1505L269.21 22.6801H280.607C284.501 22.6801 284.582 21.0309 284.582 21.0309L286.531 13.1514L294.125 13.2106Z" fill="white"/>
<path d="M295.78 13.1514H303.594L301.66 20.1835C301.66 20.1835 300.886 22.8593 303.087 22.8593H315.327C315.327 22.8593 316.928 23.0551 317.675 20.3412C318.421 17.6274 319.501 13.4994 319.501 13.4994H327.125L324.39 23.365C324.39 23.365 322.704 28.151 317.814 28.151H297.146C297.146 28.151 291.784 28.3032 293.444 22.4785C294.333 19.429 295.108 16.3156 295.765 13.1514" fill="white"/>
<path d="M328.858 13.1514H336.329L334.548 19.912C334.548 19.912 333.756 22.6918 336.111 22.6918H347.848C347.848 22.6918 349.545 22.7363 350.119 20.946L350.912 18.6888H344.999L339.829 13.1569H357.311C357.311 13.1569 359.697 13.0013 358.996 15.9368L357.124 23.2255C357.124 23.2255 356.001 28.1514 349.545 28.1514H330.581C330.581 28.1514 325.135 27.7956 326.284 22.942" fill="white"/>
<path d="M442.074 26.7197C439.084 21.2969 436.104 15.8959 433.134 10.517C433.059 10.538 433.046 10.6065 433.015 10.6565C432.581 11.3357 432.151 12.0183 431.725 12.7045C431.658 12.8098 431.629 12.8309 431.552 12.7045C430.977 11.7937 430.398 10.8855 429.813 9.97995C429.783 9.94302 429.766 9.89643 429.766 9.84832C429.766 9.80021 429.783 9.75363 429.813 9.7167C431.146 7.52124 432.478 5.32577 433.81 3.13031C433.915 2.95656 433.915 2.95656 434.013 3.13031L447.554 27.3489L449.102 30.1287C449.13 30.1765 449.155 30.2257 449.177 30.2761C449.118 30.3008 449.052 30.3081 448.989 30.2972H418.23C418.099 30.3104 418.094 30.263 418.156 30.1577C418.443 29.6663 418.727 29.1723 419.01 28.6756L426.549 15.5844L428.559 12.0912L428.652 11.9438L435.696 24.5795H427.674C427.932 24.2057 428.141 23.8688 428.365 23.5265L429.975 21.1021C430.009 21.0494 430.042 21.0073 430.006 20.9336C429.57 20.1123 429.155 19.2751 428.732 18.4406C428.732 18.4406 428.716 18.4249 428.69 18.4012L423.809 26.7724L442.074 26.7197Z" fill="white"/>
<path d="M527.369 10.1514H538.583C538.583 10.1514 540.328 8.51399 537.849 6.12839C536.698 5.02061 534.967 5.15666 534.967 5.15666H522.18L527.369 10.1514Z" fill="white"/>
<path d="M572.01 10.1514H540.18C540.18 10.1514 541.981 5.15214 547.603 5.15214H566.486C566.486 5.15214 571.829 5.01511 572.151 8.40039C572.219 8.99135 572.166 9.59472 571.998 10.1514" fill="white"/>
<path d="M573.18 10.1514C573.18 10.0714 576.008 5.15137 580.04 5.15137H606.18L598.163 10.1113L573.18 10.1514Z" fill="white"/>
<path d="M538.18 13.2106L535.686 22.7609C535.686 22.7609 534.231 28.2313 528.855 28.1505C524.331 28.0858 505.18 28.1505 505.18 28.1505L513.265 22.6801H524.661C528.556 22.6801 528.637 21.0309 528.637 21.0309L530.586 13.1514L538.18 13.2106Z" fill="white"/>
<path d="M539.835 13.1514H547.649L545.715 20.1835C545.715 20.1835 544.941 22.8593 547.142 22.8593H559.381C559.381 22.8593 560.983 23.0551 561.729 20.3412C562.476 17.6274 563.555 13.4994 563.555 13.4994H571.18L568.445 23.365C568.445 23.365 566.758 28.151 561.869 28.151H541.2C541.2 28.151 535.839 28.3032 537.498 22.4785C538.388 19.429 539.163 16.3156 539.819 13.1514" fill="white"/>
<path d="M572.912 13.1514H580.384L578.603 19.912C578.603 19.912 577.81 22.6918 580.166 22.6918H591.903C591.903 22.6918 593.6 22.7363 594.174 20.946L594.967 18.6888H589.054L583.884 13.1569H601.366C601.366 13.1569 603.752 13.0013 603.051 15.9368L601.178 23.2255C601.178 23.2255 600.056 28.1514 593.6 28.1514H574.636C574.636 28.1514 569.19 27.7956 570.339 22.942" fill="white"/>
<path d="M686.136 26.7197C683.147 21.2969 680.167 15.8959 677.196 10.517C677.121 10.538 677.108 10.6065 677.077 10.6565C676.644 11.3357 676.214 12.0183 675.787 12.7045C675.72 12.8098 675.692 12.8309 675.614 12.7045C675.04 11.7937 674.46 10.8855 673.875 9.97995C673.845 9.94302 673.829 9.89643 673.829 9.84832C673.829 9.80021 673.845 9.75363 673.875 9.7167C675.208 7.52124 676.541 5.32577 677.872 3.13031C677.978 2.95656 677.978 2.95656 678.076 3.13031L691.617 27.3489L693.165 30.1287C693.192 30.1765 693.217 30.2257 693.24 30.2761C693.18 30.3008 693.115 30.3081 693.051 30.2972H662.293C662.161 30.3104 662.156 30.263 662.218 30.1577C662.505 29.6663 662.79 29.1723 663.072 28.6756L670.611 15.5844L672.621 12.0912L672.714 11.9438L679.758 24.5795H671.736C671.994 24.2057 672.203 23.8688 672.428 23.5265L674.038 21.1021C674.071 21.0494 674.105 21.0073 674.069 20.9336C673.633 20.1123 673.217 19.2751 672.794 18.4406C672.794 18.4406 672.779 18.4249 672.753 18.4012L667.871 26.7724L686.136 26.7197Z" fill="white"/>
<path d="M771.431 10.1514H782.645C782.645 10.1514 784.391 8.51399 781.912 6.12839C780.76 5.02061 779.029 5.15666 779.029 5.15666H766.242L771.431 10.1514Z" fill="white"/>
<path d="M816.072 10.1514H784.242C784.242 10.1514 786.044 5.15214 791.666 5.15214H810.549C810.549 5.15214 815.891 5.01511 816.214 8.40039C816.281 8.99135 816.228 9.59472 816.06 10.1514" fill="white"/>
<path d="M817.242 10.1514C817.242 10.0714 820.071 5.15137 824.102 5.15137H850.242L842.226 10.1113L817.242 10.1514Z" fill="white"/>
<path d="M782.242 13.2106L779.748 22.7609C779.748 22.7609 778.294 28.2313 772.918 28.1505C768.394 28.0858 749.242 28.1505 749.242 28.1505L757.327 22.6801H768.724C772.618 22.6801 772.699 21.0309 772.699 21.0309L774.648 13.1514L782.242 13.2106Z" fill="white"/>
<path d="M783.897 13.1514H791.711L789.777 20.1835C789.777 20.1835 789.003 22.8593 791.205 22.8593H803.444C803.444 22.8593 805.045 23.0551 805.792 20.3412C806.538 17.6274 807.618 13.4994 807.618 13.4994H815.242L812.507 23.365C812.507 23.365 810.821 28.151 805.931 28.151H785.263C785.263 28.151 779.901 28.3032 781.561 22.4785C782.451 19.429 783.225 16.3156 783.882 13.1514" fill="white"/>
<path d="M816.975 13.1514H824.446L822.666 19.912C822.666 19.912 821.873 22.6918 824.228 22.6918H835.966C835.966 22.6918 837.662 22.7363 838.236 20.946L839.029 18.6888H833.116L827.946 13.1569H845.428C845.428 13.1569 847.814 13.0013 847.113 15.9368L845.241 23.2255C845.241 23.2255 844.119 28.1514 837.662 28.1514H818.698C818.698 28.1514 813.253 27.7956 814.401 22.942" fill="white"/>
<path d="M930.199 26.7197C927.209 21.2969 924.229 15.8959 921.259 10.517C921.184 10.538 921.171 10.6065 921.14 10.6565C920.706 11.3357 920.276 12.0183 919.85 12.7045C919.783 12.8098 919.754 12.8309 919.677 12.7045C919.102 11.7937 918.523 10.8855 917.938 9.97995C917.908 9.94302 917.891 9.89643 917.891 9.84832C917.891 9.80021 917.908 9.75363 917.938 9.7167C919.271 7.52124 920.603 5.32577 921.935 3.13031C922.04 2.95656 922.04 2.95656 922.138 3.13031L935.679 27.3489L937.227 30.1287C937.255 30.1765 937.28 30.2257 937.302 30.2761C937.243 30.3008 937.177 30.3081 937.114 30.2972H906.355C906.224 30.3104 906.219 30.263 906.281 30.1577C906.568 29.6663 906.852 29.1723 907.135 28.6756L914.674 15.5844L916.684 12.0912L916.777 11.9438L923.821 24.5795H915.799C916.057 24.2057 916.266 23.8688 916.49 23.5265L918.1 21.1021C918.134 21.0494 918.167 21.0073 918.131 20.9336C917.695 20.1123 917.28 19.2751 916.857 18.4406C916.857 18.4406 916.841 18.4249 916.815 18.4012L911.934 26.7724L930.199 26.7197Z" fill="white"/>
<path d="M1015.49 10.1514H1026.71C1026.71 10.1514 1028.45 8.51399 1025.97 6.12839C1024.82 5.02061 1023.09 5.15666 1023.09 5.15666H1010.3L1015.49 10.1514Z" fill="white"/>
<path d="M1026.3 13.2106L1023.81 22.7609C1023.81 22.7609 1022.36 28.2313 1016.98 28.1505C1012.46 28.0858 993.305 28.1505 993.305 28.1505L1001.39 22.6801H1012.79C1016.68 22.6801 1016.76 21.0309 1016.76 21.0309L1018.71 13.1514L1026.3 13.2106Z" fill="white"/>
<path d="M1027.96 13.1514H1035.77L1033.84 20.1835C1033.84 20.1835 1033.07 22.8593 1035.27 22.8593H1047.51C1047.51 22.8593 1049.11 23.0551 1049.85 20.3412C1050.6 17.6274 1051.68 13.4994 1051.68 13.4994H1059.3L1056.57 23.365C1056.57 23.365 1054.88 28.151 1049.99 28.151H1029.33C1029.33 28.151 1023.96 28.3032 1025.62 22.4785C1026.51 19.429 1027.29 16.3156 1027.94 13.1514" fill="white"/>
<line y1="4.5" x2="1024" y2="4.5" stroke="white" stroke-dasharray="5 5"/>
<line y1="30.5" x2="1024" y2="30.5" stroke="white" stroke-dasharray="5 5"/>
</g>
<defs>
<clipPath id="clip0_973_1564">
<rect width="1024" height="34" fill="white"/>
</clipPath>
</defs>
</svg>
