<svg xmlns="http://www.w3.org/2000/svg" viewBox="0 0 1374.92 159.76"><defs><style>.cls-1{fill:#021814;}.cls-2{fill:#007f3e;}.cls-3{fill:#fff;}</style></defs><g id="Layer_2" data-name="Layer 2"><g id="Layer_1-2" data-name="Layer 1"><polygon class="cls-1" points="3.52 156.76 15.84 79.88 3.52 3 1371.4 3 1359.08 79.88 1371.4 156.76 3.52 156.76"/><path class="cls-2" d="M1367.88,6,1356,79.88l11.84,73.88H7L18.88,79.88,7,6H1367.88m7-6H0L1.11,7,12.8,79.88,1.11,152.81,0,159.76H1374.92l-1.11-6.95-11.69-72.93L1373.81,7,1374.92,0Z"/><path class="cls-3" d="M684.6,151l-.52-2.57h-2.22l-.52,2.57h-2.16l2.3-11.51h3l2.3,11.51Zm-.94-4.69-.69-3.44-.69,3.44Z"/><path class="cls-3" d="M695.74,151h-2.13v-6.48l-1.85,3.95-1.85-3.95V151h-2.12V139.46h2.12l1.85,4,1.85-4h2.13Z"/></g></g></svg>