<svg xmlns="http://www.w3.org/2000/svg" xmlns:xlink="http://www.w3.org/1999/xlink" viewBox="0 0 4023.03 1751.87"><defs><style>.cls-1,.cls-10{fill:none;}.cls-2{fill:#005485;}.cls-3{fill:#008c44;}.cls-4{font-size:13px;stroke:#fff;font-family:MyriadPro-Regular, Myriad Pro;}.cls-4,.cls-6{fill:#fff;}.cls-10,.cls-4{stroke-miterlimit:10;}.cls-5{letter-spacing:-0.01em;}.cls-7{clip-path:url(#clip-path);}.cls-8{fill:#aba79d;}.cls-9{fill:#41281a;}.cls-10{stroke:#0e74ba;stroke-width:0.07px;}</style><clipPath id="clip-path" transform="translate(282.45)"><polygon class="cls-1" points="1229.37 675.79 1228.07 759.93 1211.19 1674.2 1212.52 1746.2 617.55 1746.2 22.58 1746.2 23.91 1674.2 7.03 759.93 5.72 675.79 15.22 670.68 24.73 665.57 34.25 660.47 43.8 655.39 53.29 650.33 62.64 645.04 71.7 639.31 80.29 632.98 88.46 626.08 96.27 618.75 104.04 610.73 111.38 602.33 118.23 593.54 123.82 585.39 128.93 576.92 133.53 568.15 138.92 555.74 143.22 542.91 146.37 529.78 148.15 518.13 149.15 506.38 149.5 494.56 149.35 482.71 148.84 470.86 147.97 457.21 146.82 443.62 145.38 430.07 143.66 416.56 141.67 403.19 139.42 389.86 136.94 376.56 134.26 363.3 131.62 350.99 128.84 338.7 125.97 326.44 123.02 314.2 120.02 301.97 116.98 289.75 113.74 276.72 110.52 263.69 107.32 250.64 104.17 237.59 101.54 226.51 98.9 215.44 96.19 204.39 93.34 193.37 89.78 180.51 86.02 167.7 82.12 154.93 78.16 142.17 370.27 8.07 372.86 19.51 375.48 30.94 378.16 42.35 380.94 53.75 383.83 65.12 386.94 76.66 390.24 88.14 393.8 99.55 397.65 110.84 402.11 122.71 406.93 134.44 412.09 146.04 417.34 156.95 422.99 167.65 429.16 178.03 435.95 187.99 444.38 198.54 453.55 208.49 463.3 217.88 472.17 225.67 481.35 233.08 490.81 240.12 500.34 246.62 510.15 252.68 520.27 258.22 531.72 263.61 543.5 268.24 555.56 272.11 566.76 274.95 578.11 277.15 587.18 278.45 596.3 279.35 604.29 279.82 612.29 280 617.55 279.99 622.8 280 630.81 279.82 638.8 279.35 647.91 278.45 656.99 277.15 668.33 274.95 679.54 272.11 691.59 268.24 703.37 263.61 714.83 258.22 724.94 252.68 734.76 246.62 744.28 240.12 753.75 233.08 762.92 225.67 771.79 217.88 781.54 208.49 790.72 198.54 799.14 187.99 805.93 178.03 812.1 167.65 817.76 156.95 823 146.04 828.17 134.44 832.99 122.71 837.44 110.84 841.29 99.55 844.85 88.14 848.16 76.66 851.26 65.12 854.16 53.75 856.93 42.35 859.61 30.94 862.23 19.51 864.82 8.07 1156.94 142.17 1152.97 154.93 1149.08 167.7 1145.31 180.51 1141.75 193.37 1138.9 204.39 1136.19 215.44 1133.55 226.51 1130.92 237.59 1127.78 250.64 1124.58 263.69 1121.35 276.72 1118.11 289.75 1115.08 301.97 1112.07 314.2 1109.12 326.44 1106.25 338.7 1103.48 350.99 1100.83 363.3 1098.15 376.56 1095.67 389.86 1093.42 403.19 1091.43 416.56 1089.71 430.07 1088.27 443.62 1087.12 457.21 1086.25 470.86 1085.75 482.71 1085.6 494.56 1085.95 506.38 1086.94 518.13 1088.72 529.78 1091.87 542.91 1096.18 555.74 1101.57 568.15 1106.16 576.92 1111.28 585.39 1116.87 593.54 1123.71 602.33 1131.05 610.73 1138.83 618.75 1146.63 626.08 1154.81 632.98 1163.4 639.31 1172.45 645.04 1181.81 650.33 1191.3 655.39 1200.84 660.47 1210.36 665.57 1219.87 670.68 1229.37 675.79"/></clipPath></defs><g id="Layer_2" data-name="Layer 2"><g id="Layer_1-2" data-name="Layer 1"><g id="YS"><polygon class="cls-2" points="2787.96 351.58 2800.22 274.84 2787.96 198.1 4019.71 198.1 4007.44 274.84 4019.71 351.58 2787.96 351.58"/><path class="cls-3" d="M3733.93,200.94l-11.81,73.9,11.81,73.9H2508.83l11.81-73.9-11.81-73.9h1225.1m6.65-5.67H2502.18l1.05,6.56,11.67,73-11.67,73-1.05,6.56h1238.4l-1-6.56-11.67-73,11.67-73,1-6.56Z" transform="translate(282.45)"/><text class="cls-4" transform="translate(2795.84 346.68)"><tspan class="cls-5">Y</tspan><tspan x="6.86" y="0">S</tspan></text></g><g id="YS-2" data-name="YS"><polygon class="cls-2" points="2937.66 982.78 2973.62 907.95 2870.08 692.47 2884.73 684.31 2897.08 677.49 2909.49 670.75 2921.98 664.14 2932.78 658.58 2943.55 653.04 2954.24 647.39 2965.98 640.81 2977.46 633.8 2988.54 626.26 2999.61 617.76 3010.27 608.68 3020.64 599.14 3030.75 589.34 3040.57 579.52 3050.29 569.59 3059.93 559.59 3069.55 549.54 3079.16 539.49 3087.94 530.36 3096.76 521.26 3105.66 512.23 3114.63 503.26 3123.7 494.39 3132.88 485.63 3142.2 477.01 3150.31 469.73 3158.54 462.59 3166.92 455.61 3175.46 448.81 3184.31 442.12 3193.35 435.68 3202.59 429.53 3212.14 423.65 3222.47 417.84 3233 412.43 3243.65 407.46 3254.56 402.81 3265.63 398.51 3278.91 393.87 3292.28 389.79 3305.8 386.3 3319.39 383.47 3333.16 381.35 3347.34 379.96 3361.37 379.23 3375.55 378.99 3389.72 379.07 3403.88 379.31 3417.91 379.07 3432.05 378.99 3446.2 379.23 3460.39 379.96 3474.5 381.35 3488.27 383.47 3501.93 386.31 3515.51 389.83 3528.86 393.91 3541.95 398.48 3553.02 402.77 3563.93 407.42 3574.76 412.48 3585.3 417.89 3595.62 423.7 3604.99 429.48 3614.24 435.63 3623.29 442.07 3632.15 448.77 3640.7 455.57 3649.08 462.56 3657.32 469.7 3665.43 476.98 3674.75 485.61 3683.94 494.37 3693.02 503.24 3701.99 512.21 3710.89 521.25 3719.72 530.35 3728.5 539.48 3747.74 559.59 3757.39 569.6 3767.12 579.54 3776.95 589.37 3787.08 599.2 3797.4 608.68 3808.06 617.76 3819.13 626.26 3830.21 633.8 3841.68 640.81 3853.48 647.42 3864.14 653.06 3874.89 658.58 3885.66 664.13 3898.15 670.73 3910.56 677.47 3922.92 684.3 3937.58 692.47 3834.04 907.95 3870 982.78 2937.66 982.78"/><path class="cls-3" d="M3149.62,381.82l14.08.24,14,.73,14,1.38,13.61,2.09,13.52,2.82,13.4,3.46,13.25,4,13.08,4.57,11,4.26,10.82,4.61,10.65,5,10.44,5.36,10.23,5.76,9.37,5.77,9.17,6.1,9,6.39L3348,451l8.49,6.76,8.33,6.95,8.2,7.1,8.08,7.25,9.28,8.6,9.16,8.73,9,8.85,9,8.94,8.87,9,8.82,9.08,8.77,9.13,9.62,10,9.62,10,9.66,10,9.74,9.95,9.85,9.86,10.16,9.85,10.42,9.58,10.75,9.16,11.19,8.59,11.21,7.62,11.58,7.08,11.84,6.64,10.72,5.66,10.78,5.54,10.77,5.55,12.46,6.59,12.39,6.73,12.34,6.82,12.32,6.86-39.36,81.92L3548.44,908l34.6,72H2659.72l34.6-72L2630.7,775.57l-39.36-81.92,12.32-6.86L2616,680l12.39-6.73,12.46-6.59,10.77-5.55,10.78-5.54,10.72-5.66,11.84-6.64,11.58-7.08,11.21-7.62,11.19-8.59,10.75-9.16,10.42-9.58,10.16-9.85,9.85-9.86,9.74-9.95,9.66-10,9.62-10,9.62-10,8.77-9.13,8.82-9.08,8.87-9,9-8.94,9.05-8.85,9.16-8.73,9.29-8.6,8.07-7.25,8.2-7.1,8.33-6.95,8.49-6.76,8.79-6.65,9-6.39,9.17-6.1,9.37-5.77,10.23-5.76,10.44-5.36,10.65-5,10.82-4.61,11-4.26,13.08-4.57,13.25-4,13.4-3.46,13.52-2.82,13.61-2.09,14-1.38,14-.73,14.08-.24,14.11.08,14.13.24,14.13-.24,14.11-.08m0-5.67h-.06l-14.11.08h-.07l-14,.24-14-.24h-.07l-14.11-.08H3093l-14.08.24h-.19l-14,.73h-.26l-14,1.37-.16,0-.15,0-13.62,2.1-.14,0-.15,0-13.52,2.82-.13,0-.13,0-13.39,3.46-.12,0-.12,0-13.25,4-.11,0-.11,0-13.08,4.57-.09,0-.09,0-11,4.26-.09,0-.08,0-10.83,4.61-.09,0-.08,0-10.65,5-.09.05-.1,0-10.44,5.35-.1.06-.1.05-10.22,5.76-.1.05-.09.06-9.37,5.77-.09.05-.08.06-9.17,6.1-.08.05-.07.05-9,6.4-.06,0-.07.05-8.79,6.65,0,0-.06,0-8.49,6.76-.05,0,0,0-8.33,6.95,0,0-.05,0-8.19,7.11,0,0,0,0-8.07,7.25,0,0,0,0-9.28,8.59,0,0,0,0-9.16,8.74,0,0,0,0-9.05,8.84,0,0,0,0-9,8.94-8.92,9.06-8.84,9.11-8.79,9.15L2785,547.58l-9.61,10-9.65,10-9.68,9.9-9.82,9.81-10.07,9.77-10.28,9.45-10.56,9-10.94,8.4-11,7.46-11.38,6.94-11.68,6.56-10.63,5.62L2649,656.06l-10.77,5.55h0l0,0-12.46,6.59h0l0,0L2613.3,675l-12.38,6.84-12.34,6.88-4.66,2.6,2.31,4.81L2625.59,778,2688,908l-33.42,69.55-3.91,8.12h941.36l-3.91-8.12L3554.73,908,3617.17,778l39.36-81.91,2.31-4.81-4.66-2.6-12.32-6.87L3629.5,675l-12.43-6.74,0,0h0l-12.46-6.59,0,0h0l-10.77-5.55L3583,650.54l-10.63-5.62-11.69-6.56-11.38-6.94-11-7.46-10.94-8.4-10.56-9-10.29-9.46-10.07-9.77-9.8-9.8L3477,567.6l-9.63-10-9.61-10-9.61-10.05-8.78-9.14-8.84-9.1-8.9-9-9-9,0,0,0,0-9.05-8.84,0,0,0,0-9.16-8.74,0,0,0,0-9.28-8.59,0,0,0,0-8.07-7.25,0,0,0,0-8.19-7.11-.05,0,0,0-8.33-6.95-.05,0,0,0-8.49-6.76-.06,0-.05,0-8.79-6.65-.07-.05-.06,0-9-6.4-.07-.05-.08-.05-9.17-6.1-.08-.06-.09-.05-9.37-5.77-.09-.06-.1-.05-10.22-5.76-.1-.05-.1-.06L3293.6,410l-.1,0-.09-.05-10.65-5-.08,0-.09,0-10.83-4.61-.08,0-.09,0-11-4.26-.09,0-.09,0-13.08-4.57-.11,0-.11,0-13.25-4-.12,0-.12,0-13.39-3.46-.13,0-.13,0-13.52-2.82-.15,0-.14,0-13.62-2.1-.15,0-.16,0-14-1.37H3178l-14-.73h-.19l-14.08-.24Z" transform="translate(282.45)"/><text class="cls-4" transform="translate(2951.54 977.27)"><tspan class="cls-5">Y</tspan><tspan x="6.86" y="0">S - R</tspan></text><path class="cls-6" d="M3122.46,694.5l-16.41,26.55,7.45,11.44,5.83-9.07,35.3,62.71-72,.22L3102,753.86l5.29,10.25L3098,777.82l31.52.11-27.74-48.79L3060.18,800h122.4Zm-5.43,94h10.21s2.89-.06,3.06,1.36a1.46,1.46,0,0,1-.08.74H3113a4.26,4.26,0,0,1,4-2.1m-6.84,0a3,3,0,0,1,1.68.43c1.43,1,.42,1.76.42,1.76h-6.5l-3-2.19Zm-3.25,8.9c-2.5,0-13.12,0-13.12,0l4.48-2.16h6.32c2.16,0,2.2-.65,2.2-.65l1.08-3.11,4.21,0-1.38,3.77a3.8,3.8,0,0,1-3.79,2.12m17.86,0h-11.35s-2.95.06-2-2.22a37.58,37.58,0,0,0,1.28-3.64h4.3l-1.06,2.74s-.42,1.05.78,1.05h6.72a1.34,1.34,0,0,0,1.29-1c.41-1.06,1-2.67,1-2.67h4.2l-1.51,3.86a3.92,3.92,0,0,1-3.61,1.87m22.52-4.65-1,2.79s-.62,1.89-4.21,1.89h-10.53s-3-.14-2.38-2,1.34-3.53,1.44-3.76h0l0,0a.23.23,0,0,0,0,0h4.13l-1,2.59s-.44,1.06.86,1.06h6.52a1.43,1.43,0,0,0,1.26-.67l.44-.86h-3.28l-2.87-2.12h9.71s1.32-.06.93,1.07m-2.77-2.11h-13.69a5.2,5.2,0,0,1,3.76-2.12h14.32Z" transform="translate(282.45)"/></g><g id="YS-3" data-name="YS"><polygon class="cls-2" points="2937.66 1618.14 2973.62 1543.31 2870.08 1327.83 2884.73 1319.67 2897.08 1312.84 2909.49 1306.11 2921.98 1299.5 2932.78 1293.94 2943.55 1288.4 2954.24 1282.75 2965.98 1276.17 2977.46 1269.16 2988.54 1261.62 2999.61 1253.12 3010.27 1244.04 3020.64 1234.5 3030.75 1224.7 3040.57 1214.88 3050.29 1204.95 3059.93 1194.94 3079.16 1174.85 3087.94 1165.72 3096.76 1156.62 3105.66 1147.59 3114.63 1138.62 3123.7 1129.75 3132.88 1120.99 3142.2 1112.37 3150.31 1105.09 3158.54 1097.95 3166.92 1090.97 3175.46 1084.17 3184.31 1077.48 3193.35 1071.04 3202.59 1064.89 3212.14 1059.01 3222.47 1053.2 3233 1047.79 3243.65 1042.82 3254.56 1038.17 3265.63 1033.87 3278.91 1029.23 3292.28 1025.15 3305.8 1021.66 3319.39 1018.83 3333.16 1016.71 3347.34 1015.32 3361.37 1014.59 3375.55 1014.35 3389.72 1014.43 3403.88 1014.67 3417.91 1014.43 3432.05 1014.35 3446.2 1014.59 3460.39 1015.32 3474.51 1016.71 3488.27 1018.83 3501.93 1021.67 3515.51 1025.18 3528.86 1029.27 3541.95 1033.84 3553.02 1038.13 3563.93 1042.78 3574.76 1047.84 3585.3 1053.25 3595.62 1059.06 3604.99 1064.84 3614.24 1070.99 3623.29 1077.43 3632.15 1084.13 3640.7 1090.93 3649.08 1097.92 3657.32 1105.06 3665.43 1112.34 3674.75 1120.96 3683.94 1129.73 3693.02 1138.6 3701.99 1147.57 3710.89 1156.61 3719.72 1165.71 3728.5 1174.84 3747.74 1194.95 3757.39 1204.96 3767.12 1214.9 3776.95 1224.73 3787.08 1234.55 3797.4 1244.04 3808.06 1253.12 3819.13 1261.62 3830.21 1269.16 3841.68 1276.17 3853.48 1282.78 3864.14 1288.42 3874.89 1293.94 3885.66 1299.49 3898.15 1306.09 3910.56 1312.83 3922.92 1319.66 3937.58 1327.83 3834.04 1543.31 3870 1618.14 2937.66 1618.14"/><path class="cls-3" d="M3149.62,1017.18l14.08.24,14,.73,14,1.38,13.61,2.09,13.52,2.81,13.4,3.47,13.25,4,13.08,4.57,11,4.26,10.82,4.61,10.65,5,10.44,5.36,10.23,5.76,9.37,5.77,9.17,6.1,9,6.39,8.79,6.65,8.49,6.76,8.33,6.94,8.2,7.11,8.08,7.25,9.28,8.59,9.16,8.74,9,8.85,9,8.94,8.87,9,8.82,9.08,8.77,9.12,9.62,10.06,9.62,10.05,9.66,10,9.74,10,9.85,9.86,10.16,9.85,10.42,9.58,10.75,9.16,11.19,8.59,11.21,7.62,11.58,7.08,11.84,6.64,10.72,5.66,10.78,5.54,10.77,5.55,12.46,6.59,12.39,6.72,12.34,6.82,12.32,6.87-39.36,81.91-63.62,132.39,34.6,72H2659.72l34.6-72-63.62-132.39L2591.34,1329l12.32-6.87,12.34-6.82,12.39-6.72,12.46-6.59,10.77-5.55,10.78-5.54,10.72-5.66,11.84-6.64,11.58-7.08,11.21-7.62,11.19-8.59,10.75-9.16,10.42-9.58,10.16-9.85,9.85-9.86,9.74-10,9.66-10,9.62-10.05,9.62-10.06,8.77-9.12,8.82-9.08,8.87-9,9-8.94,9.05-8.85,9.16-8.74,9.29-8.59,8.07-7.25,8.2-7.11,8.33-6.94,8.49-6.76,8.79-6.65,9-6.39,9.17-6.1,9.37-5.77,10.23-5.76,10.44-5.36,10.65-5,10.82-4.61,11-4.26,13.08-4.57,13.25-4,13.4-3.47,13.52-2.81,13.61-2.09,14-1.38,14-.73,14.08-.24,14.11.08,14.13.24,14.13-.24,14.11-.08m0-5.67h-.06l-14.11.08h-.07l-14,.24-14-.24h-.07l-14.11-.08H3093l-14.08.24h-.19l-14,.73h-.13l-.13,0-14,1.37-.16,0-.15,0-13.62,2.1-.14,0-.15,0-13.52,2.81-.13,0-.13,0-13.39,3.46-.12,0-.12,0-13.25,4-.11,0-.11,0-13.08,4.57-.09,0-.09,0-11,4.26-.09,0-.08,0-10.83,4.61-.09,0-.08,0-10.65,5-.09,0-.1,0-10.44,5.35-.1,0-.1.06-10.22,5.76-.1,0-.09.06-9.37,5.77-.09,0-.08.06-9.17,6.1-.08,0-.07,0-9,6.39-.06.05-.07,0-8.79,6.65,0,0-.06,0-8.49,6.76-.05,0,0,0-8.33,7,0,0-.05,0-8.19,7.11,0,0,0,0-8.07,7.25,0,0,0,0-9.28,8.59,0,0,0,0-9.16,8.73,0,0,0,0-9.05,8.85,0,0,0,0-9,8.94-8.92,9.06-8.84,9.11-8.79,9.15-9.63,10.06-9.61,10-9.65,10-9.68,9.9-9.81,9.81-10.08,9.77-10.28,9.45-10.56,9-10.94,8.4-11,7.45-11.38,7-11.68,6.56-10.63,5.62-10.75,5.52-10.77,5.55h0l0,0-12.46,6.59h0l-12.39,6.73-12.38,6.84-12.34,6.88-4.66,2.6,2.31,4.81,39.36,81.91L2688,1543.31l-33.42,69.54-3.91,8.13h941.36l-3.91-8.13-33.42-69.54,62.44-129.93,39.36-81.91,2.31-4.81-4.66-2.6-12.32-6.87-12.36-6.83-12.43-6.75H3617l-12.46-6.59,0,0h0l-10.77-5.55L3583,1285.9l-10.63-5.62-11.69-6.56-11.38-7-11-7.45-10.94-8.4-10.56-9-10.29-9.46-10.06-9.76-9.82-9.81L3477,1203l-9.63-10-9.61-10-9.61-10-8.78-9.14-8.84-9.1-8.9-9.05-9-9,0,0,0,0-9.05-8.85,0,0,0,0-9.16-8.73,0,0,0,0-9.28-8.59,0,0,0,0-8.07-7.25,0,0,0,0-8.19-7.11-.05,0,0,0-8.33-7-.05,0,0,0-8.49-6.76-.06,0-.05,0-8.79-6.65-.07,0-.06-.05-9-6.39-.07,0-.08,0-9.17-6.1-.08-.06-.09,0-9.37-5.77-.09-.06-.1,0-10.22-5.76-.1-.06-.1,0-10.44-5.35-.1,0-.09,0-10.65-5-.08,0-.09,0-10.83-4.61-.08,0-.09,0-11-4.26-.09,0-.09,0-13.08-4.57-.11,0-.11,0-13.25-4-.12,0-.12,0-13.39-3.46-.13,0-.13,0-13.52-2.81-.15,0-.14,0-13.62-2.1-.15,0-.16,0-14-1.37-.14,0H3178l-14-.73h-.19l-14.08-.24Z" transform="translate(282.45)"/><text class="cls-4" transform="translate(2951.97 1612.63)"><tspan class="cls-5">Y</tspan><tspan x="6.86" y="0">S - L</tspan></text></g><g id="B-YS"><polygon class="cls-2" points="1577.06 1746.83 1578.44 1671.99 1561.57 757.77 1560.24 671.9 1571.26 665.97 1580.77 660.86 1590.29 655.76 1599.84 650.68 1609.33 645.62 1618.56 640.4 1627.47 634.76 1635.91 628.54 1643.95 621.76 1651.65 614.52 1659.33 606.6 1666.57 598.32 1673.31 589.66 1678.81 581.64 1683.84 573.32 1688.35 564.72 1693.65 552.51 1697.87 539.92 1700.96 527.02 1702.71 515.59 1703.69 504.01 1704.04 492.32 1703.89 480.53 1703.39 468.77 1702.52 455.19 1701.37 441.65 1699.94 428.16 1698.22 414.71 1696.24 401.4 1694 388.12 1691.53 374.87 1688.86 361.65 1686.22 349.37 1683.45 337.12 1680.59 324.88 1677.64 312.65 1674.64 300.44 1671.61 288.22 1668.37 275.19 1665.14 262.16 1661.94 249.11 1658.79 236.04 1656.16 224.96 1653.52 213.89 1650.81 202.86 1647.98 191.87 1644.43 179.06 1640.67 166.29 1636.79 153.55 1632.09 138.43 1918.71 6.84 1926.56 15.39 1933.16 22.06 1940.15 28.13 1948.8 34.09 1958.09 39.07 1967.69 43.05 1977.63 46.27 1987.82 48.86 1998.17 50.99 2012.05 53.3 2026.04 55.11 2040.02 56.47 2053.09 57.41 2066.2 58.07 2079.34 58.52 2092.5 58.79 2105.67 58.95 2119.52 59.03 2133.37 59.06 2147.21 59.05 2161.06 59 2174.91 58.95 2188.79 59 2202.64 59.05 2216.49 59.06 2230.34 59.03 2244.19 58.95 2257.37 58.79 2270.54 58.52 2283.69 58.07 2296.81 57.41 2309.9 56.47 2323.9 55.1 2337.79 53.3 2351.68 50.99 2362.03 48.86 2372.22 46.27 2382.16 43.05 2391.75 39.07 2401.05 34.09 2409.69 28.13 2416.68 22.06 2423.29 15.38 2431.13 6.84 2717.76 138.43 2713.05 153.56 2709.16 166.32 2705.41 179.1 2701.86 191.92 2699.02 202.89 2696.32 213.91 2693.68 224.96 2691.06 236.03 2687.91 249.1 2684.71 262.15 2681.48 275.19 2678.24 288.23 2675.2 300.44 2672.2 312.67 2669.26 324.9 2666.39 337.14 2663.62 349.4 2660.98 361.69 2658.31 374.91 2655.84 388.17 2653.59 401.45 2651.61 414.77 2649.9 428.22 2648.47 441.71 2647.32 455.25 2646.46 468.83 2645.96 480.62 2645.81 492.32 2646.15 504.01 2647.13 515.59 2648.88 527.02 2651.97 539.91 2656.2 552.51 2661.5 564.72 2666.01 573.32 2671.04 581.64 2676.53 589.65 2683.28 598.32 2690.51 606.6 2698.19 614.52 2705.89 621.76 2713.94 628.54 2722.37 634.76 2731.29 640.4 2740.58 645.65 2750.01 650.68 2759.55 655.76 2769.08 660.86 2778.59 665.97 2789.61 671.9 2788.28 757.77 2771.4 1671.99 2772.78 1746.83 1577.06 1746.83"/><path class="cls-3" d="M2149.37,10.28,2431.86,140l-4,12.76L2424,165.49l-3.77,12.81-3.56,12.86-2.84,11-2.72,11-2.63,11.07-2.63,11.08-3.15,13.05-3.2,13.05-3.23,13-3.24,13-3,12.22L2387,312l-2.95,12.24-2.88,12.26-2.77,12.29-2.65,12.31-2.67,13.26-2.48,13.3L2368.35,401l-2,13.37-1.73,13.51-1.43,13.55L2362,455l-.87,13.64-.5,11.85-.15,11.85.35,11.82,1,11.75,1.79,11.65,3.14,13.13,4.31,12.83,5.39,12.41,4.6,8.77,5.11,8.47,5.59,8.15,6.84,8.79,7.35,8.4,7.77,8,7.8,7.34,8.18,6.89,8.59,6.33,9.06,5.73,9.35,5.29,9.49,5.06,9.54,5.08,9.53,5.1,9.5,5.11,9.51,5.11L2503,757.72,2486.11,1672l1.33,72H1297.5l1.33-72L1282,757.72l-1.3-84.14,9.5-5.11,9.5-5.11,9.53-5.1,9.54-5.08,9.49-5.06,9.35-5.29,9.06-5.73,8.59-6.33,8.18-6.89,7.8-7.34,7.77-8,7.35-8.4,6.84-8.79,5.59-8.15,5.11-8.47,4.6-8.77,5.39-12.41,4.31-12.83,3.14-13.13,1.79-11.65,1-11.75.35-11.82-.15-11.85-.5-11.85L1422.9,455l-1.16-13.6-1.43-13.55-1.73-13.51-2-13.37-2.25-13.33-2.48-13.3-2.67-13.26-2.65-12.31-2.77-12.29-2.88-12.26-3-12.24-3-12.23-3-12.22-3.24-13-3.23-13-3.2-13.05-3.15-13.05-2.62-11.08-2.64-11.07-2.72-11-2.84-11-3.56-12.86-3.77-12.81-3.89-12.77-4-12.76L1635.57,10.28l6.48,7.06,6.72,6.79,7.19,6.25,8.91,6.14,9.55,5.11,9.83,4.08L1694.39,49l10.34,2.64,10.46,2.15,14,2.32,14,1.82,14.07,1.38,13.15.94,13.17.66,13.18.45,13.2.27,13.2.16,13.86.09,13.86,0,13.85,0,13.86,0,13.85-.06,13.85.06,13.86,0,13.85,0,13.86,0,13.86-.09,13.2-.16,13.2-.27,13.18-.45,13.17-.66,13.15-.94,14.07-1.38,14-1.82,14-2.32,10.46-2.15L2090.56,49l10.13-3.28,9.83-4.08,9.56-5.11,8.9-6.14,7.19-6.25,6.72-6.79,6.48-7.06M2148,3.4l-2.79,3-6.42,7L2132.29,20l-6.79,5.9-8.38,5.78-9,4.83-9.37,3.89L2089,43.54l-10,2.56-10.23,2.1-13.78,2.29-13.85,1.8-13.91,1.36-13,.93-13.06.66-13.12.44-13.11.28-13.18.15-13.83.09-13.84,0-13.84,0-13.84,0-13.85-.06-13.9.06-13.84,0-13.85,0-13.84,0-13.84-.09L1810.07,56,1797,55.68l-13.12-.44-13.06-.66-13-.93-13.91-1.36L1730,50.49l-13.78-2.29L1706,46.1l-10-2.56-9.74-3.15-9.37-3.89-9-4.83-8.38-5.78-6.79-5.9-6.49-6.56-6.42-7-2.79-3-3.75,1.73L1350.72,134.81l-4.53,2.08,1.48,4.76,4,12.75,3.88,12.72,3.74,12.73,3.54,12.79,2.83,10.92,2.7,11,2.63,11,2.63,11.07,3.15,13.07,3.2,13.07,3.23,13,3.25,13,3,12.22,3,12.21,2.94,12.22,2.87,12.23L1401,350l2.63,12.23,2.66,13.18,2.46,13.23,2.23,13.22,2,13.25,1.71,13.39L1416.1,442l1.14,13.48.86,13.52.5,11.7.15,11.65-.34,11.55-1,11.4-1.71,11.22-3,12.66-4.15,12.36-5.21,12-4.42,8.44-4.94,8.18-5.4,7.87-6.64,8.53-7.14,8.17-7.58,7.82-7.6,7.14-7.91,6.67-8.28,6.11-8.77,5.55-9.16,5.17-9.44,5-9.54,5.08-9.53,5.1-9.52,5.11-9.5,5.12-3,1.63.06,3.45,1.3,84.14L1293.16,1672l-1.33,71.9-.11,5.77h1201.5l-.11-5.77-1.33-71.9,16.88-914.16,1.3-84.16.06-3.45-3-1.63-9.5-5.11-9.51-5.12-9.53-5.1-9.56-5.08-9.43-5-9.16-5.17-8.77-5.55-8.28-6.11-7.91-6.67-7.6-7.14-7.58-7.82-7.14-8.17-6.64-8.53-5.4-7.87-4.94-8.18-4.42-8.43-5.21-12-4.15-12.36-3-12.66-1.71-11.22-1-11.4-.34-11.55.15-11.65.5-11.7.86-13.52,1.14-13.48,1.42-13.43,1.71-13.4,2-13.25,2.23-13.22,2.46-13.23,2.66-13.18,2.64-12.23,2.76-12.27,2.87-12.21,2.94-12.21,3-12.21,3-12.2,3.24-13,3.23-13,3.21-13.06,3.15-13.07,2.63-11.1,2.64-11.06,2.7-11,2.82-10.93,3.54-12.78,3.74-12.73,3.89-12.75,3.95-12.72,1.48-4.76-4.53-2.08L2151.74,5.13,2148,3.4Z" transform="translate(282.45)"/><text class="cls-4" transform="translate(1582.72 1740.96)"><tspan class="cls-5">Y</tspan><tspan x="6.86" y="0">S</tspan></text></g><g id="F-YS"><polygon class="cls-2" points="302.14 1749.04 303.52 1674.2 286.65 759.98 285.31 674.11 296.33 668.18 305.84 663.07 315.37 657.97 324.92 652.89 334.4 647.83 343.64 642.61 352.55 636.97 360.98 630.75 369.03 623.97 376.73 616.73 384.41 608.81 391.65 600.53 398.39 591.87 403.89 583.85 408.91 575.53 413.42 566.93 418.72 554.72 422.95 542.13 426.04 529.23 427.79 517.8 428.77 506.22 429.11 494.53 428.96 482.74 428.46 470.98 427.6 457.4 426.45 443.86 425.02 430.37 423.3 416.92 421.32 403.61 419.08 390.33 416.61 377.08 413.94 363.86 411.3 351.58 408.53 339.33 405.66 327.09 402.72 314.87 399.72 302.65 396.69 290.43 393.45 277.4 390.22 264.37 387.02 251.32 383.87 238.25 381.24 227.17 378.6 216.1 375.89 205.06 373.05 194.08 369.5 181.27 365.75 168.5 361.86 155.75 357.17 140.64 654.72 4.04 658.08 18.88 660.7 30.3 663.38 41.71 666.14 53.08 669.03 64.42 672.13 75.93 675.42 87.36 678.96 98.7 682.79 109.93 687.21 121.71 692 133.36 697.13 144.89 702.32 155.68 707.92 166.26 714 176.51 720.69 186.31 728.98 196.7 738.03 206.51 747.67 215.8 756.45 223.5 765.54 230.84 774.91 237.81 784.34 244.24 794.03 250.23 804 255.69 815.3 261.01 826.91 265.57 838.79 269.38 849.83 272.18 861.03 274.35 869.97 275.63 878.98 276.53 886.86 276.99 894.81 277.16 900 277.15 905.26 277.16 913.14 276.99 921.02 276.53 930.03 275.63 938.97 274.35 950.17 272.18 961.21 269.38 973.09 265.57 984.7 261.01 996 255.69 1005.97 250.23 1015.66 244.24 1025.09 237.81 1034.46 230.84 1043.55 223.5 1052.33 215.8 1061.97 206.51 1071.02 196.7 1079.31 186.31 1085.99 176.51 1092.09 166.26 1097.68 155.68 1102.9 144.81 1108.03 133.28 1112.82 121.63 1117.24 109.85 1121.06 98.63 1124.6 87.3 1127.89 75.88 1130.98 64.39 1133.86 53.05 1136.63 41.69 1139.31 30.29 1141.92 18.87 1145.28 4.04 1442.84 140.64 1438.13 155.77 1434.24 168.53 1430.48 181.31 1426.93 194.13 1424.1 205.1 1421.4 216.12 1418.76 227.17 1416.13 238.24 1412.98 251.31 1409.78 264.36 1406.55 277.4 1403.31 290.44 1400.28 302.65 1397.28 314.88 1394.33 327.11 1391.46 339.35 1388.7 351.61 1386.06 363.9 1383.38 377.12 1380.91 390.38 1378.67 403.66 1376.69 416.98 1374.97 430.43 1373.55 443.92 1372.4 457.45 1371.53 471.04 1371.03 482.83 1370.89 494.53 1371.23 506.22 1372.21 517.8 1373.96 529.23 1377.05 542.13 1381.28 554.72 1386.58 566.93 1391.09 575.53 1396.11 583.85 1401.61 591.87 1408.35 600.53 1415.59 608.81 1423.27 616.73 1430.97 623.97 1439.02 630.75 1447.45 636.97 1456.36 642.61 1465.65 647.86 1475.08 652.89 1484.63 657.97 1494.15 663.07 1503.67 668.18 1514.69 674.11 1513.35 759.98 1496.48 1674.2 1497.86 1749.04 302.14 1749.04"/><path class="cls-3" d="M864.82,8.07l292.12,134.1-4,12.76-3.89,12.77-3.77,12.81-3.56,12.86-2.85,11-2.71,11.05-2.64,11.07-2.63,11.08-3.14,13-3.2,13.05-3.23,13-3.24,13-3,12.22-3,12.23-3,12.24-2.87,12.26L1103.48,351l-2.65,12.31-2.68,13.26-2.48,13.3-2.25,13.33-2,13.37-1.72,13.51-1.44,13.55-1.15,13.59-.87,13.65-.5,11.85-.15,11.85.35,11.82,1,11.75,1.78,11.65,3.15,13.13,4.31,12.83,5.39,12.41,4.59,8.77,5.12,8.47,5.59,8.15,6.84,8.79,7.34,8.4,7.78,8,7.8,7.33,8.18,6.9,8.59,6.33,9,5.73,9.36,5.28,9.49,5.07,9.54,5.08,9.52,5.1,9.51,5.11,9.5,5.11-1.3,84.14-16.88,914.27,1.33,72H22.58l1.32-72L7,759.93,5.72,675.79l9.5-5.11,9.51-5.11,9.52-5.1,9.55-5.08,9.49-5.07L62.64,645l9.06-5.73L80.29,633l8.17-6.9,7.81-7.33,7.77-8,7.34-8.4,6.85-8.79,5.59-8.15,5.11-8.47,4.6-8.77,5.39-12.41,4.3-12.83,3.15-13.13,1.78-11.65,1-11.75.35-11.82-.15-11.85-.51-11.85L148,457.21l-1.15-13.59-1.43-13.55-1.73-13.51-2-13.37-2.25-13.33-2.48-13.3-2.68-13.26L131.62,351l-2.78-12.29L126,326.44l-3-12.24L120,302l-3-12.22-3.25-13-3.22-13-3.2-13.05-3.15-13-2.63-11.08L98.9,215.44l-2.71-11.05-2.84-11-3.57-12.86L86,167.7l-3.9-12.77-4-12.76L370.27,8.07l2.59,11.44,2.62,11.43,2.68,11.42,2.78,11.39,2.89,11.37,3.11,11.54,3.3,11.48,3.56,11.4,3.85,11.3,4.46,11.87,4.81,11.73,5.17,11.6L417.34,157l5.65,10.7L429.16,178,436,188l8.43,10.56,9.17,9.94,9.75,9.4,8.87,7.78,9.18,7.41,9.46,7,9.53,6.5,9.81,6.06,10.12,5.54,11.45,5.39,11.78,4.63,12.06,3.87,11.2,2.84,11.35,2.2,9.07,1.3,9.12.9,8,.47,8,.18H622.8l8-.18,8-.47,9.12-.9,9.07-1.3,11.34-2.2,11.21-2.84,12.05-3.87,11.78-4.63,11.46-5.39,10.11-5.54,9.82-6.06,9.53-6.5,9.46-7,9.17-7.41,8.87-7.78,9.76-9.4,9.17-9.94L799.14,188l6.8-10,6.16-10.38,5.66-10.7L823,146l5.17-11.6L833,122.71l4.45-11.87,3.85-11.3,3.56-11.4,3.31-11.48,3.1-11.54,2.9-11.37,2.77-11.39,2.68-11.42,2.62-11.43,2.59-11.44m-4-8.07-1.55,6.82L856.7,18.25l-2.61,11.42-2.68,11.39-2.75,11.32-2.88,11.31L842.7,75.14l-3.28,11.37L835.9,97.79l-3.8,11.14-4.39,11.7L823,132.2l-5.11,11.46L812.7,154.4l-5.54,10.48-6,10.1-6.57,9.64-8.16,10.23-8.93,9.68L768,213.71l-8.69,7.63-9,7.26L741,235.5l-9.32,6.36-9.58,5.92-9.83,5.39-11.13,5.23-11.44,4.5L678,266.65l-10.88,2.76-11,2.15-8.82,1.26-8.88.88-7.77.45-7.84.18H612.35l-7.83-.18-7.78-.45-8.88-.88-8.81-1.26-11-2.15-10.88-2.76-11.71-3.75L534,258.4l-11.13-5.23L513,247.78l-9.57-5.92-9.33-6.36-9.28-6.9-9-7.26-8.69-7.63-9.54-9.18-8.92-9.68-8.16-10.23L433.94,175l-6-10.1L422.4,154.4l-5.16-10.74-5.1-11.46-4.76-11.57L403,108.93l-3.8-11.14-3.52-11.28L392.4,75.14l-3.08-11.45-2.88-11.31L383.67,41,381,29.64l-2.61-11.4L375.8,6.82,374.26,0l-6.35,2.92L75.79,137l-4.52,2.08,1.47,4.76,4,12.75,3.88,12.72,3.74,12.72,3.54,12.79,2.82,10.93,2.71,11,2.63,11,2.62,11.07L101.81,252,105,265l3.23,13,3.24,13,3,12.22,3,12.21,2.95,12.22L123.32,340l2.76,12.22,2.63,12.23,2.67,13.19,2.46,13.22,2.23,13.22,2,13.25,1.7,13.39,1.43,13.44,1.14,13.48.86,13.52.5,11.7.15,11.65-.34,11.55-1,11.4-1.72,11.22-3,12.66-4.15,12.37-5.21,12L124,574.14l-4.94,8.18-5.4,7.87L107,598.72l-7.14,8.17-7.58,7.82-7.6,7.14-7.91,6.67-8.28,6.11-8.77,5.55-9.17,5.17-9.43,5-9.54,5.08-9.53,5.1-9.52,5.11L3,670.8l-3,1.63.05,3.45L1.36,760,18.23,1674.2l-1.32,71.9-.11,5.77H1218.29l-.1-5.77-1.33-71.9L1233.73,760l1.31-84.16,0-3.45-3-1.63-9.5-5.12-9.51-5.11-9.53-5.1-9.56-5.08-9.43-5-9.16-5.17-8.77-5.55-8.28-6.11-7.92-6.67-7.59-7.14-7.59-7.82-7.13-8.16-6.64-8.54-5.41-7.87-4.93-8.18-4.43-8.44-5.21-12-4.14-12.36-3-12.66-1.72-11.22-1-11.4-.34-11.55.15-11.65.49-11.7.87-13.52,1.14-13.48,1.42-13.44,1.71-13.39,2-13.25,2.24-13.22,2.46-13.23,2.66-13.18,2.63-12.23,2.77-12.27,2.86-12.21,2.95-12.21,3-12.21,3-12.2,3.24-13,3.23-13,3.2-13.06,3.16-13.07,2.63-11.1,2.64-11.06,2.69-11,2.83-10.93,3.53-12.78,3.75-12.73,3.88-12.75,4-12.72,1.48-4.76L1159.3,137,867.19,2.92,860.84,0Z" transform="translate(282.45)"/><g class="cls-7"><rect class="cls-8" y="522.34" width="1800" height="90"/><rect class="cls-8" y="738.34" width="1800" height="90"/><rect y="612.34" width="1800" height="126"/><path d="M434.86,485.79s-5.48-26.49-45.57-26.49S337,483.76,337,525.63s11.06,61.91,38.13,65.53L504.22,768.9a20,20,0,0,0-2.06,6.17,56.55,56.55,0,0,1-1.08,6.3s-14.05,10.73-5.71,25,22.42,9.6,29.78-7c0,0,66.77,92.09,67.16,92s25.84-31.24,25.84-31.24,1.36,4.17,23,4.17,56.1-7,60.91-26.88l-2.21-19.92s15.49-9.25,15.49-24.38-16-17.07-21.87-17.33c0,0,5.86-9,13.28-20.18s131.85-164,131.85-164a58.49,58.49,0,0,0,39.57-6.9c20.18-11.58,19.53-27.59,19.53-37.1s-3.65-25.9-13.93-31.36h11.19V499.51c0-8.33-2.68-40.21-48.33-40.21-35,0-44.47,22.77-44.47,22.77s-5.07-6.64-35.79-6.64H725.59v27.21l-7-27.34H668.15L662.47,495s-7.16-21.48-38.14-21.48c-25.25,0-36.45,13.28-36.45,13.28V475.43h-90.2v6s-5.6-7.68-27.2-7.68a58.52,58.52,0,0,0-35.62,12.05" transform="translate(282.45)"/><path class="cls-6" d="M697.49,785c-.19.28,6,12.26,4.37,19.51,0,0,7.25-6.82,5-13.33s-7.79-8.53-9.38-6.18" transform="translate(282.45)"/><path class="cls-6" d="M690.88,795.13c-.33-3.94-8-4.37-8.32.85s1.81,14.07,2.77,16.21,1.55.39,2.88-2.56c1.49-3.31,2.88-11.94,2.67-14.5" transform="translate(282.45)"/><path class="cls-6" d="M687.36,817.2s2.56,10-6.19,16l6.19-16" transform="translate(282.45)"/><path class="cls-6" d="M676.8,817.2c2-2.78,8.88-3.2,7.64,1.06s-3.16,13.65-30.35,16.32-42.11-2.35-44.25-14,9.71-16.31,9.71-16.63,3.94,4.56,1.7,9.15.85,14.09,11.2,15.26,28.78.11,35.29-1.81,9.06-9.38,9.06-9.38" transform="translate(282.45)"/><path class="cls-6" d="M661.87,813.13c1.53-3.36,6.4-6.91,5.55-12.35s-.85-7.51-4.37-8.66-6,1.83-4.59,5.67,1.39,11.52,1.5,13.86,1.38,2.67,1.91,1.48" transform="translate(282.45)"/><path class="cls-6" d="M629.78,793.85c-3.3-5.44-5.54-3.84-7-1s-.64,5.44,0,9,2.24,6.19,2.14,7.89,1,3.95,2.24,2.46,4.15-8.43,3.94-12.59-1.28-5.75-1.28-5.75" transform="translate(282.45)"/><path class="cls-6" d="M598.44,788.41c-1.75,2.62-1.28,6.5,0,9.6s2.55,3.09,3.19,0,3.31-7.15,3.42-10.45-5.12-1.39-6.61.85" transform="translate(282.45)"/><path class="cls-6" d="M574.77,808.88c-1.25,3.13,1.7,2.77,3.09.75s4.48-4.3,2.56-5.67-4.8,2.79-5.65,4.92" transform="translate(282.45)"/><path class="cls-6" d="M561.44,807.44c-.75,4.43.85,6.13,2.24,2.83s2.66-3.2,2.56-5.76-2.14-4.27-3.31-2.45-1.49,5.38-1.49,5.38" transform="translate(282.45)"/><path class="cls-6" d="M549.5,801.46c2.66.06,5.11,1.84,6.29,2.23s.64.07-1.07,2.42-5.86,5.76-5.76,2a64.45,64.45,0,0,1,.54-6.67" transform="translate(282.45)"/><path class="cls-2" d="M595.88,831.16s-8.44-11.22-12-16l-.06,0a52.61,52.61,0,0,0-6.08,3.41c-2.89,1.92-10.66,1.07-11.51,1l-.86,1,28.47,38.92,13-15.15c-1.06-1.91-2.45-16.54-3.4-22.76l-7.58,9.54" transform="translate(282.45)"/><path class="cls-8" d="M603.46,821.62a.07.07,0,0,1,0,0c-1-6.19,6.14-17.88,6.14-17.88s-8.38,7.86-13.71,11.48c-5,3.43-11.34.36-12,0,3.55,4.74,12,16,12,16l7.58-9.54" transform="translate(282.45)"/><polyline class="cls-8" points="839.63 768.9 836.05 773.16 840.28 778.6 839.63 768.9"/><path class="cls-2" d="M553.59,773.16,542,786.92l4.06,5.2c6.71-6.53,12.15-7.34,12.15-7.34l-.42-6.18-4.23-5.44" transform="translate(282.45)"/><path class="cls-9" d="M511.54,804.72s-3.94-4.05-4.05-7.35,1.6-9.17-2.13-9.6-6.4,7.89-6.4,11.41,2,4.8,4.8,5.54,7.78,0,7.78,0" transform="translate(282.45)"/><path class="cls-9" d="M547.73,700.81s.53,25.27.85,29.75,5.76,11.94,6.4,17.59a70.5,70.5,0,0,1,0,12.37s-5.23.64-10.24,10.12-12.9,18.88-21.54,18.88-17.06-9-10.13-25.7,8.53-22.39,8.53-22.39-17.06,4.69-17.59-12.15,11.09-31,14-36.36,9.49-14.61,8.63-22.28-5.52-10.79-7.14-13.12c-2.45-3.52-.21-8,4.37-4.58s9.49,10.55,9.92,17.16-5.44,20.15-10.88,27.72-14.39,18.45-12.79,29,12.15,7.89,15.35,2.78,5.55-14.82,12.48-21.11,9.81-7.68,9.81-7.68" transform="translate(282.45)"/><path class="cls-9" d="M566.49,656.24s5.12,12.37,9.28,16.53,9.91,11,11.3,15.67-1.17,8.64,5.54,15,14.08,11.84,13.86,18-5.33,20.15-8.53,29.11-4.05,15.46-3.62,18.45,1.92,9.59-.75,14.39-5,5.39-4.9,8.83-1.18,13.66-3.41,15.32c0,0-1.39-9.65-8.85-9.33a2.36,2.36,0,0,1,1.48-2.35s-2.12-1-4.26,1.92-3.83,10.67-5.33,12.11c0,0,1.92-7.9.64-9.47s-2.22-2-2.55-3.92a7,7,0,0,0-.86-2.66s-2.66,2.66-4.58,4.48-7,.74-5.09-1.82,8.6-7.35,12.76-8.1,4.27.32,4.27.32-1.81,2.23-1.28,3.25c0,0,6.18-4.06,11.62-1.63,0,0-3.93-7.8-16.84-5.14l-.86-22s4.69,3.84,8.42,3.84c0,0-18.09-21.86-18.09-49.69s2.85-32.94,7.22-34.54c0,0-1.28-21.86,3.41-26.66" transform="translate(282.45)"/><path class="cls-2" d="M516.46,722.07c-.47,3.24.47,4.92,1.51,3.4l.69-1-2.08-3c-.05.21-.09.42-.12.62" transform="translate(282.45)"/><path class="cls-8" d="M573.07,617H439.68s53,73.31,62.67,86a44.27,44.27,0,0,1,2.9-5.86c7.42-12.5,13.47-19.73,12.69-26s-9.18-9.75-5.47-19.62,11.13-7.33,13.86-5.18,13.64,15.37,11.72,33.19c-1.35,12.49-12.2,26.73-14.7,30-2.36,3-6,8.56-6.77,11.9l2.08,3c4.28-6.19,26.34-38.07,30-42.68a68.62,68.62,0,0,1,5-5.9s1.26-14.06,7.21-26.75,14.25-25.57,12.89-30.26a11.7,11.7,0,0,0-.74-1.85" transform="translate(282.45)"/><path class="cls-2" d="M573.07,617c-1.93-3.88-5.78-7.36-5.61-12.6.2-6,.3-7.61.3-7.61l-161.9.56,92,128.09A66.92,66.92,0,0,1,502.35,703c-9.64-12.68-62.67-86-62.67-86H573.07" transform="translate(282.45)"/><path class="cls-9" d="M582.08,564.09c-8.71-.42-13.8,7.42-12.49,16.53s4.61,11.33,6.14,14.19-.94,8.85.63,12.63,3.25,5.59,3.38,7.41-4,10.42-4,23.95,16.89,34.89,29.39,39.44l1.36-4.55s1.76,13.4,14.13,17.31c0,0-10.67-12.37-11.19-24.08,0,0-9,.13-9.25-9.37s7.29-15,7.29-15l-4.29-3.91a16.4,16.4,0,0,1-3.78,6.12c-2.47,2.21-3.51,3.91-3.25,5.73a69.74,69.74,0,0,1,.39,10.77c-.26,2.77-1,4.33-3.38,1.46s-11.46-10.8-11.46-32.67c0-17.18,7.55-27.33,8.2-28s-1.3-2.08-2.73-.65-2.73,4.55-4,4.42-.52-3.77.13-7,2.61-2.61,1.44-4-8.2-8.2-9.12-15.49,1.57-9.89,6.51-8.2,16.27,10.15,18,12.5-2.34,15.09-2.73,16.92,1.82,3,1.82,3,13.93,1.56,23.56,8.59,11.07,7.42,11.07,7.42,4.29-.39,5.2-.39-1.43,1.82-2.21,2.08-3.9.39-3.64,2.35,3.64,6.63,3.25,11.45c0,0-4.56-6.38-7.29-7.48a15,15,0,0,1,.65,5l-9-9.37s-.13,2.73-8.2,2.73-8.72-7.16-9.24-11.72-3.78-1.87-3,3,2.08,11.35,10.8,11.35,8.72-.26,10.28.78,6.9,6.9,6.9,6.9l.26,8.07a24.82,24.82,0,0,1,7.94,2.34c3.25,1.83,9.11,3.39,10.8,3.26S658.1,640,658.1,640s.91,8.51,1,11.74-8.59,9.6-11.2,12.86-3.9,6.24-3.64,7.68,2.86,2.86,7.29,2.4,6.51-2.53,8.85-4.88a24.06,24.06,0,0,1,7.16-4.55c1.3-.52,2.21,3.51,0,4.55a10.67,10.67,0,0,0-5.6,5.6c-1.3,3-3,8.72-4.16,9s-6.38-7.94-13.93-7.94-15.36,4.56-17.57,8.07-3.13,6.9.52,5.21,11.45-6,13.79-6.9,7.29-1,8.86,1.17a15.67,15.67,0,0,0-8.86,1.43,24.36,24.36,0,0,0-7,5.6s1.82,2.86,3.51,2.34,2.6-1.3,3-1-2.34,2.21-.13,3.52,11.07,1,15.36-2.74,6.38-9.89,8.2-13.14,9.77-4.54,11.46-9,.13-9,0-9.61-7.29,2.11-7.68,2,7.29-7,7.29-7l-7.42,2.09,6-6-7.94,1.95s5.07-5.07,5.07-8.33-.26-6.63,1.3-6,8.59,7,9.64,10.93a107.41,107.41,0,0,1,1.82,12.49s11.84-1.43,11.06-27.46-6.77-34.36-6.77-34.36l5.21,4s.65-6.24,3.38-9.76,9.37-12.23,7.81-19.13-6.37-11.07-17.57-6a69.06,69.06,0,0,0-18.48,12.37s-8.59-7.42-31.76-7.42-28.51,9.24-34.62,4.16-11.2-15.36-19.27-15.75" transform="translate(282.45)"/><path d="M645.58,581c-7.93-.48-28.11,3.38-33.84,8.2s-6.12,11.19-1.3,12.62,6.9.13,12.24,3.13,12,3.25,11.45-10.68c0,0,3.25,7.55,4.82,11.07a16.61,16.61,0,0,1,1.56,6.11s2.6-8.44,2-14.63-1.17-7,1.43-8.93,12.5-6.24,1.69-6.89" transform="translate(282.45)"/><path d="M648.45,596.2s5.46,5.23,7.81,4.71a4.49,4.49,0,0,0,3.12-2.33s-1.43,7.28-6.64,7.28-4.29-9.66-4.29-9.66" transform="translate(282.45)"/><path d="M672.66,585.81l7,8.07s12.62-11.32,13.92-11.06.78,2.21.78,2.21,4.43-2.21,4.56-7-4.3-5.33-9-2.86-17.31,10.67-17.31,10.67" transform="translate(282.45)"/><path d="M670.05,593.1s10.55,7.93,7.81,10.67c-4,4-5.2,5.21-5.2,5.21s-7.29-1-11.33,1.17-4.81,5.34-4.81,5.34l-8.13,3.25.71,3.52h3.51s-2,7.94-1.43,10.15l.52,2.21s4.17-10.93,6.12-11.71c0,0,3.38,3.25,10.41,3.25s8.59-10,7.16-12.88c0,0,7.16-2.09,6.64-8.6s-12-11.58-12-11.58" transform="translate(282.45)"/><path class="cls-6" d="M660.42,618.09s6.9,3,7.81,3.78-1,2.47-3.9,1.56a5.65,5.65,0,0,1-3.91-5.34" transform="translate(282.45)"/><path class="cls-6" d="M669.79,612.63s2,.39,2.87,3.51-2.87,5.73-2.87,5.6-3.06-2-1.33-3.65,1.59-3.77,1.33-5.46" transform="translate(282.45)"/><path class="cls-6" d="M609.45,614.28c-.2-2.11-1.39-2.58-2.34-1s.54,8.13,5.47,8.13,7.27-2.63,7.82-4.21-1.33-1.87-3-.31-7.43,3.27-8-2.59" transform="translate(282.45)"/><path class="cls-9" d="M619,642.81s6.33,10.87,7.74,13.06,2.58,4.61,4.62,6.33,5.16,3.29,8.28,5.24,2.43,4.54-1,6.65-9.78,1.46-13.37.57-10.4-4.79-14.47-14c0,0,4,2.74,6.49,3.44-.57-.19-3.13-4.38-4.14-6.57,0,0,5.66,2.74,7.52,2.74l-5.65-7,5.65,1.8-6.43-8.45,4.77-3.83" transform="translate(282.45)"/><path class="cls-6" d="M619.38,681c1.56,2.27,2.74,3.36,2.58,2.34s.08-2.65.71-3.2.39-4.3-2.51-3.91-.78,4.77-.78,4.77" transform="translate(282.45)"/><path class="cls-6" d="M625.25,694.27a35.81,35.81,0,0,0,9.85,5.63s-4.4,2.09-8.1,0a4.06,4.06,0,0,1-1.75-5.61" transform="translate(282.45)"/><path class="cls-9" d="M699.74,649.21s4.92,12.14,2.65,19l-4.91-2s8.46,14.15,12,30.22a216.26,216.26,0,0,1,4.3,31.75l-9.91-9.23s5.55,7.08,3.43,15.93-9.84,23.78-12.62,26.18a16.14,16.14,0,0,1-10.24,4.17l4.42,8-6.33,4s6.46.12,9.24,4.68.76,6.19.76,6.19a7.83,7.83,0,0,0-8.22-2.29c-4.93,1.66-9.61,10.14-9.61,9.88s-3.16-11.6-9.49-11.6-16.44,7.18-16.44,7.18l2.53-15.31-11.63-.38s5.43,9,4.42,14.69a16.07,16.07,0,0,1-4.42,8.71s-3.55-16.31-14.17-16.31-11,10.59-11.38,10.41-7.27-16.86,6.67-25.21,29.5-8.35,29.5-8.35-1.39-2.15-6.7-2.91c0,0-.38-27.19,26.81-44.13,0,0-6.2-1.27-12.33,4,0,0-2.22-7.58,5.88-14.92s12.77-7.84,11.51-10.37-6.45-3.67-3.17-8.73,8.48-7.46,8.6-9,.43-3,1.17-3.28,5.79.88,11.48-8.48,6.2-12.52,6.2-12.52" transform="translate(282.45)"/><path class="cls-10" d="M807.12,597.36l0,0Z" transform="translate(282.45)"/><path class="cls-8" d="M702.23,615.79a85.75,85.75,0,0,1,.43,23.08,17.24,17.24,0,0,1,6.2,9.27c1.8,6.35,1.61,23.92,1.61,23.92A92,92,0,0,1,715.1,681l51-65.16H702.23" transform="translate(282.45)"/><path class="cls-2" d="M700.51,597.36a5.2,5.2,0,0,0-3.61,4.21c-.29,2,1.85,7.31,3.18,15.83H764l-51,65.16c3,6.68,6.37,16,5.72,23.72,0,0,86.2-106.89,88.41-108.9-2.45.71-106.57,0-106.57,0" transform="translate(282.45)"/><path class="cls-6" d="M636,648.86c-2.29-1.16-5.15-1.43-6,2.09s2.09,6.63,2.47,6.28,2-2.79,5-2.79,2.75,7.13,3.06,7.86,1.24-.15,4.41-2.36,9.53-6,10.54-8.06-1.16-5.15-3.29-3.25-4.42,4.46-7.71,4.26-8.48-4-8.48-4" transform="translate(282.45)"/><path class="cls-8" d="M380.07,499.62c0-10.95,17.43-13,17.43,0V511h28.67s5.91-39.47-35.59-39.47-41.2,28.09-41.2,54.46-.15,53.74,37.46,53.74,39.62-22.33,39.62-31.84V536.07H398.08v11.67c0,19.17-18,18.45-18,0V499.62" transform="translate(282.45)"/><rect class="cls-8" x="674.05" y="523.25" width="30.83" height="1.15"/><path class="cls-8" d="M470,485.79c-24.35,0-36,11.53-36,45.53s6.77,48.41,34.87,48.41,35.3-13.11,35.3-47-9.51-47-34.15-47m7.29,70.05a8.23,8.23,0,1,1-16.46,0V510.59a8.23,8.23,0,0,1,16.46,0Z" transform="translate(282.45)"/><path class="cls-8" d="M576.3,487.81H550.8v67.57c0,11.09-16,11.24-16,0V487.81H509.45v58.78c0,22.62,10.09,33.14,31.41,33.14s23.34-3.89,23.34-3.89-.43-14,12.1-18.3V487.81" transform="translate(282.45)"/><path class="cls-8" d="M733.06,579.15s-24.49-91.63-24.64-91.34-32.13,0-32.13,0l-21.18,80.54V528.58h-33v15.85h8.93v8.65c0,13.68-15.31,16.23-16.57-.72-.86-11.67.15-33.28.15-41.36,0-11.38,15.2-11.09,15.2-2v7.35H655.4s3-30.55-32.13-30.55S587,513.17,587,526.57v31.84s14.55,7.49,17,11.09a28.27,28.27,0,0,0,3.14,4.19s31.06-12.1,57.33,0c0,0,15.89-14.13,30.58-14.13s17.15,13,16.57,19.59h21.47m-47.25-34.29c0,.15,6.62-38.47,6.62-38.47l7.64,38.47S685.8,544.72,685.81,544.86Z" transform="translate(282.45)"/><path class="cls-8" d="M803.37,568.78v-21c0-9.5-8.07-13.83-15.41-13.54v-.86s16.28-.44,16.28-20.75-16.14-25.07-29.54-25.07H737.1v91.63h25.64v-37s14.41-3.32,14.41,7.92,1,29.1,4,29.1h25.94v-2.3s-3.75-1.59-3.75-8.07M770.23,525.7h-7.34V504.81h7.78c3.74,0,7.78,3,7.78,10.44S773.55,525.7,770.23,525.7Z" transform="translate(282.45)"/><path class="cls-8" d="M855.1,503.94h27.23s5.18-32.13-35.73-32.13c-19.45,0-37.46,6.49-37.46,32.13s23.69,29.83,36.7,34.73,11.27,23.05-.68,23.05-9.51-14.7-9.51-14.7H807.12s-5.91,32.85,35.73,32.85,43.08-22.62,43.08-33.71-4.61-20.89-23.2-28.82-25.07-7.63-25.07-18.44,18-14.12,17.44,5" transform="translate(282.45)"/></g><text class="cls-4" transform="translate(309 1743.11)"><tspan class="cls-5">Y</tspan><tspan x="6.86" y="0">S</tspan></text></g></g></g></svg>