<svg xmlns="http://www.w3.org/2000/svg" viewBox="0 0 1609.25 2215.94"><defs><style>.cls-1{fill:#021814;}.cls-2{fill:#007f3e;}.cls-3,.cls-4{fill:#fff;}.cls-4{stroke:#fff;stroke-miterlimit:10;}</style></defs><g id="Layer_2" data-name="Layer 2"><g id="Layer_1-2" data-name="Layer 1"><polygon class="cls-1" points="20.23 2212.94 21.25 2137.9 3.03 794.08 16.56 789.66 27.95 785.85 39.28 781.9 48.81 778.35 58.12 774.53 67.94 769.95 77.52 764.86 86.82 759.27 95.71 753.25 104.17 746.71 112.09 739.6 121.38 729.57 129.71 718.68 137.15 707.08 142.33 697.72 146.96 688.09 151.02 678.22 155.24 665.67 158.71 652.84 161.55 639.81 163.98 626.32 165.95 612.71 167.48 599.1 168.61 585.44 169.36 571.78 169.82 558.09 170.04 544.38 170.11 530.64 170.08 517.39 169.97 504.13 169.77 490.88 169.49 477.63 169.13 464.99 168.68 452.35 168.12 439.72 167.47 427.09 166.7 414.47 165.9 402.87 165.01 391.27 164.05 379.67 163.04 368.07 162 356.47 160.76 343.2 159.49 329.95 158.17 316.7 156.78 303.46 155.31 290.24 153.73 276.69 152.06 263.16 150.32 249.63 148.54 236.11 146.71 222.59 144.85 209.06 143.09 196.3 141.31 183.54 139.52 170.78 135.93 145.25 131.96 117.16 522.93 3.72 527.35 19.09 530.97 31.54 534.65 43.97 538.44 56.36 542.35 68.69 546.43 80.97 550.77 93.31 555.35 105.55 560.23 117.66 565.45 129.62 570.94 141.18 576.79 152.51 583.04 163.68 589.66 174.62 596.68 185.32 602.87 194.09 609.35 202.62 616.15 210.9 623.16 218.73 630.5 226.24 638.19 233.36 648.76 242.09 659.85 250.17 671.4 257.68 683.31 264.67 693.67 270.22 704.22 275.32 714.98 279.86 725.96 283.76 737.53 287.04 749.31 289.53 761.23 291.25 773.25 292.18 780.5 292.39 799.09 292.59 810.19 292.59 828.8 292.39 836.01 292.18 848.02 291.25 859.94 289.53 871.72 287.04 883.29 283.76 894.27 279.86 905.03 275.32 915.59 270.22 925.95 264.67 937.85 257.68 949.4 250.17 960.49 242.09 971.06 233.36 978.74 226.24 986.09 218.73 993.1 210.9 999.9 202.62 1006.38 194.09 1012.57 185.32 1019.58 174.62 1026.21 163.68 1032.46 152.51 1038.35 141.09 1043.84 129.53 1049.05 117.58 1053.92 105.48 1058.5 93.25 1062.83 80.92 1066.91 68.66 1070.82 56.33 1074.6 43.95 1078.28 31.53 1081.9 19.08 1086.32 3.72 1477.29 117.16 1471.52 158.02 1469.72 170.78 1467.94 183.54 1466.16 196.3 1464.39 209.07 1462.54 222.59 1460.71 236.12 1458.93 249.64 1457.19 263.18 1455.53 276.71 1453.94 290.25 1452.47 303.48 1451.08 316.71 1449.76 329.96 1448.48 343.21 1447.25 356.48 1446.2 368.08 1445.19 379.68 1444.23 391.29 1443.35 402.89 1442.54 414.5 1441.78 427.12 1441.12 439.74 1440.57 452.38 1440.12 465.01 1439.76 477.65 1439.47 490.9 1439.28 504.15 1439.17 517.41 1439.14 530.67 1439.21 544.41 1439.43 558.14 1439.89 571.85 1440.65 585.52 1441.78 599.19 1443.31 612.81 1445.27 626.32 1447.69 639.81 1450.54 652.84 1454 665.67 1458.23 678.22 1462.29 688.09 1466.92 697.72 1472.11 707.08 1479.55 718.67 1487.87 729.57 1497.15 739.6 1505.07 746.71 1513.54 753.25 1522.43 759.27 1531.73 764.86 1541.3 769.95 1551.13 774.53 1560.53 778.39 1570.03 781.92 1581.33 785.87 1592.7 789.67 1606.22 794.08 1588 2137.98 1589.01 2212.94 20.23 2212.94"/><path class="cls-2" d="M1088.37,7.44,1474,119.31l-1.8,12.76-1.81,12.77-1.8,12.76-1.79,12.76L1465,183.12l-1.77,12.77-1.77,12.77-1.85,13.52-1.83,13.53L1456,249.25l-1.73,13.54-1.67,13.55L1451,289.91l-1.47,13.24-1.39,13.25-1.33,13.26-1.27,13.27-1.24,13.27-1,11.61-1,11.61-1,11.62-.88,11.62-.81,11.63-.77,12.65-.65,12.65-.56,12.65-.45,12.67-.36,12.66-.29,13.27-.19,13.27-.11,13.27,0,13.28.07,13.77.22,13.76.46,13.76.76,13.74,1.14,13.74,1.54,13.71,2,13.66,2.44,13.59,2.88,13.16,3.5,13,4.29,12.73,4.12,10,4.72,9.79,5.27,9.52,7.56,11.78,8.48,11.11,9.48,10.23,8.1,7.27,8.63,6.67,9,6.13,9.44,5.67,9.71,5.16,10,4.64,9.46,3.88,9.59,3.57,11.36,4,11.41,3.81,11.44,3.74L1585,2137.94l1,72H23.27l1-72L6.06,796.25l11.44-3.74,11.41-3.81,11.35-4,9.6-3.57,9.46-3.88,10-4.64L79,767.48l9.43-5.67,9-6.13L106.1,749l8.1-7.27,9.48-10.23,8.49-11.11,7.55-11.78L145,699.1l4.72-9.79,4.12-10,4.29-12.73,3.5-13,2.88-13.16,2.44-13.59,2-13.66,1.54-13.71,1.14-13.74.76-13.74.45-13.76.23-13.76.07-13.77,0-13.28L173,504.11l-.2-13.27-.28-13.27-.36-12.66-.46-12.67-.55-12.65-.66-12.65-.76-12.65-.81-11.63L168,391l-1-11.62-1-11.61L165,356.2l-1.23-13.27-1.27-13.27-1.33-13.26-1.39-13.25-1.46-13.24-1.59-13.57L155,262.79l-1.74-13.54-1.79-13.54-1.83-13.53-1.85-13.52-1.77-12.77-1.78-12.77-1.79-12.76L140.7,157.6l-1.8-12.76-1.8-12.77-1.8-12.76L520.88,7.44l3.58,12.47,3.63,12.47,3.69,12.44,3.79,12.41,3.92,12.37,4.1,12.32,4.35,12.39,4.6,12.29,4.91,12.18,5.25,12,5.53,11.65,5.92,11.46,6.3,11.26,6.68,11L594.2,187l6.25,8.85,6.54,8.62,6.88,8.37,7.1,7.93,7.44,7.61,7.8,7.23,10.71,8.84,11.23,8.19,11.67,7.59,12,7.05,10.47,5.6L703,278.05l10.9,4.61,11.16,4L736.81,290l12,2.54,12.11,1.74,12.19.94,7.33.22,7.33.08,11.31.12h11.13l11.31-.12,7.33-.08,7.34-.22,12.18-.94,12.11-1.74,12-2.54,11.76-3.32,11.16-4,10.91-4.61,10.67-5.16,10.47-5.6,12-7.05,11.67-7.59,11.23-8.19L973,235.62l7.79-7.23,7.45-7.61,7.1-7.93,6.87-8.37,6.55-8.62,6.25-8.85,7.07-10.79,6.68-11,6.3-11.26,5.91-11.46,5.54-11.65,5.25-12,4.9-12.18,4.61-12.29,4.35-12.39,4.09-12.32,3.93-12.37,3.79-12.41,3.69-12.44,3.62-12.47,3.59-12.47M1084.27,0l-1.67,5.78L1079,18.26,1075.4,30.7l-3.68,12.42L1068,55.44l-3.9,12.31L1060,80l-4.31,12.28-4.56,12.17-4.85,12-5.17,11.87-5.45,11.47-5.83,11.3-6.19,11.07L1017,173l-6.95,10.6-6.13,8.68-6.42,8.46-6.72,8.17-6.92,7.74-7.26,7.41-7.56,7-10.43,8.62-10.95,8-11.42,7.43-11.8,6.92-10.26,5.49-10.43,5-10.61,4.48-10.81,3.85L871,284.12l-11.59,2.46-11.72,1.68-11.84.92-7.14.21-7.28.08-11.28.12h-11l-11.29-.12-7.27-.08-7.14-.21-11.84-.92-11.72-1.68-11.59-2.46-11.38-3.21-10.8-3.84-10.61-4.49-10.43-5-10.26-5.5L673,255.13l-11.42-7.43-11-8-10.44-8.62-7.56-7-7.25-7.4-6.92-7.74-6.73-8.17-6.42-8.46-6.12-8.68-7-10.61-6.57-10.85-6.2-11.08-5.82-11.28-5.45-11.48L563,116.46l-4.84-12-4.56-12.17L549.26,80,545.2,67.75l-3.91-12.31-3.78-12.37-3.67-12.4-3.61-12.43L526.64,5.78,525,0,519.2,1.68,133.62,113.55l-5,1.45.72,5.15,1.81,12.76,1.8,12.76,1.8,12.76,1.79,12.76L138.34,184l1.78,12.77,1.76,12.76L143.74,223l1.83,13.52L147.35,250l1.73,13.52,1.67,13.52,1.59,13.52,1.46,13.21L155.19,317l1.32,13.23,1.27,13.24L159,356.75l1.05,11.6,1,11.59,1,11.59.89,11.59.8,11.54.76,12.61.66,12.63.55,12.61.45,12.61.36,12.62.29,13.23L167,504.2l.11,13.23,0,13.24L167,544.38,166.82,558l-.46,13.64-.75,13.6-1.12,13.57L163,612.38,161,625.84l-2.41,13.38-2.82,12.91-3.42,12.67-4.16,12.37-4,9.69-4.56,9.48-5.09,9.21L127.25,717l-8.17,10.69L110,737.45l-7.74,6.95L94,750.82l-8.74,5.92L76,762.25l-9.43,5-9.69,4.51-9.25,3.79-9.45,3.52L27,783l-11.37,3.8L4.2,790.54,0,791.92l.06,4.41L18.25,2137.94l-1,71.92-.09,6.08H1592.05l-.08-6.08-1-71.92,18.19-1341.61.06-4.41-4.2-1.38-11.44-3.73L1582.29,783,1571,779.09l-9.45-3.52-9.24-3.78-9.69-4.52-9.43-5-9.17-5.51-8.74-5.92-8.3-6.42-7.74-6.94-9.09-9.82L1482,717l-7.31-11.41-5.1-9.2-4.56-9.47-4-9.7-4.17-12.37-3.41-12.68-2.82-12.9-2.41-13.38-2-13.46-1.52-13.53-1.12-13.57-.76-13.6-.45-13.64-.22-13.66-.07-13.75,0-13.23.11-13.24.19-13.23.29-13.23.36-12.62.45-12.62.55-12.61.65-12.58.77-12.61.8-11.58.89-11.58,1-11.59,1-11.58,1-11.59,1.23-13.26,1.27-13.24,1.33-13.24,1.39-13.22,1.46-13.21,1.59-13.53,1.66-13.51L1461.9,250l1.79-13.51,1.82-13.51,1.86-13.52,1.76-12.76,1.78-12.76,1.78-12.76,1.8-12.76,1.79-12.76,1.81-12.76,1.8-12.76.73-5.15-5-1.45L1090,1.68,1084.27,0Z"/><path class="cls-3" d="M776.29,629.41,775,626l34.86-8.28s-.62-3.37-6.64-3.7c-2.89-.17,16.78-8,16.78-8l-11.29-2.56,9.32-3.55s-2.13-1.56-4.69-3.14a71.86,71.86,0,0,0-7.39-3.65l12.75-5.94-5.88-3.26,6.23-3.22.26-2.54s-.22-1.66-4.13-2-13.37-1.88-13.37-1.88l5.53-4.38s-6.9-3-7.59-3-6.25-.2-6.25-.2l10.76-5.48s-16-2.36-14.62-3.05S797,554,797,554h-7.58l-45.74,9.65,11-34s-6.21,2.75-8,2.52-4.83-4.83-4.83-4.83l-5.75-3-.22-6.44s.22-3.9-1.15-4.14-3.46-.69-4.14-.46A40.14,40.14,0,0,0,724.8,517a15.25,15.25,0,0,1-2.3,1.61l-1.38-6.9-4.37,1.84-5,2.3a4.74,4.74,0,0,1-3.08,2,7.69,7.69,0,0,0-3.82,2.55s-2.52,1.15-2.76,2.06-6.2,9-6.66,9.66-4.6,8.5-4.6,8.5-.23,3-1.37,3.46-3.46,1.15-4.61,1.61-3.9,1.61-4.36,3-2.3,6.21-2.54,7.36-4.59,16.32-4.82,17-2.1,4.46-2.1,4.46L548.23,602l-43.59,12.12,3.33,2s-2.34,2.06-1.53,3.59-1.41,3.63-1.41,3.63l3.23,1.68s2.76,2.76,2.76,3.68,2.07,4.83,2.07,4.83l-3,8.27,2.35,3.57s-.67,5.28-.14,6.37.77,3.39,1.23,4.31a10.92,10.92,0,0,0,3,3.45c.93.46,6.8,2.79,6.86,2.81s10.85,1.09,11.54,1.09,6.72,1.26,8.84,1l119-18L632.16,777s-25,106.43-31.72,120.23-16.54,53.55-24.14,54.93S566,909.39,566.2,897.44,568,804.12,568,804.12L564.59,806s-1.15-5.51-1.85-7.36a42.75,42.75,0,0,1-1.37-6.2,21.27,21.27,0,0,0-2.23-4.11l-8.78,3.59s-4.16,2.59-4.16,1-2.07-6.22-2.07-6.22l-5.53,3.54s-3.74.83-4.44,1.05-4.62,8.06-4.62,8.06c-1.5.69-23.35,49-22.65,99.3s2.06,112.17,24.59,137,67.35,32.87,115.16-82.53,84.42-301.19,88-315.87Z"/><rect class="cls-3" x="987.84" y="865.54" width="7.13" height="10.19" transform="translate(-326.71 811.78) rotate(-38.73)"/><polygon class="cls-3" points="940.99 904.52 943.41 907.54 948.74 903.26 946.31 900.25 940.99 904.52"/><rect class="cls-3" x="785.35" y="1027.95" width="7.15" height="10.17" transform="translate(-473.02 721.49) rotate(-38.76)"/><rect class="cls-3" x="899.94" y="934.79" width="7.6" height="2.78" transform="translate(-387.12 772.26) rotate(-38.77)"/><path class="cls-3" d="M995.13,775.61c-56.55,6.56-112.77,13.09-123.84,12.72s-17.19-7.89,13.5-39.61,176.54-139.3,193.44-153.44l26.54-20.69-8.28-.68,3.1-5.17v-8.29a45.76,45.76,0,0,1-6.54,2.76c-1.73.34-2.41-8.27-2.41-8.27l-2.89-6.45-8.84-1.48,1-3.8-5.51-1.37.68-4.48-7.23.34a86.65,86.65,0,0,0-13.45,5.51c-6.55,3.46-94.47,60.69-134.13,90.69s-116.19,83.1-140,126.2-24.48,67.23,21,86.89,149.31,5.47,149.31,5.47-124.83,100.38-151,119.35-72.76,54.13-77.93,58.27l-3.78,9.66,7.58,2s-7.93,9-9,10-8.54,11.34-8.54,11.34l-2.14,2.12,10.27-.37.41,4.15,8.28-.34-2.41,2.76,16.2-1.38-4.22,3.71,14.22-.61,6.21,3.1,15.17-2.75s27.93-13.79,37.24-18.62,85.16-54.48,120.67-86.89,115.59-91.35,135.18-113.44c13.44-15.17,27.23-40,26.54-60s-37.93-25.52-94.47-19m-214.89,278.7-5.59-7-6,4.81,5.57,6.95-5.49,4.4-13.93-17.36,5.48-4.4,5.2,6.46,6-4.82-5.18-6.46,5.49-4.4,13.93,17.37Zm19.66-15.78-8,6.41c-2.8,2.24-5.48,1.84-8-1.28l-6.41-8c-2.56-3.19-2.4-5.8.46-8.1l8-6.41c2.87-2.31,5.39-1.88,8,1.32l6.42,8c2.49,3.11,2.33,5.81-.47,8m10.89-8.73c-3.18,2.55-6,2.22-8.55-.94l-6.36-7.93c-2.46-3.07-2-6.08.82-8.37l11.2-9,3.77,4.69-10.32,8.27,6.35,7.93,10.31-8.26,3.8,4.75Zm24.46-19.62L825,1007.5l-1.25,1,5.31,6.63-5.33,4.27L809.81,1002l5.32-4.27,5.34,6.65,1.25-1-.43-10.58,6.4-5.13.23,13.83,14.06,3.24Zm7.35-5.91-13.93-17.35,14.47-11.62,3.77,4.69-9,7.26,1.6,2,9-7.22,3.16,3.93-9,7.22,1.6,2,9-7.2,3.81,4.74Zm22.12-17.74-5-6.29-15.54-5.75,6.26-5,8.42,4-2-9.1,6.28-5,2.2,16.46,5,6.27Zm27.12-21.75c-3.18,2.54-6,2.21-8.55-.95l-6.36-7.93c-2.46-3.06-2-6.07.82-8.36l11.19-9,3.78,4.7-10.32,8.29,6.35,7.92,10.3-8.26,3.81,4.74ZM916,945.4l-5.61-7-5.92,4.76,5.6,7-5.39,4.32-11-13.78c-1.74-2.16-1.48-4.7,1-6.69l9-7.2c2.5-2,5-1.7,6.76.46L921.41,941Zm22.48-18-6.87-8.58A26.2,26.2,0,0,1,929,915l-.16.13,6.81,14.51L931.43,933l-12.7-9.79-.15.11a28.22,28.22,0,0,1,3.19,3.34l6.87,8.57-5.16,4.14L909.56,922l7.5-6,9.21,7.21c.82.64,1.7,1.43,2.67,2.36a34.22,34.22,0,0,1-1.71-3.13l-5-10.56,7.52-6,13.92,17.36ZM954,905.65l-7.27,5.83,4.53,5.65-5.41,4.35-13.94-17.37L944.45,894c2.41-1.94,4.35-1.85,6.41.71l3.84,4.78c1.83,2.28,1.57,4.3-.74,6.14m18.35-5.44-3.88-4.83c-2-2.51-2.43-4.7-.16-8l5.44-8-.44-.54-9.83,7.89-3.88-4.84L971,872.72c2.49-2,4.2-2.19,6.2.3l2.26,2.81a3.49,3.49,0,0,1,.12,4.45l-6.37,9.92.67.81,10.63-8.54,3.88,4.84Zm30.06-24.12-8,6.44c-2.78,2.24-5.52,1.75-8-1.36L980,873.22c-2.57-3.22-2.43-5.74.46-8.06l8-6.42c2.88-2.32,5.34-2,7.95,1.29l6.38,8c2.5,3.11,2.39,5.88-.4,8.11m5.8-4.63-3.88-4.84c-2-2.51-2.44-4.7-.17-8l5.44-8-.44-.53L999.29,858l-3.88-4.83,11.44-9.18c2.49-2,4.2-2.19,6.2.29l2.26,2.82a3.49,3.49,0,0,1,.12,4.45l-6.36,9.91.65.82,10.65-8.54,3.88,4.84Zm27.57-22.13-3.12-3.88-10.26,8.22-4.34-5.42,4.32-16.72,4.76-3.82,7.46,9.3,1.93-1.55,3.36,4.19-1.93,1.55,3.12,3.88Z"/><polygon class="cls-3" points="1024.05 845.52 1029.3 841.31 1026.15 837.38 1024.05 845.52"/><polygon class="cls-3" points="449.73 1204.83 445.52 1204.83 445.52 1198.39 457.14 1189.16 462.89 1189.16 462.89 1231.71 449.73 1231.71 449.73 1204.83"/><path class="cls-3" d="M478.2,1206.43h13v-1.52h-9c-2.63,0-4-1.47-4-4.36v-1.76c0-2.85,1.23-4.28,4-4.28h13.69v6.32H485v1.52h8.84c2.88,0,4.24,1.42,4.24,4.49v1.89c0,2.69-1.39,4-4.24,4H478.2Z"/><path class="cls-3" d="M506.1,1212.74c-4,0-5.15-2-5.15-6.3v-6.34h-1.69v-3.62H501v-8.55h7.25v8.55H515v3.62H508.2v6.34h7v6.3Z"/><path class="cls-3" d="M540.52,1220.1v-19.43c0-7.52,4.21-11.5,11.22-11.5H579.2v11.5H553.9v19.43h25.24v11.61h-27c-7.8,0-11.62-3.86-11.62-11.61"/><path class="cls-3" d="M593.1,1189.16h22c6.09,0,9.51,3.48,9.51,8.77v33.78H611.33v-17.14H596.8v17.14H583.59v-33.78c0-5.29,3.42-8.77,9.51-8.77m18.23,11.52H596.8v5.3h14.53Z"/><path class="cls-3" d="M655.54,1210.92l5.13-21.76h18.4v42.55H666.43v-21a54,54,0,0,1,.73-8.78h-.4l-7.17,29.79H649.16l-7.24-29.79h-.34a53,53,0,0,1,.75,8.78v21H629.68v-42.55h18.4l5.13,21.76c.45,1.94.79,4.16,1.14,6.72.34-2.56.73-4.78,1.19-6.72"/><path class="cls-3" d="M684.38,1189.16h30.81c5.93,0,8.72,2.45,8.72,8.72v11.73c0,5.58-2.79,8.26-8.43,8.26H697.65v13.84H684.38Zm26.15,11.52H697.47v7.4h13.06Z"/><rect class="cls-3" x="750.01" y="1189.16" width="13.28" height="42.55"/><path class="cls-3" d="M768.58,1189.16h16.29l10.37,16.74c.74,1.21,1.65,3.08,2.79,5.53a41,41,0,0,1-.69-7.92v-14.35H810v42.55H797.34l-14-22.27a48.75,48.75,0,0,1-2.79-5.52,40.42,40.42,0,0,1,.69,7.85v19.94H768.58Z"/><polygon class="cls-3" points="848.74 1200.67 835.68 1200.67 835.68 1189.16 875.17 1189.16 875.17 1200.67 862.7 1200.67 862.7 1231.72 848.74 1231.72 848.74 1200.67"/><polygon class="cls-3" points="878.93 1189.16 892.37 1189.16 892.37 1204.99 907.07 1204.99 907.07 1189.16 920.52 1189.16 920.52 1231.71 907.07 1231.71 907.07 1214.68 892.37 1214.68 892.37 1231.71 878.93 1231.71 878.93 1189.16"/><path class="cls-3" d="M935,1189.16h22c6.1,0,9.51,3.48,9.51,8.77v33.78H953.22v-17.14H938.69v17.14H925.48v-33.78c0-5.29,3.41-8.77,9.52-8.77m18.22,11.52H938.69v5.3h14.53Z"/><rect class="cls-3" x="971.68" y="1189.16" width="13.28" height="42.55"/><polygon class="cls-3" points="990.37 1189.16 1004.44 1189.16 1004.44 1220.09 1024.9 1220.09 1024.9 1231.71 990.37 1231.71 990.37 1189.16"/><path class="cls-3" d="M1038.57,1189.16h22c6.11,0,9.51,3.48,9.51,8.77v33.78H1056.8v-17.14h-14.53v17.14h-13.22v-33.78c0-5.29,3.42-8.77,9.52-8.77m18.23,11.52h-14.53v5.3h14.53Z"/><path class="cls-3" d="M1075.09,1189.16h16.29l10.37,16.74c.74,1.21,1.65,3.08,2.79,5.53a41,41,0,0,1-.69-7.92v-14.35h12.65v42.55h-12.65l-14-22.27a48.75,48.75,0,0,1-2.79-5.52,40.42,40.42,0,0,1,.69,7.85v19.94h-12.65Z"/><path class="cls-3" d="M1121.63,1189.16h31.62c6.38,0,10.48,4,10.48,11.46V1220c0,7.73-3.7,11.72-10.77,11.72h-31.33Zm28.43,11.52h-15.15v19.42h15.15Z"/><path class="cls-4" d="M549.53,1141.69c0,6.35-1.84,11.45-9.58,11.45a16.73,16.73,0,0,1-3.46-.44l.48-3.7a14.63,14.63,0,0,0,2.45.24c5.2,0,6-2.5,6-7.46v-22.7h4.1Z"/><path class="cls-4" d="M562.28,1141.54v-11.26c0-7,3.65-11.6,11.16-11.6s11.17,4.57,11.17,11.6v11.26c0,7-3.66,11.6-11.17,11.6s-11.16-4.58-11.16-11.6m18.23-.48v-10.29c0-5.2-1.88-8.19-7.07-8.19s-7.08,3-7.08,8.19v10.29c0,5.19,1.88,8.18,7.08,8.18s7.07-3,7.07-8.18"/><polygon class="cls-4" points="597.35 1119.07 600.47 1119.07 616.21 1144.38 616.46 1144.38 616.46 1119.07 620.3 1119.07 620.3 1152.76 616.74 1152.76 601.44 1127.87 601.19 1127.87 601.19 1152.76 597.35 1152.76 597.35 1119.07"/><path class="cls-4" d="M638.05,1144.38l-2.65,8.37h-4.28l11.12-33.68h3.56L657,1152.75h-4.33l-2.64-8.37Zm5.87-19-4.86,15.21H649l-4.86-15.21Z"/><path class="cls-4" d="M682,1143.47c0-10.3-16.12-3.8-16.12-15.79,0-5.77,3.41-9,9.72-9a14.92,14.92,0,0,1,9.14,3l-1.83,3.07a13.36,13.36,0,0,0-7.31-2.3c-4.71,0-5.73,2.45-5.73,5.14,0,7.71,16.13,2.66,16.13,15.5,0,5.48-3,10-10.64,10a17.57,17.57,0,0,1-10.2-3.22l1.87-3.23c2.41,1.31,4.86,2.56,8.33,2.56,5,0,6.64-2.56,6.64-5.77"/><path class="cls-4" d="M729.66,1143.47c0-10.3-16.12-3.8-16.12-15.79,0-5.77,3.41-9,9.72-9a14.92,14.92,0,0,1,9.14,3l-1.83,3.07a13.34,13.34,0,0,0-7.31-2.3c-4.71,0-5.73,2.45-5.73,5.14,0,7.71,16.13,2.66,16.13,15.5,0,5.48-3,10-10.64,10a17.57,17.57,0,0,1-10.2-3.22l1.87-3.23c2.42,1.31,4.86,2.56,8.33,2.56,5,0,6.64-2.56,6.64-5.77"/><rect class="cls-4" x="745.58" y="1119.07" width="4.09" height="33.69"/><polygon class="cls-4" points="767.72 1133.7 779.75 1133.7 779.75 1137.45 767.72 1137.45 767.72 1149 780.8 1149 780.8 1152.75 763.62 1152.75 763.62 1119.07 780.8 1119.07 780.8 1122.82 767.72 1122.82 767.72 1133.7"/><path class="cls-4" d="M796.1,1130.76v10.3c0,5.19,1.93,8.19,7.08,8.19,3.7,0,6-1.6,6.92-2.89v-7.66h-6.4V1135H814v12.65a12.33,12.33,0,0,1-10.78,5.54c-7.52,0-11.17-4.57-11.17-11.6v-11.26c0-7,3.65-11.6,11.17-11.6,4.28,0,7.89,1.69,9.85,6.36l-3.31,1.68c-1.44-2.45-2.89-4.13-6.54-4.13-5.15,0-7.08,3-7.08,8.17"/><polygon class="cls-4" points="831.03 1133.7 843.06 1133.7 843.06 1137.45 831.03 1137.45 831.03 1149 844.12 1149 844.12 1152.75 826.94 1152.75 826.94 1119.07 844.12 1119.07 844.12 1122.82 831.03 1122.82 831.03 1133.7"/><polygon class="cls-4" points="856.53 1119.07 859.65 1119.07 875.39 1144.38 875.64 1144.38 875.64 1119.07 879.48 1119.07 879.48 1152.76 875.92 1152.76 860.62 1127.87 860.38 1127.87 860.38 1152.76 856.53 1152.76 856.53 1119.07"/><polygon class="cls-4" points="904.26 1152.75 900.16 1152.75 900.16 1122.82 891.03 1122.82 891.03 1119.07 913.36 1119.07 913.36 1122.82 904.26 1122.82 904.26 1152.75"/><polygon class="cls-4" points="943.23 1137.16 929.03 1137.16 929.03 1152.76 924.95 1152.76 924.95 1119.07 929.03 1119.07 929.03 1133.41 943.23 1133.41 943.23 1119.07 947.33 1119.07 947.33 1152.76 943.23 1152.76 943.23 1137.16"/><path class="cls-4" d="M965.07,1144.38l-2.65,8.37h-4.28l11.12-33.68h3.56L984,1152.75h-4.33l-2.65-8.37Zm5.87-19-4.86,15.21H976l-4.86-15.21Z"/><polygon class="cls-4" points="994.76 1119.07 998.85 1119.07 998.85 1149.01 1011.94 1149.01 1011.94 1152.76 994.76 1152.76 994.76 1119.07"/><polygon class="cls-4" points="1026.99 1133.7 1039.03 1133.7 1039.03 1137.45 1026.99 1137.45 1026.99 1149 1040.08 1149 1040.08 1152.75 1022.9 1152.75 1022.9 1119.07 1040.08 1119.07 1040.08 1122.82 1026.99 1122.82 1026.99 1133.7"/><path class="cls-4" d="M1052.49,1119.07h9.33c7,0,11.32,2.8,11.32,10.25,0,6.68-3.91,8.85-6.31,9.62l7.22,13.82h-4.62l-6.64-13.19h-6.21v13.19h-4.09Zm4.09,16.75h5.49c4.38,0,6.88-1.68,6.88-6.5,0-5.15-2.59-6.5-7.41-6.5h-5Z"/><path class="cls-3" d="M1571.71,2207.66l-.51-2.56H1569l-.51,2.56h-2.17l2.3-11.5h3l2.3,11.5Zm-.94-4.68-.68-3.45-.69,3.45Z"/><path class="cls-3" d="M1582.86,2207.66h-2.13v-6.48l-1.86,4-1.84-4v6.48h-2.13v-11.5H1577l1.84,4,1.86-4h2.13Z"/></g></g></svg>