<svg xmlns="http://www.w3.org/2000/svg" viewBox="0 0 1405.49 799.79"><defs><style>.cls-1{fill:#021814;}.cls-2{fill:#007f3e;}.cls-3{fill:#fff;}.cls-4{fill:#ed1c24;}</style></defs><g id="Layer_2" data-name="Layer 2"><g id="Layer_1-2" data-name="Layer 1"><polygon class="cls-1" points="105.49 796.79 129.68 721.79 3.81 331.55 19.94 327.05 33.05 323.37 46.15 319.65 59.23 315.88 72.3 312.03 85.33 308.08 97.32 304.34 109.25 300.45 121.1 296.37 132.84 292.06 144.46 287.46 155.88 282.56 168.39 276.68 180.67 270.4 192.78 263.75 204.7 256.78 216.51 249.5 228.17 242 239.71 234.29 251.15 226.42 261.34 219.27 271.47 212.04 281.57 204.75 291.63 197.4 301.68 190.02 329.55 169.45 338.86 162.61 348.19 155.79 358.45 148.35 368.75 140.95 379.07 133.59 389.42 126.25 399.78 118.94 410.15 111.65 420.54 104.38 430.93 97.12 441.33 89.86 451.92 82.49 462.55 75.16 473.25 67.92 484.07 60.82 495.02 53.92 506.15 47.27 517.48 40.92 529.8 34.54 542.29 28.67 554.96 23.37 567.93 18.67 581.12 14.66 593.22 11.68 605.46 9.28 617.83 7.38 630.11 5.94 642.52 4.87 654.94 4.12 666.92 3.63 678.87 3.32 690.8 3.13 702.71 3 714.67 3.13 726.59 3.32 738.52 3.63 750.48 4.11 762.88 4.86 775.29 5.93 787.76 7.39 800.03 9.28 812.33 11.7 824.37 14.66 837.56 18.67 850.52 23.37 863.31 28.72 875.79 34.59 887.92 40.87 899.27 47.23 910.41 53.89 921.37 60.79 932.2 67.89 942.92 75.14 953.56 82.48 964.15 89.86 974.55 97.12 984.95 104.38 995.33 111.65 1005.7 118.94 1016.06 126.25 1026.4 133.58 1036.72 140.94 1047.02 148.35 1057.29 155.79 1066.62 162.6 1075.93 169.45 1085.23 176.31 1094.52 183.17 1103.82 190.03 1113.86 197.41 1123.93 204.76 1134.03 212.05 1144.17 219.29 1154.37 226.44 1165.82 234.31 1177.37 242.02 1189.04 249.54 1200.85 256.81 1212.79 263.79 1224.9 270.44 1237.19 276.72 1249.62 282.56 1261.11 287.5 1272.72 292.09 1284.45 296.39 1296.28 300.46 1308.2 304.35 1320.18 308.09 1333.21 312.03 1346.27 315.88 1359.35 319.65 1372.44 323.37 1385.55 327.05 1401.68 331.55 1275.81 721.79 1300 796.79 105.49 796.79"/><path class="cls-2" d="M702.75,6l11.89.13,11.9.19,11.91.31,11.91.48,12.34.75L775,8.92l12.28,1.44,12.2,1.87,12.1,2.38,12,2.95,13,4,12.82,4.65L862,31.44l12.38,5.81,12.13,6.28,11.26,6.32,11.07,6.61,10.9,6.87,10.78,7.07,10.69,7.22L951.85,85l10.59,7.37,10.39,7.26,10.4,7.26,10.38,7.27,10.37,7.28,10.35,7.31,10.34,7.33,10.31,7.36,10.29,7.39,10.26,7.44,9.32,6.81,9.31,6.84,9.29,6.85,9.29,6.86,9.29,6.86,10.06,7.39,10.07,7.35,10.12,7.31,10.15,7.24,10.21,7.17,11.48,7.88,11.58,7.74,11.71,7.54,11.86,7.31,12,7,12.18,6.69,12.37,6.32,12.57,5.91,11.54,4.95,11.68,4.63,11.8,4.33,11.9,4.09,12,3.9,12,3.75,13,3.95,13.08,3.86,13.1,3.78,13.11,3.72,13.11,3.68,13.13,3.66L1272.66,721.79l23.22,72H109.61l23.22-72L7.63,333.6l13.12-3.66,13.11-3.68L47,322.54l13.1-3.78,13.07-3.86L86.2,311l12-3.75,12-3.9,11.9-4.09,11.8-4.33,11.68-4.62,11.54-5,12.57-5.91L182,273.07l12.18-6.69,12-7,11.86-7.31,11.71-7.54,11.58-7.74,11.48-7.88,10.21-7.17,10.15-7.24,10.11-7.31,10.08-7.35,10.05-7.39,9.3-6.86,9.28-6.86,9.3-6.85,9.3-6.84,9.33-6.81,10.26-7.44,10.28-7.39L380.82,136l10.33-7.33,10.36-7.31,10.37-7.28,10.38-7.27,10.39-7.26,10.4-7.26L453.63,85l10.62-7.33,10.68-7.22,10.78-7.07,10.91-6.87,11.07-6.61L519,43.53l12.13-6.28,12.37-5.81,12.6-5.27,12.83-4.65,13-4,12-2.95L606,12.23l12.21-1.87,12.28-1.44,12.32-1.06,12.34-.75L667,6.63,679,6.32l11.9-.19L702.75,6m0-6h-.07l-11.9.13L678.85.32h-.06l-11.9.31h-.09l-11.92.48h-.12l-12.34.75h-.15L629.94,2.94h-.18L617.48,4.4h-.11l-.11,0L605.06,6.3l-.12,0-.13,0L592.72,8.72l-.14,0-.14,0-12,2.94-.16,0-.15.05-13,3.95-.15.05-.15.06L554,20.53l-.14,0-.13.05-12.6,5.27L541,26l-.12.06-12.37,5.81-.11.05-.1.05-12.13,6.29-.09,0-.09,0-11.26,6.31-.07,0-.07.05-11.07,6.61-.06,0-.06,0-10.91,6.86,0,0-.05,0-10.78,7.08,0,0,0,0-10.68,7.22,0,0,0,0L450.23,80,439.62,87.4l-10.4,7.26-10.4,7.26-10.38,7.27-10.38,7.29-10.37,7.32-10.34,7.33L367,138.5l-10.31,7.41-10.28,7.45-9.34,6.82L327.77,167l-9.3,6.86-9.29,6.87-9.29,6.85-10,7.38-10.06,7.34-10.09,7.29-10.13,7.22L249.42,224,238,231.82l-11.5,7.68L214.87,247l-11.74,7.23-11.87,6.94-12,6.61L167,274l-12.39,5.82-11.36,4.88-11.54,4.56-11.67,4.28-11.79,4.06-11.89,3.87-12,3.74-13,3.94-13,3.84-13.06,3.77-13.08,3.71-13.1,3.68L6,327.82,0,329.5l1.92,5.94,124.6,386.35L103.9,792l-2.53,7.84H1304.12l-2.53-7.84L1279,721.79l124.62-386.35,1.91-5.94-6-1.68-13.12-3.66-13.11-3.68-13.1-3.72L1347.08,313l-13-3.84-13-3.93-12-3.74-11.89-3.87-11.78-4.05-11.68-4.29-11.53-4.56-11.37-4.88L1238.46,274l-12.2-6.24-12-6.61-11.87-6.94L1190.61,247,1179,239.5l-11.5-7.68L1156.07,224l-10.19-7.15-10.12-7.22-10.08-7.28L1115.62,195l-10-7.38-9.29-6.85L1087,173.9l-9.3-6.86-9.31-6.85-9.34-6.82-10.28-7.45-10.31-7.41-10.33-7.37-10.35-7.34-10.36-7.31-10.38-7.29-10.39-7.28-10.4-7.26-10.4-7.26L955.28,80l-10.64-7.33,0,0,0,0-10.69-7.22,0,0,0,0-10.77-7.08-.05,0,0,0-10.91-6.86-.06,0,0,0L900.88,44.7l-.07-.05-.08,0L889.48,38.3l-.09,0-.09,0-12.13-6.29-.11-.05-.1-.05L864.59,26l-.12-.06-.12-.05-12.6-5.27-.14-.05-.13,0-12.82-4.65-.15-.06-.16-.05-13-3.95-.15-.05-.16,0-12-2.94-.14,0-.14,0-12.1-2.37-.12,0-.12,0L788.22,4.43l-.11,0H788L775.73,3h-.19L763.22,1.88h-.15l-12.35-.75h-.12L738.69.63h-.09L726.7.32h-.06L714.74.13,702.81,0Z"/><path class="cls-3" d="M843.56,365.66c0-39.87-44.87-39.87-50.92-39.87H781.77s15.35,15.44,15.35,21a2.28,2.28,0,0,1-2.28,2.28h-39.1a2.28,2.28,0,0,1-2.29-2.28c0-5.57,15.35-21,15.35-21-14.9,0-36.26,3.33-51.11,13.89a124.91,124.91,0,0,0-131.27,163.2c-9.24,11.28-24.49,34.38-24.49,63.84,0,25.45,12.57,47.07,12.57,47.07S596.9,581,647.08,581a5.07,5.07,0,0,0,5-4,124.89,124.89,0,0,0,162-174.07c13.83-4.25,29.51-15.25,29.51-37.27M806,399.5A119.7,119.7,0,0,1,625.32,553.18a7.4,7.4,0,0,0-.87,2.6c0,11,22.63,20.08,22.63,20.08-47.71,0-71.44,28.58-71.44,28.58s-8.57-17.45-8.57-37.72c0-32.94,21.14-57.6,21.14-57.6s0,18.59,8.44,18.59a12.21,12.21,0,0,0,6.11-1.58A119.76,119.76,0,0,1,705.07,344.19a121.63,121.63,0,0,1,14.11.85c15.33-12,38.23-13.38,38.23-13.38s-11.3,8.38-11.3,15.56c0,4.39,4.54,7,12.15,7h33.83c7.51,0,10.19-3.83,10.19-7.42,0-6.76-9.44-15.87-9.44-15.87,22.86-.85,45.58,10,45.58,34.73,0,24.11-20.9,32-32.44,33.84"/><path class="cls-3" d="M670.38,392.67c6.36,0,15.87,2.44,25.06,14.07l25.86,32.75,14.88-39.32s-30.5-.28-30.5-27.8a33.84,33.84,0,0,1,3.53-15.49c-1.37-.05-2.75-.1-4.14-.1a107.11,107.11,0,0,0-97.78,150.88L640.46,420c6.86-18.15,16.93-27.34,29.92-27.34"/><path class="cls-3" d="M756.47,517.22c-7.83,20.72-29.22,42.84-65.73,42.84-24.85,0-34.5-11.4-52.15-12.17A107.11,107.11,0,0,0,797.28,409.38Z"/><path class="cls-3" d="M683.6,514.29l11.32-11.85-12.49-22.67-13.17,34.81a123,123,0,0,0-28.68-3.71,97.24,97.24,0,0,0-29.26,4.88q1.29,2.34,2.7,4.6c5.4-1.88,13.4-3.36,26.56-3.36,19,0,36.13,4.5,43-2.7"/><path class="cls-4" d="M803,336.22a15.66,15.66,0,0,1,4.41,10.58c0,6.43-5,12.57-15.33,12.57H758.26c-13.15,0-17.29-6.71-17.29-12.14a12,12,0,0,1,3.07-8.34s-33.22,6.48-33.22,33.48c0,22.72,25.4,22.65,25.4,22.65h7.41L722.9,449.81l-31.5-39.89c-1.95-2.47-9.61-12.11-21-12.11-15.86,0-22.76,17.79-25.11,24L611.8,510.25a92.6,92.6,0,0,1,28.78-4.52,121.76,121.76,0,0,1,25.47,2.8l15.51-41,19.68,35.73-13.93,14.57c-9.17,9.59-28.3,4.29-46.73,4.29-34.4,0-31.07,10.71-43.93,10.71-9.11,0-11.47-11.05-11.47-11.05s-13,21.48-13,44.92a86.64,86.64,0,0,0,5.35,28.61s26.8-22.82,53.81-22.82c0,0-12.06-5.79-12.06-16.71,0-3.12,4.12-13.08,17.41-13.08,20.58,0,29.16,12.21,54,12.21,34.79,0,54.11-21.56,60.92-39.52L797.21,395s36.07.07,36.07-29.36c0-27-30.27-29.44-30.27-29.44"/><path class="cls-1" d="M838.42,365.66c0-24.76-22.72-35.59-45.58-34.73,0,0,9.44,9.11,9.44,15.87,0,3.59-2.68,7.42-10.19,7.42H758.26c-7.61,0-12.15-2.61-12.15-7,0-7.19,11.3-15.58,11.3-15.58S734.51,333,719.18,345a121.63,121.63,0,0,0-14.11-.85,119.74,119.74,0,0,0-102.3,181.94,12.25,12.25,0,0,1-6.12,1.58c-8.39,0-8.44-18.59-8.44-18.59s-21.14,24.66-21.14,57.59c0,20.29,8.57,37.73,8.57,37.73s23.72-28.58,71.45-28.58c0,0-22.64-9.1-22.64-20.08a7.67,7.67,0,0,1,.87-2.6A119.7,119.7,0,0,0,806,399.5c11.54-1.84,32.44-9.73,32.44-33.84M597.94,463.92A107.14,107.14,0,0,1,705.07,356.78c1.39,0,2.77.05,4.14.1a33.84,33.84,0,0,0-3.53,15.49c0,27.52,30.5,27.8,30.5,27.8L721.3,439.49l-25.86-32.75c-9.19-11.63-18.7-14.07-25.06-14.07-13,0-23.06,9.19-29.92,27.34l-33.18,87.65a106.8,106.8,0,0,1-9.34-43.74m13.38,51.83a97.24,97.24,0,0,1,29.26-4.88,123,123,0,0,1,28.68,3.71l13.17-34.8,12.49,22.66L683.6,514.29c-6.89,7.2-24.06,2.7-43,2.7-13.16,0-21.16,1.48-26.56,3.36q-1.41-2.26-2.7-4.6M812.2,463.92a107.09,107.09,0,0,1-173.6,84c17.64.77,27.29,12.17,52.14,12.17,36.51,0,57.89-22.12,65.73-42.84l40.81-107.84a106.48,106.48,0,0,1,14.92,54.54m-15-68.9L751.67,515.41c-6.81,18-26.13,39.52-60.93,39.52-24.86,0-33.44-12.22-54-12.22-13.3,0-17.42,10-17.42,13.07,0,10.93,12.06,16.72,12.06,16.72-27,0-53.81,22.82-53.81,22.82a86.64,86.64,0,0,1-5.35-28.61c0-23.44,13-44.93,13-44.93s2.35,11.07,11.47,11.07c12.86,0,9.53-10.72,43.93-10.72,18.43,0,37.56,5.3,46.73-4.29l13.93-14.57-19.68-35.73-15.51,41a122.17,122.17,0,0,0-25.47-2.79,92.6,92.6,0,0,0-28.78,4.52l33.47-88.43c2.35-6.22,9.25-24,25.11-24,11.41,0,19.06,9.63,21,12.11l31.49,39.89L743.63,395h-7.41s-25.4.07-25.4-22.65c0-27,33.22-33.48,33.22-33.48a12,12,0,0,0-3.07,8.34c0,5.42,4.14,12.14,17.29,12.14h33.83c10.32,0,15.32-6.14,15.32-12.57a15.67,15.67,0,0,0-4.4-10.58s30.27,2.44,30.27,29.44c0,29.43-36.06,29.36-36.06,29.36"/><path class="cls-3" d="M802.56,554.2a7.2,7.2,0,1,0,7.2,7.2,7.2,7.2,0,0,0-7.2-7.2m0,12.85a5.66,5.66,0,1,1,5.66-5.65,5.65,5.65,0,0,1-5.66,5.65"/><path class="cls-3" d="M805.52,559.72a2.43,2.43,0,0,0-2.44-2.43H799.6v8.22h1.54v-3.34h1.11l1.56,3.34h1.71L803.89,562a2.44,2.44,0,0,0,1.63-2.3m-2.44.9h-1.94v-1.79h1.94a.9.9,0,0,1,0,1.79"/><path class="cls-3" d="M1277.87,791.57l-.51-2.56h-2.23l-.51,2.56h-2.17l2.3-11.51h3l2.3,11.51Zm-.94-4.69-.68-3.44-.69,3.44Z"/><path class="cls-3" d="M1289,791.57h-2.13v-6.48L1285,789l-1.84-3.95v6.48h-2.13V780.06h2.13l1.84,4,1.86-4H1289Z"/></g></g></svg>