<svg xmlns="http://www.w3.org/2000/svg" width="200" height="200" viewBox="0 0 200 200" version="1.1"><path d="M 118.923 2.923 C 112.482 9.365, 116.889 20, 126 20 C 129.258 20, 130.784 19.369, 133.077 17.077 C 139.518 10.635, 135.111 0, 126 0 C 122.742 0, 121.216 0.631, 118.923 2.923 M 14.299 9.960 C 5.622 15.250, 5.984 29.838, 14.906 34.451 C 24.654 39.493, 35.987 32.910, 35.996 22.200 C 36.004 13.665, 30.424 8.007, 22 8.007 C 19.297 8.007, 16.222 8.787, 14.299 9.960 M 175.571 17.571 C 174.707 18.436, 174 20.429, 174 22 C 174 23.571, 174.707 25.564, 175.571 26.429 C 177.592 28.450, 182.408 28.450, 184.429 26.429 C 185.293 25.564, 186 23.571, 186 22 C 186 18.356, 183.644 16, 180 16 C 178.429 16, 176.436 16.707, 175.571 17.571 M 74.174 28.314 C 69.208 33.601, 72.870 42, 80.140 42 C 84.756 42, 88 38.640, 88 33.860 C 88 26.760, 79.019 23.157, 74.174 28.314 M 156.414 51.363 C 156.099 52.184, 155.990 53.900, 156.171 55.177 C 156.444 57.102, 157.099 57.500, 160 57.500 C 163.333 57.500, 163.500 57.333, 163.500 54 C 163.500 50.781, 163.239 50.475, 160.243 50.186 C 158.059 49.976, 156.798 50.363, 156.414 51.363 M 110.299 59.960 C 101.622 65.250, 101.984 79.838, 110.906 84.451 C 120.654 89.493, 131.987 82.910, 131.996 72.200 C 132.004 63.665, 126.424 58.007, 118 58.007 C 115.297 58.007, 112.222 58.787, 110.299 59.960 M 27.571 61.571 C 25.550 63.592, 25.550 68.408, 27.571 70.429 C 28.436 71.293, 30.429 72, 32 72 C 33.571 72, 35.564 71.293, 36.429 70.429 C 38.450 68.408, 38.450 63.592, 36.429 61.571 C 34.408 59.550, 29.592 59.550, 27.571 61.571 M 66.414 75.363 C 66.099 76.184, 65.990 77.900, 66.171 79.177 C 66.444 81.102, 67.099 81.500, 70 81.500 C 73.333 81.500, 73.500 81.333, 73.500 78 C 73.500 74.781, 73.239 74.475, 70.243 74.186 C 68.059 73.976, 66.798 74.363, 66.414 75.363 M 170.923 82.923 C 164.482 89.365, 168.889 100, 178 100 C 183.847 100, 188 95.847, 188 90 C 188 80.889, 177.365 76.482, 170.923 82.923 M 56.923 108.923 C 50.482 115.365, 54.889 126, 64 126 C 69.847 126, 74 121.847, 74 116 C 74 106.889, 63.365 102.482, 56.923 108.923 M 20.414 113.363 C 20.099 114.184, 19.990 115.900, 20.171 117.177 C 20.444 119.102, 21.099 119.500, 24 119.500 C 27.333 119.500, 27.500 119.333, 27.500 116 C 27.500 112.781, 27.239 112.475, 24.243 112.186 C 22.059 111.976, 20.798 112.363, 20.414 113.363 M 153.571 123.571 C 152.707 124.436, 152 126.429, 152 128 C 152 129.571, 152.707 131.564, 153.571 132.429 C 154.436 133.293, 156.429 134, 158 134 C 159.571 134, 161.564 133.293, 162.429 132.429 C 163.293 131.564, 164 129.571, 164 128 C 164 126.429, 163.293 124.436, 162.429 123.571 C 161.564 122.707, 159.571 122, 158 122 C 156.429 122, 154.436 122.707, 153.571 123.571 M 108.174 126.314 C 103.208 131.601, 106.870 140, 114.140 140 C 118.756 140, 122 136.640, 122 131.860 C 122 124.760, 113.019 121.157, 108.174 126.314 M 18.174 158.314 C 13.208 163.601, 16.870 172, 24.140 172 C 28.756 172, 32 168.640, 32 163.860 C 32 156.760, 23.019 153.157, 18.174 158.314 M 164.923 166.923 C 162.631 169.216, 162 170.742, 162 174 C 162 177.258, 162.631 178.784, 164.923 181.077 C 171.365 187.518, 182 183.111, 182 174 C 182 170.742, 181.369 169.216, 179.077 166.923 C 176.784 164.631, 175.258 164, 172 164 C 168.742 164, 167.216 164.631, 164.923 166.923 M 63.571 169.571 C 61.550 171.592, 61.550 176.408, 63.571 178.429 C 64.436 179.293, 66.429 180, 68 180 C 69.571 180, 71.564 179.293, 72.429 178.429 C 74.450 176.408, 74.450 171.592, 72.429 169.571 C 71.564 168.707, 69.571 168, 68 168 C 66.429 168, 64.436 168.707, 63.571 169.571 M 116.414 175.363 C 116.099 176.184, 115.990 177.900, 116.171 179.177 C 116.444 181.102, 117.099 181.500, 120 181.500 C 123.333 181.500, 123.500 181.333, 123.500 178 C 123.500 174.781, 123.239 174.475, 120.243 174.186 C 118.059 173.976, 116.798 174.363, 116.414 175.363" stroke="none" fill="#080404" fill-rule="evenodd"/></svg>