<svg xmlns="http://www.w3.org/2000/svg" width="200" height="200" viewBox="0 0 200 200" version="1.1"><path d="" stroke="none" fill="#080404" fill-rule="evenodd"/><path d="M 26.250 23.745 L 49.995 47.489 73.519 23.995 C 92.888 4.651, 96.660 0.440, 94.870 0.161 C 93.175 -0.104, 87.997 4.516, 71.348 21.152 L 50 42.483 28.741 21.241 C 12.457 4.970, 6.901 0, 4.994 0 C 2.939 0, 6.644 4.139, 26.250 23.745 M 36.750 13.240 L 49.990 26.481 63.023 13.490 C 73.963 2.587, 75.707 0.446, 73.883 0.161 C 72.239 -0.095, 69.071 2.454, 60.855 10.644 L 50 21.466 39.234 10.733 C 31.347 2.871, 27.804 -0, 25.988 -0 C 23.892 -0, 25.551 2.041, 36.750 13.240 M 44.261 5.739 L 50 11.478 55.739 5.739 C 60.924 0.554, 61.242 0, 59.037 0 C 57.645 0, 55.177 1.374, 53.298 3.196 L 50 6.392 46.702 3.196 C 44.823 1.374, 42.355 0, 40.963 0 C 38.758 0, 39.076 0.554, 44.261 5.739 M 126.250 23.745 L 149.995 47.489 173.519 23.995 C 192.888 4.651, 196.660 0.440, 194.870 0.161 C 193.175 -0.104, 187.997 4.516, 171.348 21.152 L 150 42.483 128.741 21.241 C 112.457 4.970, 106.901 0, 104.994 0 C 102.939 0, 106.644 4.139, 126.250 23.745 M 136.750 13.240 L 149.990 26.481 163.023 13.490 C 173.963 2.587, 175.707 0.446, 173.883 0.161 C 172.239 -0.095, 169.071 2.454, 160.855 10.644 L 150 21.466 139.234 10.733 C 131.347 2.871, 127.804 -0, 125.988 -0 C 123.892 -0, 125.551 2.041, 136.750 13.240 M 144.261 5.739 L 150 11.478 155.739 5.739 C 160.924 0.554, 161.242 0, 159.037 0 C 157.645 0, 155.177 1.374, 153.298 3.196 L 150 6.392 146.702 3.196 C 144.823 1.374, 142.355 0, 140.963 0 C 138.758 0, 139.076 0.554, 144.261 5.739 M 0 5.557 C 0 6.677, 1.802 9.354, 4.005 11.505 L 8.009 15.415 4.005 19.495 C 1.530 22.017, -0 24.512, -0 26.028 C -0 28.226, 0.646 27.834, 6.240 22.240 L 12.480 16 6.240 9.760 C 1.338 4.858, 0 3.957, 0 5.557 M 93.489 10.011 L 87.541 16.021 93.771 22.251 L 100 28.480 106.229 22.251 L 112.459 16.021 106.511 10.011 C 103.239 6.705, 100.309 4, 100 4 C 99.691 4, 96.761 6.705, 93.489 10.011 M 193.521 9.969 L 187.541 16.021 193.771 22.251 C 199.469 27.949, 200 28.264, 200 25.943 C 200 24.300, 198.588 22.027, 195.995 19.495 L 191.991 15.585 196.091 11.407 C 198.375 9.080, 200.038 6.496, 199.845 5.573 C 199.591 4.352, 197.930 5.506, 193.521 9.969 M 95.701 11.795 L 91.995 15.589 95.998 19.498 L 100 23.406 104.002 19.498 L 108.005 15.589 104.299 11.795 C 102.262 9.708, 100.327 8, 100 8 C 99.673 8, 97.738 9.708, 95.701 11.795 M 8.729 30.770 C 2.498 37.030, 0 40.244, 0 42 C 0 44.127, 1.260 43.206, 9.287 35.212 L 18.573 25.964 21.771 29.263 L 24.968 32.562 12.484 45.016 C 4.809 52.672, 0 58.241, 0 59.472 C 0 60.901, 4.145 57.337, 14.491 47.009 L 28.982 32.544 23.775 27.272 C 17.374 20.790, 19.050 20.401, 8.729 30.770 M 76.225 27.272 L 71.018 32.544 85.509 47.009 L 100 61.474 114.501 46.999 L 129.002 32.524 123.506 27.028 L 118.010 21.532 109.005 30.495 L 100 39.458 91.230 30.729 C 80.858 20.405, 82.609 20.808, 76.225 27.272 M 176.225 27.272 L 171.018 32.544 185.509 47.009 C 195.855 57.337, 200 60.901, 200 59.472 C 200 58.241, 195.191 52.672, 187.516 45.016 L 175.032 32.562 178.229 29.263 L 181.427 25.964 190.713 35.212 C 198.740 43.206, 200 44.127, 200 42 C 200 39.832, 183.939 22, 181.987 22 C 181.681 22, 179.089 24.372, 176.225 27.272 M 78.229 29.263 L 75.032 32.562 87.516 45.016 L 100 57.470 112.484 45.016 L 124.968 32.562 121.771 29.263 L 118.573 25.964 109.287 35.212 L 100 44.460 90.713 35.212 L 81.427 25.964 78.229 29.263 M 16.742 54.758 C 4.098 67.418, 0 72.128, 0 74 C 0 76.068, 2.863 73.619, 17.279 59.221 L 34.558 41.963 38.501 46.001 L 42.444 50.039 21.132 71.367 C 4.512 88.001, -0.104 93.175, 0.161 94.870 C 0.440 96.660, 4.620 92.919, 23.838 73.677 L 47.175 50.309 41.003 44.404 C 37.608 41.157, 34.527 38.386, 34.157 38.247 C 33.787 38.108, 25.950 45.538, 16.742 54.758 M 59.173 44.189 L 52.846 50.341 76.420 73.915 L 99.995 97.489 123.497 74.003 C 136.424 61.085, 146.947 50.287, 146.883 50.008 C 146.818 49.729, 143.876 46.822, 140.345 43.548 L 133.925 37.597 116.963 54.537 L 100 71.478 83.239 54.739 C 74.021 45.533, 66.258 38.009, 65.989 38.019 C 65.720 38.029, 62.653 40.806, 59.173 44.189 M 159.176 44.187 L 152.852 50.336 176.176 73.690 C 195.382 92.921, 199.560 96.660, 199.839 94.870 C 200.104 93.175, 195.488 88.001, 178.868 71.367 L 157.556 50.039 161.499 46.001 L 165.442 41.963 182.721 59.221 C 197.218 73.700, 200 76.076, 200 73.978 C 200 71.804, 167.974 37.942, 165.989 38.019 C 165.720 38.029, 162.654 40.805, 159.176 44.187 M 61.496 46.004 L 57.551 50.045 78.775 71.269 L 100 92.494 121.225 71.269 L 142.449 50.045 138.504 46.004 L 134.558 41.963 117.279 59.221 L 100 76.479 82.721 59.221 L 65.442 41.963 61.496 46.004 M 43.719 58.779 C 36.713 65.859, 36.701 65.277, 44 72.500 L 50 78.437 56 72.500 C 63.314 65.262, 63.306 65.730, 56.221 58.719 C 49.251 51.821, 50.611 51.815, 43.719 58.779 M 143.719 58.779 C 136.713 65.859, 136.701 65.277, 144 72.500 L 150 78.437 156 72.500 C 163.314 65.262, 163.306 65.730, 156.221 58.719 C 149.251 51.821, 150.611 51.815, 143.719 58.779 M 45.701 61.795 L 41.995 65.589 45.998 69.498 L 50 73.406 54.002 69.498 L 58.005 65.589 54.299 61.795 C 52.262 59.708, 50.327 58, 50 58 C 49.673 58, 47.738 59.708, 45.701 61.795 M 145.701 61.795 L 141.995 65.589 145.998 69.498 L 150 73.406 154.002 69.498 L 158.005 65.589 154.299 61.795 C 152.262 59.708, 150.327 58, 150 58 C 149.673 58, 147.738 59.708, 145.701 61.795 M 25.993 76.507 L 20.539 82.030 35.269 96.761 L 50 111.492 64.731 96.761 L 79.461 82.030 74.007 76.507 L 68.553 70.985 59.277 80.223 L 50 89.460 40.723 80.223 L 31.447 70.985 25.993 76.507 M 125.993 76.507 L 120.539 82.030 135.269 96.761 L 150 111.492 164.731 96.761 L 179.461 82.030 174.007 76.507 L 168.553 70.985 159.277 80.223 L 150 89.460 140.723 80.223 L 131.447 70.985 125.993 76.507 M 28.493 79.007 L 25.569 82.059 37.785 94.274 L 50 106.490 62.215 94.274 L 74.431 82.059 71.507 79.007 L 68.583 75.955 59.291 85.208 L 50 94.460 40.709 85.208 L 31.417 75.955 28.493 79.007 M 128.449 79.053 L 125.569 82.059 137.785 94.274 L 150 106.490 162.215 94.274 L 174.431 82.059 171.507 79.007 L 168.583 75.955 159.249 85.228 L 149.915 94.500 145.207 89.371 C 142.618 86.550, 138.436 82.398, 135.914 80.145 L 131.328 76.048 128.449 79.053 M 8.996 93.504 L 2.532 100.026 26.266 123.761 L 50 147.495 73.734 123.761 L 97.468 100.026 91.004 93.504 L 84.539 86.981 67.270 104.230 L 50 121.479 32.730 104.230 L 15.461 86.981 8.996 93.504 M 108.996 93.504 L 102.532 100.026 126.266 123.761 L 150 147.495 173.734 123.761 L 197.468 100.026 191.004 93.504 L 184.539 86.981 167.270 104.230 L 150 121.479 132.730 104.230 L 115.461 86.981 108.996 93.504 M 11.496 96.004 L 7.551 100.045 28.775 121.269 L 50 142.494 71.225 121.269 L 92.449 100.045 88.504 96.004 L 84.558 91.963 67.279 109.221 L 50 126.479 32.721 109.221 L 15.442 91.963 11.496 96.004 M 111.496 96.004 L 107.551 100.045 128.775 121.269 L 150 142.494 171.225 121.269 L 192.449 100.045 188.504 96.004 L 184.558 91.963 167.279 109.221 L 150 126.479 132.721 109.221 L 115.442 91.963 111.496 96.004 M 0 104.993 C 0 106.484, 1.549 109.003, 4.005 111.505 L 8.009 115.585 4.005 119.495 C 1.429 122.010, 0 124.304, 0 125.922 C 0 128.229, 0.497 127.946, 6 122.500 C 13.332 115.245, 13.332 115.755, 6 108.500 C 0.607 103.163, -0 102.809, 0 104.993 M 93.719 108.779 C 86.713 115.859, 86.701 115.277, 94 122.500 L 100 128.437 106 122.500 C 113.339 115.238, 113.337 115.579, 106.074 108.652 C 98.960 101.866, 100.576 101.850, 93.719 108.779 M 193.750 108.734 C 186.709 115.865, 186.698 115.275, 194 122.500 C 199.503 127.946, 200 128.229, 200 125.922 C 200 124.304, 198.571 122.010, 195.995 119.495 L 191.991 115.585 196.081 111.417 C 198.857 108.589, 200.064 106.552, 199.836 105.080 C 199.539 103.163, 198.830 103.589, 193.750 108.734 M 95.701 111.795 L 91.995 115.589 95.998 119.498 L 100 123.406 104.002 119.498 L 108.005 115.589 104.299 111.795 C 102.262 109.708, 100.327 108, 100 108 C 99.673 108, 97.738 109.708, 95.701 111.795 M 9.235 130.264 C 2.601 136.926, 0 140.231, 0 141.999 C 0 144.127, 1.259 143.207, 9.291 135.208 L 18.583 125.955 21.502 129.002 L 24.421 132.049 12.122 144.378 C 2.743 153.779, -0.097 157.223, 0.161 158.880 C 0.444 160.697, 2.881 158.666, 14.988 146.526 L 29.476 131.998 23.973 126.495 L 18.469 120.991 9.235 130.264 M 75.993 126.507 L 70.539 132.030 85.269 146.761 L 100 161.492 114.731 146.761 L 129.461 132.030 124.007 126.507 L 118.553 120.985 109.277 130.223 L 100 139.460 90.723 130.223 L 81.447 120.985 75.993 126.507 M 175.997 126.503 L 170.547 132.021 185.024 146.538 C 197.121 158.669, 199.556 160.697, 199.839 158.880 C 200.097 157.223, 197.257 153.779, 187.878 144.378 L 175.579 132.049 178.498 129.002 L 181.417 125.955 190.709 135.208 C 198.819 143.284, 200 144.143, 200 141.960 C 200 140.137, 197.488 136.959, 190.723 130.223 L 181.447 120.985 175.997 126.503 M 78.493 129.007 L 75.569 132.059 87.785 144.274 L 100 156.490 112.215 144.274 L 124.431 132.059 121.507 129.007 L 118.583 125.955 109.291 135.208 L 100 144.460 90.709 135.208 L 81.417 125.955 78.493 129.007 M 16.739 154.761 C 4.098 167.419, 0 172.128, 0 174 C 0 176.068, 2.863 173.619, 17.279 159.221 L 34.558 141.963 38.501 146.001 L 42.444 150.039 21.132 171.367 C 4.512 188.001, -0.104 193.175, 0.161 194.870 C 0.440 196.660, 4.648 192.890, 23.980 173.534 L 47.461 150.023 41.512 144.012 C 33.912 136.332, 36.086 135.388, 16.739 154.761 M 58.486 144.014 L 52.534 150.029 76.267 173.762 L 100 197.495 123.733 173.762 L 147.466 150.029 141.514 144.014 C 133.923 136.343, 136.144 135.381, 116.761 154.739 L 100 171.478 83.239 154.739 C 63.856 135.381, 66.077 136.343, 58.486 144.014 M 158.488 144.012 L 152.539 150.023 176.020 173.534 C 195.352 192.890, 199.560 196.660, 199.839 194.870 C 200.104 193.175, 195.488 188.001, 178.868 171.367 L 157.556 150.039 161.499 146.001 L 165.442 141.963 182.721 159.221 C 197.218 173.700, 200 176.076, 200 173.978 C 200 171.468, 167.868 138, 165.458 138 C 164.897 138, 161.760 140.705, 158.488 144.012 M 61.496 146.004 L 57.551 150.045 78.775 171.269 L 100 192.494 121.225 171.269 L 142.449 150.045 138.504 146.004 L 134.558 141.963 117.279 159.221 L 100 176.479 82.721 159.221 L 65.442 141.963 61.496 146.004 M 43.719 158.779 C 36.713 165.859, 36.701 165.277, 44 172.500 L 50 178.437 56 172.500 C 63.314 165.262, 63.306 165.730, 56.221 158.719 C 49.251 151.821, 50.611 151.815, 43.719 158.779 M 143.719 158.779 C 136.713 165.859, 136.701 165.277, 144 172.500 L 150 178.437 156 172.500 C 163.314 165.262, 163.306 165.730, 156.221 158.719 C 149.251 151.821, 150.611 151.815, 143.719 158.779 M 45.701 161.795 L 41.995 165.589 45.998 169.498 L 50 173.406 54.002 169.498 L 58.005 165.589 54.299 161.795 C 52.262 159.708, 50.327 158, 50 158 C 49.673 158, 47.738 159.708, 45.701 161.795 M 145.701 161.795 L 141.995 165.589 145.998 169.498 L 150 173.406 154.002 169.498 L 158.005 165.589 154.299 161.795 C 152.262 159.708, 150.327 158, 150 158 C 149.673 158, 147.738 159.708, 145.701 161.795 M 26.001 176.499 L 20.555 182.013 29.507 191.007 C 36.015 197.546, 39.141 200, 40.958 200 C 43.147 200, 42.341 198.878, 34.499 190.999 L 25.540 181.998 28.769 178.769 L 31.998 175.540 40.999 184.499 L 50 193.458 59.001 184.499 L 68.002 175.540 71.231 178.769 L 74.460 181.998 65.501 190.999 C 57.659 198.878, 56.853 200, 59.042 200 C 60.859 200, 63.985 197.546, 70.493 191.007 L 79.445 182.013 73.999 176.499 L 68.553 170.985 59.277 180.223 L 50 189.460 40.723 180.223 L 31.447 170.985 26.001 176.499 M 126.001 176.499 L 120.555 182.013 129.507 191.007 C 136.015 197.546, 139.141 200, 140.958 200 C 143.147 200, 142.341 198.878, 134.499 190.999 L 125.540 181.998 128.769 178.769 L 131.998 175.540 140.999 184.499 L 150 193.458 159.001 184.499 L 168.002 175.540 171.231 178.769 L 174.460 181.998 165.501 190.999 C 157.659 198.878, 156.853 200, 159.042 200 C 160.859 200, 163.985 197.546, 170.493 191.007 L 179.445 182.013 173.999 176.499 L 168.553 170.985 159.277 180.223 L 150 189.460 140.723 180.223 L 131.447 170.985 126.001 176.499 M 9.001 193.499 C 3.146 199.407, 2.788 200, 5.076 200 C 6.697 200, 8.988 198.573, 11.505 195.995 L 15.415 191.991 19.583 196.081 C 22.409 198.855, 24.448 200.064, 25.918 199.836 C 27.817 199.542, 27.304 198.728, 21.765 193.249 L 15.444 186.998 9.001 193.499 M 78.001 193.499 C 72.146 199.407, 71.788 200, 74.076 200 C 75.697 200, 77.988 198.573, 80.505 195.995 L 84.415 191.991 88.583 196.081 C 91.409 198.855, 93.448 200.064, 94.918 199.836 C 96.817 199.542, 96.304 198.728, 90.765 193.249 L 84.444 186.998 78.001 193.499 M 109.001 193.499 C 103.146 199.407, 102.788 200, 105.076 200 C 106.697 200, 108.988 198.573, 111.505 195.995 L 115.415 191.991 119.583 196.081 C 122.409 198.855, 124.448 200.064, 125.918 199.836 C 127.817 199.542, 127.304 198.728, 121.765 193.249 L 115.444 186.998 109.001 193.499 M 178.001 193.499 C 172.146 199.407, 171.788 200, 174.076 200 C 175.697 200, 177.988 198.573, 180.505 195.995 L 184.415 191.991 188.583 196.081 C 191.409 198.855, 193.448 200.064, 194.918 199.836 C 196.817 199.542, 196.304 198.728, 190.765 193.249 L 184.444 186.998 178.001 193.499" stroke="none" fill="#040404" fill-rule="evenodd"/></svg>