<?xml version="1.0" encoding="UTF-8"?>
<svg version="1.1" xmlns="http://www.w3.org/2000/svg" width="200" height="200">
<path d="M0 0 C1.20069749 0.70722402 2.38823574 1.43720424 3.5625 2.1875 C6.83068244 4.36156364 6.83068244 4.36156364 10.125 3.4375 C13.00147314 2.08396893 13.00147314 2.08396893 15.4375 0.3125 C19.06766405 -1.54685232 21.09055311 -1.01106385 25 0 C26.20567107 0.69871134 27.39359912 1.42887559 28.5625 2.1875 C31.83068244 4.36156364 31.83068244 4.36156364 35.125 3.4375 C38.00147314 2.08396893 38.00147314 2.08396893 40.4375 0.3125 C44.06766405 -1.54685232 46.09055311 -1.01106385 50 0 C51.20567107 0.69871134 52.39359912 1.42887559 53.5625 2.1875 C56.83068244 4.36156364 56.83068244 4.36156364 60.125 3.4375 C63.00147314 2.08396893 63.00147314 2.08396893 65.4375 0.3125 C69.06766405 -1.54685232 71.09055311 -1.01106385 75 0 C76.20567107 0.69871134 77.39359912 1.42887559 78.5625 2.1875 C81.83068244 4.36156364 81.83068244 4.36156364 85.125 3.4375 C88.00147314 2.08396893 88.00147314 2.08396893 90.4375 0.3125 C94.06766405 -1.54685232 96.09055311 -1.01106385 100 0 C101.20567107 0.69871134 102.39359912 1.42887559 103.5625 2.1875 C106.83068244 4.36156364 106.83068244 4.36156364 110.125 3.4375 C113.00147314 2.08396893 113.00147314 2.08396893 115.4375 0.3125 C119.06766405 -1.54685232 121.09055311 -1.01106385 125 0 C126.20567107 0.69871134 127.39359912 1.42887559 128.5625 2.1875 C131.83068244 4.36156364 131.83068244 4.36156364 135.125 3.4375 C138.00147314 2.08396893 138.00147314 2.08396893 140.4375 0.3125 C144.06766405 -1.54685232 146.09055311 -1.01106385 150 0 C151.20567107 0.69871134 152.39359912 1.42887559 153.5625 2.1875 C156.83068244 4.36156364 156.83068244 4.36156364 160.125 3.4375 C163.00147314 2.08396893 163.00147314 2.08396893 165.4375 0.3125 C169.10775524 -1.56738683 171.04736315 -1.07190152 175 0 C177.79434676 1.49522064 180.40962497 3.17664511 183 5 C181.46075386 9.61773842 178.13050979 10.57414504 174 13 C178.455 15.475 178.455 15.475 183 18 C183 18.99 183 19.98 183 21 C178.545 23.475 178.545 23.475 174 26 C176.97 27.65 179.94 29.3 183 31 C182 35 182 35 180.15234375 36.265625 C179.05599609 36.75289062 179.05599609 36.75289062 177.9375 37.25 C177.20402344 37.58515625 176.47054687 37.9203125 175.71484375 38.265625 C175.14894531 38.50796875 174.58304688 38.7503125 174 39 C176.88035092 41.24027294 179.84866512 43.16172132 183 45 C181.46075386 49.61773842 178.13050979 50.57414504 174 53 C176.97 54.65 179.94 56.3 183 58 C183 58.99 183 59.98 183 61 C181.71086513 61.67154933 180.41859796 62.33708859 179.125 63 C178.40570313 63.37125 177.68640625 63.7425 176.9453125 64.125 C175 65 175 65 173 65 C173 65.66 173 66.32 173 67 C173.9075 67.268125 174.815 67.53625 175.75 67.8125 C178.71471963 68.89576294 180.6169754 69.98359457 183 72 C182 75 182 75 180.15234375 76.16796875 C179.42144531 76.50441406 178.69054687 76.84085937 177.9375 77.1875 C177.20402344 77.53167969 176.47054687 77.87585938 175.71484375 78.23046875 C175.14894531 78.48441406 174.58304688 78.73835938 174 79 C176.88035092 81.24027294 179.84866512 83.16172132 183 85 C181.46075386 89.61773842 178.13050979 90.57414504 174 93 C176.97 94.65 179.94 96.3 183 98 C183 98.99 183 99.98 183 101 C180.03 102.65 177.06 104.3 174 106 C176.97 107.98 179.94 109.96 183 112 C182 115 182 115 180.15234375 116.16796875 C179.42144531 116.50441406 178.69054687 116.84085937 177.9375 117.1875 C177.20402344 117.53167969 176.47054687 117.87585938 175.71484375 118.23046875 C175.14894531 118.48441406 174.58304688 118.73835938 174 119 C176.1956699 120.70774325 178.30108034 122.16422564 180.75 123.5 C181.86375 124.2425 181.86375 124.2425 183 125 C183 125.99 183 126.98 183 128 C180.03 129.65 177.06 131.3 174 133 C178.455 135.475 178.455 135.475 183 138 C183 138.99 183 139.98 183 141 C180.03 142.65 177.06 144.3 174 146 C176.97 147.98 179.94 149.96 183 152 C182 155 182 155 180.15234375 156.16796875 C179.42144531 156.50441406 178.69054687 156.84085938 177.9375 157.1875 C177.20402344 157.53167969 176.47054687 157.87585938 175.71484375 158.23046875 C175.14894531 158.48441406 174.58304688 158.73835937 174 159 C176.1956699 160.70774325 178.30108034 162.16422564 180.75 163.5 C181.4925 163.995 182.235 164.49 183 165 C183 165.99 183 166.98 183 168 C179.7 169.65 176.4 171.3 173 173 C173.721875 173.39832031 174.44375 173.79664063 175.1875 174.20703125 C176.115625 174.73683594 177.04375 175.26664063 178 175.8125 C179.3921875 176.59560547 179.3921875 176.59560547 180.8125 177.39453125 C181.534375 177.92433594 182.25625 178.45414063 183 179 C183 179.99 183 180.98 183 182 C180.03 183.65 177.06 185.3 174 187 C178.455 189.475 178.455 189.475 183 192 C182 196 182 196 179.625 197.75 C174.68325327 199.4540506 170.1801344 199.61944806 165 199 C162.99248185 198.01517978 160.99065541 197.01847486 159 196 C156.03613422 196.68396903 153.70294568 197.64852716 151 199 C144.33075155 199.56666817 139.9745078 199.05672492 134 196 C131.03613422 196.68396903 128.70294568 197.64852716 126 199 C119.33075155 199.56666817 114.9745078 199.05672492 109 196 C106.03613422 196.68396903 103.70294568 197.64852716 101 199 C94.33075155 199.56666817 89.9745078 199.05672492 84 196 C81.03613422 196.68396903 78.70294568 197.64852716 76 199 C69.33075155 199.56666817 64.9745078 199.05672492 59 196 C56.03613422 196.68396903 53.70294568 197.64852716 51 199 C44.33075155 199.56666817 39.9745078 199.05672492 34 196 C31.03613422 196.68396903 28.70294568 197.64852716 26 199 C19.33075155 199.56666817 14.9745078 199.05672492 9 196 C6.03613422 196.68396903 3.70294568 197.64852716 1 199 C-6.20981766 199.72935137 -11.066698 199.21923698 -17 195 C-17 194.01 -17 193.02 -17 192 C-15.71086513 191.32845067 -14.41859796 190.66291141 -13.125 190 C-12.40570312 189.62875 -11.68640625 189.2575 -10.9453125 188.875 C-9 188 -9 188 -7 188 C-7 187.34 -7 186.68 -7 186 C-7.9075 185.71125 -8.815 185.4225 -9.75 185.125 C-12.32202908 184.23468224 -14.61346766 183.28505587 -17 182 C-17 181.01 -17 180.02 -17 179 C-14.8125 177.39453125 -14.8125 177.39453125 -12 175.8125 C-11.071875 175.28269531 -10.14375 174.75289062 -9.1875 174.20703125 C-8.1046875 173.60955078 -8.1046875 173.60955078 -7 173 C-11.95 170.525 -11.95 170.525 -17 168 C-16 164 -16 164 -14.15234375 162.734375 C-13.42144531 162.40953125 -12.69054687 162.0846875 -11.9375 161.75 C-11.20402344 161.41484375 -10.47054688 161.0796875 -9.71484375 160.734375 C-9.14894531 160.49203125 -8.58304688 160.2496875 -8 160 C-10.88035092 157.75972706 -13.84866512 155.83827868 -17 154 C-15.46075386 149.38226158 -12.13050979 148.42585496 -8 146 C-12.455 143.525 -12.455 143.525 -17 141 C-17 140.01 -17 139.02 -17 138 C-15.71086513 137.32845067 -14.41859796 136.66291141 -13.125 136 C-12.40570312 135.62875 -11.68640625 135.2575 -10.9453125 134.875 C-9 134 -9 134 -7 134 C-7 133.34 -7 132.68 -7 132 C-7.9075 131.731875 -8.815 131.46375 -9.75 131.1875 C-12.71471963 130.10423706 -14.6169754 129.01640543 -17 127 C-16 124 -16 124 -14.15234375 122.83203125 C-13.42144531 122.49558594 -12.69054687 122.15914063 -11.9375 121.8125 C-11.20402344 121.46832031 -10.47054688 121.12414062 -9.71484375 120.76953125 C-9.14894531 120.51558594 -8.58304688 120.26164062 -8 120 C-10.88035092 117.75972706 -13.84866512 115.83827868 -17 114 C-15.52440331 109.57320993 -13.09942632 109.08567304 -9 107 C-8.34 107 -7.68 107 -7 107 C-7 106.34 -7 105.68 -7 105 C-7.9075 104.71125 -8.815 104.4225 -9.75 104.125 C-12.32202908 103.23468224 -14.61346766 102.28505587 -17 101 C-17 100.01 -17 99.02 -17 98 C-15.71086513 97.32845067 -14.41859796 96.66291141 -13.125 96 C-12.40570312 95.62875 -11.68640625 95.2575 -10.9453125 94.875 C-9 94 -9 94 -7 94 C-7 93.34 -7 92.68 -7 92 C-7.721875 91.731875 -8.44375 91.46375 -9.1875 91.1875 C-11.97590126 90.01017502 -14.44095724 88.60854116 -17 87 C-16 84 -16 84 -14.15234375 82.83203125 C-13.42144531 82.49558594 -12.69054687 82.15914063 -11.9375 81.8125 C-11.20402344 81.46832031 -10.47054688 81.12414062 -9.71484375 80.76953125 C-9.14894531 80.51558594 -8.58304688 80.26164062 -8 80 C-10.88035092 77.75972706 -13.84866512 75.83827868 -17 74 C-15.52440331 69.57320993 -13.09942632 69.08567304 -9 67 C-8.34 67 -7.68 67 -7 67 C-7 66.34 -7 65.68 -7 65 C-7.9075 64.71125 -8.815 64.4225 -9.75 64.125 C-12.32202908 63.23468224 -14.61346766 62.28505587 -17 61 C-17 60.01 -17 59.02 -17 58 C-14.03 56.35 -11.06 54.7 -8 53 C-10.97 51.02 -13.94 49.04 -17 47 C-16 44 -16 44 -14.15234375 42.83203125 C-13.42144531 42.49558594 -12.69054687 42.15914062 -11.9375 41.8125 C-11.20402344 41.46832031 -10.47054688 41.12414063 -9.71484375 40.76953125 C-9.14894531 40.51558594 -8.58304688 40.26164062 -8 40 C-10.1956699 38.29225675 -12.30108034 36.83577436 -14.75 35.5 C-15.4925 35.005 -16.235 34.51 -17 34 C-17 33.01 -17 32.02 -17 31 C-15.71086513 30.32845067 -14.41859796 29.66291141 -13.125 29 C-12.40570312 28.62875 -11.68640625 28.2575 -10.9453125 27.875 C-9 27 -9 27 -7 27 C-7 26.34 -7 25.68 -7 25 C-7.9075 24.71125 -8.815 24.4225 -9.75 24.125 C-12.32202908 23.23468224 -14.61346766 22.28505587 -17 21 C-17 20.01 -17 19.02 -17 18 C-12.545 15.525 -12.545 15.525 -8 13 C-10.97 11.02 -13.94 9.04 -17 7 C-15.59511497 2.78534491 -13.22431524 1.95668251 -9.40625 -0.04296875 C-5.83511776 -1.46330544 -3.63560713 -1.14454299 0 0 Z M1.875 9.5 C0.96492188 9.9640625 0.05484375 10.428125 -0.8828125 10.90625 C-1.58148438 11.2671875 -2.28015625 11.628125 -3 12 C2.35147712 16.46576039 2.35147712 16.46576039 8.875 17.9375 C12.70534642 16.78839607 15.60390351 15.10557982 19 13 C10.88611388 7.21476904 10.88611388 7.21476904 1.875 9.5 Z M26.875 9.5 C25.96492188 9.9640625 25.05484375 10.428125 24.1171875 10.90625 C23.41851562 11.2671875 22.71984375 11.628125 22 12 C27.35147712 16.46576039 27.35147712 16.46576039 33.875 17.9375 C37.70534642 16.78839607 40.60390351 15.10557982 44 13 C35.88611388 7.21476904 35.88611388 7.21476904 26.875 9.5 Z M51.875 9.5 C50.96492188 9.9640625 50.05484375 10.428125 49.1171875 10.90625 C48.41851562 11.2671875 47.71984375 11.628125 47 12 C52.35147712 16.46576039 52.35147712 16.46576039 58.875 17.9375 C62.70534642 16.78839607 65.60390351 15.10557982 69 13 C60.88611388 7.21476904 60.88611388 7.21476904 51.875 9.5 Z M76.875 9.5 C75.96492188 9.9640625 75.05484375 10.428125 74.1171875 10.90625 C73.41851562 11.2671875 72.71984375 11.628125 72 12 C77.35147712 16.46576039 77.35147712 16.46576039 83.875 17.9375 C87.70534642 16.78839607 90.60390351 15.10557982 94 13 C85.88611388 7.21476904 85.88611388 7.21476904 76.875 9.5 Z M101.875 9.5 C100.96492188 9.9640625 100.05484375 10.428125 99.1171875 10.90625 C98.41851562 11.2671875 97.71984375 11.628125 97 12 C102.35147712 16.46576039 102.35147712 16.46576039 108.875 17.9375 C112.70534642 16.78839607 115.60390351 15.10557982 119 13 C110.88611388 7.21476904 110.88611388 7.21476904 101.875 9.5 Z M126.875 9.5 C125.96492187 9.9640625 125.05484375 10.428125 124.1171875 10.90625 C123.41851562 11.2671875 122.71984375 11.628125 122 12 C127.35147712 16.46576039 127.35147712 16.46576039 133.875 17.9375 C137.70534642 16.78839607 140.60390351 15.10557982 144 13 C135.88611388 7.21476904 135.88611388 7.21476904 126.875 9.5 Z M151.875 9.5 C150.96492187 9.9640625 150.05484375 10.428125 149.1171875 10.90625 C148.41851562 11.2671875 147.71984375 11.628125 147 12 C152.35147712 16.46576039 152.35147712 16.46576039 158.875 17.9375 C162.70534642 16.78839607 165.60390351 15.10557982 169 13 C160.88611388 7.21476904 160.88611388 7.21476904 151.875 9.5 Z M1.75 23.5 C0.69039062 24.19609375 0.69039062 24.19609375 -0.390625 24.90625 C-0.92171875 25.2671875 -1.4528125 25.628125 -2 26 C2.87360587 29.9822815 2.87360587 29.9822815 8.875 30.8125 C12.21627467 29.94376858 14.97845058 28.65465801 18 27 C18 26.34 18 25.68 18 25 C16.75539217 24.32332002 15.50403104 23.65905281 14.25 23 C13.55390625 22.62875 12.8578125 22.2575 12.140625 21.875 C7.87277284 20.13047649 5.34337009 21.10441994 1.75 23.5 Z M26.75 23.5 C25.69039062 24.19609375 25.69039062 24.19609375 24.609375 24.90625 C24.07828125 25.2671875 23.5471875 25.628125 23 26 C27.87360587 29.9822815 27.87360587 29.9822815 33.875 30.8125 C37.21627467 29.94376858 39.97845058 28.65465801 43 27 C43 26.34 43 25.68 43 25 C41.75539217 24.32332002 40.50403104 23.65905281 39.25 23 C38.55390625 22.62875 37.8578125 22.2575 37.140625 21.875 C32.87277284 20.13047649 30.34337009 21.10441994 26.75 23.5 Z M51.75 23.5 C50.69039063 24.19609375 50.69039063 24.19609375 49.609375 24.90625 C49.07828125 25.2671875 48.5471875 25.628125 48 26 C52.87360587 29.9822815 52.87360587 29.9822815 58.875 30.8125 C62.21627467 29.94376858 64.97845058 28.65465801 68 27 C68 26.34 68 25.68 68 25 C66.75539217 24.32332002 65.50403104 23.65905281 64.25 23 C63.55390625 22.62875 62.8578125 22.2575 62.140625 21.875 C57.87277284 20.13047649 55.34337009 21.10441994 51.75 23.5 Z M76.75 23.5 C75.69039063 24.19609375 75.69039063 24.19609375 74.609375 24.90625 C74.07828125 25.2671875 73.5471875 25.628125 73 26 C77.87360587 29.9822815 77.87360587 29.9822815 83.875 30.8125 C87.21627467 29.94376858 89.97845058 28.65465801 93 27 C93 26.34 93 25.68 93 25 C91.75539217 24.32332002 90.50403104 23.65905281 89.25 23 C88.55390625 22.62875 87.8578125 22.2575 87.140625 21.875 C82.87277284 20.13047649 80.34337009 21.10441994 76.75 23.5 Z M101.75 23.5 C100.69039063 24.19609375 100.69039063 24.19609375 99.609375 24.90625 C99.07828125 25.2671875 98.5471875 25.628125 98 26 C102.87360587 29.9822815 102.87360587 29.9822815 108.875 30.8125 C112.21627467 29.94376858 114.97845058 28.65465801 118 27 C118 26.34 118 25.68 118 25 C116.75539217 24.32332002 115.50403104 23.65905281 114.25 23 C113.55390625 22.62875 112.8578125 22.2575 112.140625 21.875 C107.87277284 20.13047649 105.34337009 21.10441994 101.75 23.5 Z M126.75 23.5 C125.69039062 24.19609375 125.69039062 24.19609375 124.609375 24.90625 C124.07828125 25.2671875 123.5471875 25.628125 123 26 C127.87360587 29.9822815 127.87360587 29.9822815 133.875 30.8125 C137.21627467 29.94376858 139.97845058 28.65465801 143 27 C143 26.34 143 25.68 143 25 C141.75539217 24.32332002 140.50403104 23.65905281 139.25 23 C138.55390625 22.62875 137.8578125 22.2575 137.140625 21.875 C132.87277284 20.13047649 130.34337009 21.10441994 126.75 23.5 Z M151.75 23.5 C150.69039062 24.19609375 150.69039062 24.19609375 149.609375 24.90625 C149.07828125 25.2671875 148.5471875 25.628125 148 26 C152.87360587 29.9822815 152.87360587 29.9822815 158.875 30.8125 C162.21627467 29.94376858 164.97845058 28.65465801 168 27 C168 26.34 168 25.68 168 25 C166.75539217 24.32332002 165.50403104 23.65905281 164.25 23 C163.55390625 22.62875 162.8578125 22.2575 162.140625 21.875 C157.87277284 20.13047649 155.34337009 21.10441994 151.75 23.5 Z M1.875 36.5 C0.96492188 36.9640625 0.05484375 37.428125 -0.8828125 37.90625 C-1.58148438 38.2671875 -2.28015625 38.628125 -3 39 C0.23014799 41.46073506 3.17452892 43.54632099 7 45 C11.34063683 44.09570066 15.08503947 42.05069361 19 40 C12.82595515 35.01327146 9.03501948 32.82819514 1.875 36.5 Z M26.875 36.5 C25.96492188 36.9640625 25.05484375 37.428125 24.1171875 37.90625 C23.41851562 38.2671875 22.71984375 38.628125 22 39 C25.23014799 41.46073506 28.17452892 43.54632099 32 45 C36.34063683 44.09570066 40.08503947 42.05069361 44 40 C37.82595515 35.01327146 34.03501948 32.82819514 26.875 36.5 Z M51.875 36.5 C50.96492188 36.9640625 50.05484375 37.428125 49.1171875 37.90625 C48.41851562 38.2671875 47.71984375 38.628125 47 39 C50.23014799 41.46073506 53.17452892 43.54632099 57 45 C61.34063683 44.09570066 65.08503947 42.05069361 69 40 C62.82595515 35.01327146 59.03501948 32.82819514 51.875 36.5 Z M76.875 36.5 C75.96492188 36.9640625 75.05484375 37.428125 74.1171875 37.90625 C73.41851562 38.2671875 72.71984375 38.628125 72 39 C75.23014799 41.46073506 78.17452892 43.54632099 82 45 C86.34063683 44.09570066 90.08503947 42.05069361 94 40 C87.82595515 35.01327146 84.03501948 32.82819514 76.875 36.5 Z M101.875 36.5 C100.96492188 36.9640625 100.05484375 37.428125 99.1171875 37.90625 C98.41851562 38.2671875 97.71984375 38.628125 97 39 C100.23014799 41.46073506 103.17452892 43.54632099 107 45 C111.34063683 44.09570066 115.08503947 42.05069361 119 40 C112.82595515 35.01327146 109.03501948 32.82819514 101.875 36.5 Z M126.875 36.5 C125.96492187 36.9640625 125.05484375 37.428125 124.1171875 37.90625 C123.41851562 38.2671875 122.71984375 38.628125 122 39 C125.23014799 41.46073506 128.17452892 43.54632099 132 45 C136.34063683 44.09570066 140.08503947 42.05069361 144 40 C137.82595515 35.01327146 134.03501948 32.82819514 126.875 36.5 Z M151.875 36.5 C150.96492187 36.9640625 150.05484375 37.428125 149.1171875 37.90625 C148.41851562 38.2671875 147.71984375 38.628125 147 39 C150.23014799 41.46073506 153.17452892 43.54632099 157 45 C161.34063683 44.09570066 165.08503947 42.05069361 169 40 C162.82595515 35.01327146 159.03501948 32.82819514 151.875 36.5 Z M1.875 49.5 C0.96492188 49.9640625 0.05484375 50.428125 -0.8828125 50.90625 C-1.58148438 51.2671875 -2.28015625 51.628125 -3 52 C2.24109702 56.66405517 2.24109702 56.66405517 8.8125 57.875 C12.72255537 56.80165147 15.55851606 55.13372004 19 53 C10.88611388 47.21476904 10.88611388 47.21476904 1.875 49.5 Z M26.875 49.5 C25.96492188 49.9640625 25.05484375 50.428125 24.1171875 50.90625 C23.41851562 51.2671875 22.71984375 51.628125 22 52 C27.24109702 56.66405517 27.24109702 56.66405517 33.8125 57.875 C37.72255537 56.80165147 40.55851606 55.13372004 44 53 C35.88611388 47.21476904 35.88611388 47.21476904 26.875 49.5 Z M51.875 49.5 C50.96492188 49.9640625 50.05484375 50.428125 49.1171875 50.90625 C48.41851562 51.2671875 47.71984375 51.628125 47 52 C52.24109702 56.66405517 52.24109702 56.66405517 58.8125 57.875 C62.72255537 56.80165147 65.55851606 55.13372004 69 53 C60.88611388 47.21476904 60.88611388 47.21476904 51.875 49.5 Z M76.875 49.5 C75.96492188 49.9640625 75.05484375 50.428125 74.1171875 50.90625 C73.41851562 51.2671875 72.71984375 51.628125 72 52 C77.24109702 56.66405517 77.24109702 56.66405517 83.8125 57.875 C87.72255537 56.80165147 90.55851606 55.13372004 94 53 C85.88611388 47.21476904 85.88611388 47.21476904 76.875 49.5 Z M101.875 49.5 C100.96492188 49.9640625 100.05484375 50.428125 99.1171875 50.90625 C98.41851562 51.2671875 97.71984375 51.628125 97 52 C102.24109702 56.66405517 102.24109702 56.66405517 108.8125 57.875 C112.72255537 56.80165147 115.55851606 55.13372004 119 53 C110.88611388 47.21476904 110.88611388 47.21476904 101.875 49.5 Z M126.875 49.5 C125.96492187 49.9640625 125.05484375 50.428125 124.1171875 50.90625 C123.41851562 51.2671875 122.71984375 51.628125 122 52 C127.24109702 56.66405517 127.24109702 56.66405517 133.8125 57.875 C137.72255537 56.80165147 140.55851606 55.13372004 144 53 C135.88611388 47.21476904 135.88611388 47.21476904 126.875 49.5 Z M151.875 49.5 C150.96492187 49.9640625 150.05484375 50.428125 149.1171875 50.90625 C148.41851562 51.2671875 147.71984375 51.628125 147 52 C152.24109702 56.66405517 152.24109702 56.66405517 158.8125 57.875 C162.72255537 56.80165147 165.55851606 55.13372004 169 53 C160.88611388 47.21476904 160.88611388 47.21476904 151.875 49.5 Z M1.75 63 C1.04359375 63.37125 0.3371875 63.7425 -0.390625 64.125 C-1.18726563 64.558125 -1.18726563 64.558125 -2 65 C-2 65.66 -2 66.32 -2 67 C3.43560665 70.88697133 3.43560665 70.88697133 9.6875 71.5 C10.450625 71.005 11.21375 70.51 12 70 C13.093125 69.46375 14.18625 68.9275 15.3125 68.375 C16.199375 67.92125 17.08625 67.4675 18 67 C18 66.34 18 65.68 18 65 C16.75539217 64.32332002 15.50403104 63.65905281 14.25 63 C13.55390625 62.62875 12.8578125 62.2575 12.140625 61.875 C8.11023055 60.2275395 5.38054474 61.06370947 1.75 63 Z M26.75 63 C26.04359375 63.37125 25.3371875 63.7425 24.609375 64.125 C23.81273437 64.558125 23.81273437 64.558125 23 65 C23 65.66 23 66.32 23 67 C28.43560665 70.88697133 28.43560665 70.88697133 34.6875 71.5 C35.450625 71.005 36.21375 70.51 37 70 C38.093125 69.46375 39.18625 68.9275 40.3125 68.375 C41.199375 67.92125 42.08625 67.4675 43 67 C43 66.34 43 65.68 43 65 C41.75539217 64.32332002 40.50403104 63.65905281 39.25 63 C38.55390625 62.62875 37.8578125 62.2575 37.140625 61.875 C33.11023055 60.2275395 30.38054474 61.06370947 26.75 63 Z M51.75 63 C51.04359375 63.37125 50.3371875 63.7425 49.609375 64.125 C48.81273438 64.558125 48.81273438 64.558125 48 65 C48 65.66 48 66.32 48 67 C53.43560665 70.88697133 53.43560665 70.88697133 59.6875 71.5 C60.450625 71.005 61.21375 70.51 62 70 C63.093125 69.46375 64.18625 68.9275 65.3125 68.375 C66.199375 67.92125 67.08625 67.4675 68 67 C68 66.34 68 65.68 68 65 C66.75539217 64.32332002 65.50403104 63.65905281 64.25 63 C63.55390625 62.62875 62.8578125 62.2575 62.140625 61.875 C58.11023055 60.2275395 55.38054474 61.06370947 51.75 63 Z M76.75 63 C76.04359375 63.37125 75.3371875 63.7425 74.609375 64.125 C73.81273438 64.558125 73.81273438 64.558125 73 65 C73 65.66 73 66.32 73 67 C78.43560665 70.88697133 78.43560665 70.88697133 84.6875 71.5 C85.450625 71.005 86.21375 70.51 87 70 C88.093125 69.46375 89.18625 68.9275 90.3125 68.375 C91.199375 67.92125 92.08625 67.4675 93 67 C93 66.34 93 65.68 93 65 C91.75539217 64.32332002 90.50403104 63.65905281 89.25 63 C88.55390625 62.62875 87.8578125 62.2575 87.140625 61.875 C83.11023055 60.2275395 80.38054474 61.06370947 76.75 63 Z M101.75 63 C101.04359375 63.37125 100.3371875 63.7425 99.609375 64.125 C98.81273438 64.558125 98.81273438 64.558125 98 65 C98 65.66 98 66.32 98 67 C103.43560665 70.88697133 103.43560665 70.88697133 109.6875 71.5 C110.450625 71.005 111.21375 70.51 112 70 C113.093125 69.46375 114.18625 68.9275 115.3125 68.375 C116.199375 67.92125 117.08625 67.4675 118 67 C118 66.34 118 65.68 118 65 C116.75539217 64.32332002 115.50403104 63.65905281 114.25 63 C113.55390625 62.62875 112.8578125 62.2575 112.140625 61.875 C108.11023055 60.2275395 105.38054474 61.06370947 101.75 63 Z M126.75 63 C126.04359375 63.37125 125.3371875 63.7425 124.609375 64.125 C123.81273437 64.558125 123.81273437 64.558125 123 65 C123 65.66 123 66.32 123 67 C128.43560665 70.88697133 128.43560665 70.88697133 134.6875 71.5 C135.450625 71.005 136.21375 70.51 137 70 C138.093125 69.46375 139.18625 68.9275 140.3125 68.375 C141.199375 67.92125 142.08625 67.4675 143 67 C143 66.34 143 65.68 143 65 C141.75539217 64.32332002 140.50403104 63.65905281 139.25 63 C138.55390625 62.62875 137.8578125 62.2575 137.140625 61.875 C133.11023055 60.2275395 130.38054474 61.06370947 126.75 63 Z M151.75 63 C151.04359375 63.37125 150.3371875 63.7425 149.609375 64.125 C148.81273437 64.558125 148.81273437 64.558125 148 65 C148 65.66 148 66.32 148 67 C153.43560665 70.88697133 153.43560665 70.88697133 159.6875 71.5 C160.450625 71.005 161.21375 70.51 162 70 C163.093125 69.46375 164.18625 68.9275 165.3125 68.375 C166.199375 67.92125 167.08625 67.4675 168 67 C168 66.34 168 65.68 168 65 C166.75539217 64.32332002 165.50403104 63.65905281 164.25 63 C163.55390625 62.62875 162.8578125 62.2575 162.140625 61.875 C158.11023055 60.2275395 155.38054474 61.06370947 151.75 63 Z M1.875 76.5 C0.96492188 76.9640625 0.05484375 77.428125 -0.8828125 77.90625 C-1.58148438 78.2671875 -2.28015625 78.628125 -3 79 C0.23014799 81.46073506 3.17452892 83.54632099 7 85 C11.34063683 84.09570066 15.08503947 82.05069361 19 80 C12.82595515 75.01327146 9.03501948 72.82819514 1.875 76.5 Z M26.875 76.5 C25.96492188 76.9640625 25.05484375 77.428125 24.1171875 77.90625 C23.41851562 78.2671875 22.71984375 78.628125 22 79 C25.23014799 81.46073506 28.17452892 83.54632099 32 85 C36.34063683 84.09570066 40.08503947 82.05069361 44 80 C37.82595515 75.01327146 34.03501948 72.82819514 26.875 76.5 Z M51.875 76.5 C50.96492188 76.9640625 50.05484375 77.428125 49.1171875 77.90625 C48.41851562 78.2671875 47.71984375 78.628125 47 79 C50.23014799 81.46073506 53.17452892 83.54632099 57 85 C61.34063683 84.09570066 65.08503947 82.05069361 69 80 C62.82595515 75.01327146 59.03501948 72.82819514 51.875 76.5 Z M76.875 76.5 C75.96492188 76.9640625 75.05484375 77.428125 74.1171875 77.90625 C73.41851562 78.2671875 72.71984375 78.628125 72 79 C75.23014799 81.46073506 78.17452892 83.54632099 82 85 C86.34063683 84.09570066 90.08503947 82.05069361 94 80 C87.82595515 75.01327146 84.03501948 72.82819514 76.875 76.5 Z M101.875 76.5 C100.96492188 76.9640625 100.05484375 77.428125 99.1171875 77.90625 C98.41851562 78.2671875 97.71984375 78.628125 97 79 C100.23014799 81.46073506 103.17452892 83.54632099 107 85 C111.34063683 84.09570066 115.08503947 82.05069361 119 80 C112.82595515 75.01327146 109.03501948 72.82819514 101.875 76.5 Z M126.875 76.5 C125.96492187 76.9640625 125.05484375 77.428125 124.1171875 77.90625 C123.41851562 78.2671875 122.71984375 78.628125 122 79 C125.23014799 81.46073506 128.17452892 83.54632099 132 85 C136.34063683 84.09570066 140.08503947 82.05069361 144 80 C137.82595515 75.01327146 134.03501948 72.82819514 126.875 76.5 Z M151.875 76.5 C150.96492187 76.9640625 150.05484375 77.428125 149.1171875 77.90625 C148.41851562 78.2671875 147.71984375 78.628125 147 79 C150.23014799 81.46073506 153.17452892 83.54632099 157 85 C161.34063683 84.09570066 165.08503947 82.05069361 169 80 C162.82595515 75.01327146 159.03501948 72.82819514 151.875 76.5 Z M2.375 89.5 C1.55773437 89.9640625 0.74046875 90.428125 -0.1015625 90.90625 C-0.72804688 91.2671875 -1.35453125 91.628125 -2 92 C1.49373796 95.75588554 1.49373796 95.75588554 6 98 C10.58641079 97.70088625 13.99619 96.19256262 18 94 C18 93.34 18 92.68 18 92 C16.54462432 91.16151196 15.08559627 90.32936066 13.625 89.5 C12.81289063 89.0359375 12.00078125 88.571875 11.1640625 88.09375 C7.40779052 86.19527319 5.84949688 87.51457321 2.375 89.5 Z M27.375 89.5 C26.55773438 89.9640625 25.74046875 90.428125 24.8984375 90.90625 C24.27195313 91.2671875 23.64546875 91.628125 23 92 C26.49373796 95.75588554 26.49373796 95.75588554 31 98 C35.58641079 97.70088625 38.99619 96.19256262 43 94 C43 93.34 43 92.68 43 92 C41.54462432 91.16151196 40.08559627 90.32936066 38.625 89.5 C37.81289063 89.0359375 37.00078125 88.571875 36.1640625 88.09375 C32.40779052 86.19527319 30.84949688 87.51457321 27.375 89.5 Z M52.375 89.5 C51.55773437 89.9640625 50.74046875 90.428125 49.8984375 90.90625 C49.27195312 91.2671875 48.64546875 91.628125 48 92 C51.49373796 95.75588554 51.49373796 95.75588554 56 98 C60.58641079 97.70088625 63.99619 96.19256262 68 94 C68 93.34 68 92.68 68 92 C66.54462432 91.16151196 65.08559627 90.32936066 63.625 89.5 C62.81289062 89.0359375 62.00078125 88.571875 61.1640625 88.09375 C57.40779052 86.19527319 55.84949688 87.51457321 52.375 89.5 Z M77.375 89.5 C76.55773437 89.9640625 75.74046875 90.428125 74.8984375 90.90625 C74.27195312 91.2671875 73.64546875 91.628125 73 92 C76.49373796 95.75588554 76.49373796 95.75588554 81 98 C85.58641079 97.70088625 88.99619 96.19256262 93 94 C93 93.34 93 92.68 93 92 C91.54462432 91.16151196 90.08559627 90.32936066 88.625 89.5 C87.81289062 89.0359375 87.00078125 88.571875 86.1640625 88.09375 C82.40779052 86.19527319 80.84949688 87.51457321 77.375 89.5 Z M102.375 89.5 C101.55773437 89.9640625 100.74046875 90.428125 99.8984375 90.90625 C99.27195312 91.2671875 98.64546875 91.628125 98 92 C101.49373796 95.75588554 101.49373796 95.75588554 106 98 C110.58641079 97.70088625 113.99619 96.19256262 118 94 C118 93.34 118 92.68 118 92 C116.54462432 91.16151196 115.08559627 90.32936066 113.625 89.5 C112.81289062 89.0359375 112.00078125 88.571875 111.1640625 88.09375 C107.40779052 86.19527319 105.84949688 87.51457321 102.375 89.5 Z M127.375 89.5 C126.55773437 89.9640625 125.74046875 90.428125 124.8984375 90.90625 C124.27195313 91.2671875 123.64546875 91.628125 123 92 C126.49373796 95.75588554 126.49373796 95.75588554 131 98 C135.58641079 97.70088625 138.99619 96.19256262 143 94 C143 93.34 143 92.68 143 92 C141.54462432 91.16151196 140.08559627 90.32936066 138.625 89.5 C137.81289062 89.0359375 137.00078125 88.571875 136.1640625 88.09375 C132.40779052 86.19527319 130.84949688 87.51457321 127.375 89.5 Z M152.375 89.5 C151.55773437 89.9640625 150.74046875 90.428125 149.8984375 90.90625 C149.27195313 91.2671875 148.64546875 91.628125 148 92 C151.49373796 95.75588554 151.49373796 95.75588554 156 98 C160.58641079 97.70088625 163.99619 96.19256262 168 94 C168 93.34 168 92.68 168 92 C166.54462432 91.16151196 165.08559627 90.32936066 163.625 89.5 C162.81289062 89.0359375 162.00078125 88.571875 161.1640625 88.09375 C157.40779052 86.19527319 155.84949688 87.51457321 152.375 89.5 Z M1.75 103.5 C0.69039062 104.19609375 0.69039062 104.19609375 -0.390625 104.90625 C-0.92171875 105.2671875 -1.4528125 105.628125 -2 106 C-0.68441297 107.02323436 0.65368175 108.01755155 2 109 C2.78375 109.598125 3.5675 110.19625 4.375 110.8125 C6.99524378 112.30844443 6.99524378 112.30844443 10 111.375 C12.83535742 110.07546118 15.45060584 108.79957235 18 107 C18 106.34 18 105.68 18 105 C16.75539217 104.32332002 15.50403104 103.65905281 14.25 103 C13.55390625 102.62875 12.8578125 102.2575 12.140625 101.875 C7.87277284 100.13047649 5.34337009 101.10441994 1.75 103.5 Z M26.75 103.5 C25.69039062 104.19609375 25.69039062 104.19609375 24.609375 104.90625 C24.07828125 105.2671875 23.5471875 105.628125 23 106 C24.31558703 107.02323436 25.65368175 108.01755155 27 109 C27.78375 109.598125 28.5675 110.19625 29.375 110.8125 C31.99524378 112.30844443 31.99524378 112.30844443 35 111.375 C37.83535742 110.07546118 40.45060584 108.79957235 43 107 C43 106.34 43 105.68 43 105 C41.75539217 104.32332002 40.50403104 103.65905281 39.25 103 C38.55390625 102.62875 37.8578125 102.2575 37.140625 101.875 C32.87277284 100.13047649 30.34337009 101.10441994 26.75 103.5 Z M51.75 103.5 C50.69039063 104.19609375 50.69039063 104.19609375 49.609375 104.90625 C49.07828125 105.2671875 48.5471875 105.628125 48 106 C49.31558703 107.02323436 50.65368175 108.01755155 52 109 C52.78375 109.598125 53.5675 110.19625 54.375 110.8125 C56.99524378 112.30844443 56.99524378 112.30844443 60 111.375 C62.83535742 110.07546118 65.45060584 108.79957235 68 107 C68 106.34 68 105.68 68 105 C66.75539217 104.32332002 65.50403104 103.65905281 64.25 103 C63.55390625 102.62875 62.8578125 102.2575 62.140625 101.875 C57.87277284 100.13047649 55.34337009 101.10441994 51.75 103.5 Z M76.75 103.5 C75.69039063 104.19609375 75.69039063 104.19609375 74.609375 104.90625 C74.07828125 105.2671875 73.5471875 105.628125 73 106 C74.31558703 107.02323436 75.65368175 108.01755155 77 109 C77.78375 109.598125 78.5675 110.19625 79.375 110.8125 C81.99524378 112.30844443 81.99524378 112.30844443 85 111.375 C87.83535742 110.07546118 90.45060584 108.79957235 93 107 C93 106.34 93 105.68 93 105 C91.75539217 104.32332002 90.50403104 103.65905281 89.25 103 C88.55390625 102.62875 87.8578125 102.2575 87.140625 101.875 C82.87277284 100.13047649 80.34337009 101.10441994 76.75 103.5 Z M101.75 103.5 C100.69039063 104.19609375 100.69039063 104.19609375 99.609375 104.90625 C99.07828125 105.2671875 98.5471875 105.628125 98 106 C99.31558703 107.02323436 100.65368175 108.01755155 102 109 C102.78375 109.598125 103.5675 110.19625 104.375 110.8125 C106.99524378 112.30844443 106.99524378 112.30844443 110 111.375 C112.83535742 110.07546118 115.45060584 108.79957235 118 107 C118 106.34 118 105.68 118 105 C116.75539217 104.32332002 115.50403104 103.65905281 114.25 103 C113.55390625 102.62875 112.8578125 102.2575 112.140625 101.875 C107.87277284 100.13047649 105.34337009 101.10441994 101.75 103.5 Z M126.75 103.5 C125.69039062 104.19609375 125.69039062 104.19609375 124.609375 104.90625 C124.07828125 105.2671875 123.5471875 105.628125 123 106 C124.31558703 107.02323436 125.65368175 108.01755155 127 109 C127.78375 109.598125 128.5675 110.19625 129.375 110.8125 C131.99524378 112.30844443 131.99524378 112.30844443 135 111.375 C137.83535742 110.07546118 140.45060584 108.79957235 143 107 C143 106.34 143 105.68 143 105 C141.75539217 104.32332002 140.50403104 103.65905281 139.25 103 C138.55390625 102.62875 137.8578125 102.2575 137.140625 101.875 C132.87277284 100.13047649 130.34337009 101.10441994 126.75 103.5 Z M151.75 103.5 C150.69039062 104.19609375 150.69039062 104.19609375 149.609375 104.90625 C149.07828125 105.2671875 148.5471875 105.628125 148 106 C149.31558703 107.02323436 150.65368175 108.01755155 152 109 C152.78375 109.598125 153.5675 110.19625 154.375 110.8125 C156.99524378 112.30844443 156.99524378 112.30844443 160 111.375 C162.83535742 110.07546118 165.45060584 108.79957235 168 107 C168 106.34 168 105.68 168 105 C166.75539217 104.32332002 165.50403104 103.65905281 164.25 103 C163.55390625 102.62875 162.8578125 102.2575 162.140625 101.875 C157.87277284 100.13047649 155.34337009 101.10441994 151.75 103.5 Z M1.875 116.5 C0.96492188 116.9640625 0.05484375 117.428125 -0.8828125 117.90625 C-1.58148438 118.2671875 -2.28015625 118.628125 -3 119 C0.23014799 121.46073506 3.17452892 123.54632099 7 125 C11.34063683 124.09570066 15.08503947 122.05069361 19 120 C12.82595515 115.01327146 9.03501948 112.82819514 1.875 116.5 Z M26.875 116.5 C25.96492188 116.9640625 25.05484375 117.428125 24.1171875 117.90625 C23.41851562 118.2671875 22.71984375 118.628125 22 119 C25.23014799 121.46073506 28.17452892 123.54632099 32 125 C36.34063683 124.09570066 40.08503947 122.05069361 44 120 C37.82595515 115.01327146 34.03501948 112.82819514 26.875 116.5 Z M51.875 116.5 C50.96492188 116.9640625 50.05484375 117.428125 49.1171875 117.90625 C48.41851562 118.2671875 47.71984375 118.628125 47 119 C50.23014799 121.46073506 53.17452892 123.54632099 57 125 C61.34063683 124.09570066 65.08503947 122.05069361 69 120 C62.82595515 115.01327146 59.03501948 112.82819514 51.875 116.5 Z M76.875 116.5 C75.96492188 116.9640625 75.05484375 117.428125 74.1171875 117.90625 C73.41851562 118.2671875 72.71984375 118.628125 72 119 C75.23014799 121.46073506 78.17452892 123.54632099 82 125 C86.34063683 124.09570066 90.08503947 122.05069361 94 120 C87.82595515 115.01327146 84.03501948 112.82819514 76.875 116.5 Z M101.875 116.5 C100.96492188 116.9640625 100.05484375 117.428125 99.1171875 117.90625 C98.41851562 118.2671875 97.71984375 118.628125 97 119 C100.23014799 121.46073506 103.17452892 123.54632099 107 125 C111.34063683 124.09570066 115.08503947 122.05069361 119 120 C112.82595515 115.01327146 109.03501948 112.82819514 101.875 116.5 Z M126.875 116.5 C125.96492187 116.9640625 125.05484375 117.428125 124.1171875 117.90625 C123.41851562 118.2671875 122.71984375 118.628125 122 119 C125.23014799 121.46073506 128.17452892 123.54632099 132 125 C136.34063683 124.09570066 140.08503947 122.05069361 144 120 C137.82595515 115.01327146 134.03501948 112.82819514 126.875 116.5 Z M151.875 116.5 C150.96492187 116.9640625 150.05484375 117.428125 149.1171875 117.90625 C148.41851562 118.2671875 147.71984375 118.628125 147 119 C150.23014799 121.46073506 153.17452892 123.54632099 157 125 C161.34063683 124.09570066 165.08503947 122.05069361 169 120 C162.82595515 115.01327146 159.03501948 112.82819514 151.875 116.5 Z M2.375 129.1875 C0.89343421 130.08783614 -0.57403689 131.01396168 -2 132 C1.49373796 135.75588554 1.49373796 135.75588554 6 138 C10.58641079 137.70088625 13.99619 136.19256262 18 134 C18 133.34 18 132.68 18 132 C12.42578071 128.14548666 8.75873981 125.90443381 2.375 129.1875 Z M27.375 129.1875 C25.89343421 130.08783614 24.42596311 131.01396168 23 132 C26.49373796 135.75588554 26.49373796 135.75588554 31 138 C35.58641079 137.70088625 38.99619 136.19256262 43 134 C43 133.34 43 132.68 43 132 C37.42578071 128.14548666 33.75873981 125.90443381 27.375 129.1875 Z M52.375 129.1875 C50.89343421 130.08783614 49.42596311 131.01396168 48 132 C51.49373796 135.75588554 51.49373796 135.75588554 56 138 C60.58641079 137.70088625 63.99619 136.19256262 68 134 C68 133.34 68 132.68 68 132 C62.42578071 128.14548666 58.75873981 125.90443381 52.375 129.1875 Z M77.375 129.1875 C75.89343421 130.08783614 74.42596311 131.01396168 73 132 C76.49373796 135.75588554 76.49373796 135.75588554 81 138 C85.58641079 137.70088625 88.99619 136.19256262 93 134 C93 133.34 93 132.68 93 132 C87.42578071 128.14548666 83.75873981 125.90443381 77.375 129.1875 Z M102.375 129.1875 C100.89343421 130.08783614 99.42596311 131.01396168 98 132 C101.49373796 135.75588554 101.49373796 135.75588554 106 138 C110.58641079 137.70088625 113.99619 136.19256262 118 134 C118 133.34 118 132.68 118 132 C112.42578071 128.14548666 108.75873981 125.90443381 102.375 129.1875 Z M127.375 129.1875 C125.89343421 130.08783614 124.42596311 131.01396168 123 132 C126.49373796 135.75588554 126.49373796 135.75588554 131 138 C135.58641079 137.70088625 138.99619 136.19256262 143 134 C143 133.34 143 132.68 143 132 C137.42578071 128.14548666 133.75873981 125.90443381 127.375 129.1875 Z M152.375 129.1875 C150.89343421 130.08783614 149.42596311 131.01396168 148 132 C151.49373796 135.75588554 151.49373796 135.75588554 156 138 C160.58641079 137.70088625 163.99619 136.19256262 168 134 C168 133.34 168 132.68 168 132 C162.42578071 128.14548666 158.75873981 125.90443381 152.375 129.1875 Z M1.25 143.5 C0.05117188 144.19609375 0.05117188 144.19609375 -1.171875 144.90625 C-1.77515625 145.2671875 -2.3784375 145.628125 -3 146 C-1.515 146.99 -1.515 146.99 0 148 C0.54398438 148.37640625 1.08796875 148.7528125 1.6484375 149.140625 C3.40307535 150.26803936 5.06064328 151.22856699 7 152 C9.59867226 151.54488317 9.59867226 151.54488317 12 150 C13.26532627 149.4455908 14.53647938 148.9043312 15.8125 148.375 C16.864375 147.92125 17.91625 147.4675 19 147 C12.83820269 141.86516891 8.79004431 139.06467982 1.25 143.5 Z M26.25 143.5 C25.05117188 144.19609375 25.05117188 144.19609375 23.828125 144.90625 C23.22484375 145.2671875 22.6215625 145.628125 22 146 C23.485 146.99 23.485 146.99 25 148 C25.54398438 148.37640625 26.08796875 148.7528125 26.6484375 149.140625 C28.40307535 150.26803936 30.06064328 151.22856699 32 152 C34.59867226 151.54488317 34.59867226 151.54488317 37 150 C38.26532627 149.4455908 39.53647938 148.9043312 40.8125 148.375 C41.864375 147.92125 42.91625 147.4675 44 147 C37.83820269 141.86516891 33.79004431 139.06467982 26.25 143.5 Z M51.25 143.5 C50.05117187 144.19609375 50.05117187 144.19609375 48.828125 144.90625 C48.22484375 145.2671875 47.6215625 145.628125 47 146 C48.485 146.99 48.485 146.99 50 148 C50.54398437 148.37640625 51.08796875 148.7528125 51.6484375 149.140625 C53.40307535 150.26803936 55.06064328 151.22856699 57 152 C59.59867226 151.54488317 59.59867226 151.54488317 62 150 C63.26532627 149.4455908 64.53647938 148.9043312 65.8125 148.375 C66.864375 147.92125 67.91625 147.4675 69 147 C62.83820269 141.86516891 58.79004431 139.06467982 51.25 143.5 Z M76.25 143.5 C75.05117187 144.19609375 75.05117187 144.19609375 73.828125 144.90625 C73.22484375 145.2671875 72.6215625 145.628125 72 146 C73.485 146.99 73.485 146.99 75 148 C75.54398437 148.37640625 76.08796875 148.7528125 76.6484375 149.140625 C78.40307535 150.26803936 80.06064328 151.22856699 82 152 C84.59867226 151.54488317 84.59867226 151.54488317 87 150 C88.26532627 149.4455908 89.53647938 148.9043312 90.8125 148.375 C91.864375 147.92125 92.91625 147.4675 94 147 C87.83820269 141.86516891 83.79004431 139.06467982 76.25 143.5 Z M101.25 143.5 C100.05117187 144.19609375 100.05117187 144.19609375 98.828125 144.90625 C98.22484375 145.2671875 97.6215625 145.628125 97 146 C98.485 146.99 98.485 146.99 100 148 C100.54398437 148.37640625 101.08796875 148.7528125 101.6484375 149.140625 C103.40307535 150.26803936 105.06064328 151.22856699 107 152 C109.59867226 151.54488317 109.59867226 151.54488317 112 150 C113.26532627 149.4455908 114.53647938 148.9043312 115.8125 148.375 C116.864375 147.92125 117.91625 147.4675 119 147 C112.83820269 141.86516891 108.79004431 139.06467982 101.25 143.5 Z M126.25 143.5 C125.05117187 144.19609375 125.05117187 144.19609375 123.828125 144.90625 C123.22484375 145.2671875 122.6215625 145.628125 122 146 C123.485 146.99 123.485 146.99 125 148 C125.54398438 148.37640625 126.08796875 148.7528125 126.6484375 149.140625 C128.40307535 150.26803936 130.06064328 151.22856699 132 152 C134.59867226 151.54488317 134.59867226 151.54488317 137 150 C138.26532627 149.4455908 139.53647938 148.9043312 140.8125 148.375 C141.864375 147.92125 142.91625 147.4675 144 147 C137.83820269 141.86516891 133.79004431 139.06467982 126.25 143.5 Z M151.25 143.5 C150.05117187 144.19609375 150.05117187 144.19609375 148.828125 144.90625 C148.22484375 145.2671875 147.6215625 145.628125 147 146 C148.485 146.99 148.485 146.99 150 148 C150.54398438 148.37640625 151.08796875 148.7528125 151.6484375 149.140625 C153.40307535 150.26803936 155.06064328 151.22856699 157 152 C159.59867226 151.54488317 159.59867226 151.54488317 162 150 C163.26532627 149.4455908 164.53647938 148.9043312 165.8125 148.375 C166.864375 147.92125 167.91625 147.4675 169 147 C162.83820269 141.86516891 158.79004431 139.06467982 151.25 143.5 Z M2.375 156.5 C1.55773437 156.9640625 0.74046875 157.428125 -0.1015625 157.90625 C-0.72804688 158.2671875 -1.35453125 158.628125 -2 159 C0.75458489 161.8845948 3.21425543 163.58962457 7 165 C11.17598461 164.14775824 14.44111969 162.30280491 18 160 C15.45217026 157.02753198 12.54659117 155.58464712 9 154 C6.25748805 154 4.74494155 155.14574768 2.375 156.5 Z M27.375 156.5 C26.55773438 156.9640625 25.74046875 157.428125 24.8984375 157.90625 C24.27195313 158.2671875 23.64546875 158.628125 23 159 C25.75458489 161.8845948 28.21425543 163.58962457 32 165 C36.17598461 164.14775824 39.44111969 162.30280491 43 160 C40.45217026 157.02753198 37.54659117 155.58464712 34 154 C31.25748805 154 29.74494155 155.14574768 27.375 156.5 Z M52.375 156.5 C51.55773437 156.9640625 50.74046875 157.428125 49.8984375 157.90625 C49.27195312 158.2671875 48.64546875 158.628125 48 159 C50.75458489 161.8845948 53.21425543 163.58962457 57 165 C61.17598461 164.14775824 64.44111969 162.30280491 68 160 C65.45217026 157.02753198 62.54659117 155.58464712 59 154 C56.25748805 154 54.74494155 155.14574768 52.375 156.5 Z M77.375 156.5 C76.55773437 156.9640625 75.74046875 157.428125 74.8984375 157.90625 C74.27195312 158.2671875 73.64546875 158.628125 73 159 C75.75458489 161.8845948 78.21425543 163.58962457 82 165 C86.17598461 164.14775824 89.44111969 162.30280491 93 160 C90.45217026 157.02753198 87.54659117 155.58464712 84 154 C81.25748805 154 79.74494155 155.14574768 77.375 156.5 Z M102.375 156.5 C101.55773437 156.9640625 100.74046875 157.428125 99.8984375 157.90625 C99.27195312 158.2671875 98.64546875 158.628125 98 159 C100.75458489 161.8845948 103.21425543 163.58962457 107 165 C111.17598461 164.14775824 114.44111969 162.30280491 118 160 C115.45217026 157.02753198 112.54659117 155.58464712 109 154 C106.25748805 154 104.74494155 155.14574768 102.375 156.5 Z M127.375 156.5 C126.55773437 156.9640625 125.74046875 157.428125 124.8984375 157.90625 C124.27195313 158.2671875 123.64546875 158.628125 123 159 C125.75458489 161.8845948 128.21425543 163.58962457 132 165 C136.17598461 164.14775824 139.44111969 162.30280491 143 160 C140.45217026 157.02753198 137.54659117 155.58464712 134 154 C131.25748805 154 129.74494155 155.14574768 127.375 156.5 Z M152.375 156.5 C151.55773437 156.9640625 150.74046875 157.428125 149.8984375 157.90625 C149.27195313 158.2671875 148.64546875 158.628125 148 159 C150.75458489 161.8845948 153.21425543 163.58962457 157 165 C161.17598461 164.14775824 164.44111969 162.30280491 168 160 C165.45217026 157.02753198 162.54659117 155.58464712 159 154 C156.25748805 154 154.74494155 155.14574768 152.375 156.5 Z M1.25 170.5 C0.05117188 171.19609375 0.05117188 171.19609375 -1.171875 171.90625 C-1.77515625 172.2671875 -2.3784375 172.628125 -3 173 C2.11622561 177.34686623 2.11622561 177.34686623 8.3125 178.9375 C12.05542515 177.63182844 15.50686266 175.86358444 19 174 C16.28623859 171.1251845 13.65594351 169.56683293 10 168 C5.85323868 168 4.68791935 168.4776945 1.25 170.5 Z M26.25 170.5 C25.05117188 171.19609375 25.05117188 171.19609375 23.828125 171.90625 C23.22484375 172.2671875 22.6215625 172.628125 22 173 C27.11622561 177.34686623 27.11622561 177.34686623 33.3125 178.9375 C37.05542515 177.63182844 40.50686266 175.86358444 44 174 C41.28623859 171.1251845 38.65594351 169.56683293 35 168 C30.85323868 168 29.68791935 168.4776945 26.25 170.5 Z M51.25 170.5 C50.05117187 171.19609375 50.05117187 171.19609375 48.828125 171.90625 C48.22484375 172.2671875 47.6215625 172.628125 47 173 C52.11622561 177.34686623 52.11622561 177.34686623 58.3125 178.9375 C62.05542515 177.63182844 65.50686266 175.86358444 69 174 C66.28623859 171.1251845 63.65594351 169.56683293 60 168 C55.85323868 168 54.68791935 168.4776945 51.25 170.5 Z M76.25 170.5 C75.05117187 171.19609375 75.05117187 171.19609375 73.828125 171.90625 C73.22484375 172.2671875 72.6215625 172.628125 72 173 C77.11622561 177.34686623 77.11622561 177.34686623 83.3125 178.9375 C87.05542515 177.63182844 90.50686266 175.86358444 94 174 C91.28623859 171.1251845 88.65594351 169.56683293 85 168 C80.85323868 168 79.68791935 168.4776945 76.25 170.5 Z M101.25 170.5 C100.05117187 171.19609375 100.05117187 171.19609375 98.828125 171.90625 C98.22484375 172.2671875 97.6215625 172.628125 97 173 C102.11622561 177.34686623 102.11622561 177.34686623 108.3125 178.9375 C112.05542515 177.63182844 115.50686266 175.86358444 119 174 C116.28623859 171.1251845 113.65594351 169.56683293 110 168 C105.85323868 168 104.68791935 168.4776945 101.25 170.5 Z M126.25 170.5 C125.05117187 171.19609375 125.05117187 171.19609375 123.828125 171.90625 C123.22484375 172.2671875 122.6215625 172.628125 122 173 C127.11622561 177.34686623 127.11622561 177.34686623 133.3125 178.9375 C137.05542515 177.63182844 140.50686266 175.86358444 144 174 C141.28623859 171.1251845 138.65594351 169.56683293 135 168 C130.85323868 168 129.68791935 168.4776945 126.25 170.5 Z M151.25 170.5 C150.05117187 171.19609375 150.05117187 171.19609375 148.828125 171.90625 C148.22484375 172.2671875 147.6215625 172.628125 147 173 C152.11622561 177.34686623 152.11622561 177.34686623 158.3125 178.9375 C162.05542515 177.63182844 165.50686266 175.86358444 169 174 C166.28623859 171.1251845 163.65594351 169.56683293 160 168 C155.85323868 168 154.68791935 168.4776945 151.25 170.5 Z M1.75 184.5 C0.69039062 185.19609375 0.69039062 185.19609375 -0.390625 185.90625 C-0.92171875 186.2671875 -1.4528125 186.628125 -2 187 C2.87360587 190.9822815 2.87360587 190.9822815 8.875 191.8125 C12.21627467 190.94376858 14.97845058 189.65465801 18 188 C18 187.34 18 186.68 18 186 C16.75539217 185.32332002 15.50403104 184.65905281 14.25 184 C13.55390625 183.62875 12.8578125 183.2575 12.140625 182.875 C7.87277284 181.13047649 5.34337009 182.10441994 1.75 184.5 Z M26.75 184.5 C25.69039062 185.19609375 25.69039062 185.19609375 24.609375 185.90625 C24.07828125 186.2671875 23.5471875 186.628125 23 187 C27.87360587 190.9822815 27.87360587 190.9822815 33.875 191.8125 C37.21627467 190.94376858 39.97845058 189.65465801 43 188 C43 187.34 43 186.68 43 186 C41.75539217 185.32332002 40.50403104 184.65905281 39.25 184 C38.55390625 183.62875 37.8578125 183.2575 37.140625 182.875 C32.87277284 181.13047649 30.34337009 182.10441994 26.75 184.5 Z M51.75 184.5 C50.69039063 185.19609375 50.69039063 185.19609375 49.609375 185.90625 C49.07828125 186.2671875 48.5471875 186.628125 48 187 C52.87360587 190.9822815 52.87360587 190.9822815 58.875 191.8125 C62.21627467 190.94376858 64.97845058 189.65465801 68 188 C68 187.34 68 186.68 68 186 C66.75539217 185.32332002 65.50403104 184.65905281 64.25 184 C63.55390625 183.62875 62.8578125 183.2575 62.140625 182.875 C57.87277284 181.13047649 55.34337009 182.10441994 51.75 184.5 Z M76.75 184.5 C75.69039063 185.19609375 75.69039063 185.19609375 74.609375 185.90625 C74.07828125 186.2671875 73.5471875 186.628125 73 187 C77.87360587 190.9822815 77.87360587 190.9822815 83.875 191.8125 C87.21627467 190.94376858 89.97845058 189.65465801 93 188 C93 187.34 93 186.68 93 186 C91.75539217 185.32332002 90.50403104 184.65905281 89.25 184 C88.55390625 183.62875 87.8578125 183.2575 87.140625 182.875 C82.87277284 181.13047649 80.34337009 182.10441994 76.75 184.5 Z M101.75 184.5 C100.69039063 185.19609375 100.69039063 185.19609375 99.609375 185.90625 C99.07828125 186.2671875 98.5471875 186.628125 98 187 C102.87360587 190.9822815 102.87360587 190.9822815 108.875 191.8125 C112.21627467 190.94376858 114.97845058 189.65465801 118 188 C118 187.34 118 186.68 118 186 C116.75539217 185.32332002 115.50403104 184.65905281 114.25 184 C113.55390625 183.62875 112.8578125 183.2575 112.140625 182.875 C107.87277284 181.13047649 105.34337009 182.10441994 101.75 184.5 Z M126.75 184.5 C125.69039062 185.19609375 125.69039062 185.19609375 124.609375 185.90625 C124.07828125 186.2671875 123.5471875 186.628125 123 187 C127.87360587 190.9822815 127.87360587 190.9822815 133.875 191.8125 C137.21627467 190.94376858 139.97845058 189.65465801 143 188 C143 187.34 143 186.68 143 186 C141.75539217 185.32332002 140.50403104 184.65905281 139.25 184 C138.55390625 183.62875 137.8578125 183.2575 137.140625 182.875 C132.87277284 181.13047649 130.34337009 182.10441994 126.75 184.5 Z M151.75 184.5 C150.69039062 185.19609375 150.69039062 185.19609375 149.609375 185.90625 C149.07828125 186.2671875 148.5471875 186.628125 148 187 C152.87360587 190.9822815 152.87360587 190.9822815 158.875 191.8125 C162.21627467 190.94376858 164.97845058 189.65465801 168 188 C168 187.34 168 186.68 168 186 C166.75539217 185.32332002 165.50403104 184.65905281 164.25 184 C163.55390625 183.62875 162.8578125 183.2575 162.140625 182.875 C157.87277284 181.13047649 155.34337009 182.10441994 151.75 184.5 Z " fill="#000000" transform="translate(17,1)"/>
</svg>
