<svg xmlns="http://www.w3.org/2000/svg" xmlns:xlink="http://www.w3.org/1999/xlink" viewBox="0 0 59.87 62.22"><defs><style>.cls-1{fill:none;}.cls-2{fill:#fcda0f;}.cls-3{fill:url(#New_Pattern);}</style><pattern id="New_Pattern" data-name="New Pattern" width="7.88" height="4.55" patternUnits="userSpaceOnUse" viewBox="0 0 7.88 4.55"><rect class="cls-1" width="7.88" height="4.55"/><polygon class="cls-2" points="5.38 2.48 4.19 4.55 4.18 4.55 3.94 4.55 3.94 4.55 5.19 2.38 3.94 0.21 1.44 0.21 0.19 2.38 1.44 4.55 1.2 4.55 0 2.48 0 2.48 0 2.48 0 2.29 0 2.27 0.01 2.27 1.26 0.1 1.23 0.05 1.2 0 1.32 0 1.44 0 3.94 0 4.07 0 4.18 0 4.15 0.06 4.13 0.1 5.38 2.27 7.88 2.27 7.88 2.27 7.88 2.48 7.88 2.48 5.38 2.48"/></pattern></defs><g id="Layer_2" data-name="Layer 2"><g id="Layer_1-2" data-name="Layer 1"><rect class="cls-3" width="59.87" height="62.22"/></g></g></svg>