<svg xmlns="http://www.w3.org/2000/svg" version="1.1" xmlns:xlink="http://www.w3.org/1999/xlink" xmlns:svgjs="http://svgjs.dev/svgjs" viewBox="0 0 800 800"><g fill="none" stroke-width="1.5" stroke="hsl(335, 77%, 50%)" stroke-linecap="square" stroke-dasharray="25.5 1.5"><line x1="-450.5" y1="400" x2="1250.5" y2="400" transform="rotate(0, 400, 400)"></line><line x1="-317" y1="400" x2="1117" y2="400" transform="rotate(2, 400, 400)"></line><line x1="253.5" y1="400" x2="546.5" y2="400" transform="rotate(4, 400, 400)"></line><line x1="-392" y1="400" x2="1192" y2="400" transform="rotate(6, 400, 400)"></line><line x1="-369" y1="400" x2="1169" y2="400" transform="rotate(8, 400, 400)"></line><line x1="-670" y1="400" x2="1470" y2="400" transform="rotate(10, 400, 400)"></line><line x1="12.5" y1="400" x2="787.5" y2="400" transform="rotate(12, 400, 400)"></line><line x1="207" y1="400" x2="593" y2="400" transform="rotate(14, 400, 400)"></line><line x1="-672.5" y1="400" x2="1472.5" y2="400" transform="rotate(16, 400, 400)"></line><line x1="-409.5" y1="400" x2="1209.5" y2="400" transform="rotate(18, 400, 400)"></line><line x1="-664.5" y1="400" x2="1464.5" y2="400" transform="rotate(20, 400, 400)"></line><line x1="-473.5" y1="400" x2="1273.5" y2="400" transform="rotate(22, 400, 400)"></line><line x1="-388.5" y1="400" x2="1188.5" y2="400" transform="rotate(24, 400, 400)"></line><line x1="-184.5" y1="400" x2="984.5" y2="400" transform="rotate(26, 400, 400)"></line><line x1="-560.5" y1="400" x2="1360.5" y2="400" transform="rotate(28, 400, 400)"></line><line x1="-314" y1="400" x2="1114" y2="400" transform="rotate(30, 400, 400)"></line><line x1="222.5" y1="400" x2="577.5" y2="400" transform="rotate(32, 400, 400)"></line><line x1="38.5" y1="400" x2="761.5" y2="400" transform="rotate(34, 400, 400)"></line><line x1="118" y1="400" x2="682" y2="400" transform="rotate(36, 400, 400)"></line><line x1="-536" y1="400" x2="1336" y2="400" transform="rotate(38, 400, 400)"></line><line x1="-378" y1="400" x2="1178" y2="400" transform="rotate(40, 400, 400)"></line><line x1="-32.5" y1="400" x2="832.5" y2="400" transform="rotate(42, 400, 400)"></line><line x1="-92" y1="400" x2="892" y2="400" transform="rotate(44, 400, 400)"></line><line x1="-267" y1="400" x2="1067" y2="400" transform="rotate(46, 400, 400)"></line><line x1="-295.5" y1="400" x2="1095.5" y2="400" transform="rotate(48, 400, 400)"></line><line x1="-611" y1="400" x2="1411" y2="400" transform="rotate(50, 400, 400)"></line><line x1="22" y1="400" x2="778" y2="400" transform="rotate(52, 400, 400)"></line><line x1="27" y1="400" x2="773" y2="400" transform="rotate(54, 400, 400)"></line><line x1="-76" y1="400" x2="876" y2="400" transform="rotate(56, 400, 400)"></line><line x1="109.5" y1="400" x2="690.5" y2="400" transform="rotate(58, 400, 400)"></line><line x1="-389.5" y1="400" x2="1189.5" y2="400" transform="rotate(60, 400, 400)"></line><line x1="105" y1="400" x2="695" y2="400" transform="rotate(62, 400, 400)"></line><line x1="-679.5" y1="400" x2="1479.5" y2="400" transform="rotate(64, 400, 400)"></line><line x1="-722.5" y1="400" x2="1522.5" y2="400" transform="rotate(66, 400, 400)"></line><line x1="-334.5" y1="400" x2="1134.5" y2="400" transform="rotate(68, 400, 400)"></line><line x1="-243" y1="400" x2="1043" y2="400" transform="rotate(70, 400, 400)"></line><line x1="-487" y1="400" x2="1287" y2="400" transform="rotate(72, 400, 400)"></line><line x1="-80.5" y1="400" x2="880.5" y2="400" transform="rotate(74, 400, 400)"></line><line x1="242" y1="400" x2="558" y2="400" transform="rotate(76, 400, 400)"></line><line x1="-329" y1="400" x2="1129" y2="400" transform="rotate(78, 400, 400)"></line><line x1="-443" y1="400" x2="1243" y2="400" transform="rotate(80, 400, 400)"></line><line x1="-677.5" y1="400" x2="1477.5" y2="400" transform="rotate(82, 400, 400)"></line><line x1="4" y1="400" x2="796" y2="400" transform="rotate(84, 400, 400)"></line><line x1="-669.5" y1="400" x2="1469.5" y2="400" transform="rotate(86, 400, 400)"></line><line x1="-615.5" y1="400" x2="1415.5" y2="400" transform="rotate(88, 400, 400)"></line><line x1="177.5" y1="400" x2="622.5" y2="400" transform="rotate(90, 400, 400)"></line><line x1="-503.5" y1="400" x2="1303.5" y2="400" transform="rotate(92, 400, 400)"></line><line x1="-147" y1="400" x2="947" y2="400" transform="rotate(94, 400, 400)"></line><line x1="17.5" y1="400" x2="782.5" y2="400" transform="rotate(96, 400, 400)"></line><line x1="-575.5" y1="400" x2="1375.5" y2="400" transform="rotate(98, 400, 400)"></line><line x1="-705.5" y1="400" x2="1505.5" y2="400" transform="rotate(100, 400, 400)"></line><line x1="121.5" y1="400" x2="678.5" y2="400" transform="rotate(102, 400, 400)"></line><line x1="-520" y1="400" x2="1320" y2="400" transform="rotate(104, 400, 400)"></line><line x1="-625.5" y1="400" x2="1425.5" y2="400" transform="rotate(106, 400, 400)"></line><line x1="-666.5" y1="400" x2="1466.5" y2="400" transform="rotate(108, 400, 400)"></line><line x1="-20" y1="400" x2="820" y2="400" transform="rotate(110, 400, 400)"></line><line x1="-147" y1="400" x2="947" y2="400" transform="rotate(112, 400, 400)"></line><line x1="217.5" y1="400" x2="582.5" y2="400" transform="rotate(114, 400, 400)"></line><line x1="-438.5" y1="400" x2="1238.5" y2="400" transform="rotate(116, 400, 400)"></line><line x1="-384" y1="400" x2="1184" y2="400" transform="rotate(118, 400, 400)"></line><line x1="-602.5" y1="400" x2="1402.5" y2="400" transform="rotate(120, 400, 400)"></line><line x1="208.5" y1="400" x2="591.5" y2="400" transform="rotate(122, 400, 400)"></line><line x1="272" y1="400" x2="528" y2="400" transform="rotate(124, 400, 400)"></line><line x1="54" y1="400" x2="746" y2="400" transform="rotate(126, 400, 400)"></line><line x1="-42" y1="400" x2="842" y2="400" transform="rotate(128, 400, 400)"></line><line x1="120" y1="400" x2="680" y2="400" transform="rotate(130, 400, 400)"></line><line x1="-608.5" y1="400" x2="1408.5" y2="400" transform="rotate(132, 400, 400)"></line><line x1="219" y1="400" x2="581" y2="400" transform="rotate(134, 400, 400)"></line><line x1="-569" y1="400" x2="1369" y2="400" transform="rotate(136, 400, 400)"></line><line x1="-374" y1="400" x2="1174" y2="400" transform="rotate(138, 400, 400)"></line><line x1="-55" y1="400" x2="855" y2="400" transform="rotate(140, 400, 400)"></line><line x1="-688" y1="400" x2="1488" y2="400" transform="rotate(142, 400, 400)"></line><line x1="-206.5" y1="400" x2="1006.5" y2="400" transform="rotate(144, 400, 400)"></line><line x1="-491" y1="400" x2="1291" y2="400" transform="rotate(146, 400, 400)"></line><line x1="-186" y1="400" x2="986" y2="400" transform="rotate(148, 400, 400)"></line><line x1="-471" y1="400" x2="1271" y2="400" transform="rotate(150, 400, 400)"></line><line x1="-424" y1="400" x2="1224" y2="400" transform="rotate(152, 400, 400)"></line><line x1="-83.5" y1="400" x2="883.5" y2="400" transform="rotate(154, 400, 400)"></line><line x1="-280" y1="400" x2="1080" y2="400" transform="rotate(156, 400, 400)"></line><line x1="-280" y1="400" x2="1080" y2="400" transform="rotate(158, 400, 400)"></line><line x1="-619" y1="400" x2="1419" y2="400" transform="rotate(160, 400, 400)"></line><line x1="-317.5" y1="400" x2="1117.5" y2="400" transform="rotate(162, 400, 400)"></line><line x1="-9.5" y1="400" x2="809.5" y2="400" transform="rotate(164, 400, 400)"></line><line x1="158.5" y1="400" x2="641.5" y2="400" transform="rotate(166, 400, 400)"></line><line x1="-181" y1="400" x2="981" y2="400" transform="rotate(168, 400, 400)"></line><line x1="-32" y1="400" x2="832" y2="400" transform="rotate(170, 400, 400)"></line><line x1="10.5" y1="400" x2="789.5" y2="400" transform="rotate(172, 400, 400)"></line><line x1="-342.5" y1="400" x2="1142.5" y2="400" transform="rotate(174, 400, 400)"></line><line x1="-138" y1="400" x2="938" y2="400" transform="rotate(176, 400, 400)"></line><line x1="192.5" y1="400" x2="607.5" y2="400" transform="rotate(178, 400, 400)"></line><line x1="-644.5" y1="400" x2="1444.5" y2="400" transform="rotate(180, 400, 400)"></line><line x1="-188" y1="400" x2="988" y2="400" transform="rotate(182, 400, 400)"></line><line x1="-254.5" y1="400" x2="1054.5" y2="400" transform="rotate(184, 400, 400)"></line><line x1="-76.5" y1="400" x2="876.5" y2="400" transform="rotate(186, 400, 400)"></line><line x1="-60" y1="400" x2="860" y2="400" transform="rotate(188, 400, 400)"></line><line x1="76.5" y1="400" x2="723.5" y2="400" transform="rotate(190, 400, 400)"></line><line x1="75.5" y1="400" x2="724.5" y2="400" transform="rotate(192, 400, 400)"></line><line x1="85.5" y1="400" x2="714.5" y2="400" transform="rotate(194, 400, 400)"></line><line x1="-327.5" y1="400" x2="1127.5" y2="400" transform="rotate(196, 400, 400)"></line><line x1="46.5" y1="400" x2="753.5" y2="400" transform="rotate(198, 400, 400)"></line><line x1="-362.5" y1="400" x2="1162.5" y2="400" transform="rotate(200, 400, 400)"></line><line x1="-714.5" y1="400" x2="1514.5" y2="400" transform="rotate(202, 400, 400)"></line><line x1="-502" y1="400" x2="1302" y2="400" transform="rotate(204, 400, 400)"></line><line x1="-438" y1="400" x2="1238" y2="400" transform="rotate(206, 400, 400)"></line><line x1="-566" y1="400" x2="1366" y2="400" transform="rotate(208, 400, 400)"></line><line x1="-228" y1="400" x2="1028" y2="400" transform="rotate(210, 400, 400)"></line><line x1="-439.5" y1="400" x2="1239.5" y2="400" transform="rotate(212, 400, 400)"></line><line x1="232.5" y1="400" x2="567.5" y2="400" transform="rotate(214, 400, 400)"></line><line x1="-156.5" y1="400" x2="956.5" y2="400" transform="rotate(216, 400, 400)"></line><line x1="207" y1="400" x2="593" y2="400" transform="rotate(218, 400, 400)"></line><line x1="-79" y1="400" x2="879" y2="400" transform="rotate(220, 400, 400)"></line><line x1="-148" y1="400" x2="948" y2="400" transform="rotate(222, 400, 400)"></line><line x1="-411" y1="400" x2="1211" y2="400" transform="rotate(224, 400, 400)"></line><line x1="-106" y1="400" x2="906" y2="400" transform="rotate(226, 400, 400)"></line><line x1="121" y1="400" x2="679" y2="400" transform="rotate(228, 400, 400)"></line><line x1="-547" y1="400" x2="1347" y2="400" transform="rotate(230, 400, 400)"></line><line x1="161.5" y1="400" x2="638.5" y2="400" transform="rotate(232, 400, 400)"></line><line x1="-745" y1="400" x2="1545" y2="400" transform="rotate(234, 400, 400)"></line><line x1="143.5" y1="400" x2="656.5" y2="400" transform="rotate(236, 400, 400)"></line><line x1="-522" y1="400" x2="1322" y2="400" transform="rotate(238, 400, 400)"></line><line x1="93.5" y1="400" x2="706.5" y2="400" transform="rotate(240, 400, 400)"></line><line x1="35.5" y1="400" x2="764.5" y2="400" transform="rotate(242, 400, 400)"></line><line x1="-698.5" y1="400" x2="1498.5" y2="400" transform="rotate(244, 400, 400)"></line><line x1="-170" y1="400" x2="970" y2="400" transform="rotate(246, 400, 400)"></line><line x1="205.5" y1="400" x2="594.5" y2="400" transform="rotate(248, 400, 400)"></line><line x1="-320.5" y1="400" x2="1120.5" y2="400" transform="rotate(250, 400, 400)"></line><line x1="279.5" y1="400" x2="520.5" y2="400" transform="rotate(252, 400, 400)"></line><line x1="-553" y1="400" x2="1353" y2="400" transform="rotate(254, 400, 400)"></line><line x1="-650.5" y1="400" x2="1450.5" y2="400" transform="rotate(256, 400, 400)"></line><line x1="-210" y1="400" x2="1010" y2="400" transform="rotate(258, 400, 400)"></line><line x1="-311.5" y1="400" x2="1111.5" y2="400" transform="rotate(260, 400, 400)"></line><line x1="51.5" y1="400" x2="748.5" y2="400" transform="rotate(262, 400, 400)"></line><line x1="-19" y1="400" x2="819" y2="400" transform="rotate(264, 400, 400)"></line><line x1="-2.5" y1="400" x2="802.5" y2="400" transform="rotate(266, 400, 400)"></line><line x1="138.5" y1="400" x2="661.5" y2="400" transform="rotate(268, 400, 400)"></line><line x1="-497" y1="400" x2="1297" y2="400" transform="rotate(270, 400, 400)"></line><line x1="-57" y1="400" x2="857" y2="400" transform="rotate(272, 400, 400)"></line><line x1="-173.5" y1="400" x2="973.5" y2="400" transform="rotate(274, 400, 400)"></line><line x1="-592" y1="400" x2="1392" y2="400" transform="rotate(276, 400, 400)"></line><line x1="228.5" y1="400" x2="571.5" y2="400" transform="rotate(278, 400, 400)"></line><line x1="-102" y1="400" x2="902" y2="400" transform="rotate(280, 400, 400)"></line><line x1="-8" y1="400" x2="808" y2="400" transform="rotate(282, 400, 400)"></line><line x1="75" y1="400" x2="725" y2="400" transform="rotate(284, 400, 400)"></line><line x1="-565" y1="400" x2="1365" y2="400" transform="rotate(286, 400, 400)"></line><line x1="-441" y1="400" x2="1241" y2="400" transform="rotate(288, 400, 400)"></line><line x1="130.5" y1="400" x2="669.5" y2="400" transform="rotate(290, 400, 400)"></line></g></svg>