<svg xmlns="http://www.w3.org/2000/svg" version="1.1" xmlns:xlink="http://www.w3.org/1999/xlink" xmlns:svgjs="http://svgjs.dev/svgjs" viewBox="0 0 800 800"><defs><linearGradient x1="50%" y1="0%" x2="50%" y2="100%" id="ssscribble-grad"><stop stop-color="hsl(206, 75%, 49%)" stop-opacity="1" offset="0%"></stop><stop stop-color="hsl(331, 90%, 56%)" stop-opacity="1" offset="100%"></stop></linearGradient></defs><g fill="none" stroke-width="1.75" stroke="url(#ssscribble-grad)" stroke-linecap="round"><path d="M1080.73 626.73C1100.02 659.59 1037.82 690.15 920.48 714.51 785.8 734.12 674.75 739.13 614.38 723.12 614.92 696.36 665.65 647.57 742.82 584.45 831.19 534.09 900 501.94 936.13 512.09 940.95 577.37 910.66 694.99 856.06 843.46 782.55 975.5 702.46 1051.44 625.57 1034.9 546.69 935.37 477.87 790.18 421.26 671.35 365.67 649.45 321.2 740.12 288.34 903.72 255.47 1051.91 235.78 1099.23 229.4 1027.28 224.04 875.31 233.08 717.35 255.01 620.5 274.95 615.83 300.93 691.14 323.79 801.16 327.75 909 310.86 966.76 262.97 962.53 183.77 902.81 76 804.45 -46.58 694.02 -157.96 579.24 -238.16 482.34 -262.79 407.82 -226.51 347.13 -134.16 303.41 -12.16 269.01 92.48 239.55 148.03 210.23 128.73 177.37 35.93 144.51 -90.46 109.66 -204.11 77.15 -273.63 49.57 -272.7 33.51 -206.82 37.25 -95.23 54.82 31.87 97.59 144.93 161.73 227.85 221.51 268.87 272.71 272.81 289.37 243.89 250.54 200.04 153.83 156.09 11.77 109.92 -132.45 79.08 -237.25 65.95 -256.68 60.18 -183.94 69.66 -44.69 90.24 94.6 113.77 153.89 143.15 99.94 176.01 -48.22 208.87 -211.84 243.65 -295.87 282.1 -261.32 323.49 -129.81 373.78 34.07 436.49 157.69 506.57 198.35 591.52 151.89 688.33 54.08 782.93 -60.17 873.96 -138.84 945.96 -161.06 985.1 -128.15 983.05 -48.83 934.36 52.16 855.51 165.92 757.87 268.83 670.37 352.54 628.56 425.5 646.32 480.28 728.51 522.64 854.84 560.25 987.9 593.86 1080.72 626.72Q1080.73 626.73 1080.73 626.73" opacity="0.83"></path><path d="M1046.73 551.69C1067.4 582.2 1016.81 599.46 914.64 602.45 789.84 603.32 675.89 587.15 598.37 554.81 569.94 523.62 589.19 485.45 641.61 453.25 717.33 447.2 790.55 472.21 846.04 540.11 883.44 644.63 891.3 775.94 873.74 905.43 836.71 994.41 785.18 1017.65 728.2 959.81 664.54 846.08 604.3 713.67 552.17 622.06 499.29 621.44 456.64 716.24 426.13 869.72 395.61 1009.82 378.68 1065.66 374.01 1017.34 368.6 889.51 373.33 736.98 384.11 618.5 388.21 569.15 389.49 596.37 379.5 675.26 350.03 780.76 298.35 868.56 220.97 915.61 125.48 919.54 16.08 877.67 -91.4 806.58 -175.59 713.97 -222.21 619.15 -216.14 533.89 -160.99 451.19 -64.41 383.94 48.6 331.4 139 281.81 183.41 242.4 162.73 211.88 78.41 181.37 -37.21 161.19 -146.86 153.24 -224.95 148.23 -245.44 159.96 -207.44 189.78 -122.4 222.16 -10.67 266.73 102.85 312.31 203.43 336.39 274.8 334.45 314.18 290.55 322.82 203.51 309.18 79.54 284.8 -57.73 249.08 -168.4 217.98 -223 197.51 -196.04 178.35 -99.93 172.83 35.22 180.6 151.28 189.92 187.85 210.19 125.86 240.7 -14.22 271.21 -167.71 310.52 -256.36 358.75 -243.98 408.52 -140.62 469.54 9.15 541.58 145.26 614.93 225.49 696.28 229.62 779.03 172.43 850.44 74.71 907.9 -20.41 939.26 -84.95 939.88 -112.86 904.7 -94.07 835.89 -41.01 754.13 38.21 669.76 126.62 607.08 210.69 591.44 295.92 629.28 367.6 719.14 424.28 840.56 478.84 962.38 521.16 1046.72 551.68Q1046.73 551.69 1046.73 551.69" opacity="0.49"></path><path d="M1012.73 386.64C1034.36 414.81 994.48 427.31 907.47 425.7 794.91 425 683.12 412.97 594.84 395.25 542.92 386.92 532.18 385.51 555.72 402.45 608.38 445.37 671.19 518.17 729.94 620.62 783.89 735.4 818.04 851.04 831.05 940.68 829.19 979.84 810.02 956.23 779.72 870.4 741.37 754.95 699.69 642.19 659.82 578.13 618.16 595.94 582.06 692.73 553.89 835.72 525.73 967.24 506.83 1029.46 495.37 1002.71 482.12 900.94 472.56 762.1 462.1 634.22 443.59 550.78 416.37 530.98 374.82 566.93 318.39 645.62 243.81 733.97 152.94 806.86 57.27 858.28 -38.92 872.08 -120.9 853 -173.78 808.03 -188.29 746.01 -157.02 679.32 -89.38 605.72 6.36 538.92 108.05 483.76 184.19 428.57 218.36 386.18 196.73 358.01 120.66 329.84 16.01 317.23 -87.79 319.29 -170.72 321.33 -208.46 336.89 -196.1 361.68 -139.53 379.56 -50.36 395.2 52.27 396.77 156.42 372.44 245.25 318.21 311.35 229.89 354.32 120.08 374.38 -1.65 378.35 -109.68 367.18 -174.97 351.75 -180.44 339.03 -117.66 322.73 -10.44 315.23 112.36 318.99 203.28 322.73 219.18 338.32 151.27 366.48 19.77 394.65 -123.22 434.05 -214.32 483.43 -221.29 532.79 -146.37 591.53 -17.59 656.63 118.51 718.18 224.99 780 273.87 834.57 264.05 874.02 203.74 894.41 121.48 888.36 43.63 859.18 -21.91 803.75 -54.27 728.94 -53.78 655.62 -27.31 591.7 20.48 555.77 77.62 564.05 144.15 617.81 207.42 711.59 261.24 826.26 315.97 936.63 358.47 1012.72 386.63Q1012.73 386.64 1012.73 386.64" opacity="0.94"></path><path d="M978.73 229.52C1000.88 255.34 970.77 271.75 898.58 281.2 799.98 293.25 694.79 303.7 602.14 318.73 533.59 344.71 497.37 384.96 492.22 445.22 516.33 521.37 557.93 616.3 605.74 721.82 659.26 818.57 703.66 896.88 734.28 937.03 757.18 929.46 764.56 871.02 758.95 772.1 746.81 665.91 726.56 577.43 702.02 539.8 675.55 572.89 648.46 669.58 622.64 801.72 596.82 924.17 573.49 990.65 551.27 982.95 527.12 907.65 500.4 788.85 467.8 663.27 428.66 559.21 378.76 500.63 316.06 491.53 245.66 528.4 164.19 592.14 76.82 662.07 -4.82 732.36 -77.03 781.88 -128.02 806.18 -149.76 811.37 -136.7 794.5 -87.07 763.56 -13.34 722.11 77.14 677.13 165.78 635.23 228 591.18 252.88 554.86 230.73 529.04 162.66 503.21 69.08 489.12 -27.3 484.47 -111.52 477.68 -161.95 475.69 -171.61 472.4 -142.86 458.6 -80.26 432.96 2.84 387.98 97.64 323.9 189.64 237.31 269.56 133.18 336.42 29.41 384.81 -64.94 416.89 -128.7 435.04 -146.5 443.69 -111.09 448.52 -25.97 448.2 132.73 471.49 212.05 505.11 53.77 530.92 -78.37 565.75 -169.85 607.65 -193 648.43 -145.42 693.8 -42.25 739.66 82.86 779.59 200.7 813.46 282.31 835.11 316.77 842.82 303.51 831.51 255.81 798.49 192.9 752.42 121.23 691.03 63.36 623.12 27.01 566.88 6.54 527.44 8.8 517.6 27.57 546.18 57.28 611.29 93.8 705.46 130.44 811.82 169.69 910.63 203.69 978.72 229.51Q978.73 229.52 978.73 229.52" opacity="0.12"></path><path d="M944.73 173.54C966.98 197.01 945.58 221.15 887.57 247.5 803.96 276.3 709 311.79 617.95 357.39 540.26 409.96 485.32 476.32 455.45 555.96 450.75 638.34 465.8 725.17 492.98 805.54 532.05 865.01 571.05 896.7 604.15 889.75 636.54 846.55 658.14 768.85 668.36 671.22 675.13 582.82 672.01 520.82 660.67 507.22 647.99 552.14 629.47 646.73 606 767.72 582.53 880.66 555.21 949.29 523.63 957.7 490.7 907.89 451.12 813.27 403.67 699.97 352.78 589.6 292.52 505.48 223.96 458.16 154.68 449.85 81.98 474.18 12.15 517.98 -45.79 577.28 -88.66 633.48 -108.41 677.62 -102.98 714.75 -69.09 733.94 -8.6 737.14 65.24 732.17 146.84 716.72 221.38 695.49 270.34 671.75 286.98 646.98 264.73 623.51 204.41 600.04 121.86 578.97 34.16 558.45 -48.1 535.41 -106.52 508.17 -133.55 472.46 -129.69 428.59 -94.4 370.75 -35.91 297.46 39.69 217.14 121.87 127.24 201.63 37.17 278 -37.39 343 -89.55 395.22 -105.7 437.99 -82.83 470.03 -19.77 494.5 73.38 513.23 169.47 529.39 250.75 546.09 291.51 561.27 274.07 579.95 200.7 603.42 87.77 626.89 -33.22 654.04 -123.07 683.13 -158.96 710.7 -136.31 737.24 -60.96 759.19 44.63 775.4 159.47 782.02 258.23 775.43 325.87 759.38 357.27 728.09 353.41 682.49 324.71 633.49 275.1 579.14 221.97 527.96 175.77 493.91 132.3 479.66 104.59 493 92.7 537.22 87.78 609 94.98 700.32 110.45 797.07 128.36 884.38 150.06 944.72 173.53Q944.73 173.54 944.73 173.54" opacity="0.14"></path><path d="M910.73 251.92C932.65 273.04 918.86 302.41 874.07 339.92 805.83 378.52 723.77 426.93 639.46 484.87 559.99 543.91 494.28 610.74 446.46 680.86 417.33 743.83 406.19 799.63 408.98 838.97 425.31 855.44 447.5 844.34 470.28 802.5 497.22 739.59 519.03 658.67 533.25 574.28 547.17 509.11 552.36 473.41 548.5 480.36 544.16 533.55 531.48 624.16 510.36 733.72 489.23 836.73 460.66 905.47 425.17 926.76 389.18 900.19 345.57 831.51 295.03 737.92 244.21 634.34 187.61 540.13 128.11 467.82 72.77 421.85 20.25 404.85 -23.76 411.19 -54.23 438.61 -68.15 475.44 -61.01 512.77 -35.18 553.88 11.57 586.12 75.55 606.73 144.38 624.51 214.41 630.61 274.5 626.23 311.14 620.37 320.65 606.49 298.73 585.37 245.88 564.25 174.2 536.88 96.17 502.9 18.67 467.45 -43.18 422.92 -82.32 368.53 -98.65 311.32 -88.4 244.3 -55.79 170.62 -4.96 100.73 57.92 33.57 125.51 -21.54 196.89 -55.58 264.24 -63.63 324.17 -39.66 380.15 10.63 427.33 85.89 466.25 173.99 501.38 252.1 530.8 308.76 556.16 327.19 580.27 297.77 602.59 224.77 623.71 121.77 644.84 12.2 663.77 -74.13 679.5 -119.19 693.99 -118 702.99 -70.29 704.48 10.35 702.17 110.23 689.78 210.09 666.36 295 639 358.85 601.97 395 558.28 406.22 518.38 394.57 480.53 369.1 451.69 338.68 441.08 301.12 449.76 269.09 481.57 246.65 536.18 225.32 610.07 215.34 695.7 216.58 781.89 218.91 857.86 230.78 910.72 251.91Q910.73 251.92 910.73 251.92" opacity="0.36"></path><path d="M876.73 418.15C897.89 436.93 890.55 465.25 857.76 501.82 804.58 538.05 737.05 581.56 663.49 629.73 588.77 674.73 520.39 719.98 462.88 760.22 416.99 789.75 384.94 806.37 365.41 804.62 357.61 785.6 358.14 745.65 363.27 686.67 374.58 620.82 385.63 550.46 393.52 487.49 403.23 447.59 407.31 435.85 404.33 459.05 401.58 516.93 391.16 601.83 372.39 699.72 353.61 792.41 327.35 859.31 294.69 890.06 262.26 883.43 224.02 840.18 181.77 770.59 141.34 684.03 99.36 594.43 59.12 513.21 25.04 444.6 -2.44 395.83 -19.25 366.88 -24.33 356.26 -14.55 360.02 11.78 372.1 49.74 393.45 101.28 414.86 162.24 431.83 222.04 450.71 278.88 461.65 324.81 463.06 350.36 464.42 353.89 456.02 332.73 437.25 287.07 418.47 225.96 390.2 158.22 353.44 87.85 316.61 26.72 271.52 -19.13 220.1 -49.8 170.58 -59.89 118.25 -50.88 67.96 -25.79 26.93 13.12 -3.78 60.72 -17.78 115.91 -13.45 172.89 13.04 227.74 62.1 283.24 123.75 333.55 196.52 377.34 269.32 419.78 325.15 455.97 357.72 485.93 357.12 515.26 319.14 539.43 248.45 558.21 155.77 576.99 57.87 589.49 -23.23 595.58 -73.87 601.04 -89.84 599 -67.42 589.11 -13.77 577.87 62.95 558.48 150.16 531.92 235.55 506.01 314.09 475.99 376.31 445.41 419.94 414.09 451.48 424.21 437.6 482.1 417.97 541.71 402.34 613.53 392.99 691.14 392.17 766.12 391.02 831.04 399.36 876.72 418.14Q876.73 418.15 876.73 418.15" opacity="0.97"></path><path d="M842.73 573.61C862.02 606.47 798.71 658.26 686.77 711.71 556.5 748.08 443.53 753.99 366.07 705.6 320.35 623.49 301.16 509.03 290.54 416 289.94 408.91 277.86 502.12 245 665.72 212.14 813.92 161.61 858.12 105.26 792.01 58.93 652.89 26.84 502.71 29.49 391.22 63.87 323.23 141.99 300.08 248.18 294.52 336.03 304.4 386.02 299.88 366.73 267.02 273.93 234.17 154.11 176.08 54.14 109.25 -11.45 57.86 -16.77 29.71 24.57 54.62 98.42 123.03 184.7 238.36 261.19 353.4 339.97 395.43 399.16 337.94 432.02 189.77 464.89 26.15 468.32 -53.76 446.49 -22.6 426.96 94.5 391.95 243.82 361.16 369.01 362.88 460.47 403.05 505.85 492.72 526.42 616.77 529.92 749.9 540.74 842.72 573.6Q842.73 573.61 842.73 573.61" opacity="0.64"></path><path d="M808.73 626.06C830.36 654.23 789.16 676.35 706.02 682.45 599.17 676.9 493.01 638.54 406.17 564.77 335.3 487.27 286.84 407.12 253.7 363.63 228.79 390.49 205.23 488.74 177.06 631.72 148.9 763.24 118.79 822.04 94.89 797.19 79.22 706.72 83.72 583.94 117.67 469.5 167.59 368.61 243.88 300.26 330.08 257.8 392.58 228.04 422.36 203.86 400.73 175.69 324.66 147.52 225.65 118.05 134.98 98.99 59.78 92.64 25.28 117.03 28.81 180.99 58.59 258.52 108.15 351.42 160.15 421.24 217.99 425.46 265.38 355.27 293.55 223.77 324.86 37.34 312.98 106.83 317.3 276.26 350.69 386.95 415.06 469.27 510.89 523.63 622.2 566.35 732.63 597.89 808.72 626.05Q808.73 626.06 808.73 626.06" opacity="0.69"></path><path d="M774.73 544.39C796.98 567.86 774.13 570 718.21 550.09 639.64 526.84 552.87 479.71 473.18 417.68 397.28 368.64 336.13 332.45 290.72 332.34 249.75 381.47 218.09 476.74 194.62 597.72 164.62 743.25 175.37 700.08 232.77 570.53 281.69 474.46 343.56 393.19 404.93 333.59 443.64 279.28 456.98 240.91 434.73 217.44 374.41 193.97 296.49 187.62 220.42 201.25 147.57 220.17 98.9 264.81 77.29 330.11 72 389.05 86.73 443.85 111.61 469.42 142.11 445.36 172.42 370.69 195.89 257.77 219.37 136.77 233.78 51 243.95 19.06 259.74 36.37 281.65 97.45 317.69 177.26 370.06 270.05 443.63 353.82 533.68 417.75 626.95 478.33 714.39 520.91 774.72 544.38Q774.73 544.39 774.73 544.39" opacity="0.73"></path><path d="M740.73 377.05C761.89 395.83 753.09 393.84 720.73 375.14 670.77 358.42 610.14 330.55 549.35 301.83 485.82 288.92 429.51 292.22 385.15 322.12 341.89 380.77 309.71 465.83 290.94 563.72 272.16 656.42 268.56 720.11 279.27 746.98 291.08 742.48 318.09 707.46 357.01 656.23 393.19 591.98 433.91 528.63 470.11 476.69 488.7 424.15 489.89 386.28 468.73 367.5 423.06 348.72 365.54 350.81 307.22 370.81 245.96 390.21 197.13 424.25 165.24 463.89 140.51 490.51 131.77 505.62 135.78 496.35 143.21 455.72 157.74 384.42 176.52 291.72 195.3 193.83 216.55 116.38 241.66 71.49 270.19 55.36 308.24 71.97 357.57 109.5 414.07 162.82 482.81 219.99 557.83 269.25 629.91 320.5 695.04 358.26 740.72 377.04Q740.73 377.05 740.73 377.05" opacity="0.87"></path><path d="M706.73 223.32C728.36 251.49 684.43 245.78 615.16 245.15 529.34 285.71 457.25 386.74 429.08 529.72 411.46 687.14 513.81 599.11 502.73 536.84 426.65 508.67 338.91 525.89 280.22 548.94 227.04 531.88 214.67 457.25 242.84 325.72 271.01 182.74 334.38 104.54 424.47 100.9 520.08 138.44 630.65 195.15 706.73 223.32Q706.73 223.32 706.73 223.32" opacity="0.68"></path><path d="M672.73 174.41C688.01 211.96 593.62 313.13 556.07 495.72 518.51 658.51 552.01 662.54 536.73 624.99 426.35 587.43 331.87 522.51 369.43 359.72 406.98 177.13 562.35 136.85 672.73 174.41Q672.73 174.41 672.73 174.41" opacity="0.14"></path></g></svg>