<svg xmlns="http://www.w3.org/2000/svg" version="1.1" xmlns:xlink="http://www.w3.org/1999/xlink" xmlns:svgjs="http://svgjs.dev/svgjs" viewBox="0 0 800 800"><g fill="hsl(32, 100%, 51%)" transform="matrix(1.2,0,0,1.2,-80.89999999999998,-80.69999999999999)"><circle r="2.5" cx="405" cy="400"></circle><circle r="2.5" cx="405" cy="403"></circle><circle r="2.5" cx="403" cy="405"></circle><circle r="2.5" cx="400" cy="406"></circle><circle r="2.5" cx="397" cy="406"></circle><circle r="2.5" cx="394" cy="404"></circle><circle r="2.5" cx="392" cy="401"></circle><circle r="2.5" cx="392" cy="397"></circle><circle r="2.5" cx="394" cy="393"></circle><circle r="2.5" cx="398" cy="391"></circle><circle r="2.5" cx="403" cy="390"></circle><circle r="2.5" cx="407" cy="393"></circle><circle r="2.5" cx="411" cy="397"></circle><circle r="2.5" cx="411" cy="402"></circle><circle r="2.5" cx="409" cy="408"></circle><circle r="2.5" cx="404" cy="412"></circle><circle r="2.5" cx="398" cy="413"></circle><circle r="2.5" cx="392" cy="411"></circle><circle r="2.5" cx="387" cy="406"></circle><circle r="2.5" cx="386" cy="399"></circle><circle r="2.5" cx="387" cy="392"></circle><circle r="2.5" cx="393" cy="386"></circle><circle r="2.5" cx="400" cy="384"></circle><circle r="2.5" cx="408" cy="386"></circle><circle r="2.5" cx="414" cy="391"></circle><circle r="2.5" cx="417" cy="399"></circle><circle r="2.5" cx="416" cy="408"></circle><circle r="2.5" cx="411" cy="415"></circle><circle r="2.5" cx="403" cy="419"></circle><circle r="2.5" cx="393" cy="418"></circle><circle r="2.5" cx="385" cy="413"></circle><circle r="2.5" cx="380" cy="404"></circle><circle r="2.5" cx="380" cy="394"></circle><circle r="2.5" cx="385" cy="385"></circle><circle r="2.5" cx="394" cy="379"></circle><circle r="2.5" cx="405" cy="378"></circle><circle r="2.5" cx="415" cy="383"></circle><circle r="2.5" cx="422" cy="392"></circle><circle r="2.5" cx="424" cy="404"></circle><circle r="2.5" cx="419" cy="415"></circle><circle r="2.5" cx="410" cy="423"></circle><circle r="2.5" cx="398" cy="425"></circle><circle r="2.5" cx="386" cy="422"></circle><circle r="2.5" cx="377" cy="412"></circle><circle r="2.5" cx="373" cy="400"></circle><circle r="2.5" cx="376" cy="387"></circle><circle r="2.5" cx="385" cy="376"></circle><circle r="2.5" cx="398" cy="372"></circle><circle r="2.5" cx="412" cy="374"></circle><circle r="2.5" cx="424" cy="383"></circle><circle r="2.5" cx="430" cy="396"></circle><circle r="2.5" cx="428" cy="411"></circle><circle r="2.5" cx="420" cy="424"></circle><circle r="2.5" cx="406" cy="431"></circle><circle r="2.5" cx="391" cy="431"></circle><circle r="2.5" cx="377" cy="423"></circle><circle r="2.5" cx="368" cy="409"></circle><circle r="2.5" cx="367" cy="393"></circle><circle r="2.5" cx="375" cy="377"></circle><circle r="2.5" cx="388" cy="368"></circle><circle r="2.5" cx="405" cy="365"></circle><circle r="2.5" cx="422" cy="372"></circle><circle r="2.5" cx="433" cy="385"></circle><circle r="2.5" cx="436" cy="403"></circle><circle r="2.5" cx="431" cy="420"></circle><circle r="2.5" cx="418" cy="433"></circle><circle r="2.5" cx="399" cy="438"></circle><circle r="2.5" cx="381" cy="434"></circle><circle r="2.5" cx="367" cy="421"></circle><circle r="2.5" cx="361" cy="402"></circle><circle r="2.5" cx="364" cy="383"></circle><circle r="2.5" cx="376" cy="367"></circle><circle r="2.5" cx="395" cy="359"></circle><circle r="2.5" cx="415" cy="361"></circle><circle r="2.5" cx="432" cy="373"></circle><circle r="2.5" cx="442" cy="392"></circle><circle r="2.5" cx="441" cy="413"></circle><circle r="2.5" cx="430" cy="431"></circle><circle r="2.5" cx="412" cy="442"></circle><circle r="2.5" cx="390" cy="443"></circle><circle r="2.5" cx="370" cy="434"></circle><circle r="2.5" cx="357" cy="415"></circle><circle r="2.5" cx="355" cy="393"></circle><circle r="2.5" cx="363" cy="372"></circle><circle r="2.5" cx="381" cy="357"></circle><circle r="2.5" cx="404" cy="353"></circle><circle r="2.5" cx="427" cy="360"></circle><circle r="2.5" cx="443" cy="378"></circle><circle r="2.5" cx="449" cy="401"></circle><circle r="2.5" cx="443" cy="424"></circle><circle r="2.5" cx="426" cy="443"></circle><circle r="2.5" cx="403" cy="450"></circle><circle r="2.5" cx="378" cy="446"></circle><circle r="2.5" cx="358" cy="430"></circle><circle r="2.5" cx="348" cy="406"></circle><circle r="2.5" cx="351" cy="381"></circle><circle r="2.5" cx="366" cy="359"></circle><circle r="2.5" cx="390" cy="348"></circle><circle r="2.5" cx="416" cy="348"></circle><circle r="2.5" cx="439" cy="362"></circle><circle r="2.5" cx="453" cy="386"></circle><circle r="2.5" cx="454" cy="413"></circle><circle r="2.5" cx="442" cy="438"></circle><circle r="3" cx="419" cy="453"></circle><circle r="3" cx="391" cy="456"></circle><circle r="3" cx="365" cy="445"></circle><circle r="3" cx="347" cy="423"></circle><circle r="3" cx="342" cy="395"></circle><circle r="3" cx="351" cy="367"></circle><circle r="3" cx="373" cy="347"></circle><circle r="3" cx="401" cy="340"></circle><circle r="3" cx="430" cy="348"></circle><circle r="3" cx="452" cy="368"></circle><circle r="3" cx="461" cy="397"></circle><circle r="3" cx="456" cy="427"></circle><circle r="3" cx="436" cy="451"></circle><circle r="3" cx="408" cy="463"></circle><circle r="3" cx="376" cy="459"></circle><circle r="3" cx="351" cy="441"></circle><circle r="3" cx="337" cy="412"></circle><circle r="3" cx="338" cy="380"></circle><circle r="3" cx="355" cy="353"></circle><circle r="3" cx="383" cy="336"></circle><circle r="3" cx="416" cy="335"></circle><circle r="3" cx="445" cy="350"></circle><circle r="3" cx="464" cy="378"></circle><circle r="3" cx="467" cy="411"></circle><circle r="3" cx="454" cy="442"></circle><circle r="3" cx="427" cy="463"></circle><circle r="3" cx="393" cy="469"></circle><circle r="3" cx="361" cy="458"></circle><circle r="3" cx="337" cy="432"></circle><circle r="3" cx="329" cy="398"></circle><circle r="3" cx="338" cy="364"></circle><circle r="3" cx="363" cy="338"></circle><circle r="3" cx="397" cy="328"></circle><circle r="3" cx="432" cy="334"></circle><circle r="3" cx="460" cy="358"></circle><circle r="3" cx="474" cy="392"></circle><circle r="3" cx="469" cy="428"></circle><circle r="3" cx="447" cy="458"></circle><circle r="3" cx="414" cy="474"></circle><circle r="3" cx="377" cy="472"></circle><circle r="3" cx="344" cy="453"></circle><circle r="3" cx="326" cy="420"></circle><circle r="3" cx="325" cy="381"></circle><circle r="3" cx="343" cy="347"></circle><circle r="3" cx="375" cy="326"></circle><circle r="3" cx="414" cy="322"></circle><circle r="3" cx="450" cy="338"></circle><circle r="3" cx="474" cy="369"></circle><circle r="3" cx="480" cy="408"></circle><circle r="3" cx="467" cy="446"></circle><circle r="3" cx="437" cy="473"></circle><circle r="3" cx="397" cy="482"></circle><circle r="3" cx="358" cy="471"></circle><circle r="3" cx="329" cy="443"></circle><circle r="3" cx="317" cy="403"></circle><circle r="3" cx="325" cy="363"></circle><circle r="3" cx="352" cy="331"></circle><circle r="3" cx="391" cy="316"></circle><circle r="3" cx="432" cy="321"></circle><circle r="3" cx="467" cy="346"></circle><circle r="3" cx="485" cy="384"></circle><circle r="3" cx="483" cy="427"></circle><circle r="3" cx="460" cy="464"></circle><circle r="3" cx="422" cy="485"></circle><circle r="3" cx="378" cy="486"></circle><circle r="3" cx="339" cy="465"></circle><circle r="3" cx="315" cy="428"></circle><circle r="3" cx="311" cy="384"></circle><circle r="3" cx="329" cy="343"></circle><circle r="3" cx="365" cy="316"></circle><circle r="3" cx="410" cy="309"></circle><circle r="3" cx="452" cy="324"></circle><circle r="3" cx="483" cy="359"></circle><circle r="3" cx="493" cy="403"></circle><circle r="3" cx="480" cy="448"></circle><circle r="3" cx="448" cy="481"></circle><circle r="3" cx="403" cy="494"></circle><circle r="3" cx="357" cy="485"></circle><circle r="3" cx="322" cy="454"></circle><circle r="3" cx="305" cy="410"></circle><circle r="3" cx="311" cy="363"></circle><circle r="3" cx="339" cy="324"></circle><circle r="3" cx="383" cy="304"></circle><circle r="3" cx="431" cy="307"></circle><circle r="3" cx="472" cy="333"></circle><circle r="3" cx="496" cy="376"></circle><circle r="3" cx="496" cy="425"></circle><circle r="3" cx="473" cy="468"></circle><circle r="3" cx="431" cy="495"></circle><circle r="3" cx="382" cy="499"></circle><circle r="3" cx="336" cy="479"></circle><circle r="3" cx="306" cy="439"></circle><circle r="3" cx="298" cy="389"></circle><circle r="3" cx="316" cy="341"></circle><circle r="3" cx="354" cy="307"></circle><circle r="3" cx="404" cy="296"></circle><circle r="3" cx="454" cy="310"></circle><circle r="3" cx="491" cy="347"></circle><circle r="3" cx="505" cy="397"></circle><circle r="3" cx="495" cy="448"></circle><circle r="3" cx="460" cy="488"></circle><circle r="3" cx="411" cy="506"></circle><circle r="3.5" cx="358" cy="499"></circle><circle r="3.5" cx="316" cy="467"></circle><circle r="3.5" cx="293" cy="419"></circle><circle r="3.5" cx="297" cy="365"></circle><circle r="3.5" cx="326" cy="319"></circle><circle r="3.5" cx="373" cy="293"></circle><circle r="3.5" cx="428" cy="293"></circle><circle r="3.5" cx="476" cy="319"></circle><circle r="3.5" cx="506" cy="366"></circle><circle r="3.5" cx="510" cy="421"></circle><circle r="3.5" cx="487" cy="471"></circle><circle r="3.5" cx="442" cy="505"></circle><circle r="3.5" cx="387" cy="513"></circle><circle r="3.5" cx="334" cy="493"></circle><circle r="3.5" cx="297" cy="450"></circle><circle r="3.5" cx="285" cy="395"></circle><circle r="3.5" cx="301" cy="340"></circle><circle r="3.5" cx="342" cy="300"></circle><circle r="3.5" cx="397" cy="284"></circle><circle r="3.5" cx="453" cy="296"></circle><circle r="3.5" cx="497" cy="334"></circle><circle r="3.5" cx="517" cy="389"></circle><circle r="3.5" cx="509" cy="446"></circle><circle r="3.5" cx="474" cy="493"></circle><circle r="3.5" cx="420" cy="518"></circle><circle r="3.5" cx="361" cy="513"></circle><circle r="3.5" cx="311" cy="481"></circle><circle r="3.5" cx="282" cy="429"></circle><circle r="3.5" cx="283" cy="369"></circle><circle r="3.5" cx="312" cy="316"></circle><circle r="3.5" cx="363" cy="283"></circle><circle r="3.5" cx="423" cy="279"></circle><circle r="3.5" cx="479" cy="305"></circle><circle r="3.5" cx="515" cy="354"></circle><circle r="3.5" cx="524" cy="415"></circle><circle r="3.5" cx="502" cy="473"></circle><circle r="3.5" cx="455" cy="513"></circle><circle r="3.5" cx="394" cy="526"></circle><circle r="3.5" cx="334" cy="508"></circle><circle r="3.5" cx="290" cy="463"></circle><circle r="3.5" cx="273" cy="403"></circle><circle r="3.5" cx="286" cy="341"></circle><circle r="3.5" cx="328" cy="293"></circle><circle r="3.5" cx="388" cy="272"></circle><circle r="3.5" cx="451" cy="281"></circle><circle r="3.5" cx="502" cy="320"></circle><circle r="3.5" cx="529" cy="379"></circle><circle r="3.5" cx="524" cy="443"></circle><circle r="3.5" cx="488" cy="498"></circle><circle r="3.5" cx="431" cy="528"></circle><circle r="3.5" cx="365" cy="528"></circle><circle r="3.5" cx="308" cy="496"></circle><circle r="3.5" cx="273" cy="440"></circle><circle r="3.5" cx="269" cy="374"></circle><circle r="3.5" cx="297" cy="314"></circle><circle r="3.5" cx="350" cy="274"></circle><circle r="3.5" cx="417" cy="266"></circle><circle r="3.5" cx="479" cy="290"></circle><circle r="3.5" cx="523" cy="341"></circle><circle r="3.5" cx="537" cy="407"></circle><circle r="3.5" cx="517" cy="472"></circle><circle r="3.5" cx="468" cy="520"></circle><circle r="3.5" cx="402" cy="538"></circle><circle r="3.5" cx="336" cy="523"></circle><circle r="3.5" cx="284" cy="477"></circle><circle r="3.5" cx="261" cy="412"></circle><circle r="3.5" cx="271" cy="344"></circle><circle r="3.5" cx="314" cy="289"></circle><circle r="3.5" cx="378" cy="260"></circle><circle r="3.5" cx="447" cy="266"></circle><circle r="3.5" cx="506" cy="305"></circle><circle r="3.5" cx="539" cy="367"></circle><circle r="3.5" cx="538" cy="438"></circle><circle r="3.5" cx="503" cy="500"></circle><circle r="3.5" cx="443" cy="538"></circle><circle r="3.5" cx="371" cy="542"></circle><circle r="3.5" cx="306" cy="511"></circle><circle r="3.5" cx="264" cy="453"></circle><circle r="3.5" cx="255" cy="381"></circle><circle r="3.5" cx="281" cy="314"></circle><circle r="3.5" cx="337" cy="267"></circle><circle r="3.5" cx="409" cy="252"></circle><circle r="3.5" cx="479" cy="274"></circle><circle r="3.5" cx="530" cy="327"></circle><circle r="3.5" cx="549" cy="398"></circle><circle r="3.5" cx="533" cy="470"></circle><circle r="3.5" cx="483" cy="526"></circle><circle r="3.5" cx="413" cy="550"></circle><circle r="3.5" cx="339" cy="539"></circle><circle r="3.5" cx="279" cy="493"></circle><circle r="3.5" cx="249" cy="424"></circle><circle r="3.5" cx="256" cy="348"></circle><circle r="3.5" cx="298" cy="285"></circle><circle r="3.5" cx="366" cy="250"></circle><circle r="3.5" cx="442" cy="251"></circle><circle r="3.5" cx="508" cy="289"></circle><circle r="3.5" cx="549" cy="355"></circle><circle r="3.5" cx="553" cy="432"></circle><circle r="3.5" cx="519" cy="501"></circle><circle r="3.5" cx="456" cy="547"></circle><circle r="3.5" cx="379" cy="556"></circle><circle r="3.5" cx="307" cy="527"></circle><circle r="3.5" cx="256" cy="467"></circle><circle r="4" cx="241" cy="390"></circle><circle r="4" cx="265" cy="315"></circle><circle r="4" cx="322" cy="260"></circle><circle r="4" cx="399" cy="240"></circle><circle r="4" cx="476" cy="258"></circle><circle r="4" cx="535" cy="312"></circle><circle r="4" cx="561" cy="387"></circle><circle r="4" cx="548" cy="466"></circle><circle r="4" cx="499" cy="530"></circle><circle r="4" cx="425" cy="562"></circle><circle r="4" cx="344" cy="554"></circle><circle r="4" cx="276" cy="509"></circle><circle r="4" cx="239" cy="436"></circle><circle r="4" cx="241" cy="354"></circle><circle r="4" cx="282" cy="283"></circle><circle r="4" cx="352" cy="241"></circle><circle r="4" cx="434" cy="237"></circle><circle r="4" cx="509" cy="273"></circle><circle r="4" cx="557" cy="340"></circle><circle r="4" cx="567" cy="423"></circle><circle r="4" cx="536" cy="501"></circle><circle r="4" cx="471" cy="554"></circle><circle r="4" cx="389" cy="570"></circle><circle r="4" cx="309" cy="544"></circle><circle r="4" cx="250" cy="483"></circle><circle r="4" cx="229" cy="401"></circle><circle r="4" cx="249" cy="318"></circle><circle r="4" cx="306" cy="255"></circle><circle r="4" cx="387" cy="227"></circle><circle r="4" cx="472" cy="242"></circle><circle r="4" cx="539" cy="295"></circle><circle r="4" cx="573" cy="375"></circle><circle r="4" cx="564" cy="461"></circle><circle r="4" cx="515" cy="532"></circle><circle r="4" cx="438" cy="572"></circle><circle r="4" cx="351" cy="569"></circle><circle r="4" cx="275" cy="525"></circle><circle r="4" cx="230" cy="450"></circle><circle r="4" cx="226" cy="362"></circle><circle r="4" cx="265" cy="283"></circle><circle r="4" cx="337" cy="232"></circle><circle r="4" cx="425" cy="222"></circle><circle r="4" cx="508" cy="256"></circle><circle r="4" cx="564" cy="325"></circle><circle r="4" cx="581" cy="413"></circle><circle r="4" cx="553" cy="498"></circle><circle r="4" cx="487" cy="560"></circle><circle r="4" cx="400" cy="582"></circle><circle r="4" cx="312" cy="561"></circle><circle r="4" cx="246" cy="499"></circle><circle r="4" cx="216" cy="413"></circle><circle r="4" cx="232" cy="323"></circle><circle r="4" cx="289" cy="252"></circle><circle r="4" cx="374" cy="216"></circle><circle r="4" cx="465" cy="226"></circle><circle r="4" cx="541" cy="278"></circle><circle r="4" cx="583" cy="361"></circle><circle r="4" cx="580" cy="453"></circle><circle r="4" cx="533" cy="533"></circle><circle r="4" cx="453" cy="581"></circle><circle r="4" cx="359" cy="585"></circle><circle r="4" cx="275" cy="543"></circle><circle r="4" cx="222" cy="466"></circle><circle r="4" cx="212" cy="372"></circle><circle r="4" cx="247" cy="285"></circle><circle r="4" cx="321" cy="226"></circle><circle r="4" cx="414" cy="209"></circle><circle r="4" cx="505" cy="238"></circle><circle r="4" cx="570" cy="308"></circle><circle r="4" cx="593" cy="401"></circle><circle r="4" cx="570" cy="494"></circle><circle r="4" cx="504" cy="564"></circle><circle r="4" cx="413" cy="595"></circle><circle r="4" cx="318" cy="577"></circle><circle r="4" cx="242" cy="517"></circle><circle r="4" cx="205" cy="427"></circle><circle r="4" cx="216" cy="330"></circle><circle r="4" cx="272" cy="250"></circle><circle r="4" cx="359" cy="206"></circle><circle r="4" cx="457" cy="210"></circle><circle r="4" cx="542" cy="260"></circle><circle r="4" cx="592" cy="345"></circle><circle r="4" cx="595" cy="444"></circle><circle r="4" cx="551" cy="532"></circle><circle r="4" cx="469" cy="589"></circle><circle r="4" cx="370" cy="599"></circle><circle r="4" cx="278" cy="561"></circle><circle r="4" cx="215" cy="483"></circle><circle r="4" cx="198" cy="384"></circle><circle r="4" cx="230" cy="289"></circle><circle r="4" cx="304" cy="220"></circle><circle r="4" cx="402" cy="196"></circle><circle r="4" cx="500" cy="221"></circle><circle r="4" cx="574" cy="291"></circle><circle r="4" cx="606" cy="387"></circle><circle r="4" cx="587" cy="488"></circle><circle r="4" cx="522" cy="567"></circle><circle r="4" cx="427" cy="606"></circle><circle r="4" cx="325" cy="594"></circle><circle r="4" cx="241" cy="535"></circle><circle r="4" cx="195" cy="442"></circle><circle r="4" cx="200" cy="339"></circle><circle r="4.5" cx="253" cy="250"></circle><circle r="4.5" cx="343" cy="197"></circle><circle r="4.5" cx="447" cy="194"></circle><circle r="4.5" cx="540" cy="242"></circle><circle r="4.5" cx="599" cy="328"></circle><circle r="4.5" cx="610" cy="433"></circle><circle r="4.5" cx="569" cy="530"></circle><circle r="4.5" cx="486" cy="595"></circle><circle r="4.5" cx="382" cy="613"></circle><circle r="4.5" cx="282" cy="579"></circle><circle r="4.5" cx="210" cy="501"></circle><circle r="4.5" cx="185" cy="397"></circle><circle r="4.5" cx="212" cy="294"></circle><circle r="4.5" cx="285" cy="216"></circle><circle r="4.5" cx="388" cy="183"></circle><circle r="4.5" cx="493" cy="203"></circle><circle r="4.5" cx="576" cy="272"></circle><circle r="4.5" cx="617" cy="372"></circle><circle r="4.5" cx="604" cy="480"></circle><circle r="4.5" cx="541" cy="568"></circle><circle r="4.5" cx="444" cy="616"></circle><circle r="4.5" cx="335" cy="611"></circle><circle r="4.5" cx="241" cy="554"></circle><circle r="4.5" cx="187" cy="459"></circle><circle r="4.5" cx="184" cy="349"></circle><circle r="4.5" cx="234" cy="252"></circle><circle r="4.5" cx="325" cy="190"></circle><circle r="4.5" cx="435" cy="179"></circle><circle r="4.5" cx="537" cy="223"></circle><circle r="4.5" cx="606" cy="310"></circle><circle r="4.5" cx="624" cy="420"></circle><circle r="4.5" cx="588" cy="525"></circle><circle r="4.5" cx="505" cy="600"></circle><circle r="4.5" cx="396" cy="626"></circle><circle r="4.5" cx="288" cy="597"></circle><circle r="4.5" cx="206" cy="520"></circle><circle r="4.5" cx="172" cy="412"></circle><circle r="4.5" cx="194" cy="301"></circle><circle r="4.5" cx="266" cy="214"></circle><circle r="4.5" cx="372" cy="172"></circle><circle r="4.5" cx="484" cy="186"></circle><circle r="4.5" cx="577" cy="252"></circle><circle r="4.5" cx="627" cy="355"></circle><circle r="4.5" cx="621" cy="470"></circle><circle r="4.5" cx="561" cy="567"></circle><circle r="4.5" cx="461" cy="624"></circle><circle r="4.5" cx="346" cy="627"></circle><circle r="4.5" cx="243" cy="573"></circle><circle r="4.5" cx="179" cy="477"></circle><circle r="4.5" cx="169" cy="362"></circle><circle r="4.5" cx="215" cy="255"></circle><circle r="4.5" cx="307" cy="184"></circle><circle r="4.5" cx="422" cy="165"></circle><circle r="4.5" cx="532" cy="204"></circle><circle r="4.5" cx="610" cy="291"></circle><circle r="4.5" cx="637" cy="405"></circle><circle r="4.5" cx="606" cy="519"></circle><circle r="4.5" cx="524" cy="603"></circle><circle r="4.5" cx="412" cy="639"></circle><circle r="4.5" cx="296" cy="616"></circle><circle r="4.5" cx="205" cy="539"></circle><circle r="4.5" cx="161" cy="429"></circle><circle r="4.5" cx="176" cy="310"></circle><circle r="4.5" cx="246" cy="214"></circle><circle r="4.5" cx="354" cy="162"></circle><circle r="4.5" cx="474" cy="169"></circle><circle r="4.5" cx="576" cy="232"></circle><circle r="4.5" cx="635" cy="337"></circle><circle r="4.5" cx="637" cy="458"></circle><circle r="4.5" cx="581" cy="565"></circle><circle r="4.5" cx="480" cy="632"></circle><circle r="4.5" cx="359" cy="642"></circle><circle r="4.5" cx="248" cy="593"></circle><circle r="4.5" cx="173" cy="497"></circle><circle r="4.5" cx="154" cy="376"></circle><circle r="4.5" cx="195" cy="261"></circle><circle r="4.5" cx="287" cy="179"></circle><circle r="4.5" cx="407" cy="152"></circle><circle r="4.5" cx="525" cy="185"></circle><circle r="4.5" cx="613" cy="271"></circle><circle r="4.5" cx="650" cy="389"></circle><circle r="4.5" cx="625" cy="510"></circle><circle r="4.5" cx="545" cy="605"></circle><circle r="4.5" cx="429" cy="650"></circle><circle r="4.5" cx="305" cy="634"></circle><circle r="4.5" cx="205" cy="560"></circle><circle r="4.5" cx="151" cy="447"></circle><circle r="4.5" cx="159" cy="322"></circle><circle r="4.5" cx="226" cy="215"></circle><circle r="4.5" cx="335" cy="154"></circle><circle r="4.5" cx="461" cy="153"></circle><circle r="4.5" cx="573" cy="212"></circle><circle r="4.5" cx="642" cy="318"></circle><circle r="4.5" cx="653" cy="444"></circle><circle r="4.5" cx="601" cy="560"></circle><circle r="4.5" cx="500" cy="637"></circle><circle r="4.5" cx="374" cy="657"></circle><circle r="4.5" cx="254" cy="613"></circle><circle r="4.5" cx="169" cy="517"></circle><circle r="4.5" cx="141" cy="392"></circle><circle r="4.5" cx="176" cy="268"></circle><circle r="4.5" cx="266" cy="177"></circle><circle r="5" cx="390" cy="139"></circle><circle r="5" cx="516" cy="166"></circle><circle r="5" cx="615" cy="250"></circle><circle r="5" cx="661" cy="371"></circle><circle r="5" cx="643" cy="500"></circle><circle r="5" cx="566" cy="605"></circle><circle r="5" cx="448" cy="660"></circle><circle r="5" cx="317" cy="651"></circle><circle r="5" cx="206" cy="581"></circle><circle r="5" cx="143" cy="466"></circle><circle r="5" cx="142" cy="335"></circle><circle r="5" cx="205" cy="219"></circle><circle r="5" cx="315" cy="147"></circle><circle r="5" cx="447" cy="137"></circle><circle r="5" cx="568" cy="191"></circle><circle r="5" cx="648" cy="297"></circle><circle r="5" cx="667" cy="429"></circle><circle r="5" cx="621" cy="554"></circle><circle r="5" cx="521" cy="641"></circle><circle r="5" cx="390" cy="670"></circle><circle r="5" cx="262" cy="633"></circle><circle r="5" cx="166" cy="539"></circle><circle r="5" cx="128" cy="410"></circle><circle r="5" cx="156" cy="278"></circle><circle r="5" cx="244" cy="176"></circle><circle r="5" cx="371" cy="128"></circle><circle r="5" cx="505" cy="147"></circle><circle r="5" cx="614" cy="228"></circle><circle r="5" cx="671" cy="352"></circle><circle r="5" cx="661" cy="487"></circle><circle r="5" cx="588" cy="602"></circle><circle r="5" cx="468" cy="668"></circle><circle r="5" cx="331" cy="668"></circle><circle r="5" cx="210" cy="603"></circle><circle r="5" cx="136" cy="487"></circle><circle r="5" cx="126" cy="350"></circle><circle r="5" cx="183" cy="224"></circle><circle r="5" cx="294" cy="141"></circle><circle r="5" cx="431" cy="122"></circle><circle r="5" cx="561" cy="170"></circle><circle r="5" cx="652" cy="275"></circle><circle r="5" cx="681" cy="411"></circle><circle r="5" cx="642" cy="545"></circle><circle r="5" cx="543" cy="644"></circle><circle r="5" cx="409" cy="683"></circle><circle r="5" cx="272" cy="653"></circle><circle r="5" cx="166" cy="561"></circle><circle r="5" cx="117" cy="429"></circle><circle r="5" cx="137" cy="289"></circle><circle r="5" cx="222" cy="177"></circle><circle r="5" cx="351" cy="118"></circle><circle r="5" cx="492" cy="129"></circle><circle r="5" cx="611" cy="206"></circle><circle r="5" cx="679" cy="331"></circle><circle r="5" cx="679" cy="473"></circle><circle r="5" cx="610" cy="598"></circle><circle r="5" cx="489" cy="675"></circle><circle r="5" cx="347" cy="685"></circle><circle r="5" cx="216" cy="624"></circle><circle r="5" cx="131" cy="509"></circle><circle r="5" cx="111" cy="367"></circle><circle r="5" cx="162" cy="232"></circle><circle r="5" cx="271" cy="138"></circle><circle r="5" cx="413" cy="108"></circle><circle r="5" cx="552" cy="149"></circle><circle r="5" cx="654" cy="253"></circle><circle r="5" cx="694" cy="392"></circle><circle r="5" cx="662" cy="534"></circle><circle r="5" cx="566" cy="644"></circle><circle r="5" cx="429" cy="694"></circle><circle r="5" cx="284" cy="672"></circle><circle r="5" cx="167" cy="584"></circle><circle r="5" cx="107" cy="450"></circle><circle r="5" cx="119" cy="303"></circle><circle r="5" cx="199" cy="180"></circle><circle r="5" cx="329" cy="110"></circle><circle r="5" cx="477" cy="111"></circle><circle r="5" cx="607" cy="183"></circle><circle r="5" cx="686" cy="309"></circle><circle r="5" cx="695" cy="457"></circle><circle r="5" cx="632" cy="592"></circle><circle r="5" cx="512" cy="680"></circle><circle r="5" cx="364" cy="700"></circle><circle r="5" cx="224" cy="646"></circle><circle r="5" cx="127" cy="532"></circle><circle r="5" cx="97" cy="385"></circle><circle r="5" cx="141" cy="241"></circle><circle r="5" cx="248" cy="136"></circle><circle r="5" cx="393" cy="95"></circle><circle r="5" cx="541" cy="129"></circle><circle r="5" cx="654" cy="229"></circle><circle r="5" cx="705" cy="372"></circle><circle r="5" cx="682" cy="522"></circle><circle r="5" cx="589" cy="642"></circle><circle r="5" cx="450" cy="704"></circle><circle r="5" cx="298" cy="691"></circle><circle r="5" cx="171" cy="607"></circle><circle r="5" cx="99" cy="472"></circle><circle r="5" cx="101" cy="319"></circle><circle r="5" cx="176" cy="185"></circle><circle r="5" cx="307" cy="103"></circle><circle r="5" cx="460" cy="94"></circle><circle r="5" cx="600" cy="160"></circle><circle r="5.5" cx="691" cy="285"></circle><circle r="5.5" cx="711" cy="439"></circle><circle r="5.5" cx="654" cy="583"></circle><circle r="5.5" cx="536" cy="683"></circle><circle r="5.5" cx="383" cy="714"></circle><circle r="5.5" cx="235" cy="668"></circle><circle r="5.5" cx="126" cy="556"></circle><circle r="5.5" cx="84" cy="406"></circle><circle r="5.5" cx="120" cy="253"></circle><circle r="5.5" cx="224" cy="136"></circle><circle r="5.5" cx="372" cy="84"></circle><circle r="5.5" cx="527" cy="109"></circle><circle r="5.5" cx="652" cy="205"></circle><circle r="5.5" cx="715" cy="349"></circle><circle r="5.5" cx="701" cy="507"></circle><circle r="5.5" cx="613" cy="638"></circle><circle r="5.5" cx="473" cy="712"></circle><circle r="5.5" cx="314" cy="709"></circle><circle r="5.5" cx="176" cy="631"></circle><circle r="5.5" cx="92" cy="495"></circle><circle r="5.5" cx="84" cy="336"></circle><circle r="5.5" cx="153" cy="192"></circle><circle r="5.5" cx="283" cy="99"></circle><circle r="5.5" cx="441" cy="79"></circle><circle r="5.5" cx="591" cy="137"></circle><circle r="5.5" cx="694" cy="261"></circle><circle r="5.5" cx="725" cy="419"></circle><circle r="5.5" cx="677" cy="572"></circle><circle r="5.5" cx="560" cy="684"></circle><circle r="5.5" cx="404" cy="727"></circle><circle r="5.5" cx="247" cy="689"></circle><circle r="5.5" cx="126" cy="581"></circle><circle r="5.5" cx="73" cy="428"></circle><circle r="5.5" cx="99" cy="267"></circle><circle r="5.5" cx="199" cy="139"></circle><circle r="5.5" cx="349" cy="74"></circle><circle r="5.5" cx="512" cy="89"></circle><circle r="5.5" cx="648" cy="180"></circle><circle r="5.5" cx="723" cy="326"></circle><circle r="5.5" cx="720" cy="490"></circle><circle r="5.5" cx="638" cy="633"></circle><circle r="5.5" cx="497" cy="718"></circle><circle r="5.5" cx="333" cy="727"></circle><circle r="5.5" cx="184" cy="655"></circle><circle r="5.5" cx="88" cy="520"></circle><circle r="5.5" cx="68" cy="356"></circle><circle r="5.5" cx="129" cy="202"></circle><circle r="5.5" cx="257" cy="96"></circle><circle r="5.5" cx="421" cy="64"></circle><circle r="5.5" cx="580" cy="115"></circle><circle r="5.5" cx="695" cy="236"></circle><circle r="5.5" cx="738" cy="397"></circle><circle r="5.5" cx="698" cy="560"></circle><circle r="5.5" cx="586" cy="684"></circle><circle r="5.5" cx="427" cy="738"></circle><circle r="5.5" cx="261" cy="710"></circle><circle r="5.5" cx="129" cy="606"></circle><circle r="5.5" cx="63" cy="451"></circle><circle r="5.5" cx="79" cy="283"></circle><circle r="5.5" cx="174" cy="143"></circle><circle r="5.5" cx="325" cy="66"></circle><circle r="5.5" cx="494" cy="70"></circle><circle r="5.5" cx="641" cy="156"></circle><circle r="5.5" cx="729" cy="301"></circle><circle r="5.5" cx="737" cy="471"></circle><circle r="5.5" cx="662" cy="624"></circle><circle r="5.5" cx="523" cy="723"></circle><circle r="5.5" cx="353" cy="743"></circle><circle r="5.5" cx="194" cy="679"></circle><circle r="5.5" cx="85" cy="546"></circle><circle r="5.5" cx="53" cy="377"></circle><circle r="5.5" cx="106" cy="213"></circle><circle r="5.5" cx="232" cy="95"></circle><circle r="5.5" cx="398" cy="51"></circle><circle r="5.5" cx="566" cy="93"></circle><circle r="5.5" cx="694" cy="210"></circle><circle r="5.5" cx="750" cy="374"></circle><circle r="5.5" cx="720" cy="545"></circle><circle r="5.5" cx="612" cy="681"></circle><circle r="5.5" cx="451" cy="748"></circle><circle r="5.5" cx="278" cy="731"></circle><circle r="5.5" cx="134" cy="632"></circle><circle r="5.5" cx="55" cy="476"></circle><circle r="5.5" cx="60" cy="301"></circle><circle r="5.5" cx="149" cy="150"></circle><circle r="5.5" cx="299" cy="60"></circle><circle r="5.5" cx="475" cy="52"></circle><circle r="5.5" cx="633" cy="131"></circle><circle r="5.5" cx="734" cy="275"></circle><circle r="5.5" cx="753" cy="450"></circle><circle r="5.5" cx="686" cy="614"></circle><circle r="5.5" cx="549" cy="726"></circle><circle r="5.5" cx="375" cy="758"></circle><circle r="5.5" cx="206" cy="702"></circle><circle r="5.5" cx="85" cy="572"></circle><circle r="5.5" cx="40" cy="400"></circle><circle r="5.5" cx="84" cy="227"></circle><circle r="5.5" cx="205" cy="96"></circle><circle r="5.5" cx="374" cy="39"></circle><circle r="5.5" cx="551" cy="71"></circle><circle r="5.5" cx="690" cy="183"></circle><circle r="5.5" cx="759" cy="349"></circle><circle r="6" cx="740" cy="528"></circle><circle r="6" cx="638" cy="675"></circle><circle r="6" cx="477" cy="756"></circle><circle r="6" cx="296" cy="750"></circle><circle r="6" cx="141" cy="658"></circle><circle r="6" cx="49" cy="502"></circle><circle r="6" cx="42" cy="321"></circle><circle r="6" cx="123" cy="159"></circle><circle r="6" cx="273" cy="55"></circle><circle r="6" cx="454" cy="36"></circle><circle r="6" cx="622" cy="106"></circle><circle r="6" cx="736" cy="248"></circle><circle r="6" cx="768" cy="428"></circle><circle r="6" cx="710" cy="601"></circle><circle r="6" cx="576" cy="726"></circle><circle r="6" cx="398" cy="771"></circle><circle r="6" cx="220" cy="725"></circle><circle r="6" cx="86" cy="600"></circle><circle r="6" cx="28" cy="425"></circle><circle r="6" cx="62" cy="243"></circle><circle r="6" cx="178" cy="100"></circle><circle r="6" cx="349" cy="30"></circle><circle r="6" cx="533" cy="50"></circle><circle r="6" cx="685" cy="156"></circle><circle r="6" cx="767" cy="322"></circle><circle r="6" cx="760" cy="508"></circle><circle r="6" cx="664" cy="668"></circle><circle r="6" cx="504" cy="762"></circle><circle r="6" cx="317" cy="768"></circle><circle r="6" cx="150" cy="684"></circle><circle r="6" cx="44" cy="530"></circle><circle r="6" cx="25" cy="343"></circle><circle r="6" cx="98" cy="170"></circle><circle r="6" cx="245" cy="53"></circle><circle r="6" cx="430" cy="21"></circle><circle r="6" cx="609" cy="81"></circle><circle r="6" cx="736" cy="220"></circle><circle r="6" cx="782" cy="403"></circle><circle r="6" cx="734" cy="586"></circle><circle r="6" cx="604" cy="724"></circle><circle r="6" cx="424" cy="783"></circle><circle r="6" cx="237" cy="748"></circle><circle r="6" cx="90" cy="627"></circle><circle r="6" cx="18" cy="451"></circle><circle r="6" cx="40" cy="262"></circle><circle r="6" cx="150" cy="106"></circle><circle r="6" cx="322" cy="21"></circle><circle r="6" cx="513" cy="30"></circle><circle r="6" cx="677" cy="129"></circle><circle r="6" cx="773" cy="295"></circle><circle r="6" cx="779" cy="487"></circle><circle r="6" cx="691" cy="658"></circle><circle r="6" cx="532" cy="767"></circle><circle r="6" cx="340" cy="785"></circle><circle r="6" cx="162" cy="710"></circle><circle r="6" cx="42" cy="558"></circle><circle r="6" cx="10" cy="367"></circle><circle r="6" cx="73" cy="184"></circle><circle r="6" cx="216" cy="53"></circle><circle r="6" cx="405" cy="7"></circle><circle r="6" cx="593" cy="57"></circle><circle r="6" cx="734" cy="192"></circle><circle r="6" cx="794" cy="377"></circle><circle r="6" cx="757" cy="569"></circle><circle r="6" cx="632" cy="720"></circle><circle r="6" cx="451" cy="793"></circle><circle r="6" cx="256" cy="769"></circle><circle r="6" cx="96" cy="655"></circle><circle r="6" cx="10" cy="479"></circle><circle r="6" cx="20" cy="282"></circle><circle r="6" cx="123" cy="114"></circle><circle r="6" cx="294" cy="15"></circle><circle r="6" cx="491" cy="11"></circle><circle r="6" cx="667" cy="102"></circle><circle r="6" cx="777" cy="266"></circle><circle r="6" cx="796" cy="464"></circle><circle r="6" cx="717" cy="646"></circle><circle r="6" cx="561" cy="768"></circle><circle r="6" cx="364" cy="801"></circle><circle r="6" cx="176" cy="735"></circle><circle r="6" cx="43" cy="587"></circle><circle r="6" cx="-4" cy="393"></circle><circle r="6" cx="49" cy="200"></circle><circle r="6" cx="187" cy="55"></circle><circle r="6" cx="378" cy="-5"></circle><circle r="6" cx="575" cy="34"></circle><circle r="6" cx="730" cy="163"></circle><circle r="6" cx="804" cy="350"></circle><circle r="6" cx="779" cy="550"></circle><circle r="6" cx="661" cy="713"></circle><circle r="6" cx="479" cy="801"></circle><circle r="6" cx="277" cy="790"></circle><circle r="6" cx="105" cy="684"></circle><circle r="6" cx="4" cy="508"></circle><circle r="6" cx="1" cy="305"></circle><circle r="6" cx="95" cy="125"></circle><circle r="6" cx="264" cy="12"></circle><circle r="6" cx="467" cy="-6"></circle><circle r="6" cx="654" cy="75"></circle><circle r="6" cx="779" cy="236"></circle><circle r="6" cx="812" cy="438"></circle><circle r="6" cx="743" cy="631"></circle><circle r="6.5" cx="591" cy="768"></circle><circle r="6.5" cx="391" cy="815"></circle><circle r="6.5" cx="193" cy="760"></circle><circle r="6.5" cx="45" cy="617"></circle><circle r="6.5" cx="-16" cy="420"></circle><circle r="6.5" cx="25" cy="218"></circle><circle r="6.5" cx="158" cy="60"></circle><circle r="6.5" cx="350" cy="-15"></circle><circle r="6.5" cx="555" cy="11"></circle><circle r="6.5" cx="723" cy="133"></circle><circle r="6.5" cx="812" cy="321"></circle><circle r="6.5" cx="800" cy="528"></circle><circle r="6.5" cx="690" cy="704"></circle><circle r="6.5" cx="509" cy="807"></circle><circle r="6.5" cx="300" cy="810"></circle><circle r="6.5" cx="116" cy="712"></circle><circle r="6.5" cx="1" cy="538"></circle><circle r="6.5" cx="-17" cy="329"></circle><circle r="6.5" cx="68" cy="138"></circle><circle r="6.5" cx="234" cy="10"></circle><circle r="6.5" cx="441" cy="-22"></circle><circle r="6.5" cx="639" cy="49"></circle><circle r="6.5" cx="779" cy="206"></circle><circle r="6.5" cx="826" cy="411"></circle><circle r="6.5" cx="769" cy="614"></circle><circle r="6.5" cx="621" cy="765"></circle><circle r="6.5" cx="419" cy="827"></circle><circle r="6.5" cx="212" cy="784"></circle><circle r="6.5" cx="50" cy="647"></circle><circle r="6.5" cx="-26" cy="449"></circle><circle r="6.5" cx="2" cy="239"></circle><circle r="6.5" cx="128" cy="67"></circle><circle r="6.5" cx="320" cy="-23"></circle><circle r="6.5" cx="533" cy="-10"></circle><circle r="6.5" cx="714" cy="104"></circle><circle r="6.5" cx="818" cy="290"></circle><circle r="6.5" cx="820" cy="504"></circle><circle r="6.5" cx="719" cy="693"></circle><circle r="6.5" cx="539" cy="810"></circle><circle r="6.5" cx="325" cy="828"></circle><circle r="6.5" cx="129" cy="740"></circle><circle r="6.5" cx="-1" cy="569"></circle><circle r="6.5" cx="-33" cy="356"></circle><circle r="6.5" cx="41" cy="153"></circle><circle r="6.5" cx="203" cy="11"></circle><circle r="6.5" cx="414" cy="-37"></circle><circle r="6.5" cx="622" cy="23"></circle><circle r="6.5" cx="776" cy="175"></circle><circle r="6.5" cx="838" cy="383"></circle><circle r="6.5" cx="793" cy="595"></circle><circle r="6.5" cx="652" cy="760"></circle><circle r="6.5" cx="449" cy="837"></circle><circle r="6.5" cx="233" cy="808"></circle><circle r="6.5" cx="57" cy="678"></circle><circle r="6.5" cx="-34" cy="480"></circle><circle r="6.5" cx="-20" cy="262"></circle><circle r="6.5" cx="98" cy="77"></circle><circle r="6.5" cx="289" cy="-29"></circle><circle r="6.5" cx="509" cy="-30"></circle><circle r="6.5" cx="702" cy="74"></circle><circle r="6.5" cx="822" cy="259"></circle><circle r="6.5" cx="838" cy="478"></circle><circle r="6.5" cx="747" cy="679"></circle><circle r="6.5" cx="571" cy="812"></circle><circle r="6.5" cx="353" cy="844"></circle><circle r="6.5" cx="145" cy="767"></circle><circle r="6.5" cx="0" cy="600"></circle><circle r="6.5" cx="-48" cy="384"></circle><circle r="6.5" cx="14" cy="171"></circle><circle r="6.5" cx="171" cy="14"></circle><circle r="6.5" cx="384" cy="-49"></circle><circle r="6.5" cx="602" cy="-2"></circle><circle r="6.5" cx="770" cy="143"></circle><circle r="6.5" cx="848" cy="352"></circle><circle r="6.5" cx="817" cy="573"></circle><circle r="6.5" cx="683" cy="752"></circle><circle r="6.5" cx="480" cy="845"></circle><circle r="6.5" cx="256" cy="830"></circle><circle r="6.5" cx="67" cy="708"></circle><circle r="6.5" cx="-40" cy="511"></circle><circle r="6.5" cx="-40" cy="287"></circle><circle r="6.5" cx="68" cy="89"></circle><circle r="6.5" cx="257" cy="-33"></circle><circle r="6.5" cx="482" cy="-49"></circle><circle r="6.5" cx="688" cy="45"></circle><circle r="6.5" cx="823" cy="227"></circle><circle r="6.5" cx="855" cy="451"></circle><circle r="6.5" cx="775" cy="663"></circle><circle r="6.5" cx="604" cy="811"></circle><circle r="6.5" cx="382" cy="859"></circle><circle r="6.5" cx="164" cy="794"></circle><circle r="6.5" cx="3" cy="633"></circle><circle r="6.5" cx="-60" cy="414"></circle><circle r="6.5" cx="-11" cy="192"></circle><circle r="6.5" cx="139" cy="20"></circle><circle r="6.5" cx="353" cy="-60"></circle><circle r="6.5" cx="579" cy="-26"></circle><circle r="6.5" cx="762" cy="112"></circle><circle r="6.5" cx="857" cy="320"></circle><circle r="6.5" cx="839" cy="549"></circle><circle r="6.5" cx="714" cy="742"></circle><circle r="6.5" cx="512" cy="851"></circle><circle r="6.5" cx="282" cy="850"></circle><circle r="7" cx="80" cy="739"></circle><circle r="7" cx="-44" cy="544"></circle><circle r="7" cx="-59" cy="314"></circle><circle r="7" cx="38" cy="104"></circle><circle r="7" cx="224" cy="-34"></circle><circle r="7" cx="454" cy="-65"></circle><circle r="7" cx="671" cy="17"></circle><circle r="7" cx="822" cy="193"></circle><circle r="7" cx="870" cy="421"></circle><circle r="7" cx="803" cy="644"></circle><circle r="7" cx="637" cy="807"></circle><circle r="7" cx="412" cy="871"></circle><circle r="7" cx="185" cy="820"></circle><circle r="7" cx="9" cy="666"></circle><circle r="7" cx="-71" cy="446"></circle><circle r="7" cx="-36" cy="214"></circle><circle r="7" cx="106" cy="28"></circle><circle r="7" cx="321" cy="-68"></circle><circle r="7" cx="555" cy="-49"></circle><circle r="7" cx="751" cy="80"></circle><circle r="7" cx="862" cy="287"></circle><circle r="7" cx="860" cy="523"></circle><circle r="7" cx="745" cy="729"></circle><circle r="7" cx="546" cy="855"></circle><circle r="7" cx="310" cy="869"></circle><circle r="7" cx="95" cy="769"></circle><circle r="7" cx="-45" cy="578"></circle><circle r="7" cx="-76" cy="343"></circle><circle r="7" cx="9" cy="121"></circle><circle r="7" cx="190" cy="-32"></circle><circle r="7" cx="423" cy="-80"></circle><circle r="7" cx="651" cy="-11"></circle><circle r="7" cx="818" cy="160"></circle><circle r="7" cx="882" cy="389"></circle><circle r="7" cx="829" cy="622"></circle><circle r="7" cx="670" cy="801"></circle><circle r="7" cx="445" cy="882"></circle><circle r="7" cx="208" cy="845"></circle><circle r="7" cx="18" cy="699"></circle><circle r="7" cx="-79" cy="479"></circle><circle r="7" cx="-59" cy="240"></circle><circle r="7" cx="74" cy="39"></circle><circle r="7" cx="287" cy="-74"></circle><circle r="7" cx="528" cy="-70"></circle><circle r="7" cx="738" cy="48"></circle><circle r="7" cx="866" cy="253"></circle><circle r="7" cx="880" cy="495"></circle><circle r="7" cx="776" cy="713"></circle><circle r="7" cx="580" cy="856"></circle><circle r="7" cx="339" cy="887"></circle><circle r="7" cx="113" cy="798"></circle><circle r="7" cx="-43" cy="612"></circle><circle r="7" cx="-91" cy="374"></circle><circle r="7" cx="-19" cy="141"></circle><circle r="7" cx="156" cy="-28"></circle><circle r="7" cx="391" cy="-93"></circle><circle r="7" cx="629" cy="-38"></circle><circle r="7" cx="811" cy="126"></circle><circle r="7" cx="893" cy="356"></circle><circle r="7" cx="854" cy="598"></circle><circle r="7" cx="704" cy="792"></circle><circle r="7" cx="479" cy="890"></circle><circle r="7" cx="234" cy="868"></circle><circle r="7" cx="29" cy="732"></circle><circle r="7" cx="-85" cy="514"></circle><circle r="7" cx="-80" cy="267"></circle><circle r="7" cx="42" cy="53"></circle><circle r="7" cx="252" cy="-77"></circle><circle r="7" cx="499" cy="-90"></circle><circle r="7" cx="722" cy="17"></circle><circle r="7" cx="867" cy="218"></circle><circle r="7" cx="897" cy="464"></circle><circle r="7" cx="806" cy="695"></circle><circle r="7" cx="615" cy="854"></circle><circle r="7" cx="371" cy="902"></circle><circle r="7" cx="134" cy="827"></circle><circle r="7" cx="-39" cy="647"></circle><circle r="7" cx="-104" cy="407"></circle><circle r="7" cx="-46" cy="164"></circle><circle r="7" cx="121" cy="-22"></circle><circle r="7" cx="358" cy="-104"></circle><circle r="7" cx="605" cy="-63"></circle><circle r="7" cx="802" cy="91"></circle><circle r="7" cx="901" cy="322"></circle><circle r="7" cx="878" cy="572"></circle><circle r="7" cx="737" cy="780"></circle><circle r="7" cx="514" cy="896"></circle><circle r="7" cx="262" cy="890"></circle><circle r="7" cx="43" cy="765"></circle><circle r="7" cx="-88" cy="549"></circle><circle r="7" cx="-100" cy="297"></circle><circle r="7" cx="10" cy="69"></circle><circle r="7" cx="216" cy="-78"></circle><circle r="7" cx="468" cy="-108"></circle><circle r="7" cx="703" cy="-14"></circle><circle r="7" cx="865" cy="182"></circle><circle r="7" cx="913" cy="432"></circle><circle r="7" cx="835" cy="674"></circle><circle r="7" cx="651" cy="850"></circle><circle r="7" cx="405" cy="915"></circle><circle r="7" cx="157" cy="855"></circle><circle r="7" cx="-32" cy="683"></circle></g></svg>