<svg xmlns="http://www.w3.org/2000/svg" version="1.1" xmlns:xlink="http://www.w3.org/1999/xlink" xmlns:svgjs="http://svgjs.dev/svgjs" viewBox="0 0 800 800"><g transform="matrix(1,0,0,1,0,0)"><path d="M589.0000305175781 395.8553466796875L939.0000528823523 597.9276591362559V1002.0722840493927L589.0000305175781 1204.144596505961L239.00000815280396 1002.0722840493927V597.9276591362559L589.0000305175781 395.8553466796875Z " stroke-width="4" stroke="#c2c2c2" fill="none" opacity="1" transform="rotate(360, 400, 400)"></path><path d="M606.5833231608073 381.76703898111975L939.9166777939256 574.2168603683277V959.1165031427438L606.5833231608073 1151.5663245299518L273.2499685276891 959.1165031427438V574.2168603683277L606.5833231608073 381.76703898111975Z " stroke-width="5" stroke="#bcbfc8" fill="none" opacity="1" transform="rotate(330, 400, 400)"></path><path d="M624.1666768391927 367.67867024739587L940.833363740655 550.5060005652435V916.1606612009386L624.1666768391927 1098.9879915187862L307.49998993773033 916.1606612009386V550.5060005652435L624.1666768391927 367.67867024739587Z " stroke-width="6" stroke="#b6bbcd" fill="none" opacity="1" transform="rotate(300, 400, 400)"></path><path d="M641.7500305175781 353.59033203125L941.7500496873845 526.7951712797372V873.2048497767117L641.7500305175781 1046.409689025199L341.7500113477717 873.2048497767117V526.7951712797372L641.7500305175781 353.59033203125Z " stroke-width="7" stroke="#b0b8d3" fill="none" opacity="1" transform="rotate(270, 400, 400)"></path><path d="M659.3333231608073 339.501963297526L942.6666745989578 503.08431147665283V830.2490078349064L659.3333231608073 993.8313560140332L375.9999717226568 830.2490078349064V503.08431147665283L659.3333231608073 339.501963297526Z " stroke-width="8" stroke="#aab5d8" fill="none" opacity="1" transform="rotate(240, 400, 400)"></path><path d="M676.9166768391926 325.41362508138013L943.5833605456871 479.37348219114654V787.2931964106792L676.9166768391926 941.2530535204456L410.2499931326981 787.2931964106792V479.37348219114654L676.9166768391926 325.41362508138013Z " stroke-width="9" stroke="#a3b1dd" fill="none" opacity="1" transform="rotate(210, 400, 400)"></path><path d="M694.5000152587891 311.32525634765625L944.5000312336277 455.66262238806223V744.3373544688743L694.5000152587891 888.6747205092803L444.4999992839504 744.3373544688743V455.66262238806223L694.5000152587891 311.32525634765625Z " stroke-width="10" stroke="#9daee2" fill="none" opacity="1" transform="rotate(180, 400, 400)"></path><path d="M712.0833231608074 297.2369181315104L945.4166714039901 431.95179310255594V701.3815430446472L712.0833231608074 836.0964180156927L478.74997491762457 701.3815430446472V431.95179310255594L712.0833231608074 297.2369181315104Z " stroke-width="11" stroke="#95aae7" fill="none" opacity="1" transform="rotate(150, 400, 400)"></path><path d="M729.6666463216145 283.1485799153645L946.3333268331413 408.2409638170497V658.42573162042L729.6666463216145 783.5181155221053L512.9999658100877 658.42573162042V408.2409638170497L729.6666463216145 283.1485799153645Z " stroke-width="12" stroke="#8ea6ec" fill="none" opacity="1" transform="rotate(120, 400, 400)"></path><path d="M747.25 269.0602111816406L947.250012779871 384.5301040139654V615.4698896786151L747.25 730.9397825109397L547.249987220129 615.4698896786151V384.5301040139654L747.25 269.0602111816406Z " stroke-width="13" stroke="#86a3f1" fill="none" opacity="1" transform="rotate(90, 400, 400)"></path><path d="M764.8333231608071 254.97187296549475L948.1666682090222 360.81927472845916V572.514078254388L764.8333231608071 678.3614800173524L581.4999781125922 572.514078254388V360.81927472845916L764.8333231608071 254.97187296549475Z " stroke-width="14" stroke="#7e9ff6" fill="none" opacity="1" transform="rotate(60, 400, 400)"></path><path d="M782.4166463216145 240.88350423177081L949.0833236381737 337.1084149253748V529.5582363125827L782.4166463216145 625.7831470061867L615.7499690050554 529.5582363125827V337.1084149253748L782.4166463216145 240.88350423177081Z " stroke-width="15" stroke="#759bfa" fill="none" opacity="1" transform="rotate(30, 400, 400)"></path><path d="M800 226.795166015625L950.0000095849032 313.3975856398686V486.60242488835587L800 573.2048445125995L649.9999904150968 486.60242488835587V313.3975856398686L800 226.795166015625Z " stroke-width="16" stroke="#6b97ff" fill="none" opacity="1" transform="rotate(0, 400, 400)"></path></g></svg>