<svg xmlns="http://www.w3.org/2000/svg" version="1.1" xmlns:xlink="http://www.w3.org/1999/xlink" xmlns:svgjs="http://svgjs.dev/svgjs" viewBox="0 0 800 800"><g transform="matrix(1,0,0,1,0,0)"><rect width="306" height="306" x="312" y="647" stroke-width="4" stroke="#9c9c9c" fill="none" opacity="0.1" transform="rotate(100, 400, 400)"></rect><rect width="301.28" height="301.28" x="327.16" y="617.36" stroke-width="4.48" stroke="#989898" fill="none" opacity="0.136" transform="rotate(96, 400, 400)"></rect><rect width="296.56" height="296.56" x="342.32000000000005" y="587.72" stroke-width="4.96" stroke="#959595" fill="none" opacity="0.17200000000000001" transform="rotate(92, 400, 400)"></rect><rect width="291.84" height="291.84" x="357.48" y="558.08" stroke-width="5.4399999999999995" stroke="#929292" fill="none" opacity="0.20800000000000002" transform="rotate(88, 400, 400)"></rect><rect width="287.12" height="287.12" x="372.64000000000004" y="528.44" stroke-width="5.92" stroke="#8f8f8f" fill="none" opacity="0.24400000000000002" transform="rotate(84, 400, 400)"></rect><rect width="282.4" height="282.4" x="387.8" y="498.8" stroke-width="6.4" stroke="#8b8b8b" fill="none" opacity="0.28" transform="rotate(80, 400, 400)"></rect><rect width="277.68" height="277.68" x="402.9599999999999" y="469.15999999999997" stroke-width="6.88" stroke="#888888" fill="none" opacity="0.31600000000000006" transform="rotate(76, 400, 400)"></rect><rect width="272.96" height="272.96" x="418.12" y="439.52" stroke-width="7.359999999999999" stroke="#848484" fill="none" opacity="0.352" transform="rotate(72, 400, 400)"></rect><rect width="268.24" height="268.24" x="433.28" y="409.88" stroke-width="7.84" stroke="#808080" fill="none" opacity="0.388" transform="rotate(68, 400, 400)"></rect><rect width="263.52" height="263.52" x="448.44000000000005" y="380.24" stroke-width="8.32" stroke="#7c7c7c" fill="none" opacity="0.42400000000000004" transform="rotate(64, 400, 400)"></rect><rect width="258.8" height="258.8" x="463.6" y="350.6" stroke-width="8.8" stroke="#787878" fill="none" opacity="0.4600000000000001" transform="rotate(60, 400, 400)"></rect><rect width="254.08" height="254.08" x="478.75999999999993" y="320.96" stroke-width="9.28" stroke="#747474" fill="none" opacity="0.496" transform="rotate(56, 400, 400)"></rect><rect width="249.36" height="249.36" x="493.92" y="291.32" stroke-width="9.76" stroke="#707070" fill="none" opacity="0.532" transform="rotate(52, 400, 400)"></rect><rect width="244.64" height="244.64" x="509.08" y="261.68" stroke-width="10.24" stroke="#6c6c6c" fill="none" opacity="0.5680000000000001" transform="rotate(48, 400, 400)"></rect><rect width="239.92000000000002" height="239.92000000000002" x="524.24" y="232.04" stroke-width="10.719999999999999" stroke="#676767" fill="none" opacity="0.604" transform="rotate(44, 400, 400)"></rect><rect width="235.2" height="235.2" x="539.4" y="202.4" stroke-width="11.2" stroke="#626262" fill="none" opacity="0.64" transform="rotate(40, 400, 400)"></rect><rect width="230.48000000000002" height="230.48000000000002" x="554.56" y="172.76" stroke-width="11.68" stroke="#5d5d5d" fill="none" opacity="0.676" transform="rotate(36, 400, 400)"></rect><rect width="225.76" height="225.76" x="569.72" y="143.12" stroke-width="12.16" stroke="#585858" fill="none" opacity="0.7120000000000001" transform="rotate(32, 400, 400)"></rect><rect width="221.04000000000002" height="221.04000000000002" x="584.88" y="113.47999999999999" stroke-width="12.64" stroke="#525252" fill="none" opacity="0.7480000000000001" transform="rotate(28, 400, 400)"></rect><rect width="216.32" height="216.32" x="600.0400000000001" y="83.84" stroke-width="13.12" stroke="#4c4c4c" fill="none" opacity="0.784" transform="rotate(24, 400, 400)"></rect><rect width="211.60000000000002" height="211.60000000000002" x="615.2" y="54.19999999999999" stroke-width="13.6" stroke="#464646" fill="none" opacity="0.8200000000000001" transform="rotate(20, 400, 400)"></rect><rect width="206.88" height="206.88" x="630.3599999999999" y="24.560000000000002" stroke-width="14.08" stroke="#3e3e3e" fill="none" opacity="0.8560000000000001" transform="rotate(16, 400, 400)"></rect><rect width="202.16000000000003" height="202.16000000000003" x="645.52" y="-5.0800000000000125" stroke-width="14.559999999999999" stroke="#363636" fill="none" opacity="0.892" transform="rotate(12, 400, 400)"></rect><rect width="197.44" height="197.44" x="660.6800000000001" y="-34.72" stroke-width="15.04" stroke="#2c2c2c" fill="none" opacity="0.928" transform="rotate(8, 400, 400)"></rect><rect width="192.72" height="192.72" x="675.84" y="-64.36" stroke-width="15.52" stroke="#1f1f1f" fill="none" opacity="0.9640000000000001" transform="rotate(4, 400, 400)"></rect><rect width="188" height="188" x="691" y="-94" stroke-width="16" stroke="#000000" fill="none" opacity="1.0000000000000002" transform="rotate(0, 400, 400)"></rect></g></svg>