<svg xmlns="http://www.w3.org/2000/svg" version="1.1" xmlns:xlink="http://www.w3.org/1999/xlink" xmlns:svgjs="http://svgjs.dev/svgjs" viewBox="0 0 800 800" opacity="1"><defs><linearGradient x1="50%" y1="0%" x2="50%" y2="100%" id="uundulate-grad"><stop stop-color="hsl(37, 6%, 45%)" stop-opacity="1" offset="45%"></stop><stop stop-color="hsl(316, 85%, 47%)" stop-opacity="1" offset="100%"></stop></linearGradient></defs><g stroke-width="2" stroke="url(#uundulate-grad)" fill="none"><path d="M1343.980724836555 256.3009469432004C1395.78732692816 700.1647947203946 1368.043509620481 1004.9798009619526 1218.9466374722715 1258.0566847541836C1069.8497653240618 1511.133568546415 994.7948333170843 1380.809058043969 628.3157385251493 1471.0699891459076C261.83664373321426 1561.3309202478467 -386.8911268909569 1876.1497363893027 -540.1530175290177 1691.3091540434916C-693.4149081670786 1506.4685716976805 -166.8197260766483 1060.3677879374582 -107.34133653754043 583.8351938860128C-47.86294699843256 107.30259983456722 -479.16014023507506 -292.64626022379036 -254.6567477413023 -596.047297403448C-30.153355247529703 -899.4483345831059 637.2254739788482 -1050.0623354818995 970.2749474325681 -872.4897845763478C1303.324420886288 -694.9172336707961 1292.1741227449502 -187.5629008339938 1343.980724836555 256.3009469432004C1395.78732692816 700.1647947203946 1368.043509620481 1004.9798009619526 1218.9466374722715 1258.0566847541836 "></path><path d="M1322.5266223089752 259.56678873630585C1373.1558016257713 693.342821791291 1346.0425256205394 991.2302142546314 1200.3342187484254 1238.5553506879482C1054.6259118763114 1485.8804871212656 981.2767737785834 1358.5178973120564 623.1267493228288 1446.7274436162243C264.97672486707415 1534.9369899203916 -369.00723278836585 1842.6008329677238 -518.7858986391981 1661.9611729479539C-668.5645644900303 1481.321512928184 -153.93745471983698 1045.3593833443306 -95.81084676116348 579.657075521327C-37.68423880248997 113.9547676983234 -459.1792231019359 -276.90434554052604 -239.77818043756713 -573.4099046024642C-20.377137773198342 -869.9154636644025 631.8339907889438 -1017.1064190882234 957.3141580278061 -843.5696079759798C1282.7943252666682 -670.0327968637362 1271.897442992179 -174.20924431867934 1322.5266223089752 259.56678873630585C1373.1558016257713 693.342821791291 1346.0425256205394 991.2302142546314 1200.3342187484254 1238.5553506879482 "></path><path d="M1301.0725197813958 262.8326305294115C1350.5242763233823 686.5208488621877 1324.0415416205979 977.4806275473111 1181.7218000245794 1219.0540166217133C1039.402058428561 1460.627405696116 967.7587142400826 1336.226736580145 617.9377601205083 1422.384898086541C268.11680600093405 1508.5430595929374 -351.1233386857748 1809.051929546145 -497.4187797493784 1632.613191852416C-643.7142208129819 1456.1744541586877 -141.0551833630259 1030.350978751203 -84.28035698478652 575.4789571566414C-27.505530606547154 120.60693556207957 -439.19830596879683 -261.1624308572615 -224.89961313383196 -550.7725118014803C-10.600920298867095 -840.3825927456992 626.4425075990391 -984.1505026945475 944.3533686230444 -814.6494313756118C1262.2642296470494 -645.1483600566762 1251.620763239409 -160.85558780336487 1301.0725197813958 262.8326305294115C1350.5242763233823 686.5208488621877 1324.0415416205979 977.4806275473111 1181.7218000245794 1219.0540166217133 "></path><path d="M1279.6183867362379 266.09844180493883C1327.8927205034151 679.6988454155062 1302.0405271030777 963.7310103224127 1163.1093507831554 1199.5526520379008C1024.1781744632326 1435.3742937533889 954.2406241840035 1313.9355453306548 612.7487404006097 1398.04232203928C271.2568566172158 1482.1490987479046 -333.239475100762 1775.5029956069884 -476.0516913771369 1603.2651802393007C-618.8639076535118 1431.0273648716134 -128.1729425237927 1015.3425436404973 -72.7498977259877 571.3008082743777C-17.326852928182575 127.25907290825785 -419.21741935323575 -245.42054669157517 -210.0210763476748 -528.1351495180745C-0.8247333421138592 -810.8497523445739 621.0509938915563 -951.1946168184497 931.3925487007043 -785.7292852928219C1241.7341035098525 -620.2639537671943 1231.3440529690602 -147.50196180562853 1279.6183867362379 266.09844180493883C1327.8927205034151 679.6988454155062 1302.0405271030777 963.7310103224127 1163.1093507831554 1199.5526520379008 "></path><path d="M1258.164284208658 269.3644361859351C1305.261195201026 672.8770250742934 1280.039543103136 949.9815762029825 1144.4969320593093 1180.051470559556C1008.9543210154823 1410.12136491613 940.7225646455026 1291.644537186634 607.5597511982892 1373.6999290974873C274.3969377510755 1455.7553210083406 -315.35558099817104 1741.9542447733006 -454.68457248731727 1573.917351731654C-594.0135639764635 1405.8804586900078 -115.29067116698138 1000.3342916352603 -61.21940794961063 567.1228424975827C-7.148144732239871 133.91139335990488 -399.23650222009667 -229.6784794204201 -195.14250904393964 -505.4976041292C8.951484132217502 -781.3167288379798 615.6595107016517 -918.2385478368831 918.4317592959426 -756.8089561045633C1221.2040078902332 -595.3793643722437 1211.0673732162898 -134.14815270242343 1258.164284208658 269.3644361859351C1305.261195201026 672.8770250742934 1280.039543103136 949.9815762029825 1144.4969320593093 1180.051470559556 "></path><path d="M1236.7101816810782 272.63040004935306C1282.6296698986375 666.0551742155023 1258.0385591031945 936.2321115659738 1125.8845133354632 1160.5502585636332C993.7304675677319 1384.868405561293 927.2045051070018 1269.353498525034 602.3707619959687 1349.357505638116C277.53701888493515 1429.361512751198 -297.47168689558 1708.4054634220342 -433.3174535974976 1544.5694927064287C-569.1632202994151 1380.7335219908236 -102.40839981017018 985.3260091124448 -49.688918173233674 562.9448462032092C3.030563463702947 140.56368329397355 -379.2555850869575 -213.93644266684328 -180.26394174020447 -482.8600892579036C18.727701606548635 -751.7837358489639 610.2680275117473 -885.2825093728945 905.4709698911806 -727.8886574338828C1200.673912270614 -570.4948054948712 1190.7906934635193 -120.79437411679646 1236.7101816810782 272.63040004935306C1282.6296698986375 666.0551742155023 1258.0385591031945 936.2321115659738 1125.8845133354632 1160.5502585636332 "></path><path d="M1215.2560791534986 275.896119772146C1259.9981445962485 659.2330792160865 1236.037575103253 922.4824027883408 1107.2720946116171 1141.0488024270862C978.5066141199816 1359.615202065831 913.6864455685011 1247.0622157228095 597.1817727936482 1325.0148380381206C280.67710001879504 1402.9674603534313 -279.58779279298903 1674.8564379301433 -411.95033470767794 1515.221389540579C-544.3128766223668 1355.586341151015 -89.52612845335898 970.3174824490052 -38.15842839685661 558.7666057682111C13.209271659645538 147.21572908741746 -359.2746679538184 -198.19465005389134 -165.3853744364692 -460.2228185272322C28.503919080879996 -722.2509870005731 604.8765443218426 -852.3267150495311 892.5101804864189 -698.9686029038273C1180.143816650995 -545.6104907581237 1170.5140137107487 -107.44083967179449 1215.2560791534986 275.896119772146C1259.9981445962485 659.2330792160865 1236.037575103253 922.4824027883408 1107.2720946116171 1141.0488024270862 "></path><path d="M1193.8019461083406 279.16205311798603C1237.3665887762813 652.4111978397175 1214.036560585733 908.7329076337546 1088.659645370193 1121.5475599135852C963.2827301546531 1334.3622121934163 900.1683555124221 1224.7711465436323 591.9927530737496 1300.6723840611712C283.8171506350768 1376.573621578711 -261.70392920797616 1641.3076260612988 -390.5832463354364 1485.873499997776C-519.4625634628967 1330.4393739342531 -76.64388761412579 955.309169408612 -26.62796913805778 554.5885789562599C23.38794933801023 153.867988503908 -339.29378133825736 -182.45264381789252 -150.50683765031215 -437.58533417351396C38.28010603763323 -692.7180245291352 599.4850306143599 -819.3707071031207 879.5493605640788 -670.048334750725C1159.6136905137978 -520.7259623983293 1150.2373034404 -94.08709160374553 1193.8019461083406 279.16205311798603C1237.3665887762813 652.4111978397175 1214.036560585733 908.7329076337546 1088.659645370193 1121.5475599135852 "></path><path d="M1172.347843580761 282.4280474989823C1214.7350634738923 645.5893774985047 1192.0355765857914 894.9834735143247 1070.0472266463469 1102.0463784352414C948.0588767069028 1309.109283356158 886.6502959739212 1202.480138399611 586.803763871429 1276.329991119379C286.9572317689367 1350.1798438391475 -243.82003510538516 1607.758875227611 -369.2161274456168 1456.5256714901293C-494.61221978584837 1305.2924677526476 -63.76161625731447 940.300917403375 -15.097479361680826 550.4106131794649C33.56665753395282 160.5203089555548 -319.3128642051182 -166.71057654673746 -135.62827034657698 -414.94778878463933C48.056323511964365 -663.1850010225412 594.0935474244552 -786.4146381215542 866.5885711593171 -641.1280055624663C1139.0835948941785 -495.84137300337875 1129.9606236876295 -80.73328250054044 1172.347843580761 282.4280474989823C1214.7350634738923 645.5893774985047 1192.0355765857914 894.9834735143247 1070.0472266463469 1102.0463784352414 "></path><path d="M1150.8937715707593 285.6938282569313C1192.1035686890816 638.7673435342449 1170.0346231034277 881.2338257718477 1051.4348384400791 1082.5449833338498C932.8350537767305 1283.8561408958517 873.1322669529984 1180.1889166325423 581.6148051866867 1251.987384554539C290.0973434203746 1323.785852476536 -225.93611048521603 1574.209910770876 -347.848978038219 1427.1776293594353C-469.7618455912219 1280.145347947995 -50.879314382925145 925.292451775091 -3.5669590677257474 546.2324337796229C43.745396247473764 167.17241578415496 -299.331916554401 -150.96872289862938 -120.74967252526358 -392.3104570188118C57.83257150387385 -633.6521911389941 588.7020947521289 -753.4587827630344 853.6278122721333 -612.2078899972547C1118.5535297921376 -470.95699723147504 1109.683974452437 -67.37968702038222 1150.8937715707593 285.6938282569313C1192.1035686890816 638.7673435342449 1170.0346231034277 881.2338257718477 1051.4348384400791 1082.5449833338498 "></path><path d="M1129.4396690431797 288.9597616027713C1169.4720433866928 631.9454621578759 1148.033639103486 867.4843306172615 1032.8224197162333 1063.043740820349C917.6112003289802 1258.603151023437 859.6142074144975 1157.897847453365 576.4258159843662 1227.6449305775905C293.2374245542345 1297.3920137018158 -208.05221638262503 1540.6610989020319 -326.48185914839934 1397.8297398166324C-444.91150191417364 1254.9983807312328 -37.99704302611394 910.2841387346978 7.963530708651206 542.0544069676716C53.92410444341647 173.82467520064552 -279.35099942126186 -135.22671666263057 -105.87110522152841 -369.6729726650934C67.6087889782051 -604.1192286675563 583.3106115622245 -720.502774816624 840.6670228673715 -583.2876218441523C1098.0234341725186 -446.0724688716806 1089.4072946996664 -54.02593895233326 1129.4396690431797 288.9597616027713C1169.4720433866928 631.9454621578759 1148.033639103486 867.4843306172615 1032.8224197162333 1063.043740820349 "></path><path d="M1107.9855665155999 292.22569494861114C1146.8405180843038 625.1235807815069 1126.0326551035444 853.7348354626754 1014.2100009923872 1043.5424983068485C902.3873468812299 1233.350161151022 846.0961478759968 1135.6067782741875 571.2368267820457 1203.302476600642C296.3775056880943 1270.9981749270955 -190.1683222800341 1507.1122870331878 -305.1147402585797 1368.4818502738294C-420.06115823712537 1229.851413514471 -25.114771669302627 895.2758256943048 19.494020485028273 537.8763801557204C64.10281263935917 180.4769346171363 -259.3700822881227 -119.48471042663175 -90.99253791779313 -347.03548831137516C77.38500645253635 -574.5862661961185 577.9191283723198 -687.5467668702137 827.7062334626096 -554.3673536910499C1077.4933385528996 -421.18794051188615 1069.130614946896 -40.67219088428442 1107.9855665155999 292.22569494861114C1146.8405180843038 625.1235807815069 1126.0326551035444 853.7348354626754 1014.2100009923872 1043.5424983068485 "></path><path d="M1086.53146398802 295.4915367417168C1124.2089927819147 618.3016078524035 1104.0316711036028 839.9852487553546 995.5975822685411 1024.0411642406139C887.1634934334795 1208.0970797258728 832.578088337496 1113.3156175422755 566.0478375797252 1178.9599310709582C299.51758682195407 1244.6042445996413 -172.28442817744303 1473.5633836116094 -283.74762136876006 1339.1338691782921C-395.21081456007704 1204.7043547449748 -12.232500312491425 880.2674211011772 31.024510261405226 533.6982617910348C74.28152083530188 187.12910248089247 -239.38916515498357 -103.74279574336742 -76.11397061405796 -324.39809551039116C87.1612239268677 -545.0533952774151 572.5276451824152 -654.5908504765378 814.7454440578479 -525.4471770906819C1056.9632429332803 -396.3035037048262 1048.8539351941256 -27.31853436896995 1086.53146398802 295.4915367417168C1124.2089927819147 618.3016078524035 1104.0316711036028 839.9852487553546 995.5975822685411 1024.0411642406139 "></path><path d="M1065.0773309428623 298.7574395699785C1101.5774369619478 611.4796959584562 1082.0306565860828 826.2357230831901 976.985133027117 1004.539891209535C871.939609468151 1182.8440593358796 819.0599982814169 1091.0245178455198 560.8588178598263 1154.6174465764311C302.65763743823584 1218.210375307343 -154.40056459243021 1440.0145412251868 -262.3805329965185 1309.7859491179106C-370.36050140060684 1179.5573570106344 0.6497405267416525 865.2590775432056 42.55496952020417 529.5202044615055C84.46019851366646 193.78133137980512 -219.40827853942255 -88.00082002494673 -61.235433827900806 -301.76064167425113C96.93741088362083 -515.5204633235555 567.1361314749324 -621.6348730477055 801.7846241355078 -496.52693945515773C1036.4331167960831 -371.41900586261 1028.5772249237768 -13.96481681849923 1065.0773309428623 298.7574395699785C1101.5774369619478 611.4796959584562 1082.0306565860828 826.2357230831901 976.985133027117 1004.539891209535 "></path><path d="M1043.6232284152825 302.0233729158185C1078.9459116595588 604.6578145820872 1060.0296725861413 812.486227928604 958.3727143032709 985.0386486960344C856.7157560204007 1157.5910694634647 805.541938742916 1068.7334486663424 555.6698286575058 1130.2749925994826C305.7977185720956 1191.8165365326226 -136.5166704898392 1406.4657293563423 -241.01341410669886 1280.4380595751081C-345.51015772355856 1154.4103897938728 13.532011883552968 850.2507645028127 54.08545929658112 525.3421776495543C94.63890670960916 200.4335907962959 -199.4273614062834 -72.25881378894792 -46.35686652416564 -279.12315732053275C106.71362835795208 -485.9875008521177 561.7446482850278 -588.6788651012951 788.8238347307461 -467.60667130205536C1015.9030211764641 -346.53447750281555 1008.3005451710064 -0.6110687504503858 1043.6232284152825 302.0233729158185C1078.9459116595588 604.6578145820872 1060.0296725861413 812.486227928604 958.3727143032709 985.0386486960344 "></path><path d="M1022.1691258877029 305.28930626165834C1056.31438635717 597.8359332057182 1038.0286885861995 798.7367327740176 939.7602955794248 965.5374061825337C841.4919025726504 1132.3380795910496 792.0238792044152 1046.4423794871645 550.4808394551853 1105.9325386225335C308.9377997059555 1165.4226977579024 -118.63277638724821 1372.9169174874983 -219.6462952168792 1251.0901700323047C-320.65981404651023 1129.263422577111 26.414283240364284 835.2424514624192 65.61594907295807 521.1641508376028C104.81761490555186 207.08585021278645 -179.44644427314427 -56.5168075529491 -31.478299220430472 -256.4856729668145C116.48984583228344 -456.4545383806799 556.3531650951234 -555.7228571548848 775.8630453259841 -438.686403148953C995.3729255568448 -321.6499491430212 988.0238654182358 12.742679317598459 1022.1691258877029 305.28930626165834C1056.31438635717 597.8359332057182 1038.0286885861995 798.7367327740176 939.7602955794248 965.5374061825337 "></path><path d="M1000.7149928425449 308.55511753718565C1033.6828305372028 591.0139297590367 1016.0276740686797 784.9871155491189 921.1478463380008 946.0360415987204C826.2680186073219 1107.0849676483224 778.5057891483364 1024.1511882376747 545.2918197352867 1081.5899625752722C312.07785032223717 1139.0287369128698 -100.74891280223534 1339.3679835483417 -198.2792068446377 1221.7421584191893C-295.80950088704003 1104.1163332900364 39.29652407959736 820.2340163517135 77.1464083317569 516.9860019553391C114.99629258391656 213.73798755896462 -159.4655576575833 -40.77492338726279 -16.599762434273316 -233.84831068340873C126.26603278903644 -426.9216979795546 550.9616513876406 -522.766971278787 762.902225403644 -409.7662570661631C974.8427994196477 -296.76554285353933 967.7471551478873 26.096305315334916 1000.7149928425449 308.55511753718565C1033.6828305372028 591.0139297590367 1016.0276740686797 784.9871155491189 921.1478463380008 946.0360415987204 "></path><path d="M979.2608903149653 311.8210508830257C1011.0513052348138 584.1920483826675 994.0266900687382 771.2376203945325 902.535427614155 926.5347990852201C811.0441651595715 1081.831977775907 764.9877296098355 1001.8601190584973 540.1028305329662 1057.2475085983233C315.21793145609695 1112.6348981381493 -82.86501869964434 1305.8191716794972 -176.91208795481805 1192.394268876386C-270.95915720999176 1078.9693660732746 52.17879543640868 805.2257033113203 88.67689810813386 512.8079751433877C125.17500077985915 220.39024697545517 -139.48464052444416 -25.032917151264087 -1.721195130538149 -211.21082632969046C136.0422502633678 -397.38873550811684 545.5701681977362 -489.8109633323765 749.9414359988823 -380.84598891306075C954.3127038000287 -271.88101449374494 947.4704753951166 39.45005338338376 979.2608903149653 311.8210508830257C1011.0513052348138 584.1920483826675 994.0266900687382 771.2376203945325 902.535427614155 926.5347990852201 "></path><path d="M957.8067877873855 315.0869537112874C988.419779932425 577.3701364887206 972.0257060687964 757.4880947223683 883.9230088903089 907.0335260541412C795.8203117118214 1056.5789573859142 751.4696700713346 979.5690193617413 534.9138413306457 1032.9050241037962C318.35801258995684 1086.2410288458511 -64.98112459705334 1272.270329293075 -155.54496906499838 1163.0463488160049C-246.1088135329435 1053.822368338935 65.06106679321988 790.217359753349 100.20738788451081 508.62991781385836C135.35370897580196 227.04247587436782 -119.50372339130502 -9.290941432843397 13.157372173197018 -188.57337249355032C145.81846773769917 -367.8558035542572 540.1786850078315 -456.8549859035443 736.9806465941206 -351.9257512775365C933.7826081804094 -246.99651665152874 927.193795642346 52.80377093385448 957.8067877873855 315.0869537112874C988.419779932425 577.3701364887206 972.0257060687964 757.4880947223683 883.9230088903089 907.0335260541412 "></path><path d="M936.3526852598059 318.35279550439293C965.7882546300359 570.548163559617 950.0247220688545 743.7385080150475 865.3105901664628 887.5321919879061C780.5964582640709 1031.3258759607647 737.9516105328337 957.2778586298296 529.7248521283252 1008.5624785741131C321.49809372381674 1059.8470985183965 -47.09723049446234 1238.7214258714964 -134.17785017517872 1133.6983677204673C-221.25846985589516 1028.6753095694385 77.94333815003108 775.2089551602214 111.73787766088788 504.45179944917254C145.53241717174456 233.694643738124 -99.52280625816587 6.45097325042093 28.0359394769323 -165.93597969256643C155.5946852120304 -338.3229326355538 534.7872018179269 -423.8990695098683 724.0198571893586 -323.0055746771685C913.2525125607904 -222.11207984446872 906.9171158895756 66.15742744916895 936.3526852598059 318.35279550439293C965.7882546300359 570.548163559617 950.0247220688545 743.7385080150475 865.3105901664628 887.5321919879061 "></path><path d="M914.8985522146479 321.61860677992047C943.156698810069 563.7261601129353 928.0237075513348 729.9888907901486 846.6981409250386 868.0308274040931C765.3725742987426 1006.0727640180373 724.4335204767549 934.9866673803394 524.5358324084266 984.2199025268517C324.6381443400984 1033.4531376733637 -29.213366909449462 1205.1724919323399 -112.81076180293724 1104.350356107352C-196.40815669642495 1003.5282202823641 90.82557898926427 760.2005200495157 123.2683369196867 500.27365056690905C155.71109485010925 240.34678108430228 -79.54191964260485 22.19285741610736 42.91447626308934 -143.29861740916067C165.37087216878354 -308.7900922344285 529.3956881104442 -390.94318363377045 711.0590372670185 -294.08542859437864C892.7223864235932 -197.22767355498684 886.6404056192268 79.51105344690541 914.8985522146479 321.61860677992047C943.156698810069 563.7261601129353 928.0237075513348 729.9888907901486 846.6981409250386 868.0308274040931 "></path><path d="M893.4444496870683 324.8845401257603C920.5251735076799 556.9042787365663 906.022723551393 716.2393956355625 828.0857222011925 848.5295848905923C750.148720850992 980.8197741456222 710.915460938254 912.6955982011618 519.3468432061061 959.8774485499027C327.7782254739582 1007.0592988986434 -11.329472806858462 1171.6236800634956 -91.44364291311757 1075.0024665645487C-171.55781301937668 978.3812530656021 103.70785034607547 745.1922070091223 134.79882669606377 496.0956237549576C165.88980304605184 246.99904050079283 -59.561002509465766 37.93486365210606 57.79304356682451 -120.66113305544229C175.1470896431149 -279.25712976299076 524.0042049205397 -357.9871756873601 698.0982478622568 -265.16516044127627C872.1922908039737 -172.3431451951925 866.3637258664564 92.86480151495414 893.4444496870683 324.8845401257603C920.5251735076799 556.9042787365663 906.022723551393 716.2393956355625 828.0857222011925 848.5295848905923 "></path><path d="M871.9903471594885 328.1504734716002C897.8936482052909 550.0823973601973 884.0217395514514 702.4899004809763 809.4733034773467 829.0283423770918C734.9248674032419 955.5667842732075 697.3974013997531 890.4045290219844 514.1578540037856 935.5349945729538C330.91830660781807 980.6654601239234 6.554421295732482 1138.0748681946513 -70.0765240232979 1045.6545770217458C-146.70746934232835 953.2342858488403 116.59012170288679 730.1838939687291 146.32931647244072 491.9175969430064C176.06851124199466 253.6512999172836 -39.58008537632662 53.676869888104875 72.67161087055979 -98.02364870172403C184.92330711744603 -249.724167291553 518.612721730635 -325.03116774094974 685.1374584574951 -236.2448922881739C851.6621951843549 -147.45861683539806 846.087046113686 106.2185495830031 871.9903471594885 328.1504734716002C897.8936482052909 550.0823973601973 884.0217395514514 702.4899004809763 809.4733034773467 829.0283423770918 "></path><path d="M850.5362446319089 331.41631526470576C875.2621229029021 543.2604244310937 862.0207555515099 688.7403137736555 790.8608847535006 809.5270083108567C719.7010139554914 930.313702848058 683.8793418612522 868.1133682900725 508.9688648014651 911.1924490432705C334.05838774167796 954.2715297964687 24.43831539832354 1104.5259647730725 -48.7094051334783 1016.306595926208C-121.85712566528002 928.0872270793438 129.472393059698 715.1754893756015 157.85980624881768 487.7394785783208C186.24721943793736 260.3034677810398 -19.599168243187478 69.41878457136932 87.55017817429496 -75.38625590074014C194.6995245917774 -220.1912963728496 513.2212385407305 -292.07525134727376 672.1766690527331 -207.3247156878059C831.1320995647357 -122.5741800283381 825.8103663609154 119.57220609831757 850.5362446319089 331.41631526470576C875.2621229029021 543.2604244310937 862.0207555515099 688.7403137736555 790.8608847535006 809.5270083108567 "></path><path d="M829.082142104329 334.68221809296756C852.630597600513 536.4385125371468 840.019771551568 674.9907881014913 772.2484660296545 790.025735279778C704.4771605077412 905.060682458065 670.3612823227513 845.822268593317 503.7798755991446 886.8499645487436C337.19846887553774 927.8776605041703 42.32220950091448 1070.9771223866503 -27.342286243658634 986.958675865827C-97.00678198823175 902.9402293450039 142.3546644165093 700.1671458176302 169.39029602519463 483.56142124879125C196.42592763388006 266.95569667995244 0.3817488899516661 85.16076028979 102.42874547803018 -52.7488020646C204.47574206610875 -190.6583644189899 507.82975535082585 -259.11927391844154 659.2158796479712 -178.40447805228166C810.6020039451166 -97.68968218612184 805.5336866081448 132.92592364878828 829.082142104329 334.68221809296756C852.630597600513 536.4385125371468 840.019771551568 674.9907881014913 772.2484660296545 790.025735279778 "></path><path d="M807.6280395767494 337.9481514388074C829.9990722981242 529.6166311607776 818.0187875516265 661.2412929469047 753.6360473058085 770.5244927662775C689.2533070599907 879.8076925856499 656.8432227842504 823.5311994141391 498.5908863968241 862.5075105717947C340.3385500093975 901.48382172945 60.20610360350548 1037.428310517806 -5.97516735383897 957.6107863230238C-72.15643831118342 877.7932621282418 155.2369357733205 685.158832777237 180.9207858015717 479.3833944368399C206.60463582982277 273.6079560964431 20.36266602309081 100.9027665257887 117.3073127817654 -30.111317710881735C214.25195954044 -161.12540194755212 502.4382721609213 -226.16326597203118 646.2550902432095 -149.48420989917935C790.0719083254976 -72.80515382632746 785.2570068553744 146.27967171683713 807.6280395767494 337.9481514388074C829.9990722981242 529.6166311607776 818.0187875516265 661.2412929469047 753.6360473058085 770.5244927662775 "></path><path d="M786.1739370491696 341.2140847846474C807.3675469957352 522.7947497844086 796.0178035516847 647.4917977923187 735.0236285819624 751.023250252777C674.0294536122404 854.5547027132352 643.3251632457496 801.2401302349617 493.4018971945036 838.1650565948457C343.4786311432574 875.08998295473 78.08999770609648 1003.8794986489618 15.391951535980695 928.2628967802209C-47.30609463413515 852.64629491148 168.11920713013183 670.1505197368438 192.45127557794865 475.2053676248887C216.78334402576547 280.26021551293366 40.343583156229954 116.64477276178752 132.18588008550057 -7.473833357163414C224.02817701477125 -131.59243947611435 497.04678897101667 -193.20725802562083 633.2943008384476 -120.56394174607698C769.5418127058783 -47.920625466533124 764.980327102604 159.63341978488597 786.1739370491696 341.2140847846474C807.3675469957352 522.7947497844086 796.0178035516847 647.4917977923187 735.0236285819624 751.023250252777 "></path><path d="M764.7198345215897 344.4798960601747C784.7360216933464 515.972746337727 774.0168195517431 633.7421805674198 716.4112098581168 731.5218856689635C658.8056001644901 829.3015907705076 629.8071037072488 778.9489389854716 488.2129079921831 813.8224805475843C346.6187122771173 848.696022109697 95.97389180868748 970.330564709805 36.7590704258003 898.9148851671052C-22.45575095708682 827.4992056244055 181.00147848694303 655.1420846261381 203.9817653543256 471.0272187426249C226.9620522217083 286.9123528591118 60.3245002893691 132.38665692747372 147.0644473892358 15.16352892624235C233.8043944891026 -102.05959907498908 491.65530578111225 -160.25137214952292 620.3335114336858 -91.64379566328711C749.0117170862593 -23.036219177051237 744.7036473498333 172.98704578262243 764.7198345215897 344.4798960601747C784.7360216933464 515.972746337727 774.0168195517431 633.7421805674198 716.4112098581168 731.5218856689635 "></path><path d="M743.2657319940099 347.7457988884365C762.1044963909574 509.1508344437799 752.0158355518015 619.9926548952553 697.7987911342706 712.020612637885C643.5817467167398 804.0485703805145 616.289044168748 756.6578392887159 483.0239187898626 789.4799960530572C349.758793410977 822.3021528173988 113.85778591127848 936.7817223233828 58.12618931561997 869.5669651067242C2.3945927199615085 802.3522078900655 193.8837498437543 640.1337410681667 215.51225513070267 466.84916141309554C237.14076041765088 293.56458175802436 80.30541742250819 148.1286326458944 161.94301469297102 37.800982762382546C243.58061196343385 -72.52666712112944 486.2638225912076 -127.29539472069075 607.3727220289239 -62.72355802776286C728.4816214666403 1.8482786651650258 724.4269675970627 186.34076333309315 743.2657319940099 347.7457988884365C762.1044963909574 509.1508344437799 752.0158355518015 619.9926548952553 697.7987911342706 712.020612637885 "></path><path d="M721.8115989488522 351.0116711991202C739.4729405709903 502.32889203225454 730.0148210342816 606.2430987055129 679.1863418928464 692.519309089228C628.3578627514113 778.7955194729434 602.770954112669 734.366709074382 477.83489906996385 765.1374810409523C352.89884402725875 795.9082530075223 131.74164949629136 903.2328494193821 79.49327768786151 840.219014528765C27.244905879431656 777.2051796381475 206.76599068298742 625.1253669926173 227.0427143895015 462.6710735659881C247.31943809601557 300.2167801393589 100.2863040380692 163.87057784673698 176.82155147912812 60.43840608094456C253.35679892018698 -42.993765684847915 480.8723088837248 -94.33944780943659 594.411902106584 -33.80335090981674C707.951495329443 26.732745989803163 704.1502573267142 199.69445036598574 721.8115989488522 351.0116711991202C739.4729405709903 502.32889203225454 730.0148210342816 606.2430987055129 679.1863418928464 692.519309089228 "></path><path d="M700.3575269388506 354.27754350980376C716.8414457861795 495.5069496207293 708.013867551918 592.4935425157704 660.5739536865785 673.0180055405713C613.1340398212391 753.542468565372 589.2529250917463 712.0755788600482 472.6459403852215 740.794966028847C356.03895567869677 769.514353197646 149.62557411646048 869.6839765153818 100.8604270952593 810.8710639508056C52.09528007405811 752.0581513862292 219.6482925573768 610.1169929170677 238.57323468345658 458.4929857188805C257.4981768095364 306.8689785206932 120.26725168878647 179.61252304757954 191.70014930044147 83.07582939950657C263.13304691209635 -13.460864248566395 475.4808562113984 -61.38350089818249 581.4511432194001 -4.883143791870623C687.421430227402 51.6172133144413 683.8736080915218 213.04813739887845 700.3575269388506 354.27754350980376C716.8414457861795 495.5069496207293 708.013867551918 592.4935425157704 660.5739536865785 673.0180055405713 "></path><path d="M678.9033938936927 357.5434768556437C694.2098899662125 488.6850682443603 686.0128530343982 578.7440473611841 641.9615044451544 653.5167630270706C597.9101558559107 728.2894786929571 575.7348350356673 689.7845096808705 467.45692066532285 716.4525120518981C359.1790062949784 743.1205144229257 167.5094377014733 836.1351646465375 122.22751546750078 781.5231744080024C76.94559323352826 726.9111841694676 232.53053339660994 595.1086798766745 250.1036939422554 454.3149589069292C267.676854487901 313.52123793718397 140.2481383043475 195.35452928357836 206.5786860865985 105.71331375322484C272.9092338688496 16.072098222871375 470.08934250391576 -28.427492951772138 568.4903232970603 24.037124361231747C666.8913040902047 76.50174167423563 663.596897821173 226.4018854669273 678.9033938936927 357.5434768556437C694.2098899662125 488.6850682443603 686.0128530343982 578.7440473611841 641.9615044451544 653.5167630270706 "></path><path d="M657.449291366113 360.80934916632737C671.5783646638235 481.86312583283484 664.0118690344565 564.9944911714415 623.3490857213084 634.0154594784137C582.6863024081604 703.0364277853859 562.2167754971665 667.4933794665369 462.26793146300236 692.109997039793C362.3190874288382 716.726614613049 185.3933318040643 802.586291742537 143.59463435732044 752.1752238300433C101.79593691057659 701.7641559175493 245.4128047534212 580.100305801125 261.6341837186324 450.1368710598217C277.8555626838437 320.17343631851827 160.22905543748664 211.09647448442092 221.45725339033373 128.35073707178685C282.68545134318083 45.60499965915295 464.6978593140111 4.528453959481965 555.5295338922983 52.95733147917787C646.3612084705857 101.38620899887377 643.3202180684025 239.7555724998199 657.449291366113 360.80934916632737C671.5783646638235 481.86312583283484 664.0118690344565 564.9944911714415 623.3490857213084 634.0154594784137 "></path><path d="M635.9951735797442 364.07522147701104C648.9468241026455 475.0411834213096 642.0108697757257 551.2449349816991 604.7366517386733 614.5141559297568C567.462433701621 677.7833768778147 548.6987006998766 645.2022492522032 457.0789270018928 667.7674820276878C365.45915330390903 690.3327148031726 203.27721064786624 769.0374188385367 164.96173798835105 722.8272732520838C126.64626532883585 676.6171276656311 258.2950608514434 565.0919317255755 273.16465823622036 445.95878321271414C288.0342556209973 326.8256346998528 180.20995731183672 226.83841968526337 236.3358054352799 150.98816039034892C292.461653558723 75.13790109543447 459.3063608653175 37.48440087073607 542.5687292287475 81.87753859712399C625.8310975921775 126.2706763235119 623.043523056843 253.10925953271249 635.9951735797442 364.07522147701104C648.9468241026455 475.0411834213096 642.0108697757257 551.2449349816991 604.7366517386733 614.5141559297568 "></path><path d="M614.5410710521645 367.3410937876947C626.3152988002565 468.21924100978435 620.009885775784 537.4953787919566 586.1242330148273 595.0128523811C552.2385802538706 652.5303259702434 535.1806411613757 622.9111190378694 451.8899377995723 643.4249670155828C368.5992344377689 663.9388149932961 221.16110475045724 735.4885459345361 186.3288568781707 693.4793226741244C151.49660900588412 651.4700994137129 271.17733220825465 550.083557650026 284.6951480125973 441.78069536560656C298.21296381694003 333.4778330811871 200.19087444497586 242.58036488610594 251.21437273901506 173.62558370891094C302.2378710330544 104.67080253171599 453.914877675413 70.44034778199017 529.6079398239856 110.7977457150701C605.3010019725583 151.15514364815 602.7668433040724 266.4629465656051 614.5410710521645 367.3410937876947C626.3152988002565 468.21924100978435 620.009885775784 537.4953787919566 586.1242330148273 595.0128523811 "></path><path d="M593.0869685245848 370.60702713353464C603.6837734978676 461.39735963341525 598.0089017758423 523.7458836373703 567.5118142909812 575.5116098675994C537.0147268061203 627.2773360978285 521.6625816228748 600.6200498586918 446.7009485972518 619.0825130386338C371.7393155716287 637.5449762185759 239.04499885304824 701.9397340656918 207.69597576799032 664.1314331313214C176.34695268293245 626.323132196951 284.0596035650659 535.0752446096328 296.2256377889743 437.60266855365535C308.39167201288274 340.13009249767777 220.17179157811495 258.3223711221047 266.0929400427503 196.26306806262926C312.0140885073856 134.20376500315376 448.52339448550833 103.39635572840052 516.6471504192239 139.71801386817248C584.7709063529392 176.03967200794438 582.490163551302 279.8166946336539 593.0869685245848 370.60702713353464C603.6837734978676 461.39735963341525 598.0089017758423 523.7458836373703 567.5118142909812 575.5116098675994 "></path><path d="M571.6328507382159 373.87288418542926C581.0522329366896 454.57540196310083 576.0079025171117 509.9963121888386 548.8993803083463 556.0102910601535C521.7908580995809 602.0242699314682 508.1445068255849 578.3289043855689 441.51194413614223 594.7399827677395C374.8793814466994 611.1510611499103 256.9288776968502 668.3908459029024 229.06307939902092 634.783467294573C201.19728110119166 601.1760886862437 296.94185966308805 520.0668552752943 307.7561123065623 433.4245654477587C318.5703649500364 346.7822756202231 240.15269345246503 274.06430106415814 280.97149208769645 218.9004761224022C321.79029072292786 163.73665118064622 443.13189603681474 136.35228738086556 503.68634575567285 168.63820572732953C564.2407954745311 200.92412407379345 562.2134685397423 293.1703664077575 571.6328507382159 373.87288418542926C581.0522329366896 454.57540196310083 576.0079025171117 509.9963121888386 548.8993803083463 556.0102910601535 "></path><path d="M550.1787482106363 377.13878701369094C558.4207076343007 447.7534900691537 554.0069185171699 496.2467865166743 530.2869615845002 536.5090180290747C506.56700465183053 576.7712495414751 494.62644728708415 556.0378046888131 436.3229549338216 570.3974982732126C378.0194625805593 584.757191857612 274.8127717994412 634.84200351648 250.4301982888406 605.4355472341919C226.04762477824 576.0290909519036 309.82413101989937 505.058511717323 319.2866020829392 429.24650811822926C328.74907314597914 353.43450451913566 260.1336105856042 289.80627678257883 295.85005939143167 241.53792995854235C331.5665081972591 193.26958313450587 437.7404128469102 169.3082648096978 490.725556350911 197.55844336285378C543.7106998549119 225.8086219160097 541.9367887869719 306.5240839582283 550.1787482106363 377.13878701369094C558.4207076343007 447.7534900691537 554.0069185171699 496.2467865166743 530.2869615845002 536.5090180290747 "></path><path d="M528.7246456830565 380.40468984195275C535.7891823319118 440.9315781752065 532.0059345172283 482.4972608445098 511.6745428606541 517.0077449979959C491.3431512040802 551.518229151482 481.10838774858325 533.7467049920575 431.1339657315011 546.0550137786856C381.1595437144191 558.3633225653136 292.6966659020322 601.2931611300576 271.79731717866025 576.0876271738107C250.89796845528826 550.8820932175637 322.70640237671057 490.05016815935164 330.81709185931624 425.0684507886999C338.92778134192184 360.0867334180482 280.1145277187433 305.5482525009995 310.7286266951669 264.1753837946825C341.3427256715904 222.8025150883655 432.34892965700556 202.26424223853002 477.76476694614917 226.47868099837797C523.1806042352928 250.69311975822598 521.6601090342012 319.877801508699 528.7246456830565 380.40468984195275C535.7891823319118 440.9315781752065 532.0059345172283 482.4972608445098 511.6745428606541 517.0077449979959 "></path><path d="M507.27054315547684 383.6705621526364C513.1576570295229 434.10963576368124 510.0049505172865 468.7477046547674 493.06212413680817 497.50644144933904C476.11929775632984 526.2651782439108 467.59032821008236 511.45557477772377 425.9449765291807 521.7124987665804C384.299624848279 531.9694227554371 310.5805600046232 567.744288226057 293.16443606847986 546.7396765958513C275.7483121323366 525.7350649656455 335.58867373352183 475.0417940838021 342.3475816356932 420.89036294159234C349.10648953786455 366.7389317993826 300.09544485188246 321.29019770184203 325.60719399890206 286.8128071132445C351.1189431459217 252.33541652464703 426.957446467101 235.22018914978418 464.8039775413873 255.3988881163241C502.65050861567374 275.57758708286406 501.3834292814307 333.2314885415916 507.27054315547684 383.6705621526364C513.1576570295229 434.10963576368124 510.0049505172865 468.7477046547674 493.06212413680817 497.50644144933904 "></path><path d="M485.81642536910795 386.9364344633201C490.52611646834475 427.2876933521559 488.00395125855584 454.99814846502477 474.44969015417314 478.00513790068226C460.89542904979044 501.0121273363395 454.07225341279246 489.1644445633899 420.7559720680711 497.36998375447524C387.4396907233497 505.5755229455606 328.46443884842506 534.1954153220566 314.53153969951046 517.391726017892C300.59864055059586 500.5880367137273 348.470929831544 460.0334200082526 353.87805615328114 416.7122750944848C359.2851824750182 373.391130180717 320.07634672623254 337.03214290268454 340.4857460438482 309.4502304318066C360.8951453614639 281.8683179609286 421.56594801840737 268.1761360610383 451.8431728778364 284.3190952342702C482.12039773726553 300.4620544075022 481.10673426987114 346.5851755744842 485.81642536910795 386.9364344633201C490.52611646834475 427.2876933521559 488.00395125855584 454.99814846502477 474.44969015417314 478.00513790068226 "></path><path d="M464.3623228415282 390.20233729158184C467.8945911659559 420.4657814582087 466.00296725861415 441.2486227928604 455.83727143032706 458.50386486960343C445.6715756020401 475.7591069463465 440.5541938742916 466.8733448666342 415.56698286575056 473.0274992599483C390.57977185720955 479.1816536532623 346.34833295101606 500.64657293563425 335.8986585893301 488.0438059575108C325.44898422764413 475.4410389793873 361.3532011883553 445.0250764502813 365.4085459296581 412.53421776495543C369.46389067096095 380.04335907962957 340.05726385937163 352.77411862110523 355.36431334758345 332.0876842679467C370.6713628357952 311.40124991478825 416.1744648285028 301.1321134898705 438.8823834730746 313.23933286979445C461.5903021176464 325.34655224971846 460.8300545171006 359.938893124955 464.3623228415282 390.20233729158184C467.8945911659559 420.4657814582087 466.00296725861415 441.2486227928604 455.83727143032706 458.50386486960343 "></path><path d="M442.9082203139485 393.4682248610546C445.2630658635669 413.6438543054725 444.00198325867245 427.4990818619069 437.2248527064811 439.00257657973566C430.44772215428975 450.5060712975643 427.03613433579073 444.5822299110895 410.37799366343006 448.68499950663215C393.7198529910694 452.7877691021748 364.23222705360706 467.09771529042285 357.2657774791498 458.6958706383405C350.29932790469246 450.2940259862582 374.23547254516654 430.01671763352084 376.9390357060351 408.3561451766369C379.64259886690365 386.69557271975305 360.0381809925108 368.5160790807368 370.2428806513186 354.7251228452978C380.4475803101265 340.93416660985883 410.78298163859824 334.08807565991367 425.92159406831274 342.15955524652964C441.0602064980273 350.2310348331456 440.5533747643301 373.29259541663663 442.9082203139485 393.4682248610546C445.2630658635669 413.6438543054725 444.00198325867245 427.4990818619069 437.2248527064811 439.00257657973566 "></path><path d="M421.4541025275797 396.73411243052726C422.6315253023889 406.82192715273624 422.0009839999417 413.74954093095346 418.612418723846 419.50128828986783C415.22385344775034 425.25303564878215 413.51805953850084 422.29111495554474 405.1889892023205 424.3424997533161C396.85991886614016 426.3938845510874 382.116105897409 433.54885764521146 378.63288111018034 429.34793531917023C375.14965632295167 425.1470129931291 387.11772864318874 415.0083588167604 388.469510223623 404.17807258831846C389.8212918040573 393.3477863598765 380.01908286686086 384.25803954036843 385.1214326962648 377.3625614226489C390.2237825256687 370.4670833049294 405.3914831899046 367.04403782995684 412.96078940476184 371.0797776232648C420.5300956196191 375.1155174165728 420.2766797527705 386.64629770831834 421.4541025275797 396.73411243052726C422.6315253023889 406.82192715273624 422.0009839999417 413.74954093095346 418.612418723846 419.50128828986783 "></path></g></svg>