<svg xmlns="http://www.w3.org/2000/svg" version="1.1" xmlns:xlink="http://www.w3.org/1999/xlink" xmlns:svgjs="http://svgjs.dev/svgjs" viewBox="0 0 800 800"><g fill="hsl(226, 34%, 26%)"><path d="M189 319H239C267 319 289 341 289 369H239C211 369 189 347 189 319Z " transform="matrix(-0.33373272405807114,0.10203233315132926,-0.10203233315132926,-0.33373272405807114,353.8612436539363,434.4183294528088)" opacity="0.53"></path><path d="M315 623H365C393 623 415 645 415 673H365C337 673 315 651 315 623Z " transform="matrix(-0.25928794998013466,0.18838372265989467,-0.18838372265989467,-0.25928794998013466,581.7127540263609,747.2585328162658)" opacity="0.49"></path><path d="M615 211H665C693 211 715 233 715 261H665C637 261 615 239 615 211Z " transform="matrix(-0.3723464869825372,0.013002625842979128,-0.013002625842979128,-0.3723464869825372,915.6790335423302,315.22702474229766)" opacity="0.57"></path><path d="M635 408H685C713 408 735 430 735 458H685C657 458 635 436 635 408Z " transform="matrix(-0.3733523895291296,0.006516890200336112,-0.006516890200336112,-0.3733523895291296,943.5682002841994,590.1975148788829)" opacity="0.57"></path><path d="M294 299H344C372 299 394 321 394 349H344C316 349 294 327 294 299Z " transform="matrix(-0.2633437224432759,0.18439525959498748,-0.18439525959498748,-0.2633437224432759,494.3343046292629,345.89139677094573)" opacity="0.49"></path><path d="M488 642H538C566 642 588 664 588 692H538C510 692 488 670 488 642Z " transform="matrix(-0.33986763877647386,0.09106725934362879,-0.09106725934362879,-0.33986763877647386,781.5906516439433,844.6975295370358)" opacity="0.54"></path><path d="M406 15H456C484 15 506 37 506 65H456C428 65 406 43 406 15Z " transform="matrix(0.016095103881768005,0.23017070898027236,-0.23017070898027236,0.016095103881768005,457.8674609891247,-65.60164745027491)" opacity="0.35"></path><path d="M98 281H148C176 281 198 303 198 331H148C120 331 98 309 98 281Z " transform="matrix(-0.37821568212640577,-0.1605430321581963,0.1605430321581963,-0.37821568212640577,154.84975311429997,445.4943674900933)" opacity="0.63"></path><path d="M489 463H539C567 463 589 485 589 513H539C511 513 489 491 489 463Z " transform="matrix(-0.33986763877647386,0.09106725934362879,-0.09106725934362879,-0.33986763877647386,766.6294798602103,604.7701549367033)" opacity="0.54"></path><path d="M131 32H181C209 32 231 54 231 82H181C153 82 131 60 131 32Z " transform="matrix(-0.14167685387713758,0.24539150917171407,-0.24539150917171407,-0.14167685387713758,220.6308265745496,20.659717510916586)" opacity="0.43"></path><path d="M320 523H370C398 523 420 545 420 573H370C342 573 320 551 320 523Z " transform="matrix(-0.2592384976062412,0.18834779340715022,-0.18834779340715022,-0.2592384976062412,569.1328349014276,620.3740131275746)" opacity="0.49"></path><path d="M571 638H621C649 638 671 660 671 688H621C593 688 571 666 571 638Z " transform="matrix(-0.3681932215261471,0.025746578160534245,-0.025746578160534245,-0.3681932215261471,866.7179718881714,891.1234808341438)" opacity="0.57"></path><path d="M219 112H269C297 112 319 134 319 162H269C241 162 219 140 219 112Z " transform="matrix(-0.19193994574717296,0.2287451199065311,-0.2287451199065311,-0.19193994574717296,351.9699268331842,101.76333531250583)" opacity="0.46"></path><path d="M443 368H493C521 368 543 390 543 418H493C465 418 443 396 443 368Z " transform="matrix(-0.31214211404562875,0.1324964664907959,-0.1324964664907959,-0.31214211404562875,698.9571735553777,450.35109283996974)" opacity="0.52"></path><path d="M102 624H152C180 624 202 646 202 674H152C124 674 102 652 102 624Z " transform="matrix(-0.3832928726606188,-0.1099074626296707,0.1099074626296707,-0.3832928726606188,138.93057339775777,914.4630086764516)" opacity="0.61"></path><path d="M709 359H759C787 359 809 381 809 409H759C731 409 709 387 709 359Z " transform="matrix(-0.3645805727488723,0.03831896229149265,-0.03831896229149265,-0.3645805727488723,1050.4311362363271,494.91484755632405)" opacity="0.56"></path><path d="M541 373H591C619 373 641 395 641 423H591C563 423 541 401 541 373Z " transform="matrix(-0.35982844442923634,0.05057058992974806,-0.05057058992974806,-0.35982844442923634,823.7857054497185,511.324502234355)" opacity="0.56"></path><path d="M690 26H740C768 26 790 48 790 76H740C712 76 690 54 690 26Z " transform="matrix(-0.12654351946244127,0.24835564070058277,-0.24835564070058277,-0.12654351946244127,846.3083420779362,-126.32945462584675)" opacity="0.43"></path><path d="M395 282H445C473 282 495 304 495 332H445C417 332 395 310 395 282Z " transform="matrix(-0.2810978510525723,0.16890062879076564,-0.16890062879076564,-0.2810978510525723,621.9410367571597,318.136260461249)" opacity="0.50"></path><path d="M539 730H589C617 730 639 752 639 780H589C561 780 539 758 539 730Z " transform="matrix(-0.35982844442923634,0.05057058992974806,-0.05057058992974806,-0.35982844442923634,839.1197491657799,996.8843980754518)" opacity="0.56"></path><path d="M338 397H388C416 397 438 419 438 447H388C360 447 338 425 338 397Z " transform="matrix(-0.26313797718226895,0.18425119521227948,-0.18425119521227948,-0.26313797718226895,567.8515395263023,461.55476262855314)" opacity="0.49"></path><path d="M344 96H394C422 96 444 118 444 146H394C366 146 344 124 344 96Z " transform="matrix(-0.10184381688814367,0.25207229228158096,-0.25207229228158096,-0.10184381688814367,464.62721121999994,34.00661868452249)" opacity="0.42"></path><path d="M475 84H525C553 84 575 106 575 134H525C497 134 475 112 475 84Z " transform="matrix(-0.15148253880668025,0.24242273739913137,-0.24242273739913137,-0.15148253880668025,630.9524112500125,-1.7603404046158175)" opacity="0.44"></path><path d="M646 631H696C724 631 746 653 746 681H696C668 681 646 659 646 631Z " transform="matrix(-0.3733523895291296,0.006516890200336112,-0.006516890200336112,-0.3733523895291296,960.1283430836945,896.383411951675)" opacity="0.57"></path><path d="M264 18H314C342 18 364 40 364 68H314C286 68 264 46 264 18Z " transform="matrix(0.049034225856634736,0.21239056631221376,-0.21239056631221376,0.049034225856634736,307.73604743244186,-25.79910953387042)" opacity="0.33"></path><path d="M236 491H286C314 491 336 513 336 541H286C258 541 236 519 236 491Z " transform="matrix(-0.2890482349929676,0.16022205296304898,-0.16022205296304898,-0.2890482349929676,451.342374536922,619.3253821089393)" opacity="0.51"></path><path d="M71 508H121C149 508 171 530 171 558H121C93 558 71 536 71 508Z " transform="matrix(-0.3591674312992245,-0.22443272002288422,0.22443272002288422,-0.3591674312992245,44.83661941500887,751.5926000052557)" opacity="0.65"></path><path d="M401 649H451C479 649 501 671 501 699H451C423 699 401 677 401 649Z " transform="matrix(-0.2897621092654329,0.16061775993387575,-0.16061775993387575,-0.2897621092654329,689.9390814741424,796.8610519147238)" opacity="0.51"></path><path d="M422 181H472C500 181 522 203 522 231H472C444 231 422 209 422 181Z " transform="matrix(-0.30114696121431545,0.14687918693180108,-0.14687918693180108,-0.30114696121431545,644.3984782011079,198.70929777833888)" opacity="0.51"></path><path d="M4 129H54C82 129 104 151 104 179H54C26 179 4 157 4 129Z " transform="matrix(-0.27412872613809264,-0.36378110647895534,0.36378110647895534,-0.27412872613809264,12.780660813697878,215.86000357512984)" opacity="0.70"></path><path d="M-6 711H44C72 711 94 733 94 761H44C16 761 -6 739 -6 711Z " transform="matrix(-0.1186411229393789,-0.47584355381854293,0.47584355381854293,-0.1186411229393789,-301.00064620111493,844.2569828513988)" opacity="0.75"></path></g><g fill="none" stroke-width="3" stroke="hsl(226, 34%, 26%)"><path d="M605 101H655C683 101 705 123 705 151H655C627 151 605 129 605 101Z " transform="matrix(-0.25912592053492217,0.18826600137715865,-0.18826600137715865,-0.25912592053492217,848.4489941238959,35.33563508536126)" opacity="0.49"></path><path d="M704 468H754C782 468 804 490 804 518H754C726 518 704 496 704 468Z " transform="matrix(-0.3645805727488723,0.03831896229149265,-0.03831896229149265,-0.3645805727488723,1047.7850002623554,643.8457247974086)" opacity="0.56"></path><path d="M624 542H674C702 542 724 564 724 592H674C646 592 624 570 624 542Z " transform="matrix(-0.373282370144402,0.0065156680074294595,-0.0065156680074294595,-0.373282370144402,929.2867012375395,774.2595436348686)" opacity="0.57"></path><path d="M710 562H760C788 562 810 584 810 612H760C732 612 710 590 710 562Z " transform="matrix(-0.3645805727488723,0.03831896229149265,-0.03831896229149265,-0.3645805727488723,1059.5744661542492,771.8863848620538)" opacity="0.56"></path><path d="M524 553H574C602 553 624 575 624 603H574C546 603 524 581 524 553Z " transform="matrix(-0.35436541640132996,0.06248418394154444,-0.06248418394154444,-0.35436541640132996,813.5216073325761,746.9572890975222)" opacity="0.55"></path><path d="M174 718H224C252 718 274 740 274 768H224C196 768 174 746 174 718Z " transform="matrix(-0.349390201866473,0.07426517998993244,-0.07426517998993244,-0.349390201866473,357.44243395060977,985.9615196690446)" opacity="0.55"></path><path d="M422 558H472C500 558 522 580 522 608H472C444 608 422 586 422 558Z " transform="matrix(-0.30114696121431545,0.14687918693180108,-0.14687918693180108,-0.30114696121431545,699.7719316743969,689.2417021561357)" opacity="0.51"></path><path d="M-2 591H48C76 591 98 613 98 641H48C20 641 -2 619 -2 591Z " transform="matrix(-0.1186411229393789,-0.47584355381854293,0.47584355381854293,-0.1186411229393789,-239.42485525113227,711.9234223139474)" opacity="0.75"></path><path d="M526 172H576C604 172 626 194 626 222H576C548 222 526 200 526 172Z " transform="matrix(-0.35436541640132996,0.06248418394154444,-0.06248418394154444,-0.35436541640132996,792.4238640836504,230.8190970807324)" opacity="0.55"></path><path d="M714 656H764C792 656 814 678 814 706H764C736 706 714 684 714 656Z " transform="matrix(-0.3645805727488723,0.03831896229149265,-0.03831896229149265,-0.3645805727488723,1068.634770900645,900.0036828512816)" opacity="0.56"></path><path d="M703 139H753C781 139 803 161 803 189H753C725 189 703 167 703 139Z " transform="matrix(-0.3090450426505541,0.13759571804042678,-0.13759571804042678,-0.3090450426505541,1008.2766148744973,111.07381131024951)" opacity="0.52"></path><path d="M8 357H58C86 357 108 379 108 407H58C30 407 8 385 8 357Z " transform="matrix(-0.18634818616776366,-0.439008815250291,0.439008815250291,-0.18634818616776366,-98.89317262788089,478.6475184006026)" opacity="0.73"></path><path d="M625 727H675C703 727 725 749 725 777H675C647 777 625 755 625 727Z " transform="matrix(-0.373282370144402,0.0065156680074294595,-0.0065156680074294595,-0.373282370144402,931.8653821890582,1028.3102664435753)" opacity="0.57"></path><path d="M449 732H499C527 732 549 754 549 782H499C471 782 449 760 449 732Z " transform="matrix(-0.31214211404562875,0.1324964664907959,-0.1324964664907959,-0.31214211404562875,755.0587400423012,927.175843553634)" opacity="0.52"></path><path d="M156 528H206C234 528 256 550 256 578H206C178 578 156 556 156 528Z " transform="matrix(-0.36434592785014525,0.038294300118852945,-0.038294300118852945,-0.36434592785014525,302.2320091028556,746.5946722766466)" opacity="0.56"></path><path d="M120 408H170C198 408 220 430 220 458H170C142 458 120 436 120 408Z " transform="matrix(-0.383440456119861,-0.053889041761751,0.053889041761751,-0.383440456119861,211.85092245753816,608.1908545993974)" opacity="0.59"></path><path d="M11 26H61C89 26 111 48 111 76H61C33 76 11 54 11 26Z " transform="matrix(-0.375,4.592425496802574e-17,-4.592425496802574e-17,-0.375,83.875,70.125)" opacity="0.57"></path><path d="M218 612H268C296 612 318 634 318 662H268C240 662 218 640 218 612Z " transform="matrix(-0.30163042952240643,0.14711499018119586,-0.14711499018119586,-0.30163042952240643,442.5492038574267,789.7117662372124)" opacity="0.51"></path><path d="M-6 465H44C72 465 94 487 94 515H44C16 515 -6 493 -6 465Z " transform="matrix(-0.1186411229393789,-0.47584355381854293,0.47584355381854293,-0.1186411229393789,-183.94313196175335,569.0712666083116)" opacity="0.75"></path><path d="M707 737H757C785 737 807 759 807 787H757C729 787 707 765 707 737Z " transform="matrix(-0.3645805727488723,0.03831896229149265,-0.03831896229149265,-0.3645805727488723,1062.1865428370138,1010.8029419799809)" opacity="0.56"></path><path d="M311 194H361C389 194 411 216 411 244H361C333 244 311 222 311 194Z " transform="matrix(-0.25928794998013466,0.18838372265989467,-0.18838372265989467,-0.25928794998013466,495.85898520534556,207.77753716542753)" opacity="0.49"></path><path d="M203 218H253C281 218 303 240 303 268H253C225 268 203 246 203 218Z " transform="matrix(-0.3168813394021873,0.12802837159625519,-0.12802837159625519,-0.3168813394021873,364.2818731666434,287.61098746087896)" opacity="0.52"></path><path d="M264 721H314C342 721 364 743 364 771H314C286 771 264 749 264 721Z " transform="matrix(-0.2768374236925805,0.17298722152703067,-0.17298722152703067,-0.2768374236925805,529.9754182986351,898.2027305151774)" opacity="0.50"></path><path d="M579 471H629C657 471 679 493 679 521H629C601 521 579 499 579 471Z " transform="matrix(-0.3681932215261471,0.025746578160534245,-0.025746578160534245,-0.3681932215261471,873.3638391075714,662.4292402139929)" opacity="0.57"></path><path d="M554 16H604C632 16 654 38 654 66H604C576 66 554 44 554 16Z " transform="matrix(-0.09190057208512357,0.2524947466388388,-0.2524947466388388,-0.09190057208512357,669.8602301516071,-107.73890351436862)" opacity="0.41"></path><path d="M508 272H558C586 272 608 294 608 322H558C530 322 508 300 508 272Z " transform="matrix(-0.3481863818671493,0.07400930015000659,-0.07400930015000659,-0.3481863818671493,774.2687632264211,359.11416593083965)" opacity="0.55"></path><path d="M399 466H449C477 466 499 488 499 516H449C421 516 399 494 399 466Z " transform="matrix(-0.2810978510525723,0.16890062879076564,-0.16890062879076564,-0.2810978510525723,658.143143858871,553.1826625397591)" opacity="0.50"></path><path d="M616 309H666C694 309 716 331 716 359H666C638 359 616 337 616 309Z " transform="matrix(-0.3723464869825372,0.013002625842979128,-0.013002625842979128,-0.3723464869825372,918.3256373619249,449.7039778407434)" opacity="0.57"></path><path d="M354 730H404C432 730 454 752 454 780H404C376 780 354 758 354 730Z " transform="matrix(-0.26761895246854606,0.18051126270848292,-0.18051126270848292,-0.26761895246854606,648.4040601421972,884.1257589795251)" opacity="0.49"></path><path d="M238 400H288C316 400 338 422 338 450H288C260 450 238 428 238 400Z " transform="matrix(-0.2890482349929676,0.16022205296304898,-0.16022205296304898,-0.2890482349929676,439.34026418727046,501.70154861865313)" opacity="0.51"></path><path d="M706 252H756C784 252 806 274 806 302H756C728 302 706 280 706 252Z " transform="matrix(-0.3645805727488723,0.03831896229149265,-0.03831896229149265,-0.3645805727488723,1042.237265552891,349.0196831590692)" opacity="0.56"></path><path d="M1 241H51C79 241 101 263 101 291H51C23 291 1 269 1 241Z " transform="matrix(-0.18634818616776366,-0.439008815250291,0.439008815250291,-0.18634818616776366,-56.272587362021454,337.95806709838996)" opacity="0.73"></path><path d="M107 157H157C185 157 207 179 207 207H157C129 207 107 185 107 157Z " transform="matrix(-0.38348989123882143,-0.053895989414633305,0.053895989414633305,-0.38348989123882143,207.3988428510317,260.25683054356296)" opacity="0.59"></path><path d="M82 727H132C160 727 182 749 182 777H132C104 777 82 755 82 727Z " transform="matrix(-0.3591674312992245,-0.22443272002288422,0.22443272002288422,-0.3591674312992245,10.6366954742887,1051.7190273800375)" opacity="0.65"></path></g></svg>