<svg xmlns="http://www.w3.org/2000/svg" version="1.1" xmlns:xlink="http://www.w3.org/1999/xlink" xmlns:svgjs="http://svgjs.dev/svgjs" viewBox="0 0 800 800"><g stroke-width="2" stroke="hsl(230, 55%, 40%)" fill="none" stroke-linecap="round"><path d="M-1511.2500013542183 668.5940098116298C-1383.8333385759997 571.1202627862924 -1001.5833502413434 76.10652789291277 -746.7500246849061 83.7515276596059C-491.9166991284685 91.39652742629903 -237.0833735720314 680.0615094616695 17.749951984406152 714.4640084117884C272.5832775408437 748.8665073619076 527.416603097281 297.8115211270133 782.2499286537186 290.1665213603202C1037.0832542101562 282.5215215936271 1291.9165797665937 689.6177591700358 1546.7499053230313 668.5940098116298C1801.5832308794684 647.5702604532237 2183.8332192141247 248.119022643508 2311.2498819923426 164.0240252098837 " transform="rotate(0, 400, 400)"></path><path d="M-1476.5000018844612 663.7103529382347C-1351.4000057022101 568.0088558588126 -976.1000171554567 81.99537069076712 -725.9000247909547 89.50137046170221C-475.70003242645225 97.00737023263727 -225.50004006195036 674.9693525946374 24.699952302551765 708.7463515638451C274.8999446670539 742.5233505330528 525.0999370315562 299.669364047884 775.2999293960588 292.163364276949C1025.499921760561 284.65736450601395 1275.699914125063 684.3518523083061 1525.8999064895652 663.7103529382347C1776.0998988540678 643.0688535681633 2151.3998874008203 250.8803655368061 2276.4998835830716 168.31436805652038 " transform="rotate(0, 400, 400)"></path><path d="M-1441.750002414704 658.8269707230429C-1318.9666728284205 564.897723589536 -950.61668406957 87.8844881468246 -705.0500248970033 95.25148792200162C-459.4833657244362 102.61848769717865 -213.91670655186954 669.8774703858085 31.649952620697604 703.0289693741049C277.21661179326475 736.1804683624015 522.7832709658314 301.52748162695787 768.3499301383986 294.1604818517809C1013.9165893109657 286.79348207660394 1259.4832484835324 679.0862201047796 1505.0499076560995 658.8269707230429C1750.6165668286667 638.5677213413062 2118.9665555875167 253.6419830883073 2241.7498851738 172.60498556136022 " transform="rotate(0, 400, 400)"></path><path d="M-1407.000002944947 653.9434054023822C-1286.5333399546312 561.7864082147905 -925.1333509836834 93.77342249741334 -684.2000250030518 101.0014222768323C-443.2666990224202 108.22942205625127 -202.3333730417885 664.7854050715106 38.59995293884322 697.3114040788959C279.53327891947515 729.8374030862811 520.4666049001071 303.38541610056296 761.3999308807388 296.157416321144C1002.3332568613705 288.9294165417251 1243.2665828420022 673.8204047957843 1484.1999088226344 653.9434054023822C1725.133234803266 634.0664060089802 2086.533223774213 256.4034175343397 2206.999886764529 176.89541996073132 " transform="rotate(0, 400, 400)"></path><path d="M-1372.25000347519 649.0598400817215C-1254.1000070808418 558.6750928400452 -899.6500178977968 99.66235684800206 -663.3500251091004 106.75135663166297C-427.0500323204037 113.84035641532388 -190.75003953170744 659.6933397572128 45.549953256989056 691.5938387836869C281.8499460456858 723.4943378101609 518.149938834382 305.24335057416806 754.449931623079 298.1543507905071C990.7499244117753 291.0653510068463 1227.049917200472 668.5545894867889 1463.3499099891683 649.0598400817215C1699.649902777865 629.5650906766541 2054.0998919609096 259.16485198037225 2172.2498883552576 181.18585436010238 " transform="rotate(0, 400, 400)"></path><path d="M-1337.5000040054329 644.1763357962171C-1221.6666742070522 555.5638385004559 -874.1666848119102 105.55135223374704 -642.500025215149 112.5013520216499C-410.8333656183877 119.45135180955275 -179.16670602162662 654.6013354780714 52.49995357513467 685.8763345236341C284.1666131718962 717.1513335691969 515.8332727686575 307.10134608292935 747.4999323654188 300.15134629502654C979.1665919621801 293.20134650712373 1210.8332515589414 663.2888352129498 1442.499911155703 644.1763357962171C1674.1665707524644 625.0638363794843 2021.666560147606 261.9263474615609 2137.4998899459865 185.4763497946297 " transform="rotate(0, 400, 400)"></path><path d="M-1302.7500045356758 639.2928009931345C-1189.2333413332626 552.4525536432886 -848.6833517260236 111.4403171019139 -621.6500253211976 118.2513168940587C-394.61669891637143 125.06231668620349 -167.58337251154558 649.5093006813516 59.44995389328051 680.1587997460033C286.4832802981066 710.8082988106548 513.5166067029329 308.95931107411263 740.549933107759 302.14831128196784C967.5832595125853 295.33731148982304 1194.6165859174112 658.0230504215326 1421.649912322237 639.2928009931345C1648.6832387270633 620.5625515647364 1989.2332283343026 264.6878124251715 2102.749891536715 189.7668147115789 " transform="rotate(0, 400, 400)"></path><path d="M-1268.0000050659187 634.409266190052C-1156.8000084594732 549.3412687861212 -823.2000186401369 117.32928197008076 -600.8000254272462 124.00128176646749C-378.4000322143553 130.67328156285424 -156.00003900146476 644.4172658846321 66.39995421142635 674.4412649683724C288.7999474243172 704.4652640521126 511.1999406372081 310.8172760652958 733.5999338500992 304.14527626890913C955.9999270629896 297.4732764725224 1178.3999202758805 652.7572656301154 1400.7999134887714 634.409266190052C1623.1999067016627 616.0612667499886 1956.7998965209986 267.4492773887821 2067.9998931274436 194.0572796285281 " transform="rotate(0, 400, 400)"></path><path d="M-1233.2500055961616 629.5257924221257C-1124.3666755856839 546.2300449641102 -797.7166855542503 123.21830787340386 -579.9500255332947 129.75130767403255C-362.18336551233915 136.28430747466123 -144.4167054913837 639.3252921230687 73.34995452957196 668.7237912258977C291.11661455052763 698.1222903287268 508.8832745714835 312.6753020916352 726.649934592439 306.1423022910066C944.4165946133944 299.60930249037796 1162.1832546343503 647.4915418738545 1379.9499146553062 629.5257924221257C1597.7165746762616 611.5600429703969 1924.366564707695 270.21080338754894 2033.2498947181725 198.34780558063358 " transform="rotate(0, 400, 400)"></path><path d="M-1198.5000061264045 624.6422271014651C-1091.9333427118943 543.1187295893646 -772.2333524683636 129.1072422239926 -559.1000256393434 135.5012420288632C-345.9666988103228 141.89524183373385 -132.83337198130266 634.233226808771 80.2999548477178 663.0062259306886C293.43328167673803 691.7792250526064 506.5666085057585 314.5332365652403 719.6999353347792 308.1392367603697C932.8332621637996 301.74523695549914 1145.96658899282 642.2257265648592 1359.09991582184 624.6422271014651C1572.2332426508606 607.0587276380709 1891.933232894391 272.97223783358135 1998.499896308901 202.63823998000464 " transform="rotate(0, 400, 400)"></path><path d="M-1163.7500066566474 619.7587838511168C-1059.5000098381047 540.0075362849318 -746.7500193824769 134.99629864489384 -538.2500257453919 141.2512984540064C-329.75003210830664 147.50629826311896 -121.25003847122161 629.1412835647857 87.24995516586341 657.2887827057922C295.74994880294867 685.4362818467987 504.2499424400337 316.3912931091579 712.7499360771194 310.1362933000454C921.2499297142044 303.8812934909328 1129.7499233512895 636.9600333261764 1338.249916988375 619.7587838511168C1546.74991062546 602.5575343760574 1859.4999010810875 275.7337943499263 1963.74989789963 206.9287964496882 " transform="rotate(0, 400, 400)"></path><path d="M-1129.0000071868903 614.8750964601437C-1027.0666769643153 536.8960988398737 -721.2666862965903 140.88511092517007 -517.4000258514404 147.00111073852457C-313.5333654062905 153.11711055187908 -109.66670496114057 624.0490961801754 94.19995548400925 651.5710953402706C298.06661592915907 679.0930945003659 501.9332763743091 318.24910551245046 705.7999368194592 312.133105699096C909.6665972646088 306.01710588574156 1113.5332577097593 631.6940959468684 1317.3999181549093 614.8750964601437C1521.266578600059 598.0560969734188 1827.0665692677835 278.4951067256462 1928.9998994903585 211.21910877874677 " transform="rotate(0, 400, 400)"></path><path d="M-1094.2499924583442 609.9916684685845C-994.6333288317368 533.78492079423 -695.7833379519145 146.77418260486036 -496.5500106987 152.7511824224568C-297.3166834454853 158.72818224005326 -98.08335619227068 618.9571681949792 101.14997106094393 645.8536673741633C300.38329831415876 672.7501665533472 499.6166255673736 320.1071773151572 698.8499528205882 314.1301774975607C898.083280073803 308.1531776799643 1097.3166073270177 626.4284179669746 1296.5499345802323 609.9916684685845C1495.7832618334473 593.5549189701944 1794.633252713269 281.25667850078025 1894.2499163398766 215.50968050721943 " transform="rotate(0, 400, 400)"></path><path d="M-1059.499992988587 605.108118406713C-962.1999959579473 530.6736206782736 -670.300004866028 152.66313221423815 -475.70001080474856 158.50113203607654C-281.10001674346904 164.33913185791494 -86.50002268218987 613.8651181394705 108.09997137908977 640.1361173377433C302.6999654403694 666.407116536016 497.2999595016488 321.9651270475513 691.8999535629282 316.1271272257129C886.4999476242078 310.28912740387455 1081.0999416854875 621.1626179167685 1275.699935746767 605.108118406713C1470.2999298080463 589.0536188966574 1762.1999208999655 284.0181282056018 1859.499917930605 219.80013016537958 " transform="rotate(0, 400, 400)"></path><path d="M-1024.74999351883 600.2245073096851C-929.7666630841578 527.5622595271609 -644.8166717801414 158.55202078845969 -454.8500109107971 164.25102061454004C-264.8833500414529 169.95002044062036 -74.91668917210882 608.7730070488057 115.0499716972356 634.4185062661671C305.0166325665798 660.0640054835285 494.9832934359242 323.8230157447892 684.9499543052684 318.1240159187089C874.9166151746128 312.42501609262854 1064.8832760439573 615.896756831406 1254.8499369133015 600.2245073096851C1444.8165977826457 584.5522577879642 1729.766589086662 286.77951687526706 1824.7499195213336 224.09051878838346 " transform="rotate(0, 400, 400)"></path><path d="M-989.9999940490729 595.3411250944932C-897.3333302103683 524.4511272578843 -619.3333386942547 164.44113824451716 -434.00001101684575 170.00113807483945C-248.66668333943664 175.56113790516173 -63.33335566202777 603.6811248399766 121.99997201538122 628.7011240764268C307.33329969279043 653.721123312877 492.6666273701994 325.68113332386304 677.9999550476084 320.12113349354075C863.3332827250174 314.5611336632185 1048.6666104024266 610.6311246278794 1233.9999380798358 595.3411250944932C1419.333265757245 580.051125561107 1697.333257273358 289.5411344267683 1789.9999211120626 228.3811362932233 " transform="rotate(0, 400, 400)"></path><path d="M-955.2499945793157 590.4575902914107C-864.8999973365788 521.3398424007169 -593.8500056083681 170.33010311268401 -413.1500111228943 175.75110294724826C-232.4500166374205 181.17210278181247 -51.75002215194695 598.5890900432569 128.94997233352706 622.983589298796C309.64996681900084 647.3780885543349 490.3499613044746 327.5390983150462 671.0499557899484 322.118098480482C851.7499502754224 316.6970986459179 1032.449944760896 605.3653398364622 1213.1499392463702 590.4575902914107C1393.849933731844 575.549840746359 1664.8999254600544 292.3025993903789 1755.249922702791 232.6716012101725 " transform="rotate(0, 400, 400)"></path><path d="M-920.4999951095587 585.5740860059062C-832.4666644627894 518.2285880611278 -568.3666725224814 176.219098498429 -392.3000112289428 181.50109833723516C-216.23334993540425 186.78309817604134 -40.16668864186602 593.4970857641155 135.89997265167267 617.2660850387432C311.96663394521147 641.0350843133708 488.03329523875004 329.39709382380755 664.0999565322886 324.1150939850014C840.1666178258272 318.8330941461953 1016.2332791193658 600.0995855626231 1192.2999404129046 585.5740860059062C1368.3666017064434 571.0485864491893 1632.4665936467509 295.06409487156753 1720.49992429352 236.96209664469984 " transform="rotate(0, 400, 400)"></path><path d="M-885.7499956398016 580.6905206852455C-800.0333315889999 515.1172726863823 -542.8833394365947 182.10803284901772 -371.4500113349915 187.25103269206585C-200.0166832333881 192.39403253511395 -28.583355131784856 588.4050204498177 142.8499729698185 611.5485197435341C314.2833010714219 634.6920190372506 485.71662917302524 331.25502829741265 657.1499572746286 326.1120284543646C828.5832853762322 320.9690286113165 1000.0166134778353 594.8337702536278 1171.449941579439 580.6905206852455C1342.8832696810423 566.5472711168633 1600.0332618334473 297.8255293176 1685.7499258842486 241.2525310440709 " transform="rotate(0, 400, 400)"></path><path d="M-850.9999961700445 575.807001140952C-767.5999987152104 512.006003088004 -517.4000063507082 187.99701297597366 -350.6000114410401 193.0010128232637C-183.80001653137197 198.00501267055375 -17.000021621703922 583.3130009118871 149.79997328796435 605.8310002246923C316.5999681976323 628.3489995374975 483.39996310730066 333.1130085473849 650.1999580169688 328.1090087000949C816.999952926637 323.1050088528049 983.7999478363051 589.5680007209996 1150.5999427459733 575.807001140952C1317.3999376556412 562.0460015609044 1567.5999300201438 300.58700953999966 1650.9999274749775 245.54301121980916 " transform="rotate(0, 400, 400)"></path><path d="M-816.2499967002874 570.9234968554476C-735.1666658414209 508.89474874841477 -491.9166732648215 193.88600836171864 -329.75001154708866 198.75100821325063C-167.5833498293557 203.61600806478262 -5.416688111622989 578.2209966327456 156.74997360610996 600.1134959646395C318.9166353238429 622.0059952965335 481.08329704157586 334.9710040561463 643.2499587593088 330.10600420461424C805.4166204770415 325.2410043530823 967.5832821947747 584.3022464471605 1129.7499439125077 570.9234968554476C1291.9166056302406 557.5447472637347 1535.1665982068398 303.3485050211883 1616.249929065706 249.8335066543365 " transform="rotate(0, 400, 400)"></path><path d="M-781.4999972305303 566.0399773111542C-702.7333329676314 505.78347915003656 -466.4333401789349 199.77498848867455 -308.9000116531372 204.5009883444485C-151.36668312733957 209.22698820022242 6.166645398457945 573.1289770948151 163.69997392425557 594.3959764457977C321.2333024500533 615.6629757967805 478.76663097585106 336.8289843061185 636.2999595016488 332.1029844503446C793.8332880274465 327.3769845945707 951.3666165532443 579.0364769145325 1108.899945079042 566.0399773111542C1266.43327360484 553.0434777077759 1502.7332663935363 306.10998524358797 1581.4999306564346 254.12398683007476 " transform="rotate(0, 400, 400)"></path><path d="M-746.7499977607732 561.1564119904936C-670.300000093842 502.6721637752911 -440.9500070930482 205.66392283926328 -288.05001175918574 210.25092269927916C-135.15001642532332 214.83792255929504 17.749978908538992 568.0369117805174 170.6499742424014 588.6784111505888C323.54996957626395 609.3199105206602 476.4499649101265 338.6869187797236 629.349960243989 334.09991891970776C782.2499555778516 329.5129190596919 935.1499509117139 573.770661605537 1088.0499462455764 561.1564119904936C1240.949941579439 548.5421623754498 1470.2999345802323 308.87141968962044 1546.7499322471635 258.41442122944585 " transform="rotate(0, 400, 400)"></path><path d="M-711.9999982910161 556.2728619286219C-637.8666672200525 499.56086365933476 -415.4666740071616 211.55287244864107 -267.2000118652345 216.0008723128989C-118.93334972330717 220.44887217715672 29.333312418619926 562.9448617250086 177.59997456054714 582.9608611141688C325.8666367024746 602.976860503329 474.1332988444017 340.5448685121178 622.399960986329 336.09686864786C770.6666231282561 331.64886878360215 918.9332852701834 568.5048615553308 1067.1999474121105 556.2728619286219C1215.4666095540379 544.040862301913 1437.8666027669287 311.63286939444197 1511.999933837892 262.704870887606 " transform="rotate(0, 400, 400)"></path><path d="M-677.249998821259 551.3893881606956C-605.433334346263 496.4496398373237 -389.983340921275 217.4418983519642 -246.35001197128304 221.75089822046397C-102.71668302129103 226.05989808896373 40.91664592870097 557.8528879634453 184.54997487869298 577.2433873716941C328.183303828685 596.633886779943 471.8166327786769 342.4028945384572 615.449961728669 338.0938946699575C759.0832906786611 333.7848948014577 902.7166196286532 563.2391377990699 1046.3499485786451 551.3893881606956C1189.983277528637 539.5396385223213 1405.4332709536247 314.3943953932088 1477.249935428621 266.9953968397114 " transform="rotate(0, 400, 400)"></path><path d="M-642.4999993515019 546.5058075812458C-573.0000014724735 493.33830920378915 -364.5000078353883 223.33081744376386 -225.50001207733158 227.50081731650556C-86.50001631927478 231.67081718924726 52.49997943878191 552.7608073903584 191.4999751968387 571.5258068176961C330.4999709548956 590.2908062450338 469.4999667129523 344.2608137532733 608.4999624710092 340.0908138805315C747.4999582290659 335.9208140077899 886.4999539871228 557.9733072312855 1025.4999497451797 546.5058075812458C1164.4999455032362 535.0383079312062 1372.9999391403217 317.15581458045216 1442.4999370193495 271.2858159802935 " transform="rotate(0, 400, 400)"></path><path d="M-607.7499388465885 541.6223032957414C-540.5666075635278 490.22705486419994 -339.0166137143454 229.21981282950884 -204.64995114822386 233.2508127064925C-70.28328858210239 237.28181258347615 64.08337398401909 547.6688031112169 198.45003655014068 565.8083025576434C332.81669911626204 583.9478020040697 467.18336168238375 346.1188092620346 601.5500242485055 342.08780938505095C735.9166868146269 338.0568095080673 870.2833493807486 552.7075529574465 1004.6500119468701 541.6223032957414C1139.0166745129918 530.5370536340365 1340.566668362174 319.9173100616409 1407.7499996452343 275.5763114148208 " transform="rotate(0, 400, 400)"></path><path d="M-572.9999393768314 536.7387684926589C-508.1332746897383 487.1157700070326 -313.5332806284587 235.1087776976757 -183.79995125427251 239.00077757890128C-54.06662188008613 242.89277746012687 75.66670749410002 542.5767683144973 205.4000368682864 560.0907677800125C335.1333662424727 577.6047672455276 464.8666956166592 347.9767742532178 594.6000249908454 344.0847743719922C724.3333543650317 340.1927744907666 854.0666837392182 547.4417681660293 983.8000131134045 536.7387684926589C1113.533342487591 526.0357688192885 1308.1333365488704 322.67877502525147 1373.0000012359633 279.86677633177 " transform="rotate(0, 400, 400)"></path><path d="M-538.2499399070743 531.8552489483654C-475.6999418159488 484.00450040865434 -288.0499475425721 240.9977578246316 -162.9499513603211 244.75075771009915C-37.84995517806988 248.5037575955667 87.25004100418107 537.4847487765667 212.35003718643213 554.3732482611706C337.4500333686832 571.2617477457745 462.55002955093437 349.8347545031901 587.6500257331857 346.08175461772254C712.7500219154367 342.328754732255 837.8500180976878 542.1759986334012 962.9500142799388 531.8552489483654C1088.0500104621901 521.5344992633297 1275.7000047355664 325.44025524765107 1338.250002826692 284.15725650750824 " transform="rotate(0, 400, 400)"></path><path d="M-503.49994043731726 526.9717141452829C-443.26660894215934 480.89321555148706 -262.56661445668544 246.88672269279846 -142.09995146636965 250.50072258250793C-21.63328847605385 254.11472247221744 98.833374514262 532.392713979847 219.30003750457786 548.6557134835398C339.7667004948938 564.9187129872323 460.2333634852098 351.69271949437325 580.7000264755256 348.0787196046638C701.1666894658415 344.46471971495436 821.6333524561574 536.9102138419839 942.1000154464734 526.9717141452829C1062.5666784367893 517.0332144485819 1243.2666729222628 328.20172021126166 1303.5000044174208 288.4477214244574 " transform="rotate(0, 400, 400)"></path><path d="M-468.7499409675602 522.0881335658332C-410.83327606836986 477.78188491795254 -237.08328137079883 252.77564178459812 -121.24995157241824 256.2506416785495C-5.416621774037594 259.725641572501 110.41670802434294 527.3006334067603 226.25003782272358 542.9381329295417C342.08336762110434 558.5756324523231 457.916697419485 353.5506387091893 573.7500272178656 350.0756388152379C689.5833570162463 346.6006389212865 805.4166868146269 531.6443832741995 921.2500166130078 522.0881335658332C1037.0833464113884 512.5318838574667 1210.8333411089593 330.96313939850506 1268.7500060081495 292.7381405650395 " transform="rotate(0, 400, 400)"></path><path d="M-433.9999414978031 517.2046597979069C-378.3999431945804 474.67066109594145 -211.59994828491222 258.6646676879212 -100.39995167846683 262.0006675861146C10.80004492797866 265.33666748430795 122.00004153442387 522.2086596451969 233.20003814086942 537.220659187067C344.40003474731486 552.2326587289372 455.6000313537603 355.40866473552876 566.8000279602059 352.0726648373354C678.0000245666511 348.7366649391421 789.2000211730965 526.3786595179386 900.4000177795419 517.2046597979069C1011.6000143859876 508.03066007787515 1178.4000092956555 333.7246653972719 1234.000007598878 297.0286665171449 " transform="rotate(0, 400, 400)"></path><path d="M-399.249942028046 512.3211249948243C-345.9666103207909 471.5593762387741 -186.11661519902555 264.5536325560881 -79.54995178451543 267.7506324585234C27.016711629994916 270.9476323609587 133.58337504450492 517.1166248484773 240.15003845901515 531.5031244094362C346.71670187352527 545.889623970395 453.2833652880355 357.2666297267119 559.8500287025458 354.06962982427666C666.4166921170561 350.8726299218414 772.9833555315663 521.1128747265213 879.5500189460763 512.3211249948243C986.1166823605865 503.52937526312724 1145.9666774823518 336.4861303608825 1199.2500091896068 301.3191314340941 " transform="rotate(0, 400, 400)"></path><path d="M-364.4999425582889 507.4375520447691C-313.5332774470014 468.44805323463413 -160.63328211313888 270.44255927728227 -58.699951890563966 273.5005591839595C43.23337833201094 276.5585590906368 145.16670855458597 512.024551904785 247.10003877716088 525.7855514848326C349.0333689997358 539.5465510648802 450.9666992223108 359.1245565709225 552.9000294448858 356.06655666424524C654.8333596674606 353.00855675756804 756.7666898900359 515.8470517881315 858.7000201126109 507.4375520447691C960.6333503351857 499.02805230140666 1113.533345669048 339.2475571775204 1164.5000107803355 305.60955820407065 " transform="rotate(0, 400, 400)"></path><path d="M-329.74994308853184 502.55407064744827C-281.0999445732119 465.3368217832286 -135.14994902725226 276.3315775512109 -37.84995199661256 279.2505774621301C59.4500450340272 282.16957737304926 156.7500420646668 506.93257051382705 254.0500390953066 520.0680701129634C351.3500361259464 533.2035697120998 448.6500331565861 360.98257496786744 545.9500301872258 358.06357505694825C643.2500272178656 355.14457514602907 740.5500242485055 510.581320402476 837.8500212791453 502.55407064744827C935.1500183097849 494.5268208924205 1081.1000138557445 342.0090755468927 1129.7500123710643 309.90007652678156 " transform="rotate(0, 400, 400)"></path><path d="M-294.99994361877475 497.6705205855767C-248.66661169942245 462.22552166727223 -109.66661594136565 282.22052716058863 -16.999952102661155 285.0005270757498C75.6667117360434 287.78052699091097 168.33337557474783 501.8405204583184 261.0000394134523 514.3505200765435C353.66670325215694 526.8605196947685 446.33336709086143 362.8405247002616 539.0000309295659 360.0605247851005C631.6666947682704 357.2805248699393 724.333358606975 505.3155203522698 817.0000224456796 497.6705205855767C909.6666862843842 490.0255208188836 1048.6666820424407 344.7705252517142 1095.000013961793 314.19052618494175 " transform="rotate(0, 400, 400)"></path><path d="M-260.24994414901767 492.7870315588613C-216.23327882563296 459.1142825864721 -84.18328285547898 288.1095378051227 3.850047791290308 290.75053772452577C91.8833784380596 293.39153764392887 179.91670908482865 496.74853143796594 267.95003973159805 508.6330310752798C355.98337037836745 520.5175307125936 444.01670102513674 364.698535467812 532.050031671906 362.0575355484089C620.0833623186753 359.41653562900586 708.1166929654446 500.04978133721977 796.150023612214 492.7870315588613C884.1833542589834 485.52428178050286 1016.2333502291372 347.532035991692 1060.2500155525217 318.4810368782581 " transform="rotate(0, 400, 400)"></path><path d="M-225.49994467926052 487.90351964396234C-183.79994595184348 456.00302061748835 -58.699949769592365 293.9985255614732 24.700047685241657 296.5005254851182C108.10004514007574 299.0025254087632 191.5000425949097 491.6565195294299 274.9000400497439 502.91551918583247C358.30003750457786 514.1745188422351 441.70003495941205 366.55652334717877 525.1000324142461 364.05452342353374C608.5000298690802 361.55252349988876 691.9000273239144 494.78401943398615 775.3000247787484 487.90351964396234C858.7000222335823 481.02301985393854 983.8000184158336 350.2935238434861 1025.5000171432505 322.7715246833909 " transform="rotate(0, 400, 400)"></path><path d="M-190.74994520950344 483.01998484087983C-151.366613078054 452.891735760321 -33.21661668370575 299.88749042964 45.55004757919312 302.250490357527C124.31671184209193 304.61349028541395 203.08337610499075 486.5644847327103 281.8500403678895 497.1979844082016C360.6167046307884 507.831484083693 439.38336889368725 368.414488338362 518.1500331565861 366.05148841047503C596.916697419485 363.68848848258807 675.6833616823839 489.518234642569 754.4500259452827 483.01998484087983C833.2166902081817 476.5217350391907 951.3666866025299 353.0549888070967 990.750018733979 327.0619896003401 " transform="rotate(0, 400, 400)"></path><path d="M-155.99994573974632 478.13645003779726C-118.93328020426452 449.7804509031537 -7.7332835978190815 305.7764552978069 66.40004747314447 308.00045522993577C140.53337854410813 310.2244551620647 214.66670961507168 481.47244993599065 288.80004068603535 491.4804496305707C362.933371756999 501.48844932515084 437.06670282796256 370.2724533295452 511.2000338989262 368.0484533974163C585.3333649698898 365.82445346528743 659.4666960408534 484.2524498511517 733.600027111817 478.13645003779726C807.7333581827806 472.0204502244428 918.9333547892261 355.8164537707073 956.0000203247077 331.3524545172893 " transform="rotate(0, 400, 400)"></path><path d="M-121.24994626998924 473.25289997592563C-86.49994733047504 446.6691507871973 17.75004948806759 311.66540490718467 87.25004736709593 313.75040484355554C156.75004524612433 315.83540477992636 226.25004312515267 476.38039988048195 295.75004100418107 485.7628995941508C365.2500388832095 495.1453993078196 434.75003676223787 372.1304030619394 504.2500346412663 370.0454031255685C573.7500325202947 367.9604031891977 643.2500303993231 478.9866498009455 712.7500282783516 473.25289997592563C782.2500261573798 467.51915015090583 886.5000229759225 358.57790347552884 921.2500219154365 335.6429041754495 " transform="rotate(0, 400, 400)"></path><path d="M-86.49996205902121 468.3693651728431C-54.06662971547462 443.55786593002995 43.2333673151652 317.5543697753515 108.10003200225827 319.5003697159643C172.96669668935147 321.44636965657713 237.83336137644454 471.2883650837623 302.70002606353773 480.0453648165199C367.56669075063087 488.80236454927746 432.4333554377241 373.98836805312254 497.30002012481725 372.0423681125098C562.1666848119104 370.096368171897 627.0333494990036 473.7208650095283 691.9000141860968 468.3693651728431C756.76667887319 463.0178653361579 854.0666759038297 361.3393684391394 886.5000082473762 339.93336909239866 " transform="rotate(0, 400, 400)"></path><path d="M-51.7499625892641 463.48586088733873C-21.633296841685137 440.4466115904408 68.71670040105181 323.4433651610965 128.95003189620968 325.25036510595123C189.1833633913676 327.05736505080597 249.41669488652553 466.1963608046208 309.65002638168346 474.32786055646716C369.8833578768415 482.4593603083134 430.1166893719994 375.8463635618839 490.35002086715735 374.03936361702915C550.5833523623153 372.2323636721744 610.8166838574732 468.45511073568923 671.0500153526312 463.48586088733873C731.2833468477892 458.51661103898823 821.633344090526 364.1008639203281 851.7500098381049 344.223864526926 " transform="rotate(0, 400, 400)"></path><path d="M-16.99999363708514 458.60232608425616C10.80000551452622 437.33532673327346 94.2000029693603 329.33233002926335 149.80000127258302 331.00032997836C205.39999957580574 332.66832992745674 260.99999787902834 461.1043260079012 316.5999961822511 468.6103257788362C372.1999944854738 476.1163255497713 427.7999927886965 377.7043285530671 483.39999109191933 376.03632860397045C538.9999893951419 374.3683286548738 594.5999876983647 463.189325944272 650.1999860015874 458.60232608425616C705.7999843048102 454.0153262242403 789.1999817596442 366.8623288839387 816.9999809112554 348.51432944387517 " transform="rotate(0, 400, 400)"></path><path d="M17.750005832671945 453.71879509587086C43.2333383883157 434.2240456908034 119.68333605524697 335.22129871212746 170.65000116653442 336.7502986654661C221.61666627782188 338.2792986188047 272.5833313891094 456.0122950258788 323.54999650039684 462.8927948159026C374.5166616116843 469.7732946059264 425.4833267229718 379.5622973589476 476.4499918342593 378.03329740560895C527.4166569455467 376.50429745227035 578.3833220568343 457.92354496755206 629.3499871681219 453.71879509587086C680.3166522794093 449.51404522418966 756.7666499463404 369.62379766224655 782.2499825019842 352.8047981755217 " transform="rotate(0, 400, 400)"></path><path d="M52.50000530242906 448.8352869956692C75.66667126210518 431.112787536517 145.16666914113358 341.1102902831752 191.50000106048583 342.50029024075576C237.83333297983813 343.89029019833634 284.1666648991903 450.9202869320401 330.49999681854257 457.1752867411526C376.8333287378949 463.4302865502651 423.1666606572471 381.42028905301163 469.4999925765994 380.0302890954311C515.8333244959516 378.6402891378505 562.1666564153039 452.65778687901576 608.4999883346562 448.8352869956692C654.8333202540085 445.01278711232266 724.3333181330368 372.38528932873794 747.4999840927129 357.09528979535173 " transform="rotate(0, 400, 400)"></path><path d="M87.25000477218614 443.9517445631921C108.10000413589466 428.0014950499551 170.65000222702022 346.9992475219475 212.35000095443723 348.25024748377C254.04999968185427 349.5012474455925 295.74999840927126 445.8282445059259 337.44999713668835 451.45774433412714C379.14999586410534 457.0872441623285 420.84999459152243 383.2782464148003 462.54999331893947 382.0272464529778C504.2499920463565 380.77624649115535 545.9499907737736 447.391994458204 587.6499895011906 443.9517445631921C629.3499882286076 440.5114946681802 691.8999863197332 375.146746662954 712.7499856834417 361.3857470829064 " transform="rotate(0, 400, 400)"></path><path d="M122.00000424194323 439.0682135748068C140.53333700968415 424.89021400748504 196.13333531290687 352.8882162048116 233.20000084838864 354.0002161708761C270.2666663838705 355.11221613694056 307.33333191935225 440.73621352390353 344.3999974548341 445.7402133711936C381.4666629903159 450.74421321848365 418.5333285257977 385.1362152206808 455.5999940612795 384.02421525461637C492.6666595967613 382.9122152885519 529.7333251322432 442.12621348148406 566.7999906677248 439.0682135748068C603.8666562032067 436.0102136681296 659.4666545064294 377.90821544126186 677.9999872741703 365.67621581455285 " transform="rotate(0, 400, 400)"></path><path d="M156.75000371170034 434.1846902158161C172.96666988347363 421.7789405944095 221.61666839879354 358.77719251707026 254.05000074234007 359.7501924873767C286.48333308588667 360.72319245768307 318.91666542943324 435.6441901712757 351.3499977729798 440.02269003765446C383.7833301165264 444.40118990403323 416.216662460073 386.99419165595583 448.64999480361956 386.0211916856494C481.08332714716613 385.048191715343 513.5166594907128 436.8604401341587 545.9499918342593 434.1846902158161C578.3833241778059 431.5089402974735 627.0333226931258 380.66969184896425 643.249988864899 369.96669217559383 " transform="rotate(0, 400, 400)"></path><path d="M191.50000318145743 429.3011668568254C205.4000027572631 418.667667181334 247.10000148468015 364.66616882932897 274.9000006362915 365.5001688038773C302.69999978790287 366.33416877842564 330.49999893951417 430.55216681864783 358.29999809112553 434.3051667041154C386.0999972427369 438.0581665895829 413.89999639434825 388.85216809123085 441.69999554595967 388.0181681166825C469.49999469757097 387.1841681421341 497.29999384918233 431.5946667868333 525.0999930007937 429.3011668568254C552.899992152405 427.0076669268174 594.5999908798221 383.43116825666664 608.4999904556278 374.2571685366349 " transform="rotate(0, 400, 400)"></path><path d="M226.25000265121452 424.41763968313734C237.8333356310526 415.5563899535612 272.58333457056676 370.55514132689035 295.7500005302429 371.2501413056806C318.91666648991907 371.9451412844709 342.08333244959516 425.4601396513228 365.24999840927126 428.58763955587904C388.4166643689474 431.7151394604353 411.58333032862356 390.71014071180855 434.7499962882997 390.01514073301826C457.9166622479758 389.320140754228 481.08332820765196 426.3288896248106 504.2499941673281 424.41763968313734C527.4166601270042 422.50638974146403 562.1666590665184 386.1926408496717 573.7499920463565 378.5476410829786 " transform="rotate(0, 400, 400)"></path><path d="M261.00000212097166 419.53410869475204C270.2666685048421 412.44510891109115 298.06666765645343 376.44411000975447 316.6000004241943 377.0001099927867C335.1333331919352 377.5561099758189 353.66666595967615 420.3681086693004 372.19999872741704 422.8701085929454C390.7333314951579 425.37210851659046 409.26666426289887 392.56810951768904 427.79999703063976 392.0121095346568C446.33332979838065 391.4561095516246 464.8666625661216 421.0631086480907 483.3999953338624 419.53410869475204C501.93332810160337 418.00510874141344 529.7333272532147 388.95410962797956 538.9999936370851 382.83810981462506 " transform="rotate(0, 400, 400)"></path><path d="M295.7500092201233 414.65058152106405C302.7000090080261 409.33383168331835 323.55000837173463 382.33308250731585 337.45000794754026 382.75008249459C351.350007523346 383.16708248186416 365.2500070991516 415.2760815019753 379.1500066749573 417.1525814447091C393.050006250763 419.02908138744283 406.95000582656866 394.4260821382668 420.85000540237434 394.00908215099264C434.75000497818 393.59208216371843 448.6500045539857 415.797331486068 462.5500041297914 414.65058152106405C476.45000370559706 413.50383155606005 497.3000030693056 391.7155822209847 504.2500028572084 387.1285823609688 " transform="rotate(0, 400, 400)"></path><path d="M330.50000868988036 409.7670581620733C335.13334188181557 406.22255827024287 349.03334145762125 388.2220588195745 358.3000078414917 388.5000588110906C367.56667422536214 388.7780588026067 376.8333406092326 410.1840581493475 386.1000069931031 411.43505811116995C395.3666733769735 412.68605807299247 404.63333976084397 396.28405857354176 413.90000614471444 396.0060585820257C423.16667252858485 395.7280585905096 432.4333389124553 410.5315581387426 441.70000529632574 409.7670581620733C450.9666716801962 409.002558185404 464.8666712560019 394.477058628687 469.5000044479371 391.4190587220098 " transform="rotate(0, 400, 400)"></path><path d="M365.2500005302429 404.8835290810366C367.5666671262105 403.11127913512144 374.51666691411333 394.11102940978725 379.1500001060486 394.2500294055453C383.7833332979838 394.38902940130333 388.41666648991907 405.09202907467375 393.0499996818543 405.717529055585C397.6833328737895 406.34302903649626 402.3166660657247 398.1420292867709 406.94999925765995 398.0030292910128C411.58333244959516 397.8640292952548 416.2166656415304 405.2657790693713 420.84999883346563 404.8835290810366C425.48333202540084 404.501279092702 432.43333181330365 397.2385293143435 434.74999840927126 395.7095293610049 " transform="rotate(0, 400, 400)"></path></g></svg>