<svg xmlns="http://www.w3.org/2000/svg" version="1.1" xmlns:xlink="http://www.w3.org/1999/xlink" xmlns:svgjs="http://svgjs.dev/svgjs" viewBox="0 0 800 800" width="800" height="800"><g stroke-width="6" stroke="hsla(212, 17%, 34%, 1.00)" fill="none"><line x1="0" y1="0" x2="44.44444444444444" y2="44.44444444444444"></line><line x1="44.44444444444444" y1="0" x2="88.88888888888889" y2="44.44444444444444"></line><line x1="88.88888888888889" y1="0" x2="133.33333333333331" y2="44.44444444444444"></line><line x1="133.33333333333331" y1="0" x2="177.77777777777777" y2="44.44444444444444"></line><line x1="177.77777777777777" y1="0" x2="222.22222222222223" y2="44.44444444444444"></line><line x1="222.22222222222223" y1="0" x2="266.6666666666667" y2="44.44444444444444"></line><line x1="266.6666666666667" y1="0" x2="311.11111111111114" y2="44.44444444444444"></line><line x1="311.11111111111114" y1="0" x2="355.5555555555556" y2="44.44444444444444"></line><line x1="355.5555555555556" y1="0" x2="400.00000000000006" y2="44.44444444444444"></line><line x1="400.00000000000006" y1="0" x2="444.4444444444445" y2="44.44444444444444"></line><line x1="444.4444444444445" y1="0" x2="488.88888888888897" y2="44.44444444444444"></line><line x1="488.88888888888897" y1="0" x2="533.3333333333334" y2="44.44444444444444"></line><line x1="533.3333333333334" y1="0" x2="577.7777777777778" y2="44.44444444444444"></line><line x1="577.7777777777778" y1="0" x2="622.2222222222223" y2="44.44444444444444"></line><line x1="622.2222222222223" y1="0" x2="666.6666666666667" y2="44.44444444444444"></line><line x1="666.6666666666667" y1="0" x2="711.1111111111112" y2="44.44444444444444"></line><line x1="711.1111111111112" y1="0" x2="755.5555555555557" y2="44.44444444444444"></line><line x1="755.5555555555557" y1="0" x2="800.0000000000001" y2="44.44444444444444"></line><line x1="800.0000000000001" y1="0" x2="844.4444444444446" y2="44.44444444444444"></line><line x1="0" y1="66.66666666666667" x2="44.44444444444444" y2="111.11111111111111"></line><line x1="44.44444444444444" y1="66.66666666666667" x2="88.88888888888889" y2="111.11111111111111"></line><line x1="88.88888888888889" y1="66.66666666666667" x2="133.33333333333331" y2="111.11111111111111"></line><line x1="133.33333333333331" y1="66.66666666666667" x2="177.77777777777777" y2="111.11111111111111"></line><line x1="177.77777777777777" y1="66.66666666666667" x2="222.22222222222223" y2="111.11111111111111"></line><line x1="222.22222222222223" y1="66.66666666666667" x2="266.6666666666667" y2="111.11111111111111"></line><line x1="266.6666666666667" y1="66.66666666666667" x2="311.11111111111114" y2="111.11111111111111"></line><line x1="311.11111111111114" y1="66.66666666666667" x2="355.5555555555556" y2="111.11111111111111"></line><line x1="355.5555555555556" y1="66.66666666666667" x2="400.00000000000006" y2="111.11111111111111"></line><line x1="400.00000000000006" y1="66.66666666666667" x2="444.4444444444445" y2="111.11111111111111"></line><line x1="444.4444444444445" y1="66.66666666666667" x2="488.88888888888897" y2="111.11111111111111"></line><line x1="488.88888888888897" y1="66.66666666666667" x2="533.3333333333334" y2="111.11111111111111"></line><line x1="533.3333333333334" y1="66.66666666666667" x2="577.7777777777778" y2="111.11111111111111"></line><line x1="577.7777777777778" y1="66.66666666666667" x2="622.2222222222223" y2="111.11111111111111"></line><line x1="622.2222222222223" y1="66.66666666666667" x2="666.6666666666667" y2="111.11111111111111"></line><line x1="666.6666666666667" y1="66.66666666666667" x2="711.1111111111112" y2="111.11111111111111"></line><line x1="711.1111111111112" y1="66.66666666666667" x2="755.5555555555557" y2="111.11111111111111"></line><line x1="755.5555555555557" y1="66.66666666666667" x2="800.0000000000001" y2="111.11111111111111"></line><line x1="800.0000000000001" y1="66.66666666666667" x2="844.4444444444446" y2="111.11111111111111"></line><line x1="0" y1="133.33333333333334" x2="44.44444444444444" y2="177.77777777777777"></line><line x1="44.44444444444444" y1="133.33333333333334" x2="88.88888888888889" y2="177.77777777777777"></line><line x1="88.88888888888889" y1="133.33333333333334" x2="133.33333333333331" y2="177.77777777777777"></line><line x1="133.33333333333331" y1="133.33333333333334" x2="177.77777777777777" y2="177.77777777777777"></line><line x1="177.77777777777777" y1="133.33333333333334" x2="222.22222222222223" y2="177.77777777777777"></line><line x1="222.22222222222223" y1="133.33333333333334" x2="266.6666666666667" y2="177.77777777777777"></line><line x1="266.6666666666667" y1="133.33333333333334" x2="311.11111111111114" y2="177.77777777777777"></line><line x1="311.11111111111114" y1="133.33333333333334" x2="355.5555555555556" y2="177.77777777777777"></line><line x1="355.5555555555556" y1="133.33333333333334" x2="400.00000000000006" y2="177.77777777777777"></line><line x1="400.00000000000006" y1="133.33333333333334" x2="444.4444444444445" y2="177.77777777777777"></line><line x1="444.4444444444445" y1="133.33333333333334" x2="488.88888888888897" y2="177.77777777777777"></line><line x1="488.88888888888897" y1="133.33333333333334" x2="533.3333333333334" y2="177.77777777777777"></line><line x1="533.3333333333334" y1="133.33333333333334" x2="577.7777777777778" y2="177.77777777777777"></line><line x1="577.7777777777778" y1="133.33333333333334" x2="622.2222222222223" y2="177.77777777777777"></line><line x1="622.2222222222223" y1="133.33333333333334" x2="666.6666666666667" y2="177.77777777777777"></line><line x1="666.6666666666667" y1="133.33333333333334" x2="711.1111111111112" y2="177.77777777777777"></line><line x1="711.1111111111112" y1="133.33333333333334" x2="755.5555555555557" y2="177.77777777777777"></line><line x1="755.5555555555557" y1="133.33333333333334" x2="800.0000000000001" y2="177.77777777777777"></line><line x1="800.0000000000001" y1="133.33333333333334" x2="844.4444444444446" y2="177.77777777777777"></line><line x1="0" y1="200" x2="44.44444444444444" y2="244.44444444444446"></line><line x1="44.44444444444444" y1="200" x2="88.88888888888889" y2="244.44444444444446"></line><line x1="88.88888888888889" y1="200" x2="133.33333333333331" y2="244.44444444444446"></line><line x1="133.33333333333331" y1="200" x2="177.77777777777777" y2="244.44444444444446"></line><line x1="177.77777777777777" y1="200" x2="222.22222222222223" y2="244.44444444444446"></line><line x1="222.22222222222223" y1="200" x2="266.6666666666667" y2="244.44444444444446"></line><line x1="266.6666666666667" y1="200" x2="311.11111111111114" y2="244.44444444444446"></line><line x1="311.11111111111114" y1="200" x2="355.5555555555556" y2="244.44444444444446"></line><line x1="355.5555555555556" y1="200" x2="400.00000000000006" y2="244.44444444444446"></line><line x1="400.00000000000006" y1="200" x2="444.4444444444445" y2="244.44444444444446"></line><line x1="444.4444444444445" y1="200" x2="488.88888888888897" y2="244.44444444444446"></line><line x1="488.88888888888897" y1="200" x2="533.3333333333334" y2="244.44444444444446"></line><line x1="533.3333333333334" y1="200" x2="577.7777777777778" y2="244.44444444444446"></line><line x1="577.7777777777778" y1="200" x2="622.2222222222223" y2="244.44444444444446"></line><line x1="622.2222222222223" y1="200" x2="666.6666666666667" y2="244.44444444444446"></line><line x1="666.6666666666667" y1="200" x2="711.1111111111112" y2="244.44444444444446"></line><line x1="711.1111111111112" y1="200" x2="755.5555555555557" y2="244.44444444444446"></line><line x1="755.5555555555557" y1="200" x2="800.0000000000001" y2="244.44444444444446"></line><line x1="800.0000000000001" y1="200" x2="844.4444444444446" y2="244.44444444444446"></line><line x1="0" y1="266.6666666666667" x2="44.44444444444444" y2="311.11111111111114"></line><line x1="44.44444444444444" y1="266.6666666666667" x2="88.88888888888889" y2="311.11111111111114"></line><line x1="88.88888888888889" y1="266.6666666666667" x2="133.33333333333331" y2="311.11111111111114"></line><line x1="133.33333333333331" y1="266.6666666666667" x2="177.77777777777777" y2="311.11111111111114"></line><line x1="177.77777777777777" y1="266.6666666666667" x2="222.22222222222223" y2="311.11111111111114"></line><line x1="222.22222222222223" y1="266.6666666666667" x2="266.6666666666667" y2="311.11111111111114"></line><line x1="266.6666666666667" y1="266.6666666666667" x2="311.11111111111114" y2="311.11111111111114"></line><line x1="311.11111111111114" y1="266.6666666666667" x2="355.5555555555556" y2="311.11111111111114"></line><line x1="355.5555555555556" y1="266.6666666666667" x2="400.00000000000006" y2="311.11111111111114"></line><line x1="400.00000000000006" y1="266.6666666666667" x2="444.4444444444445" y2="311.11111111111114"></line><line x1="444.4444444444445" y1="266.6666666666667" x2="488.88888888888897" y2="311.11111111111114"></line><line x1="488.88888888888897" y1="266.6666666666667" x2="533.3333333333334" y2="311.11111111111114"></line><line x1="533.3333333333334" y1="266.6666666666667" x2="577.7777777777778" y2="311.11111111111114"></line><line x1="577.7777777777778" y1="266.6666666666667" x2="622.2222222222223" y2="311.11111111111114"></line><line x1="622.2222222222223" y1="266.6666666666667" x2="666.6666666666667" y2="311.11111111111114"></line><line x1="666.6666666666667" y1="266.6666666666667" x2="711.1111111111112" y2="311.11111111111114"></line><line x1="711.1111111111112" y1="266.6666666666667" x2="755.5555555555557" y2="311.11111111111114"></line><line x1="755.5555555555557" y1="266.6666666666667" x2="800.0000000000001" y2="311.11111111111114"></line><line x1="800.0000000000001" y1="266.6666666666667" x2="844.4444444444446" y2="311.11111111111114"></line><line x1="0" y1="333.33333333333337" x2="44.44444444444444" y2="377.7777777777778"></line><line x1="44.44444444444444" y1="333.33333333333337" x2="88.88888888888889" y2="377.7777777777778"></line><line x1="88.88888888888889" y1="333.33333333333337" x2="133.33333333333331" y2="377.7777777777778"></line><line x1="133.33333333333331" y1="333.33333333333337" x2="177.77777777777777" y2="377.7777777777778"></line><line x1="177.77777777777777" y1="333.33333333333337" x2="222.22222222222223" y2="377.7777777777778"></line><line x1="222.22222222222223" y1="333.33333333333337" x2="266.6666666666667" y2="377.7777777777778"></line><line x1="266.6666666666667" y1="333.33333333333337" x2="311.11111111111114" y2="377.7777777777778"></line><line x1="311.11111111111114" y1="333.33333333333337" x2="355.5555555555556" y2="377.7777777777778"></line><line x1="355.5555555555556" y1="333.33333333333337" x2="400.00000000000006" y2="377.7777777777778"></line><line x1="400.00000000000006" y1="333.33333333333337" x2="444.4444444444445" y2="377.7777777777778"></line><line x1="444.4444444444445" y1="333.33333333333337" x2="488.88888888888897" y2="377.7777777777778"></line><line x1="488.88888888888897" y1="333.33333333333337" x2="533.3333333333334" y2="377.7777777777778"></line><line x1="533.3333333333334" y1="333.33333333333337" x2="577.7777777777778" y2="377.7777777777778"></line><line x1="577.7777777777778" y1="333.33333333333337" x2="622.2222222222223" y2="377.7777777777778"></line><line x1="622.2222222222223" y1="333.33333333333337" x2="666.6666666666667" y2="377.7777777777778"></line><line x1="666.6666666666667" y1="333.33333333333337" x2="711.1111111111112" y2="377.7777777777778"></line><line x1="711.1111111111112" y1="333.33333333333337" x2="755.5555555555557" y2="377.7777777777778"></line><line x1="755.5555555555557" y1="333.33333333333337" x2="800.0000000000001" y2="377.7777777777778"></line><line x1="800.0000000000001" y1="333.33333333333337" x2="844.4444444444446" y2="377.7777777777778"></line><line x1="0" y1="400.00000000000006" x2="44.44444444444444" y2="444.4444444444445"></line><line x1="44.44444444444444" y1="400.00000000000006" x2="88.88888888888889" y2="444.4444444444445"></line><line x1="88.88888888888889" y1="400.00000000000006" x2="133.33333333333331" y2="444.4444444444445"></line><line x1="133.33333333333331" y1="400.00000000000006" x2="177.77777777777777" y2="444.4444444444445"></line><line x1="177.77777777777777" y1="400.00000000000006" x2="222.22222222222223" y2="444.4444444444445"></line><line x1="222.22222222222223" y1="400.00000000000006" x2="266.6666666666667" y2="444.4444444444445"></line><line x1="266.6666666666667" y1="400.00000000000006" x2="311.11111111111114" y2="444.4444444444445"></line><line x1="311.11111111111114" y1="400.00000000000006" x2="355.5555555555556" y2="444.4444444444445"></line><line x1="355.5555555555556" y1="400.00000000000006" x2="400.00000000000006" y2="444.4444444444445"></line><line x1="400.00000000000006" y1="400.00000000000006" x2="444.4444444444445" y2="444.4444444444445"></line><line x1="444.4444444444445" y1="400.00000000000006" x2="488.88888888888897" y2="444.4444444444445"></line><line x1="488.88888888888897" y1="400.00000000000006" x2="533.3333333333334" y2="444.4444444444445"></line><line x1="533.3333333333334" y1="400.00000000000006" x2="577.7777777777778" y2="444.4444444444445"></line><line x1="577.7777777777778" y1="400.00000000000006" x2="622.2222222222223" y2="444.4444444444445"></line><line x1="622.2222222222223" y1="400.00000000000006" x2="666.6666666666667" y2="444.4444444444445"></line><line x1="666.6666666666667" y1="400.00000000000006" x2="711.1111111111112" y2="444.4444444444445"></line><line x1="711.1111111111112" y1="400.00000000000006" x2="755.5555555555557" y2="444.4444444444445"></line><line x1="755.5555555555557" y1="400.00000000000006" x2="800.0000000000001" y2="444.4444444444445"></line><line x1="800.0000000000001" y1="400.00000000000006" x2="844.4444444444446" y2="444.4444444444445"></line><line x1="0" y1="466.66666666666674" x2="44.44444444444444" y2="511.1111111111112"></line><line x1="44.44444444444444" y1="466.66666666666674" x2="88.88888888888889" y2="511.1111111111112"></line><line x1="88.88888888888889" y1="466.66666666666674" x2="133.33333333333331" y2="511.1111111111112"></line><line x1="133.33333333333331" y1="466.66666666666674" x2="177.77777777777777" y2="511.1111111111112"></line><line x1="177.77777777777777" y1="466.66666666666674" x2="222.22222222222223" y2="511.1111111111112"></line><line x1="222.22222222222223" y1="466.66666666666674" x2="266.6666666666667" y2="511.1111111111112"></line><line x1="266.6666666666667" y1="466.66666666666674" x2="311.11111111111114" y2="511.1111111111112"></line><line x1="311.11111111111114" y1="466.66666666666674" x2="355.5555555555556" y2="511.1111111111112"></line><line x1="355.5555555555556" y1="466.66666666666674" x2="400.00000000000006" y2="511.1111111111112"></line><line x1="400.00000000000006" y1="466.66666666666674" x2="444.4444444444445" y2="511.1111111111112"></line><line x1="444.4444444444445" y1="466.66666666666674" x2="488.88888888888897" y2="511.1111111111112"></line><line x1="488.88888888888897" y1="466.66666666666674" x2="533.3333333333334" y2="511.1111111111112"></line><line x1="533.3333333333334" y1="466.66666666666674" x2="577.7777777777778" y2="511.1111111111112"></line><line x1="577.7777777777778" y1="466.66666666666674" x2="622.2222222222223" y2="511.1111111111112"></line><line x1="622.2222222222223" y1="466.66666666666674" x2="666.6666666666667" y2="511.1111111111112"></line><line x1="666.6666666666667" y1="466.66666666666674" x2="711.1111111111112" y2="511.1111111111112"></line><line x1="711.1111111111112" y1="466.66666666666674" x2="755.5555555555557" y2="511.1111111111112"></line><line x1="755.5555555555557" y1="466.66666666666674" x2="800.0000000000001" y2="511.1111111111112"></line><line x1="800.0000000000001" y1="466.66666666666674" x2="844.4444444444446" y2="511.1111111111112"></line><line x1="0" y1="533.3333333333334" x2="44.44444444444444" y2="577.7777777777778"></line><line x1="44.44444444444444" y1="533.3333333333334" x2="88.88888888888889" y2="577.7777777777778"></line><line x1="88.88888888888889" y1="533.3333333333334" x2="133.33333333333331" y2="577.7777777777778"></line><line x1="133.33333333333331" y1="533.3333333333334" x2="177.77777777777777" y2="577.7777777777778"></line><line x1="177.77777777777777" y1="533.3333333333334" x2="222.22222222222223" y2="577.7777777777778"></line><line x1="222.22222222222223" y1="533.3333333333334" x2="266.6666666666667" y2="577.7777777777778"></line><line x1="266.6666666666667" y1="533.3333333333334" x2="311.11111111111114" y2="577.7777777777778"></line><line x1="311.11111111111114" y1="533.3333333333334" x2="355.5555555555556" y2="577.7777777777778"></line><line x1="355.5555555555556" y1="533.3333333333334" x2="400.00000000000006" y2="577.7777777777778"></line><line x1="400.00000000000006" y1="533.3333333333334" x2="444.4444444444445" y2="577.7777777777778"></line><line x1="444.4444444444445" y1="533.3333333333334" x2="488.88888888888897" y2="577.7777777777778"></line><line x1="488.88888888888897" y1="533.3333333333334" x2="533.3333333333334" y2="577.7777777777778"></line><line x1="533.3333333333334" y1="533.3333333333334" x2="577.7777777777778" y2="577.7777777777778"></line><line x1="577.7777777777778" y1="533.3333333333334" x2="622.2222222222223" y2="577.7777777777778"></line><line x1="622.2222222222223" y1="533.3333333333334" x2="666.6666666666667" y2="577.7777777777778"></line><line x1="666.6666666666667" y1="533.3333333333334" x2="711.1111111111112" y2="577.7777777777778"></line><line x1="711.1111111111112" y1="533.3333333333334" x2="755.5555555555557" y2="577.7777777777778"></line><line x1="755.5555555555557" y1="533.3333333333334" x2="800.0000000000001" y2="577.7777777777778"></line><line x1="800.0000000000001" y1="533.3333333333334" x2="844.4444444444446" y2="577.7777777777778"></line><line x1="0" y1="600" x2="44.44444444444444" y2="644.4444444444445"></line><line x1="44.44444444444444" y1="600" x2="88.88888888888889" y2="644.4444444444445"></line><line x1="88.88888888888889" y1="600" x2="133.33333333333331" y2="644.4444444444445"></line><line x1="133.33333333333331" y1="600" x2="177.77777777777777" y2="644.4444444444445"></line><line x1="177.77777777777777" y1="600" x2="222.22222222222223" y2="644.4444444444445"></line><line x1="222.22222222222223" y1="600" x2="266.6666666666667" y2="644.4444444444445"></line><line x1="266.6666666666667" y1="600" x2="311.11111111111114" y2="644.4444444444445"></line><line x1="311.11111111111114" y1="600" x2="355.5555555555556" y2="644.4444444444445"></line><line x1="355.5555555555556" y1="600" x2="400.00000000000006" y2="644.4444444444445"></line><line x1="400.00000000000006" y1="600" x2="444.4444444444445" y2="644.4444444444445"></line><line x1="444.4444444444445" y1="600" x2="488.88888888888897" y2="644.4444444444445"></line><line x1="488.88888888888897" y1="600" x2="533.3333333333334" y2="644.4444444444445"></line><line x1="533.3333333333334" y1="600" x2="577.7777777777778" y2="644.4444444444445"></line><line x1="577.7777777777778" y1="600" x2="622.2222222222223" y2="644.4444444444445"></line><line x1="622.2222222222223" y1="600" x2="666.6666666666667" y2="644.4444444444445"></line><line x1="666.6666666666667" y1="600" x2="711.1111111111112" y2="644.4444444444445"></line><line x1="711.1111111111112" y1="600" x2="755.5555555555557" y2="644.4444444444445"></line><line x1="755.5555555555557" y1="600" x2="800.0000000000001" y2="644.4444444444445"></line><line x1="800.0000000000001" y1="600" x2="844.4444444444446" y2="644.4444444444445"></line><line x1="0" y1="666.6666666666666" x2="44.44444444444444" y2="711.1111111111111"></line><line x1="44.44444444444444" y1="666.6666666666666" x2="88.88888888888889" y2="711.1111111111111"></line><line x1="88.88888888888889" y1="666.6666666666666" x2="133.33333333333331" y2="711.1111111111111"></line><line x1="133.33333333333331" y1="666.6666666666666" x2="177.77777777777777" y2="711.1111111111111"></line><line x1="177.77777777777777" y1="666.6666666666666" x2="222.22222222222223" y2="711.1111111111111"></line><line x1="222.22222222222223" y1="666.6666666666666" x2="266.6666666666667" y2="711.1111111111111"></line><line x1="266.6666666666667" y1="666.6666666666666" x2="311.11111111111114" y2="711.1111111111111"></line><line x1="311.11111111111114" y1="666.6666666666666" x2="355.5555555555556" y2="711.1111111111111"></line><line x1="355.5555555555556" y1="666.6666666666666" x2="400.00000000000006" y2="711.1111111111111"></line><line x1="400.00000000000006" y1="666.6666666666666" x2="444.4444444444445" y2="711.1111111111111"></line><line x1="444.4444444444445" y1="666.6666666666666" x2="488.88888888888897" y2="711.1111111111111"></line><line x1="488.88888888888897" y1="666.6666666666666" x2="533.3333333333334" y2="711.1111111111111"></line><line x1="533.3333333333334" y1="666.6666666666666" x2="577.7777777777778" y2="711.1111111111111"></line><line x1="577.7777777777778" y1="666.6666666666666" x2="622.2222222222223" y2="711.1111111111111"></line><line x1="622.2222222222223" y1="666.6666666666666" x2="666.6666666666667" y2="711.1111111111111"></line><line x1="666.6666666666667" y1="666.6666666666666" x2="711.1111111111112" y2="711.1111111111111"></line><line x1="711.1111111111112" y1="666.6666666666666" x2="755.5555555555557" y2="711.1111111111111"></line><line x1="755.5555555555557" y1="666.6666666666666" x2="800.0000000000001" y2="711.1111111111111"></line><line x1="800.0000000000001" y1="666.6666666666666" x2="844.4444444444446" y2="711.1111111111111"></line><line x1="0" y1="733.3333333333333" x2="44.44444444444444" y2="777.7777777777777"></line><line x1="44.44444444444444" y1="733.3333333333333" x2="88.88888888888889" y2="777.7777777777777"></line><line x1="88.88888888888889" y1="733.3333333333333" x2="133.33333333333331" y2="777.7777777777777"></line><line x1="133.33333333333331" y1="733.3333333333333" x2="177.77777777777777" y2="777.7777777777777"></line><line x1="177.77777777777777" y1="733.3333333333333" x2="222.22222222222223" y2="777.7777777777777"></line><line x1="222.22222222222223" y1="733.3333333333333" x2="266.6666666666667" y2="777.7777777777777"></line><line x1="266.6666666666667" y1="733.3333333333333" x2="311.11111111111114" y2="777.7777777777777"></line><line x1="311.11111111111114" y1="733.3333333333333" x2="355.5555555555556" y2="777.7777777777777"></line><line x1="355.5555555555556" y1="733.3333333333333" x2="400.00000000000006" y2="777.7777777777777"></line><line x1="400.00000000000006" y1="733.3333333333333" x2="444.4444444444445" y2="777.7777777777777"></line><line x1="444.4444444444445" y1="733.3333333333333" x2="488.88888888888897" y2="777.7777777777777"></line><line x1="488.88888888888897" y1="733.3333333333333" x2="533.3333333333334" y2="777.7777777777777"></line><line x1="533.3333333333334" y1="733.3333333333333" x2="577.7777777777778" y2="777.7777777777777"></line><line x1="577.7777777777778" y1="733.3333333333333" x2="622.2222222222223" y2="777.7777777777777"></line><line x1="622.2222222222223" y1="733.3333333333333" x2="666.6666666666667" y2="777.7777777777777"></line><line x1="666.6666666666667" y1="733.3333333333333" x2="711.1111111111112" y2="777.7777777777777"></line><line x1="711.1111111111112" y1="733.3333333333333" x2="755.5555555555557" y2="777.7777777777777"></line><line x1="755.5555555555557" y1="733.3333333333333" x2="800.0000000000001" y2="777.7777777777777"></line><line x1="800.0000000000001" y1="733.3333333333333" x2="844.4444444444446" y2="777.7777777777777"></line><line x1="0" y1="799.9999999999999" x2="44.44444444444444" y2="844.4444444444443"></line><line x1="44.44444444444444" y1="799.9999999999999" x2="88.88888888888889" y2="844.4444444444443"></line><line x1="88.88888888888889" y1="799.9999999999999" x2="133.33333333333331" y2="844.4444444444443"></line><line x1="133.33333333333331" y1="799.9999999999999" x2="177.77777777777777" y2="844.4444444444443"></line><line x1="177.77777777777777" y1="799.9999999999999" x2="222.22222222222223" y2="844.4444444444443"></line><line x1="222.22222222222223" y1="799.9999999999999" x2="266.6666666666667" y2="844.4444444444443"></line><line x1="266.6666666666667" y1="799.9999999999999" x2="311.11111111111114" y2="844.4444444444443"></line><line x1="311.11111111111114" y1="799.9999999999999" x2="355.5555555555556" y2="844.4444444444443"></line><line x1="355.5555555555556" y1="799.9999999999999" x2="400.00000000000006" y2="844.4444444444443"></line><line x1="400.00000000000006" y1="799.9999999999999" x2="444.4444444444445" y2="844.4444444444443"></line><line x1="444.4444444444445" y1="799.9999999999999" x2="488.88888888888897" y2="844.4444444444443"></line><line x1="488.88888888888897" y1="799.9999999999999" x2="533.3333333333334" y2="844.4444444444443"></line><line x1="533.3333333333334" y1="799.9999999999999" x2="577.7777777777778" y2="844.4444444444443"></line><line x1="577.7777777777778" y1="799.9999999999999" x2="622.2222222222223" y2="844.4444444444443"></line><line x1="622.2222222222223" y1="799.9999999999999" x2="666.6666666666667" y2="844.4444444444443"></line><line x1="666.6666666666667" y1="799.9999999999999" x2="711.1111111111112" y2="844.4444444444443"></line><line x1="711.1111111111112" y1="799.9999999999999" x2="755.5555555555557" y2="844.4444444444443"></line><line x1="755.5555555555557" y1="799.9999999999999" x2="800.0000000000001" y2="844.4444444444443"></line><line x1="800.0000000000001" y1="799.9999999999999" x2="844.4444444444446" y2="844.4444444444443"></line></g></svg>